<?xml version="1.0" encoding="UTF-8" standalone="no"?>
<!-- Created with Inkscape (http://www.inkscape.org/) -->

<svg
   xmlns:dc="http://purl.org/dc/elements/1.1/"
   xmlns:cc="http://creativecommons.org/ns#"
   xmlns:rdf="http://www.w3.org/1999/02/22-rdf-syntax-ns#"
   xmlns:svg="http://www.w3.org/2000/svg"
   xmlns="http://www.w3.org/2000/svg"
   xmlns:sodipodi="http://sodipodi.sourceforge.net/DTD/sodipodi-0.dtd"
   xmlns:inkscape="http://www.inkscape.org/namespaces/inkscape"
   width="70.846725mm"
   height="81.326996mm"
   viewBox="0 0 251.0317 288.16652"
   id="svg22901"
   version="1.1"
   inkscape:version="0.91 r13725"
   sodipodi:docname="apple-piggy.svg">
  <defs
     id="defs22903">
    <inkscape:path-effect
       end_linecap_type="butt"
       miter_limit="4"
       linejoin_type="extrp_arc"
       start_linecap_type="butt"
       interpolator_beta="0.2"
       interpolator_type="CubicBezierFit"
       sort_points="true"
       offset_points="2.9999096,1.2835635"
       is_visible="true"
       id="path-effect10788"
       effect="powerstroke" />
    <inkscape:path-effect
       end_linecap_type="butt"
       miter_limit="4.5"
       linejoin_type="round"
       start_linecap_type="butt"
       interpolator_beta="0.2"
       interpolator_type="Linear"
       sort_points="true"
       offset_points="3.5506572,0.98777117"
       is_visible="true"
       id="path-effect10812"
       effect="powerstroke" />
    <inkscape:path-effect
       effect="powerstroke"
       id="path-effect10816"
       is_visible="true"
       offset_points="0.13514838,0.23125831 | 1.9233596,0.71503157 | 3.9525396,0.19126432"
       sort_points="true"
       interpolator_type="CubicBezierFit"
       interpolator_beta="0.2"
       start_linecap_type="butt"
       linejoin_type="extrp_arc"
       miter_limit="4"
       end_linecap_type="butt" />
    <inkscape:path-effect
       end_linecap_type="butt"
       miter_limit="4"
       linejoin_type="extrp_arc"
       start_linecap_type="butt"
       interpolator_beta="0.2"
       interpolator_type="CubicBezierFit"
       sort_points="true"
       offset_points="0.13514838,0.23125831 | 1.9233596,0.71503157 | 3.9525396,0.19126432"
       is_visible="true"
       id="path-effect10820"
       effect="powerstroke" />
    <inkscape:path-effect
       end_linecap_type="butt"
       miter_limit="4"
       linejoin_type="extrp_arc"
       start_linecap_type="butt"
       interpolator_beta="0.2"
       interpolator_type="CubicBezierFit"
       sort_points="true"
       offset_points="0.14626936,0.88689727 | 5,0.5 | 9.9626833,1.28013"
       is_visible="true"
       id="path-effect10826"
       effect="powerstroke" />
    <inkscape:path-effect
       effect="powerstroke"
       id="path-effect10832"
       is_visible="true"
       offset_points="0.14626936,0.88689727 | 5,0.5 | 9.9626833,1.28013"
       sort_points="true"
       interpolator_type="CubicBezierFit"
       interpolator_beta="0.2"
       start_linecap_type="butt"
       linejoin_type="extrp_arc"
       miter_limit="4"
       end_linecap_type="butt" />
  </defs>
  <sodipodi:namedview
     id="base"
     pagecolor="#ffffff"
     bordercolor="#666666"
     borderopacity="1.0"
     inkscape:pageopacity="0.0"
     inkscape:pageshadow="2"
     inkscape:zoom="0.35"
     inkscape:cx="-2139.4842"
     inkscape:cy="1032.6547"
     inkscape:document-units="px"
     inkscape:current-layer="layer1"
     showgrid="false"
     fit-margin-top="0"
     fit-margin-left="0"
     fit-margin-right="0"
     fit-margin-bottom="0"
     inkscape:window-width="2560"
     inkscape:window-height="1403"
     inkscape:window-x="2560"
     inkscape:window-y="0"
     inkscape:window-maximized="1" />
  <metadata
     id="metadata22906">
    <rdf:RDF>
      <cc:Work
         rdf:about="">
        <dc:format>image/svg+xml</dc:format>
        <dc:type
           rdf:resource="http://purl.org/dc/dcmitype/StillImage" />
        <dc:title></dc:title>
      </cc:Work>
    </rdf:RDF>
  </metadata>
  <g
     inkscape:label="Layer 1"
     inkscape:groupmode="layer"
     id="layer1"
     transform="translate(-1954.4842,-1299.7075)">
    <g
       transform="matrix(0.9375,0,0,0.9375,1499.0995,762.99195)"
       style="display:inline"
       id="g22814">
      <path
         sodipodi:nodetypes="sscsscs"
         inkscape:connector-curvature="0"
         id="path10870"
         d="m 527.47858,811.58396 c -20.32742,-5.64393 -41.76163,-25.8787 -41.22507,-48.20912 0.37269,-15.5104 19.96235,-28.04047 32.18688,-21.7152 12.33348,-15.58188 42.74405,-17.30955 49.92303,6.5014 5.58458,18.52272 1.7105,34.20516 -10.8246,52.41057 -4.67293,6.78675 -9.87324,8.98381 -15.7014,-2.17073 -1.1312,11.19448 -9.01589,14.66656 -14.35884,13.18308 z"
         style="fill:none;fill-rule:evenodd;stroke:#000000;stroke-width:1px;stroke-linecap:butt;stroke-linejoin:miter;stroke-opacity:1" />
      <path
         sodipodi:nodetypes="ccccccc"
         inkscape:connector-curvature="0"
         id="path10879"
         d="m 518.05289,741.37183 c -2.01646,-4.02337 -4.52869,-10.26664 -6.91019,-13.69903 -1.29304,-2.37938 -7.76226,-8.46185 -6.10881,-10.81653 0.73742,-1.09009 1.41015,-2.29045 2.46504,-3.10795 1.35958,-0.52906 1.34499,1.49229 1.37272,2.366 -0.0848,1.42284 0.53552,2.75461 1.10606,4.02096 4.49312,6.34958 6.59481,14.18427 9.43648,20.06286"
         style="fill:none;fill-rule:evenodd;stroke:#000000;stroke-width:1px;stroke-linecap:butt;stroke-linejoin:miter;stroke-opacity:1" />
      <path
         sodipodi:nodetypes="ccccc"
         inkscape:connector-curvature="0"
         id="path10881"
         d="m 520.97075,713.24219 c 3.7308,-2.98282 7.16976,-6.04144 10.8425,-8.60249 10.58356,7.31295 -1.82569,27.32038 -9.57118,33.09976 -0.47675,0.64675 -1.2689,1.21668 -1.42178,0.74007 0.62264,-3.29641 -8.92702,-16.82143 0.15046,-25.23734 z"
         style="fill:none;fill-rule:evenodd;stroke:#000000;stroke-width:1px;stroke-linecap:butt;stroke-linejoin:miter;stroke-opacity:1" />
      <path
         sodipodi:nodetypes="ccc"
         inkscape:connector-curvature="0"
         id="path10883"
         d="m 522.1035,737.33061 c 0.0114,-3.46421 1.82593,-12.41651 3.03221,-15.31145 0.93991,-2.26561 2.14129,-4.42719 3.49694,-6.46545"
         style="fill:none;fill-rule:evenodd;stroke:#000000;stroke-width:1px;stroke-linecap:butt;stroke-linejoin:miter;stroke-opacity:1" />
      <path
         sodipodi:nodetypes="ccccsc"
         inkscape:connector-curvature="0"
         id="path10889"
         d="m 505.36614,799.62881 c -4.81888,10.98468 -11.27441,13.48297 -16.24112,24.43207 l 30.13074,-6.49198 8.95828,29.25544 c 10.36107,-11.74783 37.31926,-48.76617 49.64703,-58.2746 12.09765,-9.33094 16.79816,-25.43098 15.14833,-43.9525"
         style="fill:none;fill-rule:evenodd;stroke:#000000;stroke-width:2;stroke-linecap:butt;stroke-linejoin:miter;stroke-miterlimit:4;stroke-dasharray:none;stroke-opacity:1" />
      <path
         sodipodi:nodetypes="cccccc"
         inkscape:connector-curvature="0"
         id="path10893"
         d="m 694.19466,705.8583 c 39.89427,14.29408 40.84103,77.73911 50.76205,121.17839 l 7.04327,30.46332 -18,-11 -18.5,22.99999 c -8,-37.33333 -4.26092,-93.40574 -18,-124.99999"
         style="fill:none;fill-rule:evenodd;stroke:#000000;stroke-width:2;stroke-linecap:butt;stroke-linejoin:miter;stroke-miterlimit:4;stroke-dasharray:none;stroke-opacity:1" />
      <path
         sodipodi:nodetypes="cc"
         inkscape:connector-curvature="0"
         id="path13175"
         d="m 552.54258,816.40226 c -5.23358,-4.29154 -7.4744,-6.12683 -13.92455,-9.47212"
         style="fill:none;fill-rule:evenodd;stroke:#000000;stroke-width:1px;stroke-linecap:butt;stroke-linejoin:miter;stroke-opacity:1" />
      <path
         style="fill:none;fill-rule:evenodd;stroke:#000000;stroke-width:1px;stroke-linecap:butt;stroke-linejoin:miter;stroke-opacity:1"
         d="m 710.70487,836.40226 c 5.23358,-4.29154 27.9744,-5.12683 34.42455,-8.47212"
         id="path13183"
         inkscape:connector-curvature="0"
         sodipodi:nodetypes="cc" />
      <path
         sodipodi:nodetypes="cc"
         inkscape:connector-curvature="0"
         id="path13187"
         d="m 572.5623,793.16292 c -14.82685,19.29875 -14.37828,60.27143 -3.94811,80.14119"
         style="fill:none;fill-rule:evenodd;stroke:#000000;stroke-width:2;stroke-linecap:butt;stroke-linejoin:miter;stroke-miterlimit:4;stroke-dasharray:none;stroke-opacity:1" />
      <path
         sodipodi:nodetypes="cc"
         inkscape:connector-curvature="0"
         id="path13189"
         d="m 711.09443,836.39896 c -1.2694,32.81492 -8.46162,33.53999 -16.80002,42.80637"
         style="fill:none;fill-rule:evenodd;stroke:#000000;stroke-width:2;stroke-linecap:butt;stroke-linejoin:miter;stroke-miterlimit:4;stroke-dasharray:none;stroke-opacity:1" />
      <path
         sodipodi:nodetypes="cc"
         inkscape:connector-curvature="0"
         id="path13200"
         d="M 707.17938,797.01393 C 678.6338,790.18476 605.09274,778.66481 566.79386,802.91779"
         style="fill:none;fill-rule:evenodd;stroke:#000000;stroke-width:1px;stroke-linecap:butt;stroke-linejoin:miter;stroke-opacity:1" />
      <path
         sodipodi:nodetypes="cccc"
         inkscape:connector-curvature="0"
         id="path13196"
         d="m 606.67816,719.89216 c -5.4596,18.89524 -5.78299,79.54759 -5.07882,98.17416 l 20.03319,-3.56995 c -1.30875,-30.1639 -1.94375,-64.60834 -3.10609,-92.3282"
         style="fill:#ffffff;fill-rule:evenodd;stroke:#000000;stroke-width:1px;stroke-linecap:butt;stroke-linejoin:miter;stroke-opacity:1" />
      <path
         sodipodi:nodetypes="ccccc"
         inkscape:connector-curvature="0"
         id="path13198"
         d="m 664.14061,720.23921 c -1.57562,28.52358 -2.78615,69.3062 -1.6572,94.67975 l 18.14657,0.0748 c 3.67215,-13.97693 3.4971,-33.51131 2.43041,-44.68605 -1.61072,-14.20667 -0.96492,-40.46937 -3.80004,-54.49579"
         style="fill:#ffffff;fill-rule:evenodd;stroke:#000000;stroke-width:1px;stroke-linecap:butt;stroke-linejoin:miter;stroke-opacity:1" />
      <path
         style="display:inline;fill:#000000;fill-rule:evenodd;stroke:none;stroke-width:0.99999976px;stroke-linecap:butt;stroke-linejoin:miter;stroke-opacity:1"
         d="m 584.06771,618.95045 c -10.81952,7.38291 -16.69667,17.34635 -18.6489,28.23517 -1.94768,10.86343 0.0173,22.58953 4.72146,33.5505 9.38212,21.86095 29.86268,41.11296 53.03577,44.83345 16.57289,4.12366 34.09972,-0.60989 49.64568,-6.46004 0,0 0.0573,-0.0216 0.0573,-0.0216 0,0 0.055,-0.0269 0.055,-0.0269 13.82649,-6.76923 27.80798,-15.53901 36.38209,-28.9442 0,0 0.0432,-0.0677 0.0432,-0.0677 0,0 0.0344,-0.0722 0.0344,-0.0722 5.80846,-12.20184 7.33227,-22.84328 5.41174,-32.74247 -1.91079,-9.84896 -7.20263,-18.8144 -14.76811,-27.74439 -11.88753,-18.99854 -33.39547,-28.6418 -55.57663,-30.05335 -22.20348,-1.41297 -45.32796,5.40272 -60.5464,19.63657 z m 1.60026,1.99767 c 14.60309,-13.65829 36.98415,-20.32696 58.6298,-18.94949 21.63687,1.37692 42.29244,10.77383 53.61115,28.92946 0.0165,0.0265 0.033,0.053 0.0495,0.0796 0,0 0.061,0.0719 0.061,0.0719 7.44638,8.77517 12.46627,17.36752 14.26595,26.64381 1.79136,9.23338 0.42074,19.29327 -5.17501,31.07761 -8.12713,12.70648 -21.5496,21.21477 -35.25015,27.92751 -15.4818,5.82134 -32.36208,10.27579 -48.11569,6.33714 0,0 -0.0541,-0.0136 -0.0541,-0.0136 0,0 -0.0551,-0.009 -0.0551,-0.009 -22.12583,-3.5282 -42.00372,-22.04072 -51.13603,-43.3196 -4.55678,-10.6176 -6.3873,-21.81492 -4.54966,-32.07337 1.83308,-10.23305 7.32209,-19.58992 17.56501,-26.57938 z"
         id="path10786"
         inkscape:connector-curvature="0"
         sodipodi:nodetypes="cccccc"
         inkscape:path-effect="#path-effect10788"
         inkscape:original-d="m 584.79119,620.01069 c -42.12488,28.74472 -6.67951,97.07313 38.64204,104.30014 16.18096,4.0455 33.40626,-0.55841 48.93643,-6.40262 13.77305,-6.74307 27.48753,-15.38494 35.86519,-28.48299 11.43308,-24.01748 5.8075,-41.44737 -9.2367,-59.17618 -23.19588,-37.20707 -84.38543,-38.13049 -114.20696,-10.23835 z" />
      <g
         style="display:inline;stroke-width:1.07119215"
         transform="matrix(0.71467069,0.12414334,-0.11928952,0.68672812,359.06222,597.0658)"
         id="g10794">
        <path
           style="fill:#000000;fill-opacity:1;stroke:none;stroke-width:3.92057347;stroke-linecap:round;stroke-linejoin:round;stroke-miterlimit:4;stroke-dasharray:none;stroke-opacity:1"
           d="m 435.84522,-11.464801 c -0.45236,0.0759 -0.90225,0.179261 -1.34153,0.31456 -3.75277,1.3349389 -6.28766,4.1956723 -7.72306,7.168662 -1.90607,3.91464721 -2.88833,8.2973715 -1.44997,12.3587384 1.34065,3.8328816 5.52099,6.8217216 10.39411,7.6324456 3.34361,0.667006 7.11591,0.424073 10.09616,-1.125538 2.27502,-1.124605 3.8248,-3.008096 4.54389,-5.0281456 0.96971,-2.6237772 0.81899,-5.3865529 0.53329,-8.0598222 -0.55828,-4.1195323 -2.47108,-8.2395199 -6.19878,-11.1620282 -2.29675,-1.746686 -5.68767,-2.630129 -8.85411,-2.098872 z"
           id="path10796"
           inkscape:connector-curvature="0" />
        <path
           inkscape:connector-curvature="0"
           style="fill:#ffffff;fill-opacity:1;stroke:none;stroke-width:3.56410599;stroke-linecap:round;stroke-linejoin:round;stroke-miterlimit:4;stroke-dasharray:none;stroke-opacity:1"
           d="m 438.64621,-8.6605331 c 1.97598,-0.392536 4.11123,0.349336 5.57103,1.770692 3.26455,5.336169 0.72599,9.425252 -4.0134,9.228183 -3.88448,0.109168 -7.39099,-0.63164 -7.13789,-5.103876 0.86172,-2.364254 2.41324,-4.627282 4.74632,-5.656899 0.27337,-0.1037 0.55166,-0.182026 0.83394,-0.2381 z"
           id="path10798" />
        <path
           inkscape:connector-curvature="0"
           style="fill:#ffffff;fill-opacity:1;stroke:none;stroke-width:3.56410599;stroke-linecap:round;stroke-linejoin:round;stroke-miterlimit:4;stroke-dasharray:none;stroke-opacity:1"
           d="m 445.17092,4.0682939 c 0.63765,-0.2202872 1.34296,-0.1257229 1.77867,0.1716693 0.61748,0.4367862 0.89609,1.0922467 0.93531,1.7640608 0.0119,0.4368732 -0.002,0.8903475 -0.2112,1.3340826 -0.1565,0.3412963 -0.45684,0.6703849 -0.87577,0.8828093 -0.54992,0.2908478 -1.22078,0.3762656 -1.80294,0.3063809 -0.85079,-0.075267 -1.54797,-0.518701 -1.7298,-1.1339506 -0.19586,-0.6517111 0.0414,-1.3849607 0.43541,-2.052492 0.29706,-0.5068081 0.78678,-1.0078268 1.47032,-1.2725603 z"
           id="path10800" />
      </g>
      <g
         style="display:inline;stroke-width:1.07119215"
         transform="matrix(-0.71467069,-0.12414334,-0.11928952,0.68672812,919.67586,688.44182)"
         id="g10802">
        <path
           inkscape:connector-curvature="0"
           id="path10804"
           d="m 435.84522,-11.464801 c -0.45236,0.0759 -0.90225,0.179261 -1.34153,0.31456 -3.75277,1.3349389 -6.28766,4.1956723 -7.72306,7.168662 -1.90607,3.91464721 -2.88833,8.2973715 -1.44997,12.3587384 1.34065,3.8328816 5.52099,6.8217216 10.39411,7.6324456 3.34361,0.667006 7.11591,0.424073 10.09616,-1.125538 2.27502,-1.124605 3.8248,-3.008096 4.54389,-5.0281456 0.96971,-2.6237772 0.81899,-5.3865529 0.53329,-8.0598222 -0.55828,-4.1195323 -2.47108,-8.2395199 -6.19878,-11.1620282 -2.29675,-1.746686 -5.68767,-2.630129 -8.85411,-2.098872 z"
           style="fill:#000000;fill-opacity:1;stroke:none;stroke-width:3.92057347;stroke-linecap:round;stroke-linejoin:round;stroke-miterlimit:4;stroke-dasharray:none;stroke-opacity:1" />
        <path
           inkscape:connector-curvature="0"
           id="path10806"
           d="m 438.64621,-8.6605332 c 1.97598,-0.3925361 4.11123,0.3493364 5.57103,1.7706917 3.26455,5.3361696 0.72599,9.4252525 -4.0134,9.2281838 -3.88448,0.1091676 -7.39099,-0.6316404 -7.13789,-5.1038769 0.86172,-2.3642531 2.41324,-4.6272817 4.74632,-5.656899 0.27337,-0.1037 0.55166,-0.1820255 0.83394,-0.2380996 z"
           style="fill:#ffffff;fill-opacity:1;stroke:none;stroke-width:3.56410599;stroke-linecap:round;stroke-linejoin:round;stroke-miterlimit:4;stroke-dasharray:none;stroke-opacity:1" />
        <path
           inkscape:connector-curvature="0"
           id="path10808"
           d="m 445.17092,4.0682939 c 0.63765,-0.2202872 1.34296,-0.1257229 1.77867,0.1716693 0.61748,0.4367862 0.89609,1.0922467 0.93531,1.7640608 0.0119,0.4368732 -0.002,0.8903475 -0.2112,1.3340826 -0.1565,0.3412963 -0.45684,0.6703849 -0.87577,0.8828093 -0.54992,0.2908478 -1.22078,0.3762656 -1.80294,0.3063809 -0.85079,-0.075267 -1.54797,-0.518701 -1.7298,-1.1339506 -0.19586,-0.6517111 0.0414,-1.3849607 0.43541,-2.052492 0.29706,-0.5068081 0.78678,-1.0078268 1.47032,-1.2725603 z"
           style="fill:#ffffff;fill-opacity:1;stroke:none;stroke-width:3.56410599;stroke-linecap:round;stroke-linejoin:round;stroke-miterlimit:4;stroke-dasharray:none;stroke-opacity:1" />
      </g>
      <path
         inkscape:connector-curvature="0"
         d="m 625.93043,649.42618 c -10.36958,-1.31021 -20.72338,1.21338 -28.93009,6.08819 -3.29128,1.87356 -6.90215,4.41918 -8.06491,8.32661 l 0.004,-0.0122 c -1.5728,5.04575 0.44228,10.52826 3.71778,14.73665 2.32488,3.12159 5.11997,6.10508 8.37891,8.59952 2.65974,2.0358 5.63168,3.74825 8.91027,4.94139 8.55085,3.33447 18.28931,3.70345 26.67549,1.10395 7.51089,-2.24613 14.45683,-5.88041 20.0226,-10.7788 a 0.98777115,0.98777115 0 0 0 0.0677,-0.0655 c 1.8811,-2.00435 2.43508,-4.7212 2.30324,-7.18462 -0.1708,-3.02348 -1.57899,-5.91817 -3.58553,-8.31982 -6.22302,-8.23142 -15.99674,-14.57263 -26.77054,-16.93934 -0.90403,-0.19811 -1.8075,-0.35309 -2.70061,-0.492 z m -0.12382,-0.008 0,3e-5 a 0.14829249,1.9411534 0.05169815 0 0 -0.15181,1.96381 c 0.87475,0.13605 1.7336,0.28389 2.58085,0.46956 10.32931,2.26907 19.6982,8.3606 25.63227,16.2199 a 0.98354481,0.99234494 6.2408954 0 0 0.0311,0.0391 c 1.82315,2.17627 3.00269,4.68659 3.14349,7.17899 0.11336,2.11811 -0.37645,4.21434 -1.74015,5.69086 -5.31579,4.66754 -11.98453,8.1651 -19.25626,10.33976 -7.95941,2.46716 -17.24303,2.12205 -25.39252,-1.05865 a 0.98777113,0.98777111 0 0 0 -0.0217,-0.008 c -3.07136,-1.11642 -5.87184,-2.72595 -8.39528,-4.65742 -3.0935,-2.36782 -5.76574,-5.21583 -8.00148,-8.21909 a 0.99354933,0.9820778 8.0396398 0 0 -0.0131,-0.0172 c -3.07352,-3.94519 -4.69955,-8.76401 -3.39686,-12.94323 a 0.98777087,0.98777134 0 0 0 0.004,-0.0122 c 0.91837,-3.08616 3.86578,-5.30519 7.15654,-7.17764 a 0.98777158,0.98777166 0 0 0 0.0161,-0.009 c 7.85572,-4.66859 17.77362,-7.08312 27.6812,-5.83128 z"
         id="path10810"
         inkscape:original-d="m 625.80661,650.40616 c -10.14027,-1.28124 -20.27781,1.18886 -28.30966,5.96212 -3.29211,1.87322 -6.57374,4.25603 -7.61478,7.75443 -1.43828,4.6142 0.38418,9.76688 3.56066,13.84423 4.14223,5.56424 9.78102,10.64489 16.85164,13.21501 8.35147,3.25953 17.86484,3.61728 26.03467,1.08484 7.40439,-2.21433 14.2187,-5.7858 19.66247,-10.57682 1.6342,-1.74128 2.16024,-4.15564 2.03713,-6.45587 -0.15595,-2.76053 -1.45337,-5.46675 -3.37251,-7.7576 -6.07819,-8.05018 -15.65301,-14.27069 -26.20913,-16.58958 -0.8754,-0.19184 -1.75656,-0.34325 -2.64049,-0.48073 z"
         inkscape:path-effect="#path-effect10812"
         style="display:inline;fill:#000000;fill-rule:evenodd;stroke:none;stroke-width:3.61644793;stroke-linecap:butt;stroke-linejoin:miter;stroke-miterlimit:4;stroke-dasharray:none;stroke-opacity:1" />
      <path
         inkscape:original-d="m 641.46964,682.5267 c 2.73984,-1.43976 2.6421,-4.68689 2.85441,-7.21182 0.0188,-2.91372 -0.64213,-5.89614 -2.24682,-8.51001 -3.01288,-1.02165 -4.49148,4.9801 -5.06427,6.64806 -0.75111,3.74139 -0.82875,6.06858 0.57221,7.94022"
         inkscape:path-effect="#path-effect10816"
         sodipodi:nodetypes="ccccc"
         inkscape:connector-curvature="0"
         id="path10814"
         d="m 641.57722,682.73141 c 0.38829,-0.20404 0.71643,-0.45235 1.01274,-0.7116 0.80541,-0.70466 1.28219,-1.61831 1.58564,-2.60486 0.41103,-1.33632 0.50725,-2.83284 0.66819,-4.05637 0,0 -8e-5,6.1e-4 -8e-5,6.1e-4 0,0 0.002,-0.0409 0.002,-0.0409 0.12531,-2.76164 -0.36376,-5.65518 -1.78886,-8.24966 -0.12553,-0.21516 -0.2547,-0.42426 -0.3871,-0.62742 -0.0465,-0.0714 -0.0937,-0.1424 -0.14142,-0.21299 -0.0748,-0.0301 -0.15083,-0.0574 -0.22777,-0.0817 -1.07435,-0.339 -1.95501,0.0126 -2.59167,0.53529 -0.70072,0.57534 -1.21518,1.4371 -1.57673,2.18091 -0.85219,1.75322 -1.46083,4.27729 -1.50996,4.45599 0,0 -0.0139,0.0501 -0.0139,0.0501 0,0 -4.7e-4,0.003 -4.7e-4,0.003 -0.50865,2.94833 -0.40935,4.18481 -0.35472,4.76412 0.0425,0.45031 0.12022,0.91507 0.21809,1.31221 0.0909,0.36874 0.31137,1.19211 0.96089,2.05984 l 0.30624,-0.22922 c -0.60754,-0.81166 -0.80585,-1.56665 -0.88358,-1.92021 -0.0876,-0.39858 -0.12384,-0.79216 -0.1237,-1.24564 1.7e-4,-0.55854 0.0271,-1.69708 0.67931,-4.54435 0.0866,-0.25001 1.02031,-2.92847 1.71773,-4.19047 0.38119,-0.68977 0.83945,-1.33396 1.354,-1.70355 0.35665,-0.25616 0.71622,-0.36979 1.1273,-0.28381 0.0658,0.11981 0.13019,0.24153 0.19323,0.3652 1.27499,2.3339 1.90913,4.93829 1.9999,7.5558 l 0.002,-0.0403 c -0.0506,1.30285 -0.0132,2.68939 -0.29057,3.96933 -0.19961,0.92106 -0.56167,1.77136 -1.23815,2.44001 -0.25219,0.24927 -0.56126,0.45635 -0.91353,0.64147 l 0.21516,0.40942 z"
         style="display:inline;fill:#000000;fill-rule:evenodd;stroke:none;stroke-width:0.96759272px;stroke-linecap:butt;stroke-linejoin:miter;stroke-opacity:1" />
      <path
         style="display:inline;fill:#000000;fill-rule:evenodd;stroke:none;stroke-width:0.96759272px;stroke-linecap:butt;stroke-linejoin:miter;stroke-opacity:1"
         d="m 609.37281,678.22668 c 0.38828,-0.20404 0.71642,-0.45236 1.01274,-0.71161 0.8054,-0.70466 1.28217,-1.61831 1.58562,-2.60485 0.41103,-1.33633 0.50726,-2.83284 0.6682,-4.05637 0,0 -8e-5,6.1e-4 -8e-5,6.1e-4 0,0 0.002,-0.0409 0.002,-0.0409 0.1254,-2.76165 -0.36377,-5.65519 -1.78886,-8.24967 -0.12553,-0.21516 -0.2547,-0.42426 -0.38709,-0.62743 -0.0465,-0.0714 -0.0937,-0.1424 -0.14143,-0.21299 -0.0748,-0.0301 -0.15083,-0.0574 -0.22777,-0.0817 -1.07435,-0.33899 -1.95502,0.0126 -2.59167,0.53529 -0.70072,0.57534 -1.21519,1.43711 -1.57673,2.18092 -0.8522,1.75324 -1.46082,4.27728 -1.50997,4.45601 0,0 -0.0138,0.0501 -0.0138,0.0501 0,0 -4.7e-4,0.003 -4.7e-4,0.003 -0.50865,2.94832 -0.40935,4.1848 -0.35472,4.7641 0.0425,0.45031 0.12022,0.91508 0.21808,1.31222 0.0909,0.36873 0.31137,1.1921 0.96089,2.05984 l 0.30624,-0.22922 c -0.60754,-0.81166 -0.80585,-1.56666 -0.88357,-1.92022 -0.0876,-0.39857 -0.12384,-0.79215 -0.1237,-1.24564 1.7e-4,-0.55852 0.0271,-1.69708 0.67931,-4.54432 0.0866,-0.24998 1.02027,-2.92843 1.71772,-4.1905 0.38119,-0.68977 0.83946,-1.33397 1.35401,-1.70355 0.35664,-0.25617 0.71622,-0.3698 1.1273,-0.28382 0.0657,0.11981 0.13019,0.24153 0.19323,0.3652 1.275,2.33393 1.90922,4.93832 1.9999,7.5558 l 0.002,-0.0403 c -0.0506,1.30286 -0.0132,2.68939 -0.29057,3.96933 -0.19961,0.92106 -0.56167,1.77137 -1.23814,2.44002 -0.25219,0.24927 -0.56127,0.45635 -0.91353,0.64147 l 0.21516,0.40942 z"
         id="path10818"
         inkscape:connector-curvature="0"
         sodipodi:nodetypes="ccccc"
         inkscape:path-effect="#path-effect10820"
         inkscape:original-d="m 609.26523,678.02197 c 2.73982,-1.43978 2.64208,-4.68688 2.8544,-7.21183 0.0189,-2.91371 -0.64215,-5.89613 -2.24682,-8.51002 -3.01289,-1.02164 -4.49149,4.98011 -5.06427,6.64809 -0.75111,3.74137 -0.82875,6.06857 0.5722,7.94021" />
      <path
         style="display:inline;fill:none;fill-rule:evenodd;stroke:#000000;stroke-width:1px;stroke-linecap:butt;stroke-linejoin:miter;stroke-opacity:1"
         d="m 570.87796,585.02842 c -1.32306,-0.58573 -2.11063,1.09593 -2.16044,2.18397 0.1259,2.39004 1.4874,4.47848 2.02864,6.77657 1.07995,3.81692 1.78208,7.75698 1.97426,11.7214 0.0564,3.27541 0.21008,6.64365 1.45756,9.71553 0.42967,1.06525 1.90915,2.4051 3.06842,1.63337"
         id="path10822"
         inkscape:connector-curvature="0" />
      <path
         style="display:inline;fill:#000000;fill-rule:evenodd;stroke:none;stroke-width:1px;stroke-linecap:butt;stroke-linejoin:miter;stroke-opacity:1"
         d="m 599.54137,608.65468 c 0.63572,-0.68927 0.62323,-1.60149 0.43139,-2.38994 -0.0342,-0.14041 -0.0752,-0.28217 -0.12227,-0.42477 -0.22644,-0.68664 -0.60237,-1.43823 -1.06689,-2.21769 -1.11923,-1.87808 -2.86302,-4.09877 -4.70929,-6.27507 -1.85239,-2.18353 -3.84164,-4.36104 -5.46602,-6.1494 -0.81491,-0.89718 -1.53499,-1.69309 -2.10631,-2.34891 -0.58231,-0.66844 -0.97303,-1.15064 -1.15728,-1.43183 -2.66743,-4.07675 -6.64245,-7.56359 -9.5006,-11.1731 l 0.008,0.0108 c -0.22813,-0.28894 -0.47464,-0.55204 -0.73019,-0.75231 -0.24259,-0.19011 -0.56046,-0.37642 -0.91968,-0.39964 -0.42099,-0.0272 -0.77294,0.17744 -0.99497,0.51237 -0.15627,0.23574 -0.25189,0.53496 -0.30948,0.8709 -0.70981,0.40914 -1.38991,0.23407 -2.19142,-0.2763 -0.60773,-0.38697 -2.0359,-1.63292 -2.71938,-2.03794 -0.5102,-0.36938 -1.403,-1.20975 -2.08542,-1.51845 -0.192,-0.0869 -0.41397,-0.15731 -0.64673,-0.15679 -0.2481,5.6e-4 -0.49357,0.0828 -0.69669,0.27243 -0.35341,0.32991 -0.49139,0.90516 -0.52434,1.60913 -1.32167,4.12772 -1.83274,7.94594 -1.14169,11.56223 l -0.002,-0.0103 c 1.37414,7.64935 2.34584,12.46865 2.85979,18.34395 0,0 0.002,0.0239 0.002,0.0239 0,0 0.007,0.0428 0.007,0.0428 -0.0149,-0.0894 1.91658,16.00173 1.5976,13.77901 l -0.003,-0.0232 c 0.28291,2.65728 0.25791,3.34287 0.60398,5.02731 0.24246,1.18018 0.55656,2.05641 0.88308,2.74662 0.009,0.0196 0.0186,0.0391 0.028,0.0587 0.0224,0.0335 0.0448,0.067 0.067,0.10062 0.52642,0.7966 0.87743,1.42918 1.75829,2.97721 0.20336,0.35738 0.48074,0.84102 0.74981,1.27151 0.263,0.42077 0.62993,0.97462 1.03712,1.40436 l 1.85848,-1.76096 c -0.21851,-0.23061 -0.47161,-0.59652 -0.72534,-1.00157 -0.23975,-0.38276 -0.49294,-0.82163 -0.69958,-1.18187 -0.84577,-1.47447 -1.29342,-2.24692 -1.90701,-3.0835 -0.25273,-0.48879 -0.53248,-1.14505 -0.78174,-2.06498 -0.40485,-1.49419 -0.40239,-2.03569 -0.84505,-4.76679 -0.029,-0.17897 -0.0591,-0.35776 -0.0904,-0.53636 0.0283,0.17116 0.0573,0.34221 0.087,0.51314 0.67891,3.91017 -2.26827,-15.258 -1.97834,-13.75367 l 0.009,0.0666 c -0.63697,-5.96263 -1.7141,-10.83298 -3.21831,-18.42807 0,0 -0.002,-0.0107 -0.002,-0.0107 0,0 10e-5,4.4e-4 10e-5,4.4e-4 -0.73522,-3.32914 -0.37603,-6.95906 0.82112,-11.06128 0,0 0.0204,-0.0697 0.0204,-0.0697 3.6e-4,-0.0203 8.1e-4,-0.0407 0.001,-0.061 0.0197,-0.72521 0.15395,-0.94581 0.20256,-0.99442 0.005,-0.005 0.002,-0.008 0.025,-0.008 0.0379,-3.5e-4 0.11399,0.0128 0.23731,0.0691 0.56552,0.25789 1.20833,0.92613 1.91918,1.45397 0,0 0.0173,0.0128 0.0173,0.0128 0,0 0.0235,0.014 0.0235,0.014 1.00498,0.6045 1.4209,1.24265 2.66633,2.07484 1.02094,0.68219 2.28654,1.13069 3.64512,0.19337 0.0723,-0.0499 0.14273,-0.10229 0.21125,-0.15718 0.007,-0.0805 0.0165,-0.16076 0.0287,-0.24063 0.0564,-0.36952 0.14186,-0.54506 0.19018,-0.59507 -5.5e-4,5.6e-4 -0.003,0.0335 -0.10708,0.0532 -0.0247,0.005 0.0454,0.0234 0.18939,0.157 0.13691,0.12703 0.29711,0.31483 0.47028,0.56346 0,0 2.9e-4,4.2e-4 2.9e-4,4.2e-4 0,0 0.008,0.0104 0.008,0.0104 3.1183,4.07281 6.60642,7.05117 9.22962,11.19461 0.24873,0.40052 0.70436,0.96645 1.27425,1.63411 0.57836,0.67758 1.30391,1.49249 2.11106,2.39384 1.61892,1.80785 3.57418,3.97255 5.39234,6.13967 1.82405,2.17416 3.47766,4.31315 4.50635,6.06525 0.42669,0.72676 0.72739,1.35625 0.8926,1.87222 0.0333,0.10402 0.0606,0.20137 0.0822,0.29215 0.13595,0.57032 0.0177,0.74202 -0.009,0.7706 l 1.3039,1.20258 z"
         id="path10824"
         inkscape:connector-curvature="0"
         sodipodi:nodetypes="ccccccccccc"
         inkscape:path-effect="#path-effect10826"
         inkscape:original-d="m 598.88942,608.05339 c 2.64774,-2.87078 -12.49216,-17.47107 -14.22498,-20.20519 -2.64405,-4.10573 -6.375,-7.34212 -9.36354,-11.18139 -0.80193,-1.07319 -1.65508,-1.4764 -1.86715,0.15912 -2.1411,1.51036 -4.00392,-1.2167 -5.72195,-2.23066 -1.22109,-0.89002 -3.0871,-3.05115 -3.18103,-0.12881 -1.12215,3.65595 -1.77032,7.54402 -0.99078,11.34096 1.15268,6.10475 2.43695,12.19403 3.03905,18.38601 0.81909,4.56036 1.06412,9.19374 1.78797,13.76634 0.33285,2.4681 0.46075,5.10445 1.58478,7.35582 1.33194,1.89552 2.45478,4.42768 3.45822,5.48669" />
      <path
         inkscape:original-d="m 692.08911,619.71414 c -1.52459,-3.59555 20.20213,-9.18617 22.75546,-11.17575 3.87377,-2.97353 8.47757,-4.76212 12.58577,-7.36864 1.11688,-0.73987 2.0561,-0.83173 1.70411,0.77948 1.50633,2.14394 4.17974,0.20485 6.13901,-0.17034 1.44971,-0.42608 3.93526,-1.83132 3.03818,0.95151 -0.17657,3.82021 -0.87756,7.6991 -2.8919,11.01072 -3.14391,5.35841 -6.40645,10.65787 -9.06144,16.28408 -2.30904,4.01698 -4.10233,8.29629 -6.3258,12.35692 -1.14573,2.21125 -2.15522,4.65004 -3.97262,6.39046 -1.89315,1.3353 -3.8041,3.34047 -5.10593,3.99905"
         inkscape:path-effect="#path-effect10832"
         sodipodi:nodetypes="ccccccccccc"
         inkscape:connector-curvature="0"
         id="path10830"
         d="m 692.90564,619.36792 c -0.006,-0.014 -0.01,-0.0233 0.009,-0.0819 0.0257,-0.0783 0.09,-0.20896 0.26798,-0.40694 0.0576,-0.0641 0.12421,-0.13195 0.20038,-0.20346 0.37983,-0.35661 0.94917,-0.7538 1.6939,-1.18133 1.79325,-1.02946 4.38803,-2.11463 7.16247,-3.16875 2.77373,-1.05386 5.64981,-2.04879 8.04131,-2.92505 1.18734,-0.43504 2.25331,-0.84029 3.10678,-1.20293 0.82955,-0.35247 1.53361,-0.6928 1.95177,-1.02387 3.86224,-3.01249 8.15041,-4.64005 12.45954,-7.42268 0,0 0.011,-0.007 0.011,-0.007 0,0 4.1e-4,-2.9e-4 4.1e-4,-2.9e-4 0.24687,-0.17567 0.46102,-0.29843 0.63276,-0.37185 0.18065,-0.0772 0.25295,-0.0712 0.23128,-0.0839 -0.0914,-0.0537 -0.0825,-0.0855 -0.0829,-0.0863 0.0286,0.0634 0.0499,0.25744 -0.0217,0.62432 -0.0155,0.0793 -0.0335,0.15809 -0.0542,0.23621 0.046,0.0748 0.0947,0.14792 0.14588,0.21924 0.46112,0.64198 1.03146,0.9989 1.6628,1.13805 0.61586,0.13574 1.24861,0.0556 1.83402,-0.0908 1.45319,-0.36345 2.05982,-0.82392 3.20982,-1.05411 0,0 0.0268,-0.005 0.0268,-0.005 0,0 0.0206,-0.006 0.0206,-0.006 0.84721,-0.25719 1.67772,-0.6695 2.29711,-0.72157 0.13505,-0.0113 0.21114,0.002 0.2467,0.015 0.0219,0.008 0.018,0.01 0.0208,0.016 0.0294,0.0622 0.0813,0.3151 -0.14465,1.00448 -0.006,0.0193 -0.0128,0.0386 -0.0193,0.0579 0,0 -0.004,0.0724 -0.004,0.0724 -0.25647,4.26565 -1.14243,7.80404 -2.9573,10.69022 -3.98281,6.65186 -6.63931,10.87374 -9.24977,16.27224 l 0.0311,-0.0596 c 0.77815,-1.31486 -8.45649,15.72937 -6.50076,12.2808 0,0 0.0179,-0.0316 0.0179,-0.0316 0,0 -0.0289,0.0523 -0.0289,0.0523 -1.33788,2.42193 -1.51803,2.93234 -2.40314,4.20258 -0.54489,0.78199 -1.02956,1.30545 -1.43232,1.68039 -0.85977,0.58065 -1.54169,1.15688 -2.83514,2.25975 -0.61493,0.52432 -1.51158,1.28857 -2.07778,1.575 l 1.15574,2.28456 c 0.91678,-0.46379 2.0883,-1.49031 2.58466,-1.91651 1.35131,-1.1603 1.89506,-1.63744 2.65929,-2.20985 0.0323,-0.0242 0.0646,-0.0482 0.097,-0.0721 0.0154,-0.0152 0.0308,-0.0305 0.0462,-0.0458 0.54015,-0.53966 1.13133,-1.25863 1.75759,-2.2879 0.89392,-1.46917 1.10145,-2.1228 2.26402,-4.52911 l -0.011,0.0207 c -1.04856,1.98248 6.19361,-12.50974 6.15084,-12.43304 0,0 0.0211,-0.0379 0.0211,-0.0379 0,0 0.01,-0.0218 0.01,-0.0218 2.46519,-5.35776 5.00523,-9.56714 8.87849,-16.30493 1.86474,-3.1624 2.67123,-6.92927 2.81907,-11.26091 0.20638,-0.67384 0.27047,-1.26193 0.049,-1.6917 -0.12728,-0.24701 -0.33064,-0.40723 -0.56401,-0.49142 -0.21896,-0.079 -0.45168,-0.0875 -0.66173,-0.0705 -0.74656,0.0605 -1.87047,0.55054 -2.47536,0.72621 -0.77992,0.1508 -2.54477,0.84216 -3.24732,1.0015 -0.51646,0.11713 -0.95632,0.14348 -1.32692,0.0514 -0.29698,-0.0738 -0.57525,-0.22953 -0.82937,-0.52998 0.0591,-0.3358 0.0701,-0.64985 0.002,-0.92457 -0.0961,-0.3902 -0.35839,-0.70157 -0.76389,-0.81791 -0.34601,-0.0993 -0.7081,-0.0311 -1.00059,0.0661 -0.30813,0.10235 -0.62893,0.2669 -0.94114,0.46198 l 0.0114,-0.007 c -3.90796,2.43418 -8.82599,4.37625 -12.70737,7.31103 -0.22994,0.1717 -0.75311,0.43768 -1.59964,0.78762 -0.81785,0.33807 -1.85551,0.72387 -3.04068,1.14903 -2.35337,0.84422 -5.29118,1.84409 -8.07834,2.88634 -2.7854,1.04159 -5.4969,2.15276 -7.42798,3.24489 -0.80053,0.45274 -1.505,0.92315 -2.03148,1.40867 -0.10972,0.10118 -0.21359,0.20494 -0.31018,0.3113 -0.27533,0.30319 -0.5236,0.66267 -0.65015,1.06254 -0.13274,0.41944 -0.12784,0.87487 0.0568,1.31044 l 1.63306,-0.69244 z"
         style="display:inline;fill:#000000;fill-rule:evenodd;stroke:none;stroke-width:1px;stroke-linecap:butt;stroke-linejoin:miter;stroke-opacity:1" />
      <path
         style="display:inline;fill:none;fill-rule:evenodd;stroke:#000000;stroke-width:1px;stroke-linecap:butt;stroke-linejoin:miter;stroke-opacity:1"
         d="m 728.77433,610.53312 c 1.44316,-0.10522 1.61738,1.74351 1.29735,2.7846 -0.91956,2.21999 -2.9411,3.70701 -4.20436,5.71227 -2.70554,3.81174 -4.99376,7.9418 -6.58126,12.34558 -1.00966,2.45122 -4.09508,6.23797 -5.94486,8.16854"
         id="path10834"
         inkscape:connector-curvature="0"
         sodipodi:nodetypes="ccccc" />
      <path
         sodipodi:nodetypes="ccc"
         inkscape:connector-curvature="0"
         id="path10846"
         d="m 655.56304,704.40402 c 3.54932,-12.13343 9.85529,-9.76679 18.18373,-6.17746 2.56228,6.32389 -10.29901,3.45326 -18.18373,6.17746 z"
         style="fill:none;fill-rule:evenodd;stroke:#000000;stroke-width:0.99999988px;stroke-linecap:butt;stroke-linejoin:miter;stroke-opacity:1" />
      <path
         inkscape:connector-curvature="0"
         id="path10848"
         d="m 593.46217,625.63772 c 5.01082,-6.52894 11.67824,-14.39221 20.70285,-14.07467"
         style="fill:none;fill-rule:evenodd;stroke:#000000;stroke-width:4;stroke-linecap:butt;stroke-linejoin:miter;stroke-miterlimit:4;stroke-dasharray:none;stroke-opacity:1" />
      <path
         inkscape:connector-curvature="0"
         id="path10850"
         d="m 682.92691,641.90248 c -4.65117,-6.13327 -10.72435,-13.47313 -19.31405,-12.59312"
         style="fill:none;fill-rule:evenodd;stroke:#000000;stroke-width:4;stroke-linecap:butt;stroke-linejoin:miter;stroke-miterlimit:4;stroke-dasharray:none;stroke-opacity:1" />
      <path
         sodipodi:nodetypes="cc"
         inkscape:connector-curvature="0"
         id="path10891"
         d="M 559.04943,734.61412 C 560.94202,726.72759 585.0352,709 602.51591,716.79028"
         style="fill:none;fill-rule:evenodd;stroke:#000000;stroke-width:2;stroke-linecap:butt;stroke-linejoin:miter;stroke-miterlimit:4;stroke-dasharray:none;stroke-opacity:1" />
      <path
         style="fill:#ffffff;fill-opacity:1;stroke:#000000;stroke-width:1;stroke-linecap:round;stroke-linejoin:round;stroke-miterlimit:4;stroke-dasharray:none;stroke-opacity:1"
         d="m 612.7793,802.6582 c -1.53219,0.14073 -2.57777,1.58509 -2.99024,2.95703 -0.47608,1.80466 0.34612,3.9485 2.08849,4.7433 1.11361,0.65676 2.68606,0.56908 3.57434,-0.43074 1.05548,-0.94855 1.47656,-2.52483 1.03028,-3.8739 -0.37065,-1.69778 -1.83759,-3.05662 -3.52514,-3.40545 l -0.17773,0.01 z"
         id="path13225"
         inkscape:connector-curvature="0" />
      <path
         inkscape:connector-curvature="0"
         id="path13227"
         d="m 673.53519,800.6582 c 1.53219,0.14073 2.57777,1.58509 2.99024,2.95703 0.47608,1.80466 -0.34612,3.9485 -2.08849,4.7433 -1.11361,0.65676 -2.68606,0.56908 -3.57434,-0.43074 -1.05548,-0.94855 -1.47656,-2.52483 -1.03028,-3.8739 0.37065,-1.69778 1.83759,-3.05662 3.52514,-3.40545 l 0.17773,0.01 z"
         style="fill:#ffffff;fill-opacity:1;stroke:#000000;stroke-width:1;stroke-linecap:round;stroke-linejoin:round;stroke-miterlimit:4;stroke-dasharray:none;stroke-opacity:1" />
    </g>
  </g>
</svg>
