<?xml version="1.0" encoding="UTF-8" standalone="no"?>
<!-- Created with Inkscape (http://www.inkscape.org/) -->

<svg
   xmlns:dc="http://purl.org/dc/elements/1.1/"
   xmlns:cc="http://creativecommons.org/ns#"
   xmlns:rdf="http://www.w3.org/1999/02/22-rdf-syntax-ns#"
   xmlns:svg="http://www.w3.org/2000/svg"
   xmlns="http://www.w3.org/2000/svg"
   xmlns:sodipodi="http://sodipodi.sourceforge.net/DTD/sodipodi-0.dtd"
   xmlns:inkscape="http://www.inkscape.org/namespaces/inkscape"
   width="112.34117mm"
   height="74.151688mm"
   viewBox="0 0 398.05927 262.7422"
   id="svg16230"
   version="1.1"
   inkscape:version="0.91 r13725"
   sodipodi:docname="apt-building-straw.svg">
  <defs
     id="defs16232" />
  <sodipodi:namedview
     id="base"
     pagecolor="#ffffff"
     bordercolor="#666666"
     borderopacity="1.0"
     inkscape:pageopacity="0.0"
     inkscape:pageshadow="2"
     inkscape:zoom="0.35"
     inkscape:cx="754.02963"
     inkscape:cy="-397.20033"
     inkscape:document-units="px"
     inkscape:current-layer="layer1"
     showgrid="false"
     fit-margin-top="0"
     fit-margin-left="0"
     fit-margin-right="0"
     fit-margin-bottom="0"
     inkscape:window-width="2560"
     inkscape:window-height="1403"
     inkscape:window-x="2560"
     inkscape:window-y="0"
     inkscape:window-maximized="1" />
  <metadata
     id="metadata16235">
    <rdf:RDF>
      <cc:Work
         rdf:about="">
        <dc:format>image/svg+xml</dc:format>
        <dc:type
           rdf:resource="http://purl.org/dc/dcmitype/StillImage" />
        <dc:title></dc:title>
      </cc:Work>
    </rdf:RDF>
  </metadata>
  <g
     inkscape:label="Layer 1"
     inkscape:groupmode="layer"
     id="layer1"
     transform="translate(939.02963,104.72318)">
    <g
       transform="matrix(0.9375,0,0,0.9375,-984.37358,-275.8821)"
       style="display:inline"
       id="g16149">
      <path
         sodipodi:nodetypes="cccccccccccccccccc"
         inkscape:connector-curvature="0"
         id="path7753"
         d="m 331.27953,220.14775 -79.48886,35.23401 40.50789,-12.26345 -12.63783,12.73833 44.54774,-21.92031 -27.22362,24.39518 38.18376,-23.68808 -9.19238,24.04164 19.09188,-30.4056 22.62742,29.34494 -11.66727,-24.39519 35.35534,23.33453 -26.16294,-24.04163 44.35102,23.74873 -16.53732,-14.33452 46.6188,11.67767 -86.45332,-33.1127 z"
         style="fill:none;fill-rule:evenodd;stroke:#000000;stroke-width:1px;stroke-linecap:butt;stroke-linejoin:miter;stroke-opacity:1" />
      <path
         inkscape:connector-curvature="0"
         id="path7755"
         d="m 259.86174,250.90689 0.35356,50.91169 7.42462,-17.32412 3.53553,20.5061 3.18198,-16.26346 6.71752,17.32412 6.0104,-19.09188 1.76777,16.26345 6.36396,-13.43503 1.41421,20.5061 8.83884,-28.63782 1.41421,21.92031 4.5962,-19.09189 4.59619,17.32412 2.47488,-20.85965 8.13172,23.33452 0,-46.66904"
         style="fill:none;fill-rule:evenodd;stroke:#000000;stroke-width:1px;stroke-linecap:butt;stroke-linejoin:miter;stroke-opacity:1" />
      <path
         inkscape:connector-curvature="0"
         id="path7757"
         d="m 331.27953,220.5013 0.7071,-3.88909 22.98097,0.70711 0,2.82843"
         style="fill:none;fill-rule:evenodd;stroke:#000000;stroke-width:1px;stroke-linecap:butt;stroke-linejoin:miter;stroke-opacity:1" />
      <path
         inkscape:connector-curvature="0"
         id="path7759"
         d="m 353.90694,216.25866 9.8995,-10.6066 -11.66726,6.71751 3.18198,-13.43503 -6.36396,14.49569 -2.12132,-13.43503 -2.12132,14.14214 -3.53554,-14.84924 -0.7071,14.84924 -8.13173,-14.49569 2.47487,12.72792 -13.78858,-8.83883 11.31371,13.08147"
         style="fill:none;fill-rule:evenodd;stroke:#000000;stroke-width:1px;stroke-linecap:butt;stroke-linejoin:miter;stroke-opacity:1" />
      <path
         inkscape:connector-curvature="0"
         id="path7761"
         d="m 326.68333,294.39396 5.65686,10.25305 1.76776,-18.38478 1.76777,18.03122 4.5962,-16.26345 3.53553,13.78858 4.24264,-13.08148 2.12132,12.37437 3.88909,-14.14213 3.18198,16.61701 2.82843,-15.2028 3.53553,15.9099 5.65685,-20.85965 2.47488,16.61701 2.82842,-10.6066 6.01041,13.78858 c 0,0 1.76777,-2.12132 2.12132,-12.02081 0.35356,-9.8995 0,-41.7193 0,-41.7193"
         style="fill:none;fill-rule:evenodd;stroke:#000000;stroke-width:1px;stroke-linecap:butt;stroke-linejoin:miter;stroke-opacity:1" />
      <path
         inkscape:connector-curvature="0"
         id="path7763"
         d="m 382.89832,295.10106 3.88909,9.8995 1.41421,-15.55635 4.24264,14.14214 3.53554,-12.37437 2.47487,11.66726 3.18198,-15.2028 2.47488,14.14214 3.53553,-8.83884 5.65685,13.43503 0.35356,-16.26345 9.19239,15.20279 3.18198,-55.86143"
         style="fill:none;fill-rule:evenodd;stroke:#000000;stroke-width:1px;stroke-linecap:butt;stroke-linejoin:miter;stroke-opacity:1" />
      <path
         inkscape:connector-curvature="0"
         id="path7765"
         d="m 276.83231,263.28126 0.7071,16.97056 2.47488,-3.53553 1.76776,4.94975 2.12132,-7.07107 3.88909,5.65685 1.41421,-2.47487 1.41422,2.82843 3.53553,-6.71752 1.76777,9.8995 3.18198,-20.85965 -6.71752,2.47487 -1.41421,-6.71751 -4.24264,6.71751 -5.3033,-4.24264 -1.76777,4.94975 -2.82842,-7.07107 z"
         style="fill:none;fill-rule:evenodd;stroke:#000000;stroke-width:1px;stroke-linecap:butt;stroke-linejoin:miter;stroke-opacity:1" />
      <path
         inkscape:connector-curvature="0"
         id="path7767"
         d="m 339.0577,263.28126 -1.06066,17.32412 4.5962,-4.24265 1.06066,4.24265 1.76776,-3.88909 3.88909,4.24264 1.76777,-7.07107 3.88908,7.42462 2.12132,-3.53553 3.53554,4.24264 1.06066,-3.88909 1.76777,1.76777 0.35355,-21.2132 -5.65686,6.71751 -0.7071,-4.59619 -3.53554,3.53553 -4.94974,-3.53553 -0.35356,4.24264 -4.94974,-5.3033 -1.06066,4.94974 -2.82843,-6.36396 z"
         style="fill:none;fill-rule:evenodd;stroke:#000000;stroke-width:1px;stroke-linecap:butt;stroke-linejoin:miter;stroke-opacity:1" />
      <path
         style="fill:none;fill-rule:evenodd;stroke:#000000;stroke-width:1px;stroke-linecap:butt;stroke-linejoin:miter;stroke-opacity:1"
         d="m 415.22819,263.28126 -0.7071,16.97056 -2.47488,-3.53553 -1.76776,4.94975 -2.12132,-7.07107 -3.88909,5.65685 -1.41421,-2.47487 -1.41422,2.82843 -3.53553,-6.71752 -1.76777,9.8995 -3.18198,-20.85965 6.71752,2.47487 1.41421,-6.71751 4.24264,6.71751 5.3033,-4.24264 1.76777,4.94975 2.82842,-7.07107 z"
         id="path7769"
         inkscape:connector-curvature="0" />
      <path
         inkscape:connector-curvature="0"
         id="path7773"
         d="m 264,293.75 -4.5,57 10,-17.25 1.75,19.75 4.5,-14.75 2.75,13.5 5.25,-17.5 2.25,17.5 6.5,-16.5 2.25,15.25 4.75,-14.75 4,18 3.75,-18.5 5.5,16.5 6.5,-14.75 3.75,15.75 7.25,-17.5 3.25,11.75 5.5,-14.5 6,14.5 8,-8.25 3.75,10.5 6.25,-11.75 4,14 4.75,-15.25 8.25,13.25 1,-47.5"
         style="fill:none;fill-rule:evenodd;stroke:#000000;stroke-width:1px;stroke-linecap:butt;stroke-linejoin:miter;stroke-opacity:1" />
      <path
         inkscape:connector-curvature="0"
         id="path7775"
         d="m 319,336.5 -1.25,-48"
         style="fill:none;fill-rule:evenodd;stroke:#000000;stroke-width:1px;stroke-linecap:butt;stroke-linejoin:miter;stroke-opacity:1" />
      <path
         sodipodi:nodetypes="ccccccccccc"
         inkscape:connector-curvature="0"
         id="path7777"
         d="m 380.5,337.25 8.25,11.25 6.5,-12.5 3,11.25 3.5,-11.5 7.75,13.5 2.75,-11.75 3.5,12.75 4,-11.5 6,10.75 -5,-47"
         style="fill:none;fill-rule:evenodd;stroke:#000000;stroke-width:1px;stroke-linecap:butt;stroke-linejoin:miter;stroke-opacity:1" />
      <path
         style="fill:none;fill-rule:evenodd;stroke:#000000;stroke-width:0.99999994px;stroke-linecap:butt;stroke-linejoin:miter;stroke-opacity:1"
         d="m 279.73299,327.93548 -0.95518,-15.59959 4.13912,3.82032 0.95518,-3.82032 1.59196,3.50195 3.50233,-3.8203 1.59197,6.36718 3.50232,-6.68554 1.91036,3.18359 3.18394,-3.82031 0.95518,3.50195 1.59197,-1.59179 0.31839,19.10152 -5.0943,-6.04881 -0.63678,4.13866 -3.18394,-3.18359 -4.4575,3.18359 -0.3184,-3.82031 -4.4575,4.77538 -0.95518,-4.45701 -2.54715,5.73046 z"
         id="path7779"
         inkscape:connector-curvature="0" />
      <path
         inkscape:connector-curvature="0"
         id="path7781"
         d="m 415.01361,327.93548 0.95518,-15.59959 -4.13912,3.82032 -0.95518,-3.82032 -1.59196,3.50195 -3.50233,-3.8203 -1.59197,6.36718 -3.50232,-6.68554 -1.91036,3.18359 -3.18394,-3.82031 -0.95518,3.50195 -1.59197,-1.59179 -0.31839,19.10152 5.0943,-6.04881 0.63678,4.13866 3.18394,-3.18359 4.4575,3.18359 0.3184,-3.82031 4.4575,4.77538 0.95518,-4.45701 2.54715,5.73046 z"
         style="fill:none;fill-rule:evenodd;stroke:#000000;stroke-width:0.99999994px;stroke-linecap:butt;stroke-linejoin:miter;stroke-opacity:1" />
      <path
         inkscape:connector-curvature="0"
         id="path7783"
         d="m 361.22819,329.97004 -0.7071,-16.97056 -2.47488,3.53553 -1.76776,-4.94975 -2.12132,7.07107 -3.88909,-5.65685 -1.41421,2.47487 -1.41422,-2.82843 -3.53553,6.71752 -1.76777,-9.8995 -3.18198,20.85965 6.71752,-2.47487 1.41421,6.71751 4.24264,-6.71751 5.3033,4.24264 1.76777,-4.94975 2.82842,7.07107 z"
         style="fill:none;fill-rule:evenodd;stroke:#000000;stroke-width:1px;stroke-linecap:butt;stroke-linejoin:miter;stroke-opacity:1" />
      <path
         inkscape:connector-curvature="0"
         id="path7785"
         d="m 262.25,345.5 -4.25,43.75 5.75,-8 2.5,9.25 5.5,-12.5 5.5,10.5 3.75,-9.25 5.25,11 4.75,-11.75 5.5,10.75 3.5,-10.25 7.25,10.75 2.25,-11.75 4.25,11.5 6.5,-49"
         style="fill:none;fill-rule:evenodd;stroke:#000000;stroke-width:1px;stroke-linecap:butt;stroke-linejoin:miter;stroke-opacity:1" />
      <path
         inkscape:connector-curvature="0"
         id="path7787"
         d="m 315,382 5.25,8.25 2.75,-8.5 4,7 5.5,-8.75 3.75,10 4.25,-9.25 2,8.75 5.5,-8 4.5,10.75 4,-11.75 5,11 2.5,-12.75 4.25,11.5 3.75,-8.25 6,9.25 0.25,-45.25"
         style="fill:none;fill-rule:evenodd;stroke:#000000;stroke-width:1px;stroke-linecap:butt;stroke-linejoin:miter;stroke-opacity:1" />
      <path
         inkscape:connector-curvature="0"
         id="path7789"
         d="m 378.5,383 4.75,6.75 2.5,-8.75 3.5,9.75 3,-11.75 4,11.5 3.75,-11.25 5.25,10.25 3,-8.5 5.25,9.25 1.25,-8.5 6,9.5 1.75,-48.75"
         style="fill:none;fill-rule:evenodd;stroke:#000000;stroke-width:1px;stroke-linecap:butt;stroke-linejoin:miter;stroke-opacity:1" />
      <path
         style="fill:none;fill-rule:evenodd;stroke:#000000;stroke-width:1px;stroke-linecap:butt;stroke-linejoin:miter;stroke-opacity:1"
         d="m 278.08231,372.72004 0.7071,-16.97056 2.47488,3.53553 1.76776,-4.94975 2.12132,7.07107 3.88909,-5.65685 1.41421,2.47487 1.41422,-2.82843 3.53553,6.71752 1.76777,-9.8995 3.18198,20.85965 -6.71752,-2.47487 -1.41421,6.71751 -4.24264,-6.71751 -5.3033,4.24264 -1.76777,-4.94975 -2.82842,7.07107 z"
         id="path7791"
         inkscape:connector-curvature="0" />
      <path
         inkscape:connector-curvature="0"
         id="path7793"
         d="m 415.22819,369.97004 -0.7071,-16.97056 -2.47488,3.53553 -1.76776,-4.94975 -2.12132,7.07107 -3.88909,-5.65685 -1.41421,2.47487 -1.41422,-2.82843 -3.53553,6.71752 -1.76777,-9.8995 -3.18198,20.85965 6.71752,-2.47487 1.41421,6.71751 4.24264,-6.71751 5.3033,4.24264 1.76777,-4.94975 2.82842,7.07107 z"
         style="fill:none;fill-rule:evenodd;stroke:#000000;stroke-width:1px;stroke-linecap:butt;stroke-linejoin:miter;stroke-opacity:1" />
      <path
         inkscape:connector-curvature="0"
         id="path7795"
         d="m 331.5,380.5 -2,-28.5 33,0 -4,32.25"
         style="fill:none;fill-rule:evenodd;stroke:#000000;stroke-width:1px;stroke-linecap:butt;stroke-linejoin:miter;stroke-opacity:1" />
      <g
         transform="translate(1.3713203,40.37132)"
         id="g7398">
        <path
           style="fill:#000000;fill-rule:evenodd;stroke:none;stroke-width:1px;stroke-linecap:butt;stroke-linejoin:miter;stroke-opacity:1"
           d="m 164.11123,290.41564 c -1.32457,-3.46057 -2.46836,-11.50356 -0.47704,-12.81981 2.1166,4.3778 6.22248,10.96515 11.04542,10.88037 5.61504,-2.95076 12.67449,4.09249 15.14315,-4.48877 2.6398,-2.2998 4.56455,-13.08581 5.1089,-4.24701 0.7662,7.0546 -0.67997,14.65607 -5.61041,20.00647 4.39876,2.59347 -4.88105,11.01833 2.26287,7.37963 6.33955,-2.15831 10.9627,4.13543 14.23795,8.514 2.79712,4.30311 2.70106,10.03184 6.92328,13.4541 3.83749,6.02301 8.27264,9.59411 14.65769,10.9646 2.84601,-0.73552 13.81419,2.42927 11.46968,2.84335 -2.18733,-1.87979 -11.06508,-2.5467 -3.38768,-1.36391 2.55335,-0.0382 7.72909,7.76781 2.28148,3.59977 -2.66483,-0.0117 -9.35524,-3.52075 -4.30543,0.92254 1.78173,2.23832 2.20864,12.00809 -0.65545,5.24584 -1.73239,-2.38571 -8.89256,-9.92411 -6.31164,-2.00043 0.88842,5.50882 -2.73939,-4.7317 -5.73673,-4.8425 -5.85145,-3.50563 -10.34505,-8.49497 -14.646,-13.73431 -3.06979,-2.85449 -8.21223,-14.29493 -10.94317,-5.0014 -2.20033,7.99757 -7.48845,14.62456 -11.03319,21.95591 -0.43302,5.96332 3.77496,11.11531 6.91103,15.83265 3.45285,5.84978 9.95948,9.09575 13.34502,14.95442 -1.10264,6.96006 -4.9992,13.48077 -8.39647,19.6799 -3.41574,7.6723 6.86112,-0.29385 10.07221,-0.59046 3.6742,-2.35297 6.57053,3.87359 7.77947,6.53798 -6.07981,0.41429 -11.2677,4.37571 -17.25924,5.37922 -7.52797,3.46253 -7.96521,-8.01377 -5.60218,-12.46609 1.12269,-5.75128 4.41132,-12.0664 2.09168,-17.88187 -2.27461,-5.91086 -8.59441,-8.89785 -11.88449,-13.99411 -2.56576,-3.97431 -6.09394,-11.83617 -10.6467,-5.69301 -5.52007,4.61768 -11.31286,9.28968 -14.49424,15.90631 -4.70385,4.72507 -1.43538,11.8581 -1.74744,17.75349 0.28911,4.44724 3.61221,10.19304 2.08944,13.91134 -5.30205,-3.88721 -11.56528,-5.28461 -18.02984,-5.84273 -5.34449,0.62996 -8.16173,-7.70801 -1.46786,-6.94052 5.56878,0.11781 10.02821,4.26392 14.82508,6.09888 0.64359,-3.29406 -4.25114,-8.21706 -5.12798,-12.31839 -3.63798,-5.61039 -5.76988,-12.66786 0.6389,-17.44405 3.99801,-3.42089 6.42953,-8.18441 10.28704,-11.77081 2.34973,-4.07958 4.47733,-8.36216 5.65123,-12.96618 -0.4902,-5.63811 -0.57553,-16.24319 -2.87953,-21.36506 -4.3767,-3.87717 -11.66659,9.87453 -15.82143,12.21338 -4.06758,1.29638 -9.16328,10.60756 -10.69224,9.38343 3.81454,-4.53068 -1.75771,-7.28082 -4.01207,-3.1958 -0.99396,3.08253 -4.37357,8.1429 -6.94773,8.41643 -0.0257,-3.3828 5.74109,-8.48067 3.67534,-10.68117 -2.13275,2.11441 -9.46655,9.59799 -6.13188,5.11202 -0.11626,-5.14839 7.5893,-7.81973 5.95263,-8.44706 -3.29558,-1.75917 -13.65766,4.60456 -7.86981,-2.5713 3.55123,0.0338 9.75718,-3.33754 13.38866,-0.36733 4.82654,2.24677 8.82965,-4.13019 12.69673,-6.3306 4.89255,-3.87119 8.04194,-8.27324 10.43471,-13.92822 3.1196,-5.34008 9.66638,-7.06157 14.22484,-4.91725 1.01425,-3.07706 0.70308,-1.00376 0.3852,-3.76918 -4.58541,-3.34305 -0.73005,-10.22838 -5.46176,-14.9667 z"
           id="path7390"
           inkscape:connector-curvature="0"
           sodipodi:nodetypes="ccccccccccccccccccccccccccccscccccccccccccccccccccccccc" />
        <path
           style="fill:#000000;fill-rule:evenodd;stroke:none;stroke-width:1px;stroke-linecap:butt;stroke-linejoin:miter;stroke-opacity:1"
           d="m 162.03181,350.05033 c -4.28262,-2.1833 -9.50473,-2.12765 -13.74367,0.13134 -7.5092,3.77694 -14.43506,8.56646 -21.31403,13.36817 -3.55307,2.78218 -7.94026,4.15747 -12.38012,4.63093 -2.95967,0.39272 -5.9312,0.84484 -8.92686,0.71505 1.6937,0.59539 4.31162,2.37992 1.06418,3.03725 -5.57593,2.34907 -10.101943,6.45365 -14.259814,10.73639 2.43777,-0.70652 6.033168,-2.90194 8.521854,-2.02735 -3.138005,2.63348 -4.325447,6.77311 -5.714986,10.47759 -1.1771,3.3363 1.803877,-1.50963 3.184159,-1.78047 3.529487,-2.43079 7.687657,-3.79231 11.217897,-6.19516 0.97601,-1.17998 2.53142,-2.84149 2.11599,-0.0564 0.68985,1.44241 -1.74986,5.47591 -1.12637,5.04398 2.94938,-2.57656 5.06777,-6.02356 8.21985,-8.36766 -0.21843,1.50781 0.95666,6.43643 2.32109,2.74036 2.46638,-3.27611 5.16849,-6.35897 8.08501,-9.24011 2.31924,-2.86013 4.42524,-6.02825 7.69224,-7.9154 2.51796,-2.40945 5.54171,-4.10651 8.31184,-6.18321 3.10337,-2.32847 6.4396,-4.43948 10.07533,-5.77547 2.221,-0.92832 5.90173,-0.79354 7.10909,-2.65681 -1.26746,-1.92051 0.60898,1.03848 0.11016,-1.29296"
           id="path7393"
           inkscape:connector-curvature="0" />
      </g>
      <path
         sodipodi:nodetypes="cssc"
         inkscape:connector-curvature="0"
         id="path7402"
         d="m 331.27953,382.42875 c 0,0 3.18198,10.25306 -2.47488,14.84925 -2.82842,2.29809 -37.56504,16.88217 -97.40395,25.94197 -59.83892,9.05981 -144.780119,12.59534 -144.780119,12.59534"
         style="fill:none;fill-rule:evenodd;stroke:#000000;stroke-width:1px;stroke-linecap:butt;stroke-linejoin:miter;stroke-opacity:1" />
      <path
         sodipodi:nodetypes="csc"
         inkscape:connector-curvature="0"
         id="path7404"
         d="m 357.44248,382.0752 c 0,0 8.38503,21.43898 -3.53554,30.40559 -31.02469,23.33665 -64.59634,45.18024 -101.46982,49.85103"
         style="fill:none;fill-rule:evenodd;stroke:#000000;stroke-width:1px;stroke-linecap:butt;stroke-linejoin:miter;stroke-opacity:1" />
      <path
         sodipodi:nodetypes="cssssc"
         inkscape:connector-curvature="0"
         id="path7408"
         d="m 166,384.75 c 0,0 -17.75,-5.75 -19,-5.5 -1.25,0.25 -10.03064,3.83301 -17.75,6.5 -6.22841,2.15188 -15.5,4 -19.5,3.25 -4,-0.75 -15,-14.25 -24.5,-15 -3.001061,-0.23693 -27.5,8.75 -27.5,8.75"
         style="fill:none;fill-rule:evenodd;stroke:#000000;stroke-width:1px;stroke-linecap:butt;stroke-linejoin:miter;stroke-opacity:1" />
      <path
         sodipodi:nodetypes="ccccc"
         inkscape:connector-curvature="0"
         id="path7410"
         d="m 185.5,380 c 0,0 9,-4.25 11.5,-3.5 6.60212,4.74568 11.97091,5.31649 17.5,4 1.75,-0.25 22.5,-11.25 24.75,-10.75 18.16391,-2.74512 9.36846,4.28554 19.25,7.25"
         style="fill:none;fill-rule:evenodd;stroke:#000000;stroke-width:1px;stroke-linecap:butt;stroke-linejoin:miter;stroke-opacity:1" />
      <path
         sodipodi:nodetypes="ccccccccccccccccccccccccccccccccccc"
         inkscape:connector-curvature="0"
         id="path7414"
         d="m 74.356358,302.74825 c -3.377974,-1.37892 1.368878,-7.93257 -0.796791,-3.15948 -4.555736,5.0126 -11.506126,0.0836 -11.511927,-5.75189 -0.271444,-2.25066 -1.13482,-8.93236 1.362711,-8.2868 -3.754531,1.78449 -8.298473,-2.80845 -8.990965,-6.56389 -1.698229,-5.85454 3.941863,-11.66025 9.687182,-11.57483 -4.877816,-0.55724 1.400155,-6.71172 4.411133,-5.45111 -7.213362,1.65154 -16.713193,-1.86578 -18.076979,-9.88436 -1.671409,-2.52698 3.916063,-5.67852 2.681275,-4.3298 -4.708208,-2.69468 -5.943394,-10.82867 -1.488079,-14.25863 1.762143,-2.52773 8.051172,1.27431 3.289927,-0.77691 -3.146396,-4.64358 1.088764,-10.20097 5.060374,-12.73802 5.165443,-3.44622 11.652334,-6.63967 17.974803,-4.92351 3.463893,1.01753 -0.05393,4.36694 0.609135,0.35296 2.640893,-6.63331 12.982368,-7.16409 17.367743,-2.07002 2.83344,1.81828 -2.37282,7.79716 0.93387,3.31556 3.42928,-3.22192 8.97571,-6.72899 13.61417,-3.96459 5.15096,4.42757 4.76091,12.52823 2.01268,18.17602 3.62408,-0.48902 8.9342,-2.84922 12.42962,0.39783 3.7114,3.43249 2.24887,10.4322 -2.54087,11.96981 3.1993,-3.44638 9.69129,-1.81148 10.30613,3.02351 0.88544,5.3621 -3.20865,9.84212 -6.75993,13.24342 4.55539,-2.82575 14.12847,-2.74213 13.43499,4.61774 -1.81243,3.5448 -0.63568,5.5797 3.33033,4.23678 6.78904,-1.89296 13.82425,5.24614 9.2064,11.63454 -3.21645,5.4045 -8.19615,11.1327 -14.87641,11.66686 -2.45386,1.07947 -6.05643,-4.29077 -3.51123,0.0799 1.94642,5.5754 -1.64495,13.98099 -8.46449,12.61348 -2.92603,-2.09961 -4.60127,-1.64577 -5.39222,2.06046 -3.3106,4.94981 -10.55834,1.66633 -11.90815,-3.26676 -0.37804,4.76714 -4.16807,9.95231 -9.39783,9.52166 -3.40244,0.23383 -6.2226,-5.98575 -4.47559,-7.15838 0.82284,6.7172 -7.85264,8.59103 -7.040509,1.13851 1.550279,-2.33201 -0.436017,-0.66342 -0.752491,-1.99243 -2.542762,2.60306 -8.307493,0.91151 -11.728012,-1.89763 z"
         style="fill:none;fill-rule:evenodd;stroke:#000000;stroke-width:1px;stroke-linecap:butt;stroke-linejoin:miter;stroke-opacity:1" />
      <path
         sodipodi:nodetypes="ccccccccccccccccccccccccccccccccccc"
         inkscape:connector-curvature="0"
         id="path7417"
         d="m 215.57511,260.12477 c -2.46904,4.77472 -9.24459,3.85576 -10.693,-1.16478 3.06047,7.87698 -5.55229,18.149 -13.85623,15.01514 -2.45642,-2.16954 -0.88659,-4.63409 -4.09832,-1.31042 -5.02363,2.25562 -11.43485,4.68599 -16.67714,1.78595 -3.03562,-2.04536 -0.69899,-6.84521 -3.85091,-2.35791 -4.93344,2.77358 -9.4044,-2.71075 -9.75432,-7.3171 -1.61384,-3.82994 3.87362,-9.46529 -3.29545,-7.73048 -5.53365,-0.63776 -11.82121,-4.99862 -10.39961,-11.30212 0.47381,-4.07624 6.18326,-8.31581 -1.0668,-8.89502 -5.65451,-0.1899 -7.648,-9.87411 -7.41741,-10.05701 -6.01877,-1.00393 -6.45875,-9.19061 -3.99509,-13.56667 2.17901,-4.00655 7.98695,-3.58689 8.67681,-8.44726 7.73475,-3.54527 18.66667,-1.70795 23.24924,5.98582 -0.77279,-6.51455 2.64439,-16.05007 10.6559,-15.05942 4.58047,3.2785 2.7497,-5.63722 7.72556,-5.7173 6.66572,-2.72735 15.71367,-0.26333 19.19928,6.23666 0.36494,3.4853 -0.4071,4.83559 3.25833,2.30525 3.83991,-2.53712 11.07306,-0.40114 11.7658,1.96132 -0.33773,-5.52862 1.68852,-13.10683 8.26952,-13.66841 2.70929,-1.55037 8.20291,3.25186 7.40295,2.65516 0.79779,-7.14365 10.48404,-7.6904 15.57542,-4.66511 3.60622,1.1577 6.79184,8.09572 3.41837,9.61591 5.28482,-6.47834 16.02437,-0.21349 14.33788,7.62036 -0.412,3.37544 -2.8506,6.10878 1.71316,7.23222 5.51205,4.52454 1.78123,14.7929 -5.37438,14.5335 -1.02697,-1.01369 3.51661,6.10404 0.6479,8.13729 -0.24389,3.41522 -8.37808,6.27605 -8.00254,3.75083 4.50886,-0.64864 7.84379,8.57186 4.23744,7.7164 5.34432,-2.22664 1.22695,5.2732 -2.56018,3.88129 -4.21609,1.81596 -9.71626,-2.40428 -10.24069,3.86925 -1.34267,3.25342 -6.11811,7.21295 -8.9088,5.98056 6.52494,4.42245 -6.33559,10.46206 -9.99451,5.18304 -9.19379,-5.50782 -3.82497,-5.33725 -7.39915,-10.26323 -1.14178,-1.98184 -0.19722,6.6987 -2.54903,8.05629 z"
         style="fill:none;fill-rule:evenodd;stroke:#000000;stroke-width:1px;stroke-linecap:butt;stroke-linejoin:miter;stroke-opacity:1" />
      <path
         sodipodi:nodetypes="ccc"
         inkscape:connector-curvature="0"
         id="path7422"
         d="m 105.95174,308.78955 c -5.01956,19.59665 -2.05117,41.95794 -2.78152,61.15155 0.63136,5.59128 -0.33011,11.23398 1.65097,16.11287"
         style="fill:none;fill-rule:evenodd;stroke:#000000;stroke-width:1px;stroke-linecap:butt;stroke-linejoin:miter;stroke-opacity:1" />
      <path
         sodipodi:nodetypes="ccc"
         inkscape:connector-curvature="0"
         id="path7424"
         d="m 84.051788,306.37452 c 2.470439,19.9264 3.749606,40.84314 2.421801,60.18592 -0.383115,2.70499 -0.648798,4.51185 -1.072498,6.97834"
         style="fill:none;fill-rule:evenodd;stroke:#000000;stroke-width:1px;stroke-linecap:butt;stroke-linejoin:miter;stroke-opacity:1" />
      <path
         sodipodi:nodetypes="cccc"
         inkscape:connector-curvature="0"
         id="path7426"
         d="m 196.90671,273.93846 c -0.0643,5.74066 1.5346,29.98038 2.49878,35.65853 0.71241,7.78524 2.12105,15.50871 2.29962,23.34554 -0.67736,16.64845 0.29606,30.47058 0.35567,46.43711"
         style="fill:none;fill-rule:evenodd;stroke:#000000;stroke-width:1px;stroke-linecap:butt;stroke-linejoin:miter;stroke-opacity:1" />
      <path
         sodipodi:nodetypes="cccc"
         inkscape:connector-curvature="0"
         id="path7433"
         d="m 223.35977,260.4977 c -1.40675,12.45763 1.73993,23.8694 0.81095,36.36955 0.81099,19.48221 0.39046,38.98571 -0.30109,58.45142 0.12994,5.21423 2.49651,14.68807 3.56149,18.90852"
         style="fill:none;fill-rule:evenodd;stroke:#000000;stroke-width:1px;stroke-linecap:butt;stroke-linejoin:miter;stroke-opacity:1" />
      <path
         sodipodi:nodetypes="cccccc"
         inkscape:connector-curvature="0"
         id="path7439"
         d="m 421.6602,376.99326 c 3.26768,-0.64197 6.68058,-1.09736 10.00571,-0.60991 3.39623,0.53781 6.32074,3.43415 9.89461,2.70196 2.65301,-1.15202 5.21016,-2.76402 8.1909,-2.93594 3.92078,-0.58517 7.8267,0.20918 11.72715,0.46725 3.77629,-0.15546 7.66001,0.7056 11.31105,-0.64798"
         style="fill:none;fill-rule:evenodd;stroke:#000000;stroke-width:1px;stroke-linecap:butt;stroke-linejoin:miter;stroke-opacity:1" />
    </g>
  </g>
</svg>
