<?xml version="1.0" encoding="UTF-8" standalone="no"?>
<!-- Created with Inkscape (http://www.inkscape.org/) -->

<svg
   xmlns:dc="http://purl.org/dc/elements/1.1/"
   xmlns:cc="http://creativecommons.org/ns#"
   xmlns:rdf="http://www.w3.org/1999/02/22-rdf-syntax-ns#"
   xmlns:svg="http://www.w3.org/2000/svg"
   xmlns="http://www.w3.org/2000/svg"
   xmlns:sodipodi="http://sodipodi.sourceforge.net/DTD/sodipodi-0.dtd"
   xmlns:inkscape="http://www.inkscape.org/namespaces/inkscape"
   width="107.3435mm"
   height="69.307404mm"
   viewBox="0 0 380.35098 245.57741"
   id="svg17076"
   version="1.1"
   inkscape:version="0.91 r13725"
   sodipodi:docname="apt-building-sticks.svg">
  <defs
     id="defs17078" />
  <sodipodi:namedview
     id="base"
     pagecolor="#ffffff"
     bordercolor="#666666"
     borderopacity="1.0"
     inkscape:pageopacity="0.0"
     inkscape:pageshadow="2"
     inkscape:zoom="0.35"
     inkscape:cx="1548.0326"
     inkscape:cy="-888.63987"
     inkscape:document-units="px"
     inkscape:current-layer="layer1"
     showgrid="false"
     fit-margin-top="0"
     fit-margin-left="0"
     fit-margin-right="0"
     fit-margin-bottom="0"
     inkscape:window-width="2560"
     inkscape:window-height="1403"
     inkscape:window-x="2560"
     inkscape:window-y="0"
     inkscape:window-maximized="1" />
  <metadata
     id="metadata17081">
    <rdf:RDF>
      <cc:Work
         rdf:about="">
        <dc:format>image/svg+xml</dc:format>
        <dc:type
           rdf:resource="http://purl.org/dc/dcmitype/StillImage" />
        <dc:title></dc:title>
      </cc:Work>
    </rdf:RDF>
  </metadata>
  <g
     inkscape:label="Layer 1"
     inkscape:groupmode="layer"
     id="layer1"
     transform="translate(1733.0326,578.99792)">
    <g
       transform="matrix(0.9375,0,0,0.9375,-2063.8228,-991.01547)"
       style="display:inline"
       id="g16873">
      <path
         inkscape:connector-curvature="0"
         id="rect7190"
         d="m 438.75,514.25 c -3.1855,0 -5.75,2.5645 -5.75,5.75 l 0,3.75 c 0,3.1855 2.5645,5.75 5.75,5.75 l 12,0 0,-15.25 -12,0 z"
         style="fill:none;fill-opacity:1;stroke:#000000;stroke-width:1;stroke-linecap:round;stroke-linejoin:round;stroke-miterlimit:4;stroke-dasharray:none;stroke-opacity:1" />
      <path
         style="fill:none;fill-opacity:1;stroke:#000000;stroke-width:1;stroke-linecap:round;stroke-linejoin:round;stroke-miterlimit:4;stroke-dasharray:none;stroke-opacity:1"
         d="m 438.64062,539.01172 c -2.31549,0.37623 -4.803,1.22997 -6.14257,3.29101 -0.91231,2.44063 -1.44208,5.14885 -0.80078,7.72266 0.7876,2.57627 3.41373,4.23746 6.02665,4.38342 1.39192,0.0457 2.78,-0.17821 4.17412,-0.17137 3.03546,-0.0461 6.07186,0.0185 9.10782,0.007 0,-5.08333 0,-10.16667 0,-15.25 -4.12175,0.006 -8.24349,0.0117 -12.36524,0.0176 z"
         id="path7195"
         inkscape:connector-curvature="0" />
      <path
         inkscape:connector-curvature="0"
         id="path7197"
         d="m 445.09961,564.32227 c -2.4758,0.029 -4.95369,0.0179 -7.42578,0.17578 -1.85647,0.3595 -2.86879,2.40856 -2.68013,4.17241 0.43153,2.82007 -0.5166,5.7182 0.28112,8.49829 0.51067,1.71401 2.36105,2.90983 4.13534,2.62227 3.33751,-0.0937 6.6748,-0.20448 10.01367,-0.23633 0.95238,0.53728 2.35253,-0.51437 1.94922,-1.58203 -0.0516,-4.55126 -0.0338,-9.10285 -0.0352,-13.6543 -2.07943,10e-4 -4.15885,0.003 -6.23828,0.004 z"
         style="fill:none;fill-opacity:1;stroke:#000000;stroke-width:1;stroke-linecap:round;stroke-linejoin:round;stroke-miterlimit:4;stroke-dasharray:none;stroke-opacity:1" />
      <path
         inkscape:connector-curvature="0"
         id="path7199"
         d="m 437.2168,593.10938 c -1.32237,0.17373 -2.74596,0.43767 -3.72852,1.41796 -0.75656,1.8187 -0.33046,3.82686 -0.18707,5.72022 0.29858,2.36545 0.79077,4.88107 2.43121,6.71338 1.08698,1.15363 2.7652,1.44157 4.28242,1.31731 3.58615,-0.0278 7.17235,-0.0346 10.7586,-0.0243 0.52525,-1.03353 0.0759,-2.20654 0.23242,-3.30195 0,-3.98594 0,-7.97188 0,-11.95782 -4.11003,-0.0189 -8.22005,-0.0378 -12.33008,-0.0566 -0.48633,0.0573 -0.97265,0.11458 -1.45898,0.17188 z"
         style="fill:none;fill-opacity:1;stroke:#000000;stroke-width:1;stroke-linecap:round;stroke-linejoin:round;stroke-miterlimit:4;stroke-dasharray:none;stroke-opacity:1" />
      <path
         style="fill:none;fill-opacity:1;stroke:#000000;stroke-width:1;stroke-linecap:round;stroke-linejoin:round;stroke-miterlimit:4;stroke-dasharray:none;stroke-opacity:1"
         d="m 437.88086,618.13477 c -2.66519,0.26635 -4.97773,2.67478 -4.98332,5.38355 -0.17216,2.02313 -0.13693,4.07512 0.15039,6.0844 0.49973,2.25212 2.51534,4.13378 4.85319,4.26596 1.90949,0.18691 3.82212,-0.1299 5.73481,-0.10211 2.37135,-0.0888 4.74271,-0.17771 7.11407,-0.26657 0,-5.08333 0,-10.16667 0,-15.25 -4.28974,-0.0199 -8.58029,-0.0916 -12.86914,-0.11523 z"
         id="path7201"
         inkscape:connector-curvature="0" />
      <path
         inkscape:connector-curvature="0"
         id="path7203"
         d="m 456.51758,499.37891 c -3.92375,0.50659 -7.18046,3.99508 -7.49381,7.92699 -0.38381,3.73248 1.82129,7.55055 5.22861,9.11421 3.389,1.78149 7.99351,1.25601 10.6154,-1.63484 2.70449,-2.81092 3.12781,-7.48952 0.98613,-10.74897 -1.866,-3.1742 -5.67485,-5.0868 -9.33633,-4.65739 z"
         style="fill:none;fill-opacity:1;stroke:#000000;stroke-width:1;stroke-linecap:round;stroke-linejoin:round;stroke-miterlimit:4;stroke-dasharray:none;stroke-opacity:1" />
      <path
         inkscape:connector-curvature="0"
         style="fill:none;fill-opacity:1;stroke:#000000;stroke-width:1;stroke-linecap:round;stroke-linejoin:round;stroke-miterlimit:4;stroke-dasharray:none;stroke-opacity:1"
         d="m 459.18164,525.03125 c -3.65886,0.36732 -7.30992,2.45386 -8.90234,5.86328 -1.44602,3.09945 -0.3935,6.96802 2.07406,9.23382 3.39498,3.18464 8.98402,3.55294 12.86539,1.04938 1.56172,-1.0026 2.60457,-2.66125 3.01448,-4.4538 0.86789,-3.34732 0.0952,-7.21404 -2.37489,-9.70977 -1.75847,-1.6741 -4.31808,-2.21979 -6.6767,-1.98291 z"
         id="path7206" />
      <path
         id="path7208"
         d="m 458.10742,550.58984 c -4.37044,0.34128 -8.1791,4.33061 -8.19837,8.73552 -0.0206,2.68172 1.47762,5.20517 3.62362,6.74822 2.80021,2.0621 6.81742,2.45002 9.85782,0.68028 2.55931,-1.41284 4.34878,-4.24084 4.2461,-7.19951 0.0156,-2.73086 -1.01372,-5.69441 -3.40505,-7.22008 -1.76895,-1.24961 -3.95508,-1.91677 -6.12412,-1.74443 z"
         style="fill:none;fill-opacity:1;stroke:#000000;stroke-width:1;stroke-linecap:round;stroke-linejoin:round;stroke-miterlimit:4;stroke-dasharray:none;stroke-opacity:1"
         inkscape:connector-curvature="0" />
      <path
         id="path7210"
         d="m 455.39062,578.07031 c -2.41923,0.21463 -4.62557,1.9795 -5.27769,4.33377 -1.29877,3.33782 -0.88216,7.47624 1.61559,10.15842 2.02166,2.0627 5.1842,3.23688 8.01186,2.33139 3.28768,-1.24758 5.56305,-4.29531 6.72686,-7.51677 0.79255,-2.24948 0.009,-4.96966 -1.95369,-6.36132 -2.37091,-2.04742 -5.56516,-2.93369 -8.65417,-2.97088 -0.15626,0.008 -0.3125,0.0169 -0.46876,0.0254 z"
         style="fill:none;fill-opacity:1;stroke:#000000;stroke-width:1;stroke-linecap:round;stroke-linejoin:round;stroke-miterlimit:4;stroke-dasharray:none;stroke-opacity:1"
         inkscape:connector-curvature="0" />
      <path
         style="fill:none;fill-opacity:1;stroke:#000000;stroke-width:1;stroke-linecap:round;stroke-linejoin:round;stroke-miterlimit:4;stroke-dasharray:none;stroke-opacity:1"
         d="m 457.17188,603.99414 c -3.91717,0.52848 -7.03907,4.05015 -7.53516,7.90039 -0.34438,3.25181 1.43297,6.64426 4.39101,8.0895 3.73567,2.02244 8.90269,1.12412 11.52847,-2.28345 1.79338,-2.30071 1.96855,-5.71341 0.39626,-8.17705 -1.46697,-2.60526 -3.96496,-4.73165 -6.91926,-5.38876 -0.61354,-0.11994 -1.23636,-0.17734 -1.86132,-0.14063 z"
         id="path7212"
         inkscape:connector-curvature="0" />
      <path
         style="fill:none;fill-opacity:1;stroke:#000000;stroke-width:1;stroke-linecap:round;stroke-linejoin:round;stroke-miterlimit:4;stroke-dasharray:none;stroke-opacity:1"
         d="m 599.24238,632.99796 c 3.1855,0 5.75,-2.5645 5.75,-5.75 l 0,-3.75 c 0,-3.1855 -2.5645,-5.75 -5.75,-5.75 l -12,0 0,15.25 12,0 z"
         id="path7214"
         inkscape:connector-curvature="0" />
      <path
         inkscape:connector-curvature="0"
         id="path7216"
         d="m 599.35176,608.23624 c 2.31549,-0.37623 4.803,-1.22997 6.14257,-3.29101 0.91231,-2.44063 1.44208,-5.14885 0.80078,-7.72266 -0.7876,-2.57627 -3.41373,-4.23746 -6.02665,-4.38342 -1.39192,-0.0457 -2.78,0.17821 -4.17412,0.17137 -3.03546,0.0461 -6.07186,-0.0185 -9.10782,-0.007 0,5.08333 0,10.16667 0,15.25 4.12175,-0.006 8.24349,-0.0117 12.36524,-0.0176 z"
         style="fill:none;fill-opacity:1;stroke:#000000;stroke-width:1;stroke-linecap:round;stroke-linejoin:round;stroke-miterlimit:4;stroke-dasharray:none;stroke-opacity:1" />
      <path
         style="fill:none;fill-opacity:1;stroke:#000000;stroke-width:1;stroke-linecap:round;stroke-linejoin:round;stroke-miterlimit:4;stroke-dasharray:none;stroke-opacity:1"
         d="m 592.89277,582.92569 c 2.4758,-0.029 4.95369,-0.0179 7.42578,-0.17578 1.85647,-0.3595 2.86879,-2.40856 2.68013,-4.17241 -0.43153,-2.82007 0.5166,-5.7182 -0.28112,-8.49829 -0.51067,-1.71401 -2.36105,-2.90983 -4.13534,-2.62227 -3.33751,0.0937 -6.6748,0.20448 -10.01367,0.23633 -0.95238,-0.53728 -2.35253,0.51437 -1.94922,1.58203 0.0516,4.55126 0.0338,9.10285 0.0352,13.6543 2.07943,-0.001 4.15885,-0.003 6.23828,-0.004 z"
         id="path7218"
         inkscape:connector-curvature="0" />
      <path
         style="fill:none;fill-opacity:1;stroke:#000000;stroke-width:1;stroke-linecap:round;stroke-linejoin:round;stroke-miterlimit:4;stroke-dasharray:none;stroke-opacity:1"
         d="m 600.77558,554.13858 c 1.32237,-0.17373 2.74596,-0.43767 3.72852,-1.41796 0.75656,-1.8187 0.33046,-3.82686 0.18707,-5.72022 -0.29858,-2.36545 -0.79077,-4.88107 -2.43121,-6.71338 -1.08698,-1.15363 -2.7652,-1.44157 -4.28242,-1.31731 -3.58615,0.0278 -7.17235,0.0346 -10.7586,0.0243 -0.52525,1.03353 -0.0759,2.20654 -0.23242,3.30195 0,3.98594 0,7.97188 0,11.95782 4.11003,0.0189 8.22005,0.0378 12.33008,0.0566 0.48633,-0.0573 0.97265,-0.11458 1.45898,-0.17188 z"
         id="path7220"
         inkscape:connector-curvature="0" />
      <path
         inkscape:connector-curvature="0"
         id="path7222"
         d="m 600.11152,529.11319 c 2.66519,-0.26635 4.97773,-2.67478 4.98332,-5.38355 0.17216,-2.02313 0.13693,-4.07512 -0.15039,-6.0844 -0.49973,-2.25212 -2.51534,-4.13378 -4.85319,-4.26596 -1.90949,-0.18691 -3.82212,0.1299 -5.73481,0.10211 -2.37135,0.0889 -4.74271,0.17771 -7.11407,0.26657 0,5.08333 0,10.16667 0,15.25 4.28974,0.0199 8.58029,0.0917 12.86914,0.11523 z"
         style="fill:none;fill-opacity:1;stroke:#000000;stroke-width:1;stroke-linecap:round;stroke-linejoin:round;stroke-miterlimit:4;stroke-dasharray:none;stroke-opacity:1" />
      <path
         style="fill:none;fill-opacity:1;stroke:#000000;stroke-width:1;stroke-linecap:round;stroke-linejoin:round;stroke-miterlimit:4;stroke-dasharray:none;stroke-opacity:1"
         d="m 580.4748,622.11905 c 3.92375,-0.50659 7.18046,-3.99508 7.49381,-7.92699 0.38381,-3.73248 -1.82129,-7.55055 -5.22861,-9.11421 -3.389,-1.78149 -7.99351,-1.25601 -10.6154,1.63484 -2.70449,2.81092 -3.12781,7.48952 -0.98613,10.74897 1.866,3.1742 5.67485,5.0868 9.33633,4.65739 z"
         id="path7224"
         inkscape:connector-curvature="0" />
      <path
         id="path7226"
         d="m 578.31074,596.96671 c 3.65886,-0.36732 7.30992,-2.45386 8.90234,-5.86328 1.44602,-3.09945 0.3935,-6.96802 -2.07406,-9.23382 -3.39498,-3.18464 -8.98402,-3.55294 -12.86539,-1.04938 -1.56172,1.0026 -2.60457,2.66125 -3.01448,4.4538 -0.86789,3.34732 -0.0952,7.21404 2.37489,9.70977 1.75847,1.6741 4.31808,2.21979 6.6767,1.98291 z"
         style="fill:none;fill-opacity:1;stroke:#000000;stroke-width:1;stroke-linecap:round;stroke-linejoin:round;stroke-miterlimit:4;stroke-dasharray:none;stroke-opacity:1"
         inkscape:connector-curvature="0" />
      <path
         inkscape:connector-curvature="0"
         style="fill:none;fill-opacity:1;stroke:#000000;stroke-width:1;stroke-linecap:round;stroke-linejoin:round;stroke-miterlimit:4;stroke-dasharray:none;stroke-opacity:1"
         d="m 582.13496,569.65812 c 4.37044,-0.34128 8.1791,-4.33061 8.19837,-8.73552 0.0206,-2.68172 -1.47762,-5.20517 -3.62362,-6.74822 -2.80021,-2.0621 -6.81742,-2.45002 -9.85782,-0.68028 -2.55931,1.41284 -4.34878,4.24084 -4.2461,7.19951 -0.0156,2.73086 1.01372,5.69441 3.40505,7.22008 1.76895,1.24961 3.95508,1.91677 6.12412,1.74443 z"
         id="path7228" />
      <path
         inkscape:connector-curvature="0"
         style="fill:none;fill-opacity:1;stroke:#000000;stroke-width:1;stroke-linecap:round;stroke-linejoin:round;stroke-miterlimit:4;stroke-dasharray:none;stroke-opacity:1"
         d="m 582.10176,541.42765 c 2.41923,-0.21463 4.62557,-1.9795 5.27769,-4.33377 1.29877,-3.33782 0.88216,-7.47624 -1.61559,-10.15842 -2.02166,-2.0627 -5.1842,-3.23688 -8.01186,-2.33139 -3.28768,1.24758 -5.56305,4.29531 -6.72686,7.51677 -0.79255,2.24948 -0.009,4.96966 1.95369,6.36132 2.37091,2.04742 5.56516,2.93369 8.65417,2.97088 0.15626,-0.008 0.3125,-0.0169 0.46876,-0.0254 z"
         id="path7230" />
      <path
         inkscape:connector-curvature="0"
         id="path7232"
         d="m 580.8205,517.50382 c 3.91717,-0.52848 7.03907,-4.05015 7.53516,-7.90039 0.34438,-3.25181 -1.43297,-6.64426 -4.39101,-8.0895 -3.73567,-2.02244 -8.90269,-1.12412 -11.52847,2.28345 -1.79338,2.30071 -1.96855,5.71341 -0.39626,8.17705 1.46697,2.60526 3.96496,4.73165 6.91926,5.38876 0.61354,0.11994 1.23636,0.17734 1.86132,0.14063 z"
         style="fill:none;fill-opacity:1;stroke:#000000;stroke-width:1;stroke-linecap:round;stroke-linejoin:round;stroke-miterlimit:4;stroke-dasharray:none;stroke-opacity:1" />
      <path
         sodipodi:nodetypes="cc"
         inkscape:connector-curvature="0"
         id="path7261"
         d="m 464.74992,515.24996 108.75016,-0.74992"
         style="fill:none;fill-rule:evenodd;stroke:#000000;stroke-width:1.00225127px;stroke-linecap:butt;stroke-linejoin:miter;stroke-opacity:1" />
      <path
         style="fill:none;fill-rule:evenodd;stroke:#000000;stroke-width:0.98980004px;stroke-linecap:butt;stroke-linejoin:miter;stroke-opacity:1"
         d="m 467.50037,529.00019 105.99926,-0.75038"
         id="path7263"
         inkscape:connector-curvature="0"
         sodipodi:nodetypes="cc" />
      <path
         sodipodi:nodetypes="cc"
         inkscape:connector-curvature="0"
         id="path7265"
         d="m 463.74885,541.74943 115.0023,-0.74886"
         style="fill:none;fill-rule:evenodd;stroke:#000000;stroke-width:1.02993798px;stroke-linecap:butt;stroke-linejoin:miter;stroke-opacity:1" />
      <path
         style="fill:none;fill-rule:evenodd;stroke:#000000;stroke-width:1.01228118px;stroke-linecap:butt;stroke-linejoin:miter;stroke-opacity:1"
         d="m 466.24945,553.74974 111.0011,-0.74948"
         id="path7267"
         inkscape:connector-curvature="0"
         sodipodi:nodetypes="cc" />
      <path
         sodipodi:nodetypes="cc"
         inkscape:connector-curvature="0"
         id="path7269"
         d="m 464.74991,565.74997 108.25018,-0.74994"
         style="fill:none;fill-rule:evenodd;stroke:#000000;stroke-width:0.9999665px;stroke-linecap:butt;stroke-linejoin:miter;stroke-opacity:1" />
      <path
         style="fill:none;fill-rule:evenodd;stroke:#000000;stroke-width:0.99318016px;stroke-linecap:butt;stroke-linejoin:miter;stroke-opacity:1"
         d="m 464.75016,581.7501 106.74968,-0.7502"
         id="path7271"
         inkscape:connector-curvature="0"
         sodipodi:nodetypes="cc" />
      <path
         sodipodi:nodetypes="cc"
         inkscape:connector-curvature="0"
         id="path7282"
         d="m 460.99962,594.49982 110.00076,-0.74964"
         style="fill:none;fill-rule:evenodd;stroke:#000000;stroke-width:1.00782001px;stroke-linecap:butt;stroke-linejoin:miter;stroke-opacity:1" />
      <path
         style="fill:none;fill-rule:evenodd;stroke:#000000;stroke-width:0.9977029px;stroke-linecap:butt;stroke-linejoin:miter;stroke-opacity:1"
         d="M 464.24998,607.75 572.00002,607"
         id="path7284"
         inkscape:connector-curvature="0"
         sodipodi:nodetypes="cc" />
      <path
         sodipodi:nodetypes="cc"
         inkscape:connector-curvature="0"
         id="path7286"
         d="m 463.49985,619.74994 108.5003,-0.74988"
         style="fill:none;fill-rule:evenodd;stroke:#000000;stroke-width:1.00108397px;stroke-linecap:butt;stroke-linejoin:miter;stroke-opacity:1" />
      <g
         transform="translate(0,6)"
         style="fill:#ffffff"
         id="g7249">
        <g
           id="g7274">
          <path
             inkscape:connector-curvature="0"
             id="rect7236"
             d="m 498.59766,582.78906 c 0.16471,15.01237 0.32942,30.02474 0.49414,45.03711 12.94205,0.1556 25.88411,0.3112 38.82617,0.4668 -0.3737,-15.25195 -0.7474,-30.50391 -1.12109,-45.75586 -12.73308,0.084 -25.46615,0.16797 -38.19922,0.25195 z"
             style="fill:#ffffff;fill-opacity:1;stroke:#000000;stroke-width:1;stroke-linecap:round;stroke-linejoin:round;stroke-miterlimit:4;stroke-dasharray:none;stroke-opacity:1" />
          <path
             inkscape:connector-curvature="0"
             id="path7240"
             d="m 506.25,627.5 -0.5,-44.25"
             style="fill:#ffffff;fill-rule:evenodd;stroke:#000000;stroke-width:1px;stroke-linecap:butt;stroke-linejoin:miter;stroke-opacity:1" />
          <path
             inkscape:connector-curvature="0"
             id="path7242"
             d="m 514.00122,583.25585 2.74923,45.24465"
             style="fill:#ffffff;fill-rule:evenodd;stroke:#000000;stroke-width:1.0139035px;stroke-linecap:butt;stroke-linejoin:miter;stroke-opacity:1" />
          <path
             inkscape:connector-curvature="0"
             id="path7244"
             d="m 522.24892,628.5005 0.49986,-45.50172"
             style="fill:#ffffff;fill-rule:evenodd;stroke:#000000;stroke-width:1.0139035px;stroke-linecap:butt;stroke-linejoin:miter;stroke-opacity:1" />
          <path
             inkscape:connector-curvature="0"
             id="path7246"
             d="m 530.74955,582.99936 -0.9991,44.75128"
             style="fill:#ffffff;fill-rule:evenodd;stroke:#000000;stroke-width:1.0109266px;stroke-linecap:butt;stroke-linejoin:miter;stroke-opacity:1" />
          <path
             inkscape:connector-curvature="0"
             style="fill:#ffffff;fill-opacity:1;stroke:#000000;stroke-width:1;stroke-linecap:round;stroke-linejoin:round;stroke-miterlimit:4;stroke-dasharray:none;stroke-opacity:1"
             d="m 499.29883,602.07422 c -1.50638,0.41033 -2.35641,2.04539 -2.26028,3.53382 -0.11091,1.25682 -0.0553,2.75494 0.98293,3.6361 1.20783,0.83294 2.73848,0.39419 4.10078,0.50703 11.23854,0.0719 22.47709,0.14375 33.71563,0.21563 1.68764,-3.5e-4 3.14148,-1.67295 2.88281,-3.34571 0.0573,-1.36177 -0.0816,-3.02371 -1.34992,-3.82695 -1.22195,-0.88106 -2.79151,-0.5562 -4.19493,-0.62663 -11.19533,-0.0506 -22.39067,-0.10126 -33.58601,-0.15189 l -0.17921,0.0361 -0.1118,0.0225 z"
             id="rect7234" />
        </g>
      </g>
      <path
         style="fill:none;fill-rule:evenodd;stroke:#000000;stroke-width:1.11971676px;stroke-linecap:butt;stroke-linejoin:miter;stroke-opacity:1"
         d="m 450.74534,633.49783 c 45.60519,0.0577 91.08883,1.50073 136.50932,-0.49566"
         id="path7288"
         inkscape:connector-curvature="0"
         sodipodi:nodetypes="cc" />
      <path
         style="fill:none;fill-rule:evenodd;stroke:#000000;stroke-width:1.02776754px;stroke-linecap:butt;stroke-linejoin:miter;stroke-opacity:1"
         d="m 463.74898,501.24949 114.50204,-0.74898"
         id="path7290"
         inkscape:connector-curvature="0"
         sodipodi:nodetypes="cc" />
      <path
         sodipodi:nodetypes="ccccccc"
         inkscape:connector-curvature="0"
         id="rect7298"
         d="m 426.64062,502.6875 5.37891,9.25 85.35547,-48.93359 85.35547,48.93359 5.37891,-9.25 -90.73438,-52.01953 z"
         style="fill:#ffffff;fill-opacity:1;stroke:#000000;stroke-width:1.04319966;stroke-linecap:round;stroke-linejoin:round;stroke-miterlimit:4;stroke-dasharray:none;stroke-opacity:1" />
      <path
         sodipodi:nodetypes="cc"
         inkscape:connector-curvature="0"
         id="path7309"
         d="m 473.50344,488.25194 86.99312,-0.75388"
         style="fill:none;fill-rule:evenodd;stroke:#000000;stroke-width:1;stroke-linecap:butt;stroke-linejoin:miter;stroke-miterlimit:4;stroke-dasharray:none;stroke-opacity:1" />
      <path
         style="fill:none;fill-rule:evenodd;stroke:#000000;stroke-width:1;stroke-linecap:butt;stroke-linejoin:miter;stroke-miterlimit:4;stroke-dasharray:none;stroke-opacity:1"
         d="m 493.51166,476.75776 47.22668,-0.76552"
         id="path7311"
         inkscape:connector-curvature="0"
         sodipodi:nodetypes="cc" />
      <path
         inkscape:connector-curvature="0"
         id="rect7313"
         d="m 476.5,524.5 c 5.66667,0 11.33333,0 17,0 -0.42253,-6.16146 -0.84505,-12.32292 -1.26758,-18.48438 -5.24674,-0.0879 -10.49349,-0.17578 -15.74023,-0.26367 0.003,6.24935 0.005,12.4987 0.008,18.74805 z"
         style="fill:#ffffff;fill-opacity:1;stroke:#000000;stroke-width:1;stroke-linecap:round;stroke-linejoin:round;stroke-miterlimit:4;stroke-dasharray:none;stroke-opacity:1" />
      <path
         inkscape:connector-curvature="0"
         style="fill:#ffffff;fill-opacity:1;stroke:#000000;stroke-width:1;stroke-linecap:round;stroke-linejoin:round;stroke-miterlimit:4;stroke-dasharray:none;stroke-opacity:1"
         d="m 559.49219,524.5 c -5.66667,0 -11.33333,0 -17,0 0.42253,-6.16146 0.84505,-12.32292 1.26758,-18.48438 5.24674,-0.0879 10.49349,-0.17578 15.74023,-0.26367 -0.003,6.24935 -0.005,12.4987 -0.008,18.74805 z"
         id="path7316" />
      <path
         id="path7318"
         d="m 526.74219,505.75195 c -5.66667,0 -11.33333,0 -17,0 0.42253,6.16146 0.84505,12.32292 1.26758,18.48438 5.24674,0.0879 10.49349,0.17578 15.74023,0.26367 -0.003,-6.24935 -0.005,-12.4987 -0.008,-18.74805 z"
         style="fill:#ffffff;fill-opacity:1;stroke:#000000;stroke-width:1;stroke-linecap:round;stroke-linejoin:round;stroke-miterlimit:4;stroke-dasharray:none;stroke-opacity:1"
         inkscape:connector-curvature="0" />
      <path
         inkscape:connector-curvature="0"
         style="fill:#ffffff;fill-opacity:1;stroke:#000000;stroke-width:1;stroke-linecap:round;stroke-linejoin:round;stroke-miterlimit:4;stroke-dasharray:none;stroke-opacity:1"
         d="m 476.5,566.5 c 5.66667,0 11.33333,0 17,0 -0.42253,-6.16146 -0.84505,-12.32292 -1.26758,-18.48438 -5.24674,-0.0879 -10.49349,-0.17578 -15.74023,-0.26367 0.003,6.24935 0.005,12.4987 0.008,18.74805 z"
         id="path7320" />
      <path
         id="path7322"
         d="m 559.49219,566.5 c -5.66667,0 -11.33333,0 -17,0 0.42253,-6.16146 0.84505,-12.32292 1.26758,-18.48438 5.24674,-0.0879 10.49349,-0.17578 15.74023,-0.26367 -0.003,6.24935 -0.005,12.4987 -0.008,18.74805 z"
         style="fill:#ffffff;fill-opacity:1;stroke:#000000;stroke-width:1;stroke-linecap:round;stroke-linejoin:round;stroke-miterlimit:4;stroke-dasharray:none;stroke-opacity:1"
         inkscape:connector-curvature="0" />
      <path
         inkscape:connector-curvature="0"
         style="fill:#ffffff;fill-opacity:1;stroke:#000000;stroke-width:1;stroke-linecap:round;stroke-linejoin:round;stroke-miterlimit:4;stroke-dasharray:none;stroke-opacity:1"
         d="m 526.74219,547.75195 c -5.66667,0 -11.33333,0 -17,0 0.42253,6.16146 0.84505,12.32292 1.26758,18.48438 5.24674,0.0879 10.49349,0.17578 15.74023,0.26367 -0.003,-6.24935 -0.005,-12.4987 -0.008,-18.74805 z"
         id="path7324" />
      <path
         id="path7326"
         d="m 473.75,589.75195 c 5.66667,0 11.33333,0 17,0 -0.42253,6.16146 -0.84505,12.32292 -1.26758,18.48438 -5.24674,0.0879 -10.49349,0.17578 -15.74023,0.26367 0.003,-6.24935 0.005,-12.4987 0.008,-18.74805 z"
         style="fill:#ffffff;fill-opacity:1;stroke:#000000;stroke-width:1;stroke-linecap:round;stroke-linejoin:round;stroke-miterlimit:4;stroke-dasharray:none;stroke-opacity:1"
         inkscape:connector-curvature="0" />
      <path
         id="path7330"
         d="m 473.00324,568.5 c 7.99893,0 15.99785,0 23.99679,0 -0.59644,-1.72475 -1.19285,-3.44949 -1.78929,-5.17424 -7.40617,-0.0246 -14.81235,-0.0492 -22.21853,-0.0738 0.004,1.74935 0.007,3.4987 0.0113,5.24805 z"
         style="fill:#ffffff;fill-opacity:1;stroke:#000000;stroke-width:1;stroke-linecap:round;stroke-linejoin:round;stroke-miterlimit:4;stroke-dasharray:none;stroke-opacity:1"
         inkscape:connector-curvature="0" />
      <path
         inkscape:connector-curvature="0"
         style="fill:#ffffff;fill-opacity:1;stroke:#000000;stroke-width:1;stroke-linecap:round;stroke-linejoin:round;stroke-miterlimit:4;stroke-dasharray:none;stroke-opacity:1"
         d="m 496.98898,545.25197 c -7.99893,0 -15.99785,0 -23.99679,0 0.59644,1.72475 1.19285,3.44949 1.78929,5.17424 7.40617,0.0246 14.81235,0.0492 22.21853,0.0738 -0.004,-1.74935 -0.007,-3.4987 -0.0113,-5.24805 z"
         id="path7332" />
      <path
         inkscape:connector-curvature="0"
         style="fill:#ffffff;fill-opacity:1;stroke:#000000;stroke-width:1;stroke-linecap:round;stroke-linejoin:round;stroke-miterlimit:4;stroke-dasharray:none;stroke-opacity:1"
         d="m 530.73898,568.5 c -7.99893,0 -15.99785,0 -23.99679,0 0.59644,-1.72475 1.19285,-3.44949 1.78929,-5.17424 7.40617,-0.0246 14.81235,-0.0492 22.21853,-0.0738 -0.004,1.74935 -0.007,3.4987 -0.0113,5.24805 z"
         id="path7334" />
      <path
         id="path7336"
         d="m 506.75324,545.25197 c 7.99893,0 15.99785,0 23.99679,0 -0.59644,1.72475 -1.19285,3.44949 -1.78929,5.17424 -7.40617,0.0246 -14.81235,0.0492 -22.21853,0.0738 0.004,-1.74935 0.007,-3.4987 0.0113,-5.24805 z"
         style="fill:#ffffff;fill-opacity:1;stroke:#000000;stroke-width:1;stroke-linecap:round;stroke-linejoin:round;stroke-miterlimit:4;stroke-dasharray:none;stroke-opacity:1"
         inkscape:connector-curvature="0" />
      <path
         id="path7338"
         d="m 562.73898,545.25197 c -7.99893,0 -15.99785,0 -23.99679,0 0.59644,1.72475 1.19285,3.44949 1.78929,5.17424 7.40617,0.0246 14.81235,0.0492 22.21853,0.0738 -0.004,-1.74935 -0.007,-3.4987 -0.0113,-5.24805 z"
         style="fill:#ffffff;fill-opacity:1;stroke:#000000;stroke-width:1;stroke-linecap:round;stroke-linejoin:round;stroke-miterlimit:4;stroke-dasharray:none;stroke-opacity:1"
         inkscape:connector-curvature="0" />
      <path
         inkscape:connector-curvature="0"
         style="fill:#ffffff;fill-opacity:1;stroke:#000000;stroke-width:1;stroke-linecap:round;stroke-linejoin:round;stroke-miterlimit:4;stroke-dasharray:none;stroke-opacity:1"
         d="m 538.75324,568.5 c 7.99893,0 15.99785,0 23.99679,0 -0.59644,-1.72475 -1.19285,-3.44949 -1.78929,-5.17424 -7.40617,-0.0246 -14.81235,-0.0492 -22.21853,-0.0738 0.004,1.74935 0.007,3.4987 0.0113,5.24805 z"
         id="path7340" />
      <path
         inkscape:connector-curvature="0"
         style="fill:#ffffff;fill-opacity:1;stroke:#000000;stroke-width:1;stroke-linecap:round;stroke-linejoin:round;stroke-miterlimit:4;stroke-dasharray:none;stroke-opacity:1"
         d="m 473.00324,505.25197 c 7.99893,0 15.99785,0 23.99679,0 -0.59644,1.72475 -1.19285,3.44949 -1.78929,5.17424 -7.40617,0.0246 -14.81235,0.0492 -22.21853,0.0738 0.004,-1.74935 0.007,-3.4987 0.0113,-5.24805 z"
         id="path7342" />
      <path
         id="path7344"
         d="m 496.98898,528.5 c -7.99893,0 -15.99785,0 -23.99679,0 0.59644,-1.72475 1.19285,-3.44949 1.78929,-5.17424 7.40617,-0.0246 14.81235,-0.0492 22.21853,-0.0738 -0.004,1.74935 -0.007,3.4987 -0.0113,5.24805 z"
         style="fill:#ffffff;fill-opacity:1;stroke:#000000;stroke-width:1;stroke-linecap:round;stroke-linejoin:round;stroke-miterlimit:4;stroke-dasharray:none;stroke-opacity:1"
         inkscape:connector-curvature="0" />
      <path
         id="path7346"
         d="m 530.73898,505.25197 c -7.99893,0 -15.99785,0 -23.99679,0 0.59644,1.72475 1.19285,3.44949 1.78929,5.17424 7.40617,0.0246 14.81235,0.0492 22.21853,0.0738 -0.004,-1.74935 -0.007,-3.4987 -0.0113,-5.24805 z"
         style="fill:#ffffff;fill-opacity:1;stroke:#000000;stroke-width:1;stroke-linecap:round;stroke-linejoin:round;stroke-miterlimit:4;stroke-dasharray:none;stroke-opacity:1"
         inkscape:connector-curvature="0" />
      <path
         inkscape:connector-curvature="0"
         style="fill:#ffffff;fill-opacity:1;stroke:#000000;stroke-width:1;stroke-linecap:round;stroke-linejoin:round;stroke-miterlimit:4;stroke-dasharray:none;stroke-opacity:1"
         d="m 506.75324,528.5 c 7.99893,0 15.99785,0 23.99679,0 -0.59644,-1.72475 -1.19285,-3.44949 -1.78929,-5.17424 -7.40617,-0.0246 -14.81235,-0.0492 -22.21853,-0.0738 0.004,1.74935 0.007,3.4987 0.0113,5.24805 z"
         id="path7348" />
      <path
         inkscape:connector-curvature="0"
         style="fill:#ffffff;fill-opacity:1;stroke:#000000;stroke-width:1;stroke-linecap:round;stroke-linejoin:round;stroke-miterlimit:4;stroke-dasharray:none;stroke-opacity:1"
         d="m 562.73898,528.5 c -7.99893,0 -15.99785,0 -23.99679,0 0.59644,-1.72475 1.19285,-3.44949 1.78929,-5.17424 7.40617,-0.0246 14.81235,-0.0492 22.21853,-0.0738 -0.004,1.74935 -0.007,3.4987 -0.0113,5.24805 z"
         id="path7350" />
      <path
         id="path7352"
         d="m 538.75324,505.25197 c 7.99893,0 15.99785,0 23.99679,0 -0.59644,1.72475 -1.19285,3.44949 -1.78929,5.17424 -7.40617,0.0246 -14.81235,0.0492 -22.21853,0.0738 0.004,-1.74935 0.007,-3.4987 0.0113,-5.24805 z"
         style="fill:#ffffff;fill-opacity:1;stroke:#000000;stroke-width:1;stroke-linecap:round;stroke-linejoin:round;stroke-miterlimit:4;stroke-dasharray:none;stroke-opacity:1"
         inkscape:connector-curvature="0" />
      <path
         inkscape:connector-curvature="0"
         style="fill:#ffffff;fill-opacity:1;stroke:#000000;stroke-width:1;stroke-linecap:round;stroke-linejoin:round;stroke-miterlimit:4;stroke-dasharray:none;stroke-opacity:1"
         d="m 470.25324,613 c 7.99893,0 15.99785,0 23.99679,0 -0.59644,-1.72475 -1.19285,-3.44949 -1.78929,-5.17424 -7.40617,-0.0246 -14.81235,-0.0492 -22.21853,-0.0738 0.004,1.74935 0.007,3.4987 0.0113,5.24805 z"
         id="path7354" />
      <path
         id="path7356"
         d="m 494.23898,589.75197 c -7.99893,0 -15.99785,0 -23.99679,0 0.59644,1.72475 1.19285,3.44949 1.78929,5.17424 7.40617,0.0246 14.81235,0.0492 22.21853,0.0738 -0.004,-1.74935 -0.007,-3.4987 -0.0113,-5.24805 z"
         style="fill:#ffffff;fill-opacity:1;stroke:#000000;stroke-width:1;stroke-linecap:round;stroke-linejoin:round;stroke-miterlimit:4;stroke-dasharray:none;stroke-opacity:1"
         inkscape:connector-curvature="0" />
      <path
         inkscape:connector-curvature="0"
         style="fill:#ffffff;fill-opacity:1;stroke:#000000;stroke-width:1;stroke-linecap:round;stroke-linejoin:round;stroke-miterlimit:4;stroke-dasharray:none;stroke-opacity:1"
         d="m 562.74222,589.75195 c -5.66667,0 -11.33333,0 -17,0 0.42253,6.16146 0.84505,12.32292 1.26758,18.48438 5.24674,0.0879 10.49349,0.17578 15.74023,0.26367 -0.003,-6.24935 -0.005,-12.4987 -0.008,-18.74805 z"
         id="path7358" />
      <path
         id="path7360"
         d="m 566.23898,613 c -7.99893,0 -15.99785,0 -23.99679,0 0.59644,-1.72475 1.19285,-3.44949 1.78929,-5.17424 7.40617,-0.0246 14.81235,-0.0492 22.21853,-0.0738 -0.004,1.74935 -0.007,3.4987 -0.0113,5.24805 z"
         style="fill:#ffffff;fill-opacity:1;stroke:#000000;stroke-width:1;stroke-linecap:round;stroke-linejoin:round;stroke-miterlimit:4;stroke-dasharray:none;stroke-opacity:1"
         inkscape:connector-curvature="0" />
      <path
         inkscape:connector-curvature="0"
         style="fill:#ffffff;fill-opacity:1;stroke:#000000;stroke-width:1;stroke-linecap:round;stroke-linejoin:round;stroke-miterlimit:4;stroke-dasharray:none;stroke-opacity:1"
         d="m 542.25324,589.75197 c 7.99893,0 15.99785,0 23.99679,0 -0.59644,1.72475 -1.19285,3.44949 -1.78929,5.17424 -7.40617,0.0246 -14.81235,0.0492 -22.21853,0.0738 0.004,-1.74935 0.007,-3.4987 0.0113,-5.24805 z"
         id="path7362" />
      <path
         sodipodi:nodetypes="ccccccccccccccc"
         inkscape:connector-curvature="0"
         id="path7488"
         d="m 432.57676,628.28833 c -2.85941,-0.62293 -4.04786,-4.03426 -5.5556,-6.2925 -1.81541,-3.09175 -3.0002,-6.61249 -5.23517,-9.41171 0.19916,2.85474 1.32748,6.22219 1.44824,9.35383 0.24744,1.52576 0.46246,6.22999 -1.98193,3.37891 -4.40218,-4.1728 -9.3855,-7.89992 -12.51921,-13.2065 -0.64552,-1.27204 -1.93325,-2.63271 -1.15276,-0.25311 0.95994,6.58737 2.33303,13.1761 2.50829,19.83647 -1.768,-1.34702 -3.294,-4.00194 -5.87038,-4.46928 -3.38207,-0.0113 -3.26529,6.80159 -6.99323,5.53246 -1.66259,-2.37482 -3.01132,-4.99684 -4.87428,-7.25565 -1.22878,-2.1928 -4.12309,-5.37258 -5.78003,-1.71424 -3.52663,3.34697 -7.0021,6.7961 -10.8663,9.75117 -3.10924,2.79965 -1.00842,-4.63013 -4.32988,-2.45532 -5.61662,3.23912 -12.38408,2.54418 -18.36061,4.71965"
         style="fill:none;fill-rule:evenodd;stroke:#000000;stroke-width:1px;stroke-linecap:butt;stroke-linejoin:miter;stroke-opacity:1" />
      <path
         sodipodi:nodetypes="ccccccccccccc"
         inkscape:connector-curvature="0"
         id="path7493"
         d="m 604.10574,620.35907 c 1.2263,-2.10533 3.77678,-4.13495 5.06485,-6.56938 1.82687,-2.19448 3.2373,-5.35773 5.68561,-6.66367 0.67171,3.24061 -0.93681,6.48072 -1.98173,9.50123 3.00326,-1.79768 5.42471,-4.48306 8.41135,-6.29199 1.33912,0.33508 -1.07178,4.57311 1.67371,2.41075 3.1664,-2.1354 6.0224,3.19665 9.36288,0.43447 2.94666,-1.61536 8.1739,-3.36612 8.33353,1.79081 2.80991,2.2023 6.50192,-0.22692 9.72122,0.0746 8.64043,-0.23293 17.29123,-0.21801 25.93108,-0.12638 4.47293,0.5187 8.57939,3.12114 13.19908,2.52622 2.20901,-0.10728 6.24671,1.48307 7.21098,0.60074 l -0.39565,-0.52238"
         style="fill:none;fill-rule:evenodd;stroke:#000000;stroke-width:1px;stroke-linecap:butt;stroke-linejoin:miter;stroke-opacity:1" />
      <path
         inkscape:connector-curvature="0"
         id="path7496"
         d="M 626.25,612 651,486.75 c 0,0 2,-6.75 6.5,-8.25 4.5,-1.5 5.5,3.75 5.5,3.75 l 0.75,132.5"
         style="fill:none;fill-rule:evenodd;stroke:#000000;stroke-width:1px;stroke-linecap:butt;stroke-linejoin:miter;stroke-opacity:1" />
      <path
         sodipodi:nodetypes="ccccscccccccccccccccccccccccc"
         inkscape:connector-curvature="0"
         id="path7498"
         d="m 640.75,537.5 -2,-3.75 -5,6 -1.75,-11 c 0,0 -14,11 -15,11.25 -1,0.25 5.5,-12.5 5.5,-12.5 l -9.25,3.5 13.5,-19 -15,8.5 15.5,-19.75 -8.5,2.25 10.56066,-22.5533 -12.84619,2.50305 L 657.5,440.25 l 26.25,34 -6.25,0.25 14.25,15 -10.75,2.75 10.5,12.5 -12,-1.5 10.5,13 -10.25,1 8.5,17.5 -9.75,-2.75 1.5,13 -7,-8.25 -2.5,8.5 -4,-10 -2.25,5.5"
         style="fill:none;fill-rule:evenodd;stroke:#000000;stroke-width:1px;stroke-linecap:butt;stroke-linejoin:miter;stroke-opacity:1" />
      <path
         inkscape:connector-curvature="0"
         id="path7500"
         d="m 725,463.25 -19.5,24.25 6,0.25 -11,12.75 12.5,-2.75 -12.75,14.75 6.5,-1.5 -11.75,22 14.25,-8.5 1.75,11.75 5.25,-7 5.25,8.25 7,-11 10,12.5 0.5,-5.75 10.75,3.5 -4.5,-13.75 8.25,3.75 -8.5,-14.25 9.75,2 L 742,498 l 7.75,1.5 -9.25,-13.25 10.75,3 z"
         style="fill:none;fill-rule:evenodd;stroke:#000000;stroke-width:1px;stroke-linecap:butt;stroke-linejoin:miter;stroke-opacity:1" />
      <path
         sodipodi:nodetypes="ccscc"
         inkscape:connector-curvature="0"
         id="path7502"
         d="m 721,566.5 2,-65.75 c 0,0 0.75,-7 5,-7.25 1.45522,-0.0856 4,6.25 4,6.25 l 6.25,93.75"
         style="fill:#ffffff;fill-rule:evenodd;stroke:#000000;stroke-width:1px;stroke-linecap:butt;stroke-linejoin:miter;stroke-opacity:1" />
      <g
         transform="translate(0,6)"
         id="g7456">
        <path
           style="fill:#000000;fill-rule:evenodd;stroke:none;stroke-width:1.07821512px;stroke-linecap:butt;stroke-linejoin:miter;stroke-opacity:1"
           d="m 693.9115,562.5592 c -0.86265,-0.13895 -1.42425,7.46101 -2.52368,9.50206 -0.24605,8.28584 -7.76181,-0.77855 -11.49309,3.42856 -5.47007,5.14355 -6.12944,-2.35816 -9.32491,-4.63961 -2.70694,-8.16147 -4.16108,1.04574 -2.60567,4.78057 -1.83186,3.19698 0.65223,8.30305 3.36102,10.1178 -0.9781,5.79697 3.09715,10.00523 6.00766,17.26366 -9.02928,-3.47896 -10.35079,1.36458 -23.37877,7.72525 -6.37016,3.11012 -15.03951,8.5018 -22.72491,9.81561 -0.32268,-0.46437 -0.71676,-0.85882 -1.04421,-1.32011 -0.37651,-0.44854 -0.48607,-1.08076 -0.52114,-1.68365 -0.0723,-1.37559 -0.26488,-2.8769 -1.15157,-3.88534 -0.33152,-0.46616 -0.85616,-0.58909 -1.29404,-0.86342 -0.39957,-0.27206 -1.17577,-0.58202 -1.35652,0.14542 -0.18151,0.89929 0.0888,1.82101 0.32986,2.66975 0.29827,0.76037 0.51062,1.56222 0.67728,2.37439 0.12253,0.96527 0.46095,1.87518 0.5465,2.84697 -0.16889,-0.006 -0.34224,0.002 -0.50941,-0.009 -5.4711,-0.49691 -10.41345,-12.57879 -15.19289,-3.65358 1.03392,1.3049 8.023,0.25504 11.37905,5.04413 -0.7236,0.41526 -9.12272,-0.59856 -10.44022,4.82374 3.64486,0.96197 10.09349,-1.85689 14.74201,-0.77934 0.53011,-0.46467 -9.22053,3.98805 -6.26849,6.59612 5.11224,-3.27412 13.40176,-4.35101 18.61563,-7.50497 4.84568,-2.86195 10.05828,-4.78255 15.30414,-6.40061 5.7571,-2.51985 14.52613,-3.10669 16.90841,-6.74683 3.92562,4.42781 5.47784,18.43435 6.36485,24.91244 -0.85837,6.70901 -5.17933,11.62167 -8.98212,16.20493 -2.68338,4.5715 -6.17776,9.6913 -4.86195,15.62092 1.5721,5.10536 1.84619,10.59141 -0.24983,15.56637 -4.63752,2.02112 -10.04655,-3.66976 -15.18118,-2.78109 -6.67403,6.83929 2.30248,7.75492 6.83134,9.90422 4.80751,0.15362 12.85335,8.29207 15.21435,0.27039 1.88889,-8.48865 4.02378,-18.12224 0.79438,-26.57259 1.90152,-6.74419 8.93705,-10.27627 12.4057,-16.11623 2.47552,-4.14765 6.33195,1.84042 11.79537,-1.53493 2.95448,3.4782 6.69188,10.35486 5.04933,15.2551 -1.01002,5.74678 -0.52931,11.96066 -0.42217,17.91472 -0.70881,2.80575 -2.01075,4.95697 -6.079,4.2541 -6.02003,-1.03702 -5.02637,3.6701 0.0401,5.77737 2.63037,3.09684 8.31591,6.3263 13.22094,-0.69322 -0.60011,-7.28745 -1.80571,-12.34381 1.41177,-18.46313 3.95357,-6.38874 0.87138,-14.76738 -0.17176,-21.72385 -0.6491,-7.56991 -7.78546,-11.63629 -8.18979,-19.24269 0.49631,-5.86584 4.24618,-11.49262 1.30576,-17.4068 10.62426,3.58907 17.39319,-0.16462 20.96027,-2.28407 6.83916,-2.7776 9.10187,-18.37275 10.47746,-20.25645 0.64103,-1.91481 5.46134,-11.68348 0.57782,-7.92877 -0.0837,0.38973 -0.19817,0.52351 -0.30449,0.22722 0.11401,-0.0926 0.19902,-0.14613 0.30449,-0.22722 0.34134,-1.58922 0.16775,-7.60518 -3.18926,-7.73433 -2.81627,5.74697 0.29716,-0.64014 -1.67465,-3.63314 -6.84749,-5.00306 -3.81268,8.53363 -6.93283,9.84741 -3.66896,-9.87478 -6.57119,0.70431 -2.06085,4.07207 6.76559,-2.31425 8.93569,4.78852 3.44469,16.80201 -5.0678,4.09035 -10.6276,3.04882 -16.61074,1.37892 -4.23337,-1.99208 -7.26489,-10.24588 -13.40028,-5.39378 -0.44471,-0.28611 4.13189,-7.47999 3.9368,-10.91305 1.63922,-5.55418 0.55383,-12.95554 -0.47624,-17.59539 -2.62779,8.12693 -1.04729,-0.29449 -2.39683,-3.94441 -0.38568,-2.25882 -0.70592,-3.16422 -0.99347,-3.21053 z"
           id="path7444"
           inkscape:connector-curvature="0"
           sodipodi:nodetypes="cccccccsccccccccccccccccccccccccccccccccccccccccccccccccccccsc" />
        <path
           style="fill:#000000;fill-rule:evenodd;stroke:none;stroke-width:1.07821512px;stroke-linecap:butt;stroke-linejoin:miter;stroke-opacity:1"
           d="m 702.42321,636.29411 c 1.80178,-3.14625 4.70279,-5.96556 8.15657,-5.45865 3.39531,-0.13367 6.71829,-1.19723 9.94897,-2.35121 3.20613,-1.35007 5.6698,-4.32862 7.86814,-7.24274 0.99672,-1.32113 1.87753,-4.95608 1.58277,-1.22017 -0.0321,2.85219 1.93159,-2.72285 2.61164,-3.42116 2.03655,-3.90072 3.83601,-8.02895 4.8121,-12.4715 -0.75071,3.82722 0.14358,7.90155 -0.99033,11.6881 -0.6046,2.04045 -2.07371,7.17757 0.524,3.25216 0.91175,-1.0797 3.38507,-4.72245 2.56756,-1.07919 -0.74123,5.91582 -2.66935,12.01097 -6.71826,15.92365 -8.78243,10.26659 -9.4417,6.66086 -17.48434,6.13917 -2.92333,-0.26559 -8.01005,-5.52106 -11.43831,-1.67864"
           id="path7451"
           inkscape:connector-curvature="0"
           sodipodi:nodetypes="ccccccccccccc" />
        <path
           sodipodi:nodetypes="ccccccccccccccccccccccccc"
           inkscape:connector-curvature="0"
           id="path7462"
           d="m 707.95069,572.43562 c -2.302,0.28643 -5.0708,0.0592 -6.53902,-1.98493 -2.34356,-3.37954 -2.15979,-7.66559 -2.96616,-11.54406 -0.52102,-2.79817 -1.47456,-5.48892 -2.4753,-8.1442 0.93237,0.0151 2.37161,1.35099 3.36146,2.07098 1.3955,1.06962 2.46244,2.68748 3.4398,3.98337 -0.0159,-1.76067 -0.59736,-3.47641 -0.7848,-5.23013 -0.69744,-3.45322 -1.69144,-6.86249 -3.26945,-10.02349 -0.3631,-1.02471 -1.37297,-3.13274 -1.21291,-3.64474 2.61851,2.79515 5.1406,5.68327 7.60417,8.61663 1.63023,2.3029 3.69716,4.30691 4.89237,6.90018 0.4547,0.45357 0.94519,3.15493 1.03939,1.2957 0.51112,-3.63704 0.63455,-7.34419 0.29361,-11.00235 -0.27915,-0.83252 0.13326,-1.52579 0.39542,-0.28897 0.49708,1.94813 0.43984,4.00019 1.01733,5.94073 0.62092,2.32363 1.57162,4.54608 2.35741,6.8175 0.61569,1.26733 1.10181,2.94268 2.40697,3.60735 -0.51351,-1.21209 -0.74919,-2.78447 -0.17125,-4.12283 0.42794,-1.14621 0.8657,-3.52713 0.92151,-4.06997 0.14935,1.5026 0.57422,2.99698 1.18237,4.37606 1.32467,1.91023 1.73426,4.23736 1.78903,6.51845 0.21198,2.37249 0.11294,5.13194 -1.82414,6.82161 -1.60004,1.59397 -4.01538,1.02705 -6.02325,1.39859 -0.81496,0.30127 -0.78099,-0.62906 -0.52849,-0.55385 -0.92336,1.894 -3.03388,1.99035 -4.90607,2.26237 z"
           style="fill:none;fill-rule:evenodd;stroke:#000000;stroke-width:1px;stroke-linecap:butt;stroke-linejoin:miter;stroke-opacity:1" />
        <path
           sodipodi:nodetypes="cccccc"
           inkscape:connector-curvature="0"
           id="path7464"
           d="m 703.38752,530.76525 c -0.24286,-0.97568 -0.62534,-1.95615 -1.33418,-2.68992 -0.42939,-0.26171 -0.10132,-1.0298 0.34647,-0.63616 1.41514,0.98487 2.73843,2.12979 3.76622,3.52247 0.72108,0.80386 1.41137,1.80853 1.3095,2.9413 0.26721,4.16385 -5.95581,2.64563 -4.08801,-3.13769 z"
           style="fill:none;fill-rule:evenodd;stroke:#000000;stroke-width:1px;stroke-linecap:butt;stroke-linejoin:miter;stroke-opacity:1" />
        <path
           sodipodi:nodetypes="scccs"
           inkscape:connector-curvature="0"
           id="path7468"
           d="m 690.54232,544.84413 c 0.28562,-1.87878 0.21581,-3.77707 -0.0456,-5.65998 0.68272,0.81861 1.00259,1.86374 1.615,2.73056 0.69935,1.08297 1.83801,1.92085 2.13107,3.23332 -0.81161,4.64438 -3.92382,1.16528 -3.70047,-0.3039 z"
           style="fill:none;fill-rule:evenodd;stroke:#000000;stroke-width:1px;stroke-linecap:butt;stroke-linejoin:miter;stroke-opacity:1" />
        <path
           inkscape:connector-curvature="0"
           id="path7484"
           d="m 711.125,571.875 32.5,29.625 c 0,0 3.125,1.5 3.75,-0.25 0.625,-1.75 -0.25,-3.125 -0.25,-3.125 l -26.25,-31"
           style="fill:none;fill-rule:evenodd;stroke:#000000;stroke-width:1px;stroke-linecap:butt;stroke-linejoin:miter;stroke-opacity:1" />
        <path
           sodipodi:nodetypes="ccc"
           inkscape:connector-curvature="0"
           id="path7486"
           d="m 537.5,627.5 c 4.1332,10.7821 16.83437,22.69452 47.5,28.25 59.7943,5.06525 122.22926,5.92501 164.75,38.5"
           style="fill:none;fill-rule:evenodd;stroke:#000000;stroke-width:1px;stroke-linecap:butt;stroke-linejoin:miter;stroke-opacity:1" />
      </g>
      <path
         inkscape:connector-curvature="0"
         id="path7504"
         d="M 630.25,608.5 640.5,558.25"
         style="fill:none;fill-rule:evenodd;stroke:#000000;stroke-width:1px;stroke-linecap:butt;stroke-linejoin:miter;stroke-opacity:1" />
      <path
         inkscape:connector-curvature="0"
         id="path7506"
         d="m 647.75,538.5 c 0,1.25 -10.5,66.25 -10.5,66.25 l 0.5,0"
         style="fill:none;fill-rule:evenodd;stroke:#000000;stroke-width:1px;stroke-linecap:butt;stroke-linejoin:miter;stroke-opacity:1" />
      <path
         inkscape:connector-curvature="0"
         id="path7508"
         d="m 655.5,489.75 -10.75,48.5"
         style="fill:none;fill-rule:evenodd;stroke:#000000;stroke-width:1px;stroke-linecap:butt;stroke-linejoin:miter;stroke-opacity:1" />
      <path
         inkscape:connector-curvature="0"
         id="path7510"
         d="m 657.5,517.25 -0.25,49"
         style="fill:none;fill-rule:evenodd;stroke:#000000;stroke-width:1px;stroke-linecap:butt;stroke-linejoin:miter;stroke-opacity:1" />
      <path
         inkscape:connector-curvature="0"
         id="path7512"
         d="m 659,610.25 0.5,-41.75"
         style="fill:none;fill-rule:evenodd;stroke:#000000;stroke-width:1px;stroke-linecap:butt;stroke-linejoin:miter;stroke-opacity:1" />
      <path
         inkscape:connector-curvature="0"
         id="path7514"
         d="m 651,547 1,60"
         style="fill:none;fill-rule:evenodd;stroke:#000000;stroke-width:1px;stroke-linecap:butt;stroke-linejoin:miter;stroke-opacity:1" />
      <path
         inkscape:connector-curvature="0"
         id="path7516"
         d="m 652,539 2.5,-33.25"
         style="fill:none;fill-rule:evenodd;stroke:#000000;stroke-width:1px;stroke-linecap:butt;stroke-linejoin:miter;stroke-opacity:1" />
      <path
         inkscape:connector-curvature="0"
         id="path7518"
         d="m 658.25,510.75 1.75,-26"
         style="fill:none;fill-rule:evenodd;stroke:#000000;stroke-width:1px;stroke-linecap:butt;stroke-linejoin:miter;stroke-opacity:1" />
      <path
         inkscape:connector-curvature="0"
         id="path7520"
         d="m 718.75,585.75 -2,27.5"
         style="fill:none;fill-rule:evenodd;stroke:#000000;stroke-width:1px;stroke-linecap:butt;stroke-linejoin:miter;stroke-opacity:1" />
      <path
         inkscape:connector-curvature="0"
         id="path7522"
         d="M 739.75,603.25 741.5,619"
         style="fill:none;fill-rule:evenodd;stroke:#000000;stroke-width:1px;stroke-linecap:butt;stroke-linejoin:miter;stroke-opacity:1" />
      <path
         inkscape:connector-curvature="0"
         id="path7524"
         d="m 758.5,620 c 0,0 -14.75,-1.5 -16.5,-1.25 -1.75,0.25 -8.25,-1.75 -11.75,-0.5 -3.5,1.25 -12.5,3.25 -14,3.5 -1.5,0.25 -4.75,-1.25 -4.75,-1.25 l -0.5,0 0,0"
         style="fill:none;fill-rule:evenodd;stroke:#000000;stroke-width:1px;stroke-linecap:butt;stroke-linejoin:miter;stroke-opacity:1" />
      <path
         inkscape:connector-curvature="0"
         id="path7526"
         d="M 725,505.25 723.5,567"
         style="fill:none;fill-rule:evenodd;stroke:#000000;stroke-width:1px;stroke-linecap:butt;stroke-linejoin:miter;stroke-opacity:1" />
      <path
         inkscape:connector-curvature="0"
         id="path7528"
         d="m 722.5,605.75 2,-16.25"
         style="fill:none;fill-rule:evenodd;stroke:#000000;stroke-width:1px;stroke-linecap:butt;stroke-linejoin:miter;stroke-opacity:1" />
      <path
         inkscape:connector-curvature="0"
         id="path7530"
         d="m 727.5,573.5 0.25,-31"
         style="fill:none;fill-rule:evenodd;stroke:#000000;stroke-width:1px;stroke-linecap:butt;stroke-linejoin:miter;stroke-opacity:1" />
      <path
         inkscape:connector-curvature="0"
         id="path7532"
         d="m 727.75,499.5 1,30.25"
         style="fill:none;fill-rule:evenodd;stroke:#000000;stroke-width:1px;stroke-linecap:butt;stroke-linejoin:miter;stroke-opacity:1" />
      <path
         inkscape:connector-curvature="0"
         id="path7534"
         d="m 730.75,509.25 3.5,68"
         style="fill:none;fill-rule:evenodd;stroke:#000000;stroke-width:1px;stroke-linecap:butt;stroke-linejoin:miter;stroke-opacity:1" />
    </g>
  </g>
</svg>
