<?xml version="1.0" encoding="UTF-8" standalone="no"?>
<!-- Created with Inkscape (http://www.inkscape.org/) -->

<svg
   xmlns:dc="http://purl.org/dc/elements/1.1/"
   xmlns:cc="http://creativecommons.org/ns#"
   xmlns:rdf="http://www.w3.org/1999/02/22-rdf-syntax-ns#"
   xmlns:svg="http://www.w3.org/2000/svg"
   xmlns="http://www.w3.org/2000/svg"
   xmlns:sodipodi="http://sodipodi.sourceforge.net/DTD/sodipodi-0.dtd"
   xmlns:inkscape="http://www.inkscape.org/namespaces/inkscape"
   width="168.80627mm"
   height="85.816101mm"
   viewBox="0 0 598.13247 304.0728"
   id="svg19116"
   version="1.1"
   inkscape:version="0.91 r13725"
   sodipodi:docname="break-in-straw-apt.svg">
  <defs
     id="defs19118">
    <inkscape:path-effect
       end_linecap_type="butt"
       miter_limit="4"
       linejoin_type="extrp_arc"
       start_linecap_type="butt"
       interpolator_beta="0.2"
       interpolator_type="CubicBezierFit"
       sort_points="true"
       offset_points="0.13514838,0.21916359 | 1.8919696,0.4729249 | 3.9525396,0.18126127"
       is_visible="true"
       id="path-effect6249-2-7"
       effect="powerstroke" />
    <inkscape:path-effect
       effect="powerstroke"
       id="path-effect6247-1-3"
       is_visible="true"
       offset_points="0.13514838,0.21916359 | 1.9568901,0.51996515 | 3.9525396,0.18126127"
       sort_points="true"
       interpolator_type="CubicBezierFit"
       interpolator_beta="0.2"
       start_linecap_type="butt"
       linejoin_type="extrp_arc"
       miter_limit="4"
       end_linecap_type="butt" />
    <inkscape:path-effect
       end_linecap_type="butt"
       miter_limit="4"
       linejoin_type="extrp_arc"
       start_linecap_type="butt"
       interpolator_beta="0.2"
       interpolator_type="CubicBezierFit"
       sort_points="true"
       offset_points="0.14551967,0.31360435 | 1.0153472,0.85594363 | 1.8345489,0.33792296"
       is_visible="true"
       id="path-effect5324-6-3"
       effect="powerstroke" />
    <inkscape:path-effect
       end_linecap_type="butt"
       miter_limit="4"
       linejoin_type="extrp_arc"
       start_linecap_type="butt"
       interpolator_beta="0.2"
       interpolator_type="CubicBezierFit"
       sort_points="true"
       offset_points="0.29543765,0.53647446 | 1.0737116,1.2734135 | 2,0.17379033"
       is_visible="true"
       id="path-effect5328-4-4"
       effect="powerstroke" />
  </defs>
  <sodipodi:namedview
     id="base"
     pagecolor="#ffffff"
     bordercolor="#666666"
     borderopacity="1.0"
     inkscape:pageopacity="0.0"
     inkscape:pageshadow="2"
     inkscape:zoom="0.35"
     inkscape:cx="1888.3519"
     inkscape:cy="-719.39217"
     inkscape:document-units="px"
     inkscape:current-layer="layer1"
     showgrid="false"
     fit-margin-top="0"
     fit-margin-left="0"
     fit-margin-right="0"
     fit-margin-bottom="0"
     inkscape:window-width="2560"
     inkscape:window-height="1403"
     inkscape:window-x="2560"
     inkscape:window-y="0"
     inkscape:window-maximized="1" />
  <metadata
     id="metadata19121">
    <rdf:RDF>
      <cc:Work
         rdf:about="">
        <dc:format>image/svg+xml</dc:format>
        <dc:type
           rdf:resource="http://purl.org/dc/dcmitype/StillImage" />
        <dc:title></dc:title>
      </cc:Work>
    </rdf:RDF>
  </metadata>
  <g
     inkscape:label="Layer 1"
     inkscape:groupmode="layer"
     id="layer1"
     transform="translate(2073.3519,468.24563)">
    <g
       transform="matrix(0.9375,0,0,0.9375,-2151.9473,-632.45413)"
       style="display:inline"
       id="g18945">
      <path
         sodipodi:nodetypes="cccccccccccccccccccc"
         inkscape:connector-curvature="0"
         id="path8401"
         d="m 609.38977,263.61306 c 2.58696,-4.98423 8.35393,-8.74651 14.09088,-7.35817 3.96468,0.83976 6.62165,4.17438 9.80261,6.3846 1.30228,-2.69684 3.1873,-6.37982 4.28105,-9.62555 1.04134,-2.40587 0.84585,-6.76613 1.4694,-8.30084 1.44938,4.32463 0.65589,8.98176 0.42215,13.43537 2.09648,-4.65023 4.69454,-9.205 5.55329,-14.29574 1.62339,5.99851 2.12805,12.30692 1.86619,18.49952 -0.57402,6.3904 -5.18385,11.20717 -7.88429,16.72752 -4.15206,0.81326 -5.39417,5.12838 -5.14185,8.84632 -0.0245,3.6288 2.70343,6.73527 2.53428,10.49937 -2.29076,10.40521 -27.78918,-12.89769 -30.56146,-2.6103 1.98005,-3.82599 3.14917,-8.6428 2.0772,-13.07877 -1.86399,-3.08614 -5.07056,-5.13286 -7.12069,-8.12099 -0.93087,-3.01186 -0.27418,-6.06538 -2.81233,-8.54485 -3.47419,-5.8114 -4.67018,-13.32031 -1.76241,-19.58311 0.75829,1.21175 2.24419,5.79951 3.11434,4.87603 -0.34422,-3.21566 0.21595,-7.05322 2.63463,-9.3404 1.0129,5.8958 1.91095,12.07719 5.63109,16.99652 1.17431,1.48105 2.7032,3.3297 2.0336,4.64873"
         style="fill:#000000;fill-rule:evenodd;stroke:#000000;stroke-width:1px;stroke-linecap:butt;stroke-linejoin:miter;stroke-opacity:1" />
      <path
         sodipodi:nodetypes="cccccccccccccccccccccccc"
         inkscape:connector-curvature="0"
         id="path8412"
         d="m 600.30329,289.14536 c -1.58268,-0.88058 -3.2491,-1.66658 -5.11472,-1.67707 -3.90365,-0.2354 -7.6066,1.26394 -11.31606,2.25176 -1.78521,0.5636 -3.62391,1.16314 -5.13902,2.28382 -1.22644,1.2579 0.43668,2.61342 1.67212,2.84308 2.89009,0.81777 5.89985,0.36025 8.85087,0.40505 1.73342,0.16109 3.44059,0.53301 5.17737,0.67424 -0.0524,0.33969 -2.18616,0.59622 -2.97825,1.03203 -2.6364,1.07297 -5.1568,2.39234 -7.6335,3.78801 -1.25633,0.74843 -3.16553,1.23074 -3.39406,2.91326 -0.0388,1.4437 1.6729,1.968 2.83375,2.14048 1.64831,0.18551 3.23496,-0.47013 4.80316,-0.88695 1.91993,-0.56809 3.72992,-1.57282 5.77988,-1.5939 0.673,-0.0404 1.31435,-0.15584 0.26264,-0.0965 -1.65304,0.2805 -2.59577,1.93164 -3.97116,2.76677 -2.27586,1.77587 -4.58033,3.59452 -6.3632,5.88484 -1.30521,1.54219 -1.81232,3.56267 -1.71858,5.55171 0.55435,7.8026 8.07103,-2.19827 11.35633,-4.63043 1.92341,-1.71599 7.19815,-1.68197 8.45297,-3.88086 1.38741,-2.66897 2.05165,-5.67534 2.16247,-8.66824 0.061,-1.94556 -0.0452,-3.90142 -0.62439,-5.77083 -0.23712,-1.32017 -0.79752,-2.54479 -1.66718,-3.56557 -0.35638,-1.12992 -1.45912,-2.54945 -2.55995,-1.17503 -0.20343,0.17819 -0.40283,0.36375 -0.63292,0.50816"
         style="fill:#000000;fill-rule:evenodd;stroke:none;stroke-width:1px;stroke-linecap:butt;stroke-linejoin:miter;stroke-opacity:1" />
      <path
         style="fill:#000000;fill-rule:evenodd;stroke:none;stroke-width:1px;stroke-linecap:butt;stroke-linejoin:miter;stroke-opacity:1"
         d="m 642.31253,310.51773 c -2.8296,0.12722 -5.89927,0.99134 -7.68554,3.34179 -2.55443,4.08093 -2.81508,9.3687 -1.15039,13.83008 0.48049,1.29814 1.41357,2.56995 2.85212,2.8392 3.68879,-4.30768 16.40371,7.09987 19.34124,6.61197 0.6539,-4.3431 -2.00187,-8.67305 -5.724,-10.77389 -2.08512,-1.20604 -4.17245,-2.40826 -6.25843,-3.61283 1.47645,-0.79421 3.09782,0.1062 4.63805,0.13881 2.58217,0.39612 5.24567,0.70505 7.8268,0.13268 0.94143,-0.51748 0.63178,-2.2116 -0.44922,-2.32227 -3.3856,-1.63228 -7.03576,-2.5876 -10.63086,-3.63281 -0.94449,0.80788 -1.38908,-1.51199 -0.25947,-1.30248 1.02287,0.2041 2.12118,-0.0344 3.1731,-6.9e-4 3.33999,-0.0998 6.683,-0.16417 10.01606,-0.41558 1.01321,-0.45987 0.53736,-2.15039 -0.5,-2.22266 -5.00996,-1.12541 -9.99708,-2.73976 -15.18946,-2.61132 z"
         id="path8422"
         inkscape:connector-curvature="0"
         sodipodi:nodetypes="cccccccccccccccc" />
      <ellipse
         transform="matrix(0.769782,-0.63830688,0.63830688,0.769782,0,0)"
         ry="1.9445436"
         rx="4.9497471"
         cy="612.68555"
         cx="303.32547"
         id="path8425"
         style="fill:#ffffff;fill-opacity:1;stroke:none;stroke-width:1.76383424;stroke-linecap:round;stroke-linejoin:round;stroke-miterlimit:4;stroke-dasharray:none;stroke-opacity:1" />
      <ellipse
         style="fill:#ffffff;fill-opacity:1;stroke:none;stroke-width:1.76383424;stroke-linecap:round;stroke-linejoin:round;stroke-miterlimit:4;stroke-dasharray:none;stroke-opacity:1"
         id="ellipse8427"
         cx="-646.38312"
         cy="-175.7361"
         rx="4.9497471"
         ry="1.9445436"
         transform="matrix(-0.769782,-0.63830688,-0.63830688,0.769782,0,0)" />
      <path
         sodipodi:nodetypes="cccc"
         inkscape:connector-curvature="0"
         id="rect8308"
         d="m 314.33727,353.97279 0,-98.60212 c 55.3809,-20.12409 94.9016,-22.61296 155.03105,0 l 0,98.60212"
         style="fill:#ffffff;fill-opacity:1;stroke:#000000;stroke-width:1.18797743;stroke-linecap:round;stroke-linejoin:round;stroke-miterlimit:4;stroke-dasharray:none;stroke-opacity:1" />
      <path
         sodipodi:nodetypes="ccccc"
         inkscape:connector-curvature="0"
         id="path8379"
         d="m 470.94804,236.81144 c -6.88786,-5.87554 -12.93008,-4.14025 -18.70506,0 l 0,117.90088 18.70506,0 z"
         style="fill:#ffffff;fill-opacity:1;stroke:#000000;stroke-width:1.18797743;stroke-linecap:round;stroke-linejoin:round;stroke-miterlimit:4;stroke-dasharray:none;stroke-opacity:1" />
      <path
         style="fill:#ffffff;fill-opacity:1;stroke:#000000;stroke-width:1.18797743;stroke-linecap:round;stroke-linejoin:round;stroke-miterlimit:4;stroke-dasharray:none;stroke-opacity:1"
         d="m 333.14266,236.81144 c -6.88786,-5.87554 -12.93008,-4.14025 -18.70506,0 l 0,117.90088 18.70506,0 z"
         id="rect8333"
         inkscape:connector-curvature="0"
         sodipodi:nodetypes="ccccc" />
      <path
         style="fill:#ffffff;fill-opacity:1;stroke:#000000;stroke-width:1.16131997;stroke-linecap:round;stroke-linejoin:round;stroke-miterlimit:4;stroke-dasharray:none;stroke-opacity:1"
         d="m 324.63261,318.78908 c -3.95788,0.10169 -7.70559,-1.23125 -11.35763,-3.21084 l 0,-10.09797 c 6.49249,3.51927 13.2865,4.9943 21.03013,0 l 0,10.09797 c -3.38784,2.185 -6.59415,3.13183 -9.6725,3.21084 z"
         id="path8501"
         inkscape:connector-curvature="0" />
      <path
         inkscape:connector-curvature="0"
         id="path8503"
         d="m 462.43798,318.78908 c -3.95787,0.10169 -7.70559,-1.23125 -11.35762,-3.21084 l 0,-10.09797 c 6.49249,3.51927 13.28649,4.9943 21.03012,0 l 0,10.09797 c -3.38783,2.185 -6.59414,3.13183 -9.6725,3.21084 z"
         style="fill:#ffffff;fill-opacity:1;stroke:#000000;stroke-width:1.16131997;stroke-linecap:round;stroke-linejoin:round;stroke-miterlimit:4;stroke-dasharray:none;stroke-opacity:1" />
      <path
         sodipodi:nodetypes="ccccccc"
         inkscape:connector-curvature="0"
         id="path8284"
         d="m 325.13195,348.84647 c -10.0273,-7.6787 -5.20731,-23.56948 -2.28656,-37.73667 4.46172,-12.07229 -10.11008,-25.68116 4.85211,-26.64733 15.60808,-5.14913 43.89363,2.9276 59.76732,0.78543 20.70189,3.64898 40.92643,-9.02781 61.31189,-2.12269 12.89752,4.3754 24.11891,19.32041 11.47967,30.82896 -6.96164,11.06158 4.15386,27.61932 -7.69016,36.51308"
         style="fill:#ffffff;fill-rule:evenodd;stroke:#000000;stroke-width:1.18797755px;stroke-linecap:butt;stroke-linejoin:miter;stroke-opacity:1" />
      <path
         style="fill:#ffffff;fill-opacity:1;stroke:#000000;stroke-width:1.27533698;stroke-linecap:round;stroke-linejoin:round;stroke-miterlimit:4;stroke-dasharray:none;stroke-opacity:1"
         d="m 281.71161,498.86239 0,-36.76649 c 63.93096,-20.09086 134.23806,-22.57562 203.65069,0 l 0,36.76649 z"
         id="path8397"
         inkscape:connector-curvature="0"
         sodipodi:nodetypes="ccccc" />
      <path
         sodipodi:nodetypes="cccccc"
         inkscape:connector-curvature="0"
         id="path8276"
         d="m 329.69299,474.87149 c 1.24142,7.72951 0.88254,10.3064 2.34247,17.37038 0.61725,-1.08817 8.3663,-10.08169 9.22123,-11.08782 l 8.83344,8.44114 c 1.45042,-7.54514 4.31849,-10.36375 2.94085,-17.61943 0.0468,0.19263 0.0872,0.3867 0.13044,0.58014"
         style="fill:none;fill-rule:evenodd;stroke:#000000;stroke-width:2.37595487;stroke-linecap:butt;stroke-linejoin:miter;stroke-miterlimit:4;stroke-dasharray:none;stroke-opacity:1" />
      <path
         sodipodi:nodetypes="cccccccccccc"
         inkscape:connector-curvature="0"
         id="path8260"
         d="m 444.14142,349.57699 c 5.82287,3.53063 24.94694,0.15964 27.53037,7.98158 1.20002,7.61465 -1.28238,15.31004 -0.90422,23.01345 -1.0295,12.93288 -2.79657,26.0008 -0.80563,38.96122 2.49047,12.5641 2.51938,25.5358 1.18013,38.23345 0.31007,9.46845 -16.95276,9.13078 -23.76712,8.89364 -53.24645,-21.99402 -111.59341,29.59639 -157.05883,-3.16821 -0.85452,-8.31834 9.001,-16.04823 10.32813,-23.87682 3.08748,-12.00418 -0.0241,-30.0179 4.30665,-41.6618 3.01232,-10.3034 7.50331,-20.68719 6.30848,-31.64455 0.22346,-8.38708 4.34921,-17.04285 13.72685,-17.43256 4.1841,-1.93965 4.049,1.95898 13.89865,-0.42884"
         style="fill:#ffffff;fill-rule:evenodd;stroke:#000000;stroke-width:1.18797755px;stroke-linecap:butt;stroke-linejoin:miter;stroke-opacity:1" />
      <path
         sodipodi:nodetypes="ccccc"
         inkscape:connector-curvature="0"
         id="path8278"
         d="m 415.0383,460.54701 c 1.72523,8.13867 4.20428,13.95514 9.25417,23.17957 l 7.79045,-10.39577 7.54737,9.97802 c 3.07116,-4.95516 5.47464,-13.61496 4.02528,-18.38736"
         style="fill:none;fill-rule:evenodd;stroke:#000000;stroke-width:2.37595487;stroke-linecap:butt;stroke-linejoin:miter;stroke-miterlimit:4;stroke-dasharray:none;stroke-opacity:1" />
      <path
         inkscape:connector-curvature="0"
         id="path8290"
         d="m 421.67039,396.3642 c -12.18075,-4.81744 -25.28058,-8.74462 -38.50855,-6.69402 -9.42603,1.15457 -19.13742,3.23381 -27.27046,8.30852 -0.89785,0.75721 -1.64176,1.79478 -1.7492,2.99638"
         style="fill:none;fill-rule:evenodd;stroke:#000000;stroke-width:1.18797755px;stroke-linecap:butt;stroke-linejoin:miter;stroke-opacity:1" />
      <text
         xml:space="preserve"
         style="font-style:normal;font-weight:normal;font-size:43.23677444px;line-height:89.99999762%;font-family:Sans;letter-spacing:0px;word-spacing:0px;display:inline;fill:#ffffff;fill-opacity:1;stroke:#000000;stroke-width:1.05931842;stroke-linecap:butt;stroke-linejoin:miter;stroke-miterlimit:4;stroke-dasharray:none;stroke-opacity:1"
         x="354.05859"
         y="223.11354"
         id="text8296"
         sodipodi:linespacing="89.999998%"
         transform="matrix(0.99116725,0.02108272,-0.02145044,1.0084552,0,0)"><tspan
           id="tspan8298"
           sodipodi:role="line"
           x="354.05859"
           y="223.11354"
           style="font-style:normal;font-variant:normal;font-weight:normal;font-stretch:normal;font-size:30.98085022px;line-height:89.99999762%;font-family:'Titan One';-inkscape-font-specification:'Titan One';fill:#ffffff;stroke:#000000;stroke-width:1.05931842;stroke-miterlimit:4;stroke-dasharray:none">z</tspan></text>
      <text
         transform="matrix(0.99116725,0.02108272,-0.02145044,1.0084552,0,0)"
         sodipodi:linespacing="89.999998%"
         id="text8300"
         y="237.18748"
         x="379.58041"
         style="font-style:normal;font-weight:normal;font-size:53.76024628px;line-height:89.99999762%;font-family:Sans;letter-spacing:0px;word-spacing:0px;display:inline;fill:#ffffff;fill-opacity:1;stroke:#000000;stroke-width:1.31714785;stroke-linecap:butt;stroke-linejoin:miter;stroke-miterlimit:4;stroke-dasharray:none;stroke-opacity:1"
         xml:space="preserve"><tspan
           style="font-style:normal;font-variant:normal;font-weight:normal;font-stretch:normal;font-size:38.5213356px;line-height:89.99999762%;font-family:'Titan One';-inkscape-font-specification:'Titan One';fill:#ffffff;stroke:#000000;stroke-width:1.31714785;stroke-miterlimit:4;stroke-dasharray:none"
           y="237.18748"
           x="379.58041"
           sodipodi:role="line"
           id="tspan8302">z</tspan></text>
      <text
         xml:space="preserve"
         style="font-style:normal;font-weight:normal;font-size:42.08438492px;line-height:89.99999762%;font-family:Sans;letter-spacing:0px;word-spacing:0px;display:inline;fill:#ffffff;fill-opacity:1;stroke:#000000;stroke-width:1.03108454;stroke-linecap:butt;stroke-linejoin:miter;stroke-miterlimit:4;stroke-dasharray:none;stroke-opacity:1"
         x="407.33023"
         y="250.71941"
         id="text8304"
         sodipodi:linespacing="89.999998%"
         transform="matrix(0.99116725,0.02108272,-0.02145044,1.0084552,0,0)"><tspan
           id="tspan8306"
           sodipodi:role="line"
           x="407.33023"
           y="250.71941"
           style="font-style:normal;font-variant:normal;font-weight:normal;font-stretch:normal;font-size:30.15512085px;line-height:89.99999762%;font-family:'Titan One';-inkscape-font-specification:'Titan One';fill:#ffffff;stroke:#000000;stroke-width:1.03108454;stroke-miterlimit:4;stroke-dasharray:none">z</tspan></text>
      <path
         sodipodi:nodetypes="cccccc"
         inkscape:connector-curvature="0"
         id="path8244"
         d="m 426.9715,348.24005 c -8.19255,8.3726 -9.44652,18.74098 -8.13865,29.12556 3.15119,-4.07162 10.23561,-7.07413 14.68016,-10.70832 2.46306,3.85302 5.52204,7.97916 8.78264,11.2996 2.88278,-7.73626 6.60907,-16.66396 4.40179,-24.23749 -4.99431,-9.63048 -12.05827,-11.00216 -19.72594,-5.47935 z"
         style="fill:none;fill-rule:evenodd;stroke:#000000;stroke-width:2.37595487;stroke-linecap:butt;stroke-linejoin:miter;stroke-miterlimit:4;stroke-dasharray:none;stroke-opacity:1" />
      <path
         sodipodi:nodetypes="cc"
         inkscape:connector-curvature="0"
         id="path8246"
         d="m 446.99792,361.08359 c -15.22396,-9.80455 -27.85177,0.30406 -27.27397,-1.26022"
         style="fill:none;fill-rule:evenodd;stroke:#000000;stroke-width:1.18797755px;stroke-linecap:butt;stroke-linejoin:miter;stroke-opacity:1" />
      <path
         style="fill:none;fill-rule:evenodd;stroke:#000000;stroke-width:2.37595487;stroke-linecap:butt;stroke-linejoin:miter;stroke-miterlimit:4;stroke-dasharray:none;stroke-opacity:1"
         d="m 355.63478,348.24009 c 8.19254,8.37261 9.44651,18.74097 8.13864,29.12555 -3.15119,-4.07161 -10.23561,-7.07412 -14.68017,-10.70831 -2.46305,3.85302 -5.52203,7.97915 -8.78262,11.29962 -2.88278,-7.73627 -6.60908,-16.66398 -4.40178,-24.23752 4.99428,-9.63049 12.05827,-11.00215 19.72593,-5.47934 z"
         id="path8254"
         inkscape:connector-curvature="0"
         sodipodi:nodetypes="cccccc" />
      <path
         style="fill:none;fill-rule:evenodd;stroke:#000000;stroke-width:1.18797755px;stroke-linecap:butt;stroke-linejoin:miter;stroke-opacity:1"
         d="m 335.60835,361.08363 c 15.22397,-9.80455 27.85178,0.30407 27.27398,-1.26021"
         id="path8256"
         inkscape:connector-curvature="0"
         sodipodi:nodetypes="cc" />
      <path
         sodipodi:nodetypes="ccccccc"
         inkscape:connector-curvature="0"
         id="path5482-0-6"
         d="m 372.37011,297.4796 c -6.10979,-0.77434 -11.27006,-5.68192 -16.30919,-7.04473 -2.92655,-1.06726 -6.12027,-0.66976 -9.08785,-1.55195 -1.15937,-0.0204 -2.88657,-0.53346 -3.69246,0.411 -0.20216,1.1463 2.02736,0.8873 2.13408,2.18868 0.93051,1.37306 0.49752,3.07921 0.82098,4.61515 3.71231,6.81858 6.38157,5.6842 8.27486,13.18643"
         style="display:inline;fill:#ffffff;fill-rule:evenodd;stroke:#000000;stroke-width:2.37595487;stroke-linecap:butt;stroke-linejoin:miter;stroke-miterlimit:4;stroke-dasharray:none;stroke-opacity:1" />
      <path
         style="display:inline;fill:#ffffff;fill-rule:evenodd;stroke:#000000;stroke-width:2.37595487;stroke-linecap:butt;stroke-linejoin:miter;stroke-miterlimit:4;stroke-dasharray:none;stroke-opacity:1"
         d="m 416.3611,297.77659 c 6.1098,-0.77435 11.27007,-5.6819 16.30921,-7.04473 2.92654,-1.06724 6.12027,-0.66973 9.08785,-1.55195 1.15937,-0.0204 2.88656,-0.53346 3.69246,0.41101 0.20216,1.1463 -2.02737,0.88731 -2.13409,2.18868 -0.9305,1.37306 -0.49752,3.0792 -0.82097,4.61515 -3.71231,6.81857 -6.38156,5.6842 -8.27487,13.18643"
         id="path8238"
         inkscape:connector-curvature="0"
         sodipodi:nodetypes="ccccccc" />
      <path
         inkscape:connector-curvature="0"
         id="path5312-0-0"
         d="m 430.77911,305.75144 c -11.1037,-12.5139 -29.25632,-9.94642 -44.26447,-10.73754 -16.41964,0.20905 -35.55391,10.49334 -36.4722,28.63303 -1.09065,16.64039 14.27724,28.13245 29.05792,31.31779 20.6377,5.10476 46.47847,-2.03312 56.72819,-21.80548 3.99821,-9.23657 1.9718,-20.20015 -5.04944,-27.4078 z"
         style="display:inline;fill:none;fill-opacity:1;stroke:#000000;stroke-width:2.37595487;stroke-linecap:round;stroke-linejoin:round;stroke-miterlimit:4;stroke-dasharray:none;stroke-opacity:1" />
      <path
         style="display:inline;fill:none;fill-opacity:1;stroke:#000000;stroke-width:1.53155661;stroke-linecap:round;stroke-linejoin:round;stroke-miterlimit:4;stroke-dasharray:none;stroke-opacity:1"
         d="m 392.55595,319.14952 c -22.5796,-1.29752 -26.77037,19.89124 -3.76183,21.41141 15.58289,1.02955 31.18127,-6.27129 26.39652,-15.16472 -2.9984,-5.48625 -13.96581,-5.74854 -22.63469,-6.24669 z"
         id="path5314-7-1"
         inkscape:connector-curvature="0"
         sodipodi:nodetypes="sscs" />
      <g
         id="g5316-0-1"
         style="display:inline;stroke-width:0.64526463"
         transform="matrix(-0.13228623,-1.3271573,-1.3372648,0.13299856,1462.5923,440.05676)">
        <path
           style="display:inline;fill:#000000;fill-rule:evenodd;stroke:none;stroke-width:0.5918175px;stroke-linecap:butt;stroke-linejoin:miter;stroke-opacity:1"
           d="m 157.64279,789.3309 c 0.12128,0.16575 0.26083,0.30127 0.40334,0.42315 0.38768,0.33157 0.8532,0.49922 1.33311,0.58521 0.64593,0.11572 1.35168,0.0859 1.91003,0.0978 0,0 -0.003,-7e-5 -0.003,-7e-5 0,0 0.0307,-0.002 0.0307,-0.002 1.24148,-0.0776 2.51388,-0.41561 3.61491,-1.13429 0.13345,-0.0929 0.26091,-0.18847 0.3826,-0.28621 0.0444,-0.0356 0.0883,-0.0718 0.13178,-0.10856 0.0164,-0.0523 0.0298,-0.1055 0.0403,-0.15932 0.10842,-0.55806 -0.14015,-0.97288 -0.43905,-1.241 -0.32444,-0.29105 -0.76926,-0.47286 -1.13269,-0.58946 -0.87815,-0.28173 -2.05334,-0.39883 -2.13905,-0.40946 0.83458,0.10349 1.67191,0.18358 2.51098,0.24018 -0.84449,-0.12758 -1.69526,-0.20949 -2.54858,-0.24537 -1.63032,-0.0686 -2.22119,0.10931 -2.42723,0.16307 -0.12551,0.0327 -0.77825,0.17854 -1.31369,0.66335 l 0.24332,0.26874 c 0.48204,-0.43646 1.00125,-0.52298 1.15243,-0.54732 0.19242,-0.031 0.71283,-0.11509 2.2738,0.0523 0.13345,0.0287 1.41276,0.31046 1.9924,0.53769 0.3324,0.13032 0.63263,0.29087 0.8079,0.47677 0.0894,0.0949 0.13423,0.18014 0.14343,0.27049 -0.0632,0.0411 -0.12777,0.0814 -0.19387,0.12091 -0.95079,0.61405 -2.0447,1.00361 -3.17982,1.18142 l 0.0275,-0.002 c -0.60885,0.0521 -1.22287,0.14509 -1.8121,0.0993 -0.42006,-0.0326 -0.80846,-0.13639 -1.13181,-0.37454 -0.12081,-0.089 -0.22534,-0.20546 -0.32369,-0.33988 l -0.35374,0.25884 z"
           id="path5318-5-4"
           inkscape:connector-curvature="0"
           sodipodi:nodetypes="ccccc"
           inkscape:path-effect="#path-effect6249-2-7"
           inkscape:original-d="m 157.81966,789.20148 c 0.81252,1.11044 2.29107,0.89972 3.45704,0.86062 1.33272,-0.14313 2.65854,-0.58354 3.76271,-1.41324 0.29706,-1.35618 -2.52934,-1.6845 -3.32396,-1.84573 -1.75231,-0.13089 -2.82031,-0.0437 -3.59674,0.65931" />
        <path
           inkscape:original-d="m 157.5006,778.36045 c 0.81252,1.11045 2.29107,0.89973 3.45704,0.86063 1.33273,-0.14294 2.65854,-0.58355 3.76271,-1.41324 0.29707,-1.35618 -2.79754,-1.39768 -3.59216,-1.55892 -1.75231,-0.13091 -2.55211,-0.33053 -3.32853,0.37251"
           inkscape:path-effect="#path-effect6247-1-3"
           sodipodi:nodetypes="ccccc"
           inkscape:connector-curvature="0"
           id="path5320-4-7"
           d="m 157.32373,778.48987 c 0.1213,0.16577 0.26147,0.30066 0.40334,0.42315 0.38632,0.33357 0.85137,0.50418 1.33204,0.59336 0.64665,0.11996 1.35423,0.0948 1.91184,0.11151 0,0 -0.006,-1.7e-4 -0.006,-1.7e-4 0,0 0.0348,-0.002 0.0348,-0.002 1.33503,-0.0742 2.71305,-0.4493 3.87713,-1.27873 0.0514,-0.0394 0.10176,-0.0793 0.15119,-0.11945 0.0497,-0.0404 0.0988,-0.0814 0.14732,-0.12317 0.0188,-0.058 0.034,-0.11709 0.0455,-0.17697 0.11693,-0.61124 -0.19705,-1.0339 -0.54193,-1.27714 -0.36612,-0.25821 -0.85769,-0.39343 -1.24671,-0.47299 -0.47463,-0.0971 -0.97671,-0.14495 -1.32091,-0.1726 -0.64762,-0.052 -0.5862,-0.0355 -0.91813,-0.0674 0.31224,0.03 0.62631,0.0364 0.93952,0.0191 -0.32685,-0.005 -0.65364,-0.0133 -0.98032,-0.0248 -1.50974,-0.0531 -1.63342,-0.0631 -2.06362,-0.0132 -0.18878,0.0219 -0.38714,0.0593 -0.54577,0.1025 -0.14942,0.0407 -0.49231,0.13834 -0.86524,0.47603 l 0.24332,0.26872 c 0.31418,-0.28448 0.58654,-0.35758 0.71197,-0.3857 0.14617,-0.0328 0.28999,-0.0412 0.47363,-0.0337 0.65199,0.0265 0.22542,0.0375 1.96214,0.23577 0.21481,0.059 0.49349,0.0986 0.95233,0.1727 0.33651,0.0544 0.8008,0.13282 1.21345,0.24833 0.3664,0.10257 0.69348,0.23497 0.87827,0.39605 0.14516,0.12653 0.14018,0.20153 0.10648,0.30895 l 0.19281,-0.30014 c -0.0448,0.0307 -0.0905,0.061 -0.13686,0.0908 -0.98644,0.6957 -2.14599,1.13797 -3.36024,1.33747 l 0.029,-0.002 c -0.60972,0.057 -1.2216,0.15441 -1.81029,0.11305 -0.41924,-0.0295 -0.80818,-0.13019 -1.13288,-0.36641 -0.12141,-0.0883 -0.22536,-0.20549 -0.32369,-0.33988 l -0.35374,0.25884 z"
           style="display:inline;fill:#000000;fill-rule:evenodd;stroke:none;stroke-width:0.5918175px;stroke-linecap:butt;stroke-linejoin:miter;stroke-opacity:1" />
      </g>
      <path
         style="display:inline;fill:#000000;fill-rule:evenodd;stroke:none;stroke-width:0.99785984px;stroke-linecap:butt;stroke-linejoin:miter;stroke-opacity:1"
         d="m 422.17701,316.99752 0,0 c -9.6e-4,-0.002 -0.10433,-0.12769 -0.22903,-0.38235 -0.30328,-0.6193 -0.96923,-1.87329 -1.82591,-3.22233 -0.6022,-0.9483 -1.31069,-1.96256 -2.06042,-2.83578 -0.73779,-0.85931 -1.56948,-1.64616 -2.42747,-2.07212 -0.0673,-0.0333 -0.13572,-0.0632 -0.20506,-0.0899 -1.03328,-0.39764 -2.25599,-0.0769 -3.31427,0.38811 -1.18009,0.51855 -2.42426,1.33593 -3.53537,2.16737 -1.49442,1.11829 -2.81368,2.31191 -3.51541,2.97725 -0.34804,0.33 -0.57963,0.49695 -0.5818,0.49889 l 0.4489,0.50522 c -0.002,0.002 0.18766,-0.20554 0.56743,-0.48646 0.77258,-0.57148 2.18315,-1.58609 3.73838,-2.5165 1.16816,-0.69884 2.3824,-1.32852 3.44994,-1.69477 1.05699,-0.36263 1.74079,-0.38849 2.12892,-0.24085 0.023,0.009 0.0448,0.018 0.0654,0.0278 0.58106,0.27898 1.28656,0.82823 2.06875,1.58416 0.76627,0.74053 1.53736,1.61211 2.23962,2.46315 0.99321,1.20361 1.81358,2.32317 2.22262,2.87291 0.16657,0.22387 0.22387,0.37371 0.2228,0.37188 l 0.542,-0.31564 z"
         id="path5322-0-8"
         inkscape:connector-curvature="0"
         inkscape:path-effect="#path-effect5324-6-3"
         inkscape:original-d="m 421.90601,317.15534 c 0,0 -3.78438,-6.49852 -6.64831,-7.90234 -2.86394,-1.40382 -10.55098,5.42623 -10.55098,5.42623" />
      <path
         style="display:inline;fill:#000000;fill-rule:evenodd;stroke:none;stroke-width:1.31990659px;stroke-linecap:butt;stroke-linejoin:miter;stroke-opacity:1"
         d="m 387.64277,315.23791 c -0.1244,0.10127 -1.78532,-2.01279 -3.68654,-4.14675 -0.9469,-1.06281 -1.98659,-2.16804 -2.9367,-3.00011 -0.47395,-0.41507 -0.95925,-0.79221 -1.42651,-1.064 -0.42407,-0.24668 -1.02008,-0.51813 -1.661,-0.46299 -0.34811,0.0294 -0.66793,0.14339 -0.93107,0.26726 -0.63309,0.29802 -1.32421,0.82752 -1.98868,1.41655 -0.96113,0.85202 -2.00518,1.95329 -2.94857,3.02925 -1.8969,2.16349 -3.46733,4.31593 -3.32272,4.45016 l 0.25704,0.23398 c 0.14486,0.13446 2.12979,-1.61971 4.30428,-3.40842 1.09096,-0.89741 2.21374,-1.79038 3.17332,-2.46087 0.69023,-0.4823 1.21988,-0.79457 1.56449,-0.93548 0.14253,-0.0583 0.18607,-0.0599 0.14379,-0.0597 -0.0898,0.004 -0.0688,-0.0648 0.32378,0.0854 0.31877,0.12195 0.73229,0.33914 1.21544,0.6393 0.96319,0.59839 2.09719,1.459 3.1823,2.35732 2.15306,1.78243 4.06114,3.67126 3.93625,3.77293 l 0.8011,-0.71376 z"
         id="path5326-8-6"
         inkscape:connector-curvature="0"
         inkscape:path-effect="#path-effect5328-4-4"
         inkscape:original-d="m 387.24222,315.59479 c 0,0 -7.10231,-7.97145 -9.18425,-7.76438 -2.08196,0.20704 -9.18847,8.01386 -9.18847,8.01386"
         sodipodi:nodetypes="csc" />
      <path
         sodipodi:nodetypes="cc"
         inkscape:connector-curvature="0"
         id="path8240"
         d="m 363.04436,299.02884 c -2.56318,-3.69809 -6.4028,-6.31772 -13.06775,-6.53389"
         style="fill:none;fill-rule:evenodd;stroke:#000000;stroke-width:1.18797755px;stroke-linecap:butt;stroke-linejoin:miter;stroke-opacity:1" />
      <path
         inkscape:connector-curvature="0"
         id="path8242"
         d="m 426.30413,298.43484 c 0,0 7.42486,-4.7519 10.6918,-5.34589 3.26693,-0.594 2.96994,-0.297 2.96994,-0.297"
         style="fill:none;fill-rule:evenodd;stroke:#000000;stroke-width:1.18797755px;stroke-linecap:butt;stroke-linejoin:miter;stroke-opacity:1" />
      <path
         sodipodi:nodetypes="cc"
         inkscape:connector-curvature="0"
         id="path8262"
         d="m 356.9877,349.47423 7.13681,-0.0556"
         style="fill:none;fill-rule:evenodd;stroke:#000000;stroke-width:1.18797755px;stroke-linecap:butt;stroke-linejoin:miter;stroke-opacity:1" />
      <path
         inkscape:connector-curvature="0"
         id="path8274"
         d="m 427.7891,347.43891 -3.86092,-0.29699"
         style="fill:none;fill-rule:evenodd;stroke:#000000;stroke-width:1.18797755px;stroke-linecap:butt;stroke-linejoin:miter;stroke-opacity:1" />
      <path
         style="fill:#ffffff;fill-opacity:1;stroke:#000000;stroke-width:1.16131997;stroke-linecap:round;stroke-linejoin:round;stroke-miterlimit:4;stroke-dasharray:none;stroke-opacity:1"
         d="m 462.43798,271.26999 c -3.95787,0.10169 -7.70559,-1.23126 -11.35762,-3.21084 l 0,-10.09798 c 6.49249,3.51928 13.28649,4.99431 21.03012,0 l 0,10.09798 c -3.38783,2.185 -6.59414,3.13183 -9.6725,3.21084 z"
         id="path8493"
         inkscape:connector-curvature="0" />
      <path
         sodipodi:nodetypes="cc"
         style="fill:#ffffff;fill-opacity:1;stroke:#000000;stroke-width:0.97899961;stroke-linecap:round;stroke-linejoin:round;stroke-miterlimit:4;stroke-dasharray:none;stroke-opacity:1"
         d="m 314.92577,237.67509 c 5.47322,2.96677 11.20059,4.21023 17.72852,0"
         id="path8495"
         inkscape:connector-curvature="0" />
      <path
         inkscape:connector-curvature="0"
         id="path8497"
         d="m 452.73115,237.67509 c 5.47321,2.96677 11.20058,4.21023 17.72852,0"
         style="fill:#ffffff;fill-opacity:1;stroke:#000000;stroke-width:0.97899961;stroke-linecap:round;stroke-linejoin:round;stroke-miterlimit:4;stroke-dasharray:none;stroke-opacity:1"
         sodipodi:nodetypes="cc" />
      <path
         inkscape:connector-curvature="0"
         id="path8499"
         d="m 324.63261,271.26999 c -3.95788,0.10169 -7.70559,-1.23126 -11.35763,-3.21084 l 0,-10.09798 c 6.49249,3.51928 13.2865,4.99431 21.03013,0 l 0,10.09798 c -3.38784,2.185 -6.59415,3.13183 -9.6725,3.21084 z"
         style="fill:#ffffff;fill-opacity:1;stroke:#000000;stroke-width:1.16131997;stroke-linecap:round;stroke-linejoin:round;stroke-miterlimit:4;stroke-dasharray:none;stroke-opacity:1" />
      <path
         inkscape:connector-curvature="0"
         id="path8505"
         d="M 282.85587,460.89075 311.96132,360.50666"
         style="fill:none;fill-rule:evenodd;stroke:#000000;stroke-width:1.18797743px;stroke-linecap:butt;stroke-linejoin:miter;stroke-opacity:1" />
      <path
         sodipodi:nodetypes="cc"
         style="fill:none;fill-rule:evenodd;stroke:#000000;stroke-width:1.18797743px;stroke-linecap:butt;stroke-linejoin:miter;stroke-opacity:1"
         d="M 484.21804,462.07872 471.74428,356.34874"
         id="path8507"
         inkscape:connector-curvature="0" />
      <path
         sodipodi:nodetypes="ccccccc"
         inkscape:connector-curvature="0"
         id="path8509"
         d="m 638.81439,312.72658 c -0.35782,-5.82319 4.73987,-14.4958 4.40391,-20.38174 -1.76053,-5.28355 0.32108,-10.38793 2.75059,-15.08827 3.27254,-5.9178 3.57582,-12.82555 6.34737,-18.93556 2.86858,-6.07287 5.64765,-12.19487 7.36226,-18.71429 3.71284,-10.32624 7.05067,-21.07659 6.48376,-32.18587 0.11505,-5.44121 5.17208,-8.81165 6.52233,-13.86446"
         style="fill:none;fill-rule:evenodd;stroke:#000000;stroke-width:1px;stroke-linecap:butt;stroke-linejoin:miter;stroke-opacity:1" />
      <path
         sodipodi:nodetypes="ccccccc"
         inkscape:connector-curvature="0"
         id="path8511"
         d="m 597.44528,186.56021 c -5.89637,3.34045 -0.11741,11.27404 -0.94432,16.71016 1.41726,9.81774 2.10522,20.08834 -1.84994,29.46656 -2.96917,7.17526 -4.17351,15.10357 -2.08827,22.71257 2.31678,8.76948 1.27204,17.87114 1.44487,26.78895 1.87516,6.58837 7.71227,11.79099 7.76627,18.98174 -3.82029,14.4611 11.12323,34.13791 19.97362,32.75912"
         style="fill:none;fill-rule:evenodd;stroke:#000000;stroke-width:1px;stroke-linecap:butt;stroke-linejoin:miter;stroke-opacity:1" />
      <path
         sodipodi:nodetypes="cccccc"
         inkscape:connector-curvature="0"
         id="path8513"
         d="m 603.10276,421.32569 c 1.41803,-10.38844 3.69552,-20.70249 8.19202,-30.23805 2.72414,-6.27764 5.52864,-13.36228 7.34967,-19.47507 1.9105,-7.18746 -13.30053,-30.7128 -11.29294,-37.91872 3.16999,-5.87975 24.74121,6.07105 26.45531,-0.16201 0.61508,-6.49354 8.82975,-11.3148 4.46303,-18.0437"
         style="fill:none;fill-rule:evenodd;stroke:#000000;stroke-width:1px;stroke-linecap:butt;stroke-linejoin:miter;stroke-opacity:1" />
      <path
         sodipodi:nodetypes="cccccc"
         inkscape:connector-curvature="0"
         id="path8519"
         d="m 623.93339,437.76363 c 0.0806,-11.77789 2.89228,-10.50845 4.0982,-22.2584 0.48562,-10.21598 1.50647,-20.62641 6.16343,-29.93953 3.52587,-8.28668 8.58883,-15.88603 15.88166,-21.30811 6.09056,-7.0861 11.92417,-15.13484 14.78617,-24.09455 0.19701,-6.46139 4.02784,-13.37293 3.40267,-19.12034"
         style="fill:none;fill-rule:evenodd;stroke:#000000;stroke-width:1px;stroke-linecap:butt;stroke-linejoin:miter;stroke-opacity:1" />
      <path
         inkscape:connector-curvature="0"
         id="path8523"
         d="m 564.88942,214.05702 c -2.25346,4.2625 0.92205,8.41797 2.12199,12.46308 3.09609,7.7079 7.76542,15.32633 6.94546,23.96305 -0.12363,7.00323 -1.9845,13.8102 -4.01018,20.46371 -2.18401,6.40649 -5.69366,12.50119 -6.42574,19.30393 0.31239,4.89499 3.65409,8.88098 6.63898,12.50416 2.50841,4.62668 3.87192,9.80777 5.88209,14.67203 1.576,4.24127 3.77021,8.88822 2.82463,13.48283"
         style="fill:none;fill-rule:evenodd;stroke:#000000;stroke-width:1px;stroke-linecap:butt;stroke-linejoin:miter;stroke-opacity:1" />
      <path
         inkscape:connector-curvature="0"
         id="path8527"
         d="m 677.9873,356.6126 c -3.15441,-11.05095 -0.9903,-22.49428 2.76299,-33.08506 3.6773,-16.97808 12.4838,-33.42802 10.48162,-51.23302 -0.39723,-9.95908 4.73238,-19.0912 5.6385,-28.94046 1.81282,-8.63345 4.40475,-17.085 7.92964,-25.157 0.28661,-7.37166 13.15383,-9.965 11.48623,-17.00869"
         style="fill:none;fill-rule:evenodd;stroke:#000000;stroke-width:1px;stroke-linecap:butt;stroke-linejoin:miter;stroke-opacity:1" />
      <path
         inkscape:connector-curvature="0"
         id="path8535"
         d="m 569.76761,393.5625 c 1.81518,-6.08353 2.47845,-12.5597 0.95271,-18.80474 -1.65455,-9.96211 -11.43456,-15.33057 -15.17078,-24.29114 -5.70748,-11.84389 -9.13999,-24.63966 -12.47559,-37.30898 -1.78086,-8.0804 -0.56434,-16.31002 -0.01,-24.43844 0.43752,-9.12235 -5.63877,-16.78442 -7.09765,-25.56814 -1.92482,-5.32769 -1.10625,-11.33508 -3.73649,-16.38768"
         style="fill:none;fill-rule:evenodd;stroke:#000000;stroke-width:1px;stroke-linecap:butt;stroke-linejoin:miter;stroke-opacity:1" />
      <path
         sodipodi:nodetypes="cccccccccccccc"
         inkscape:connector-curvature="0"
         id="path8615"
         d="m 676.00345,366.4912 -3.1808,-4.99397 -3.22394,-11.99698 -1.67293,3.20315 -2.76387,22.3132 -0.6101,6.10277 -1.68451,-10.6219 -1.83726,-10.32251 -2.48386,4.84527 -5.99957,11.02758 0.2681,-4.40116 -0.96746,-2.15037 -6.80674,16.63705 -2.52705,3.33513"
         style="fill:none;fill-rule:evenodd;stroke:#000000;stroke-width:1px;stroke-linecap:butt;stroke-linejoin:miter;stroke-opacity:1" />
      <path
         sodipodi:nodetypes="cccccccccccccccccccc"
         inkscape:connector-curvature="0"
         id="path8617"
         d="m 619.88697,356.52167 0.19162,-4.51695 2.05719,-7.21426 1.34929,-1.58701 1.1287,2.89022 1.34956,6.47842 1.17804,6.96628 0.46075,3.6753 1.84024,-7.46549 2.5869,-11.98402 0.69324,-3.42425 -0.0892,5.954 -0.52212,12.63966 0.57675,3.38309 2.06444,-2.49313 6.11158,-12.06021 1.75334,-3.80087 -0.36483,6.01368 -0.10076,9.54227 1.19212,4.14377"
         style="fill:none;fill-rule:evenodd;stroke:#000000;stroke-width:1px;stroke-linecap:butt;stroke-linejoin:miter;stroke-opacity:1" />
      <path
         sodipodi:nodetypes="cccccccccc"
         inkscape:connector-curvature="0"
         id="path8623"
         d="m 575.70649,360.24663 -4.37474,-13.15085 -1.49527,-6.14505 2.49947,2.40592 13.77528,10.23606 0.38572,-6.2514 -0.99948,-18.80053 1.54234,8.60542 4.15721,6.97555 0.52599,-9.46734"
         style="fill:none;fill-rule:evenodd;stroke:#000000;stroke-width:1px;stroke-linecap:butt;stroke-linejoin:miter;stroke-opacity:1" />
      <path
         sodipodi:nodetypes="ccccccccccccccc"
         inkscape:connector-curvature="0"
         id="path8625"
         d="m 550.57888,244.54387 -6.45962,-33.07037 6.46706,10.07221 2.09444,-8.61506 1.02286,-26.55715 2.70961,5.3947 5.4209,16.34802 3.37843,-9.64837 2.15079,-11.94532 2.88858,9.17454 2.85735,12.61268 2.19409,-9.81674 2.1554,-6.64174 2.66569,9.95954 6.17986,17.08573"
         style="fill:none;fill-rule:evenodd;stroke:#000000;stroke-width:1px;stroke-linecap:butt;stroke-linejoin:miter;stroke-opacity:1" />
      <path
         sodipodi:nodetypes="cccccccccccccc"
         inkscape:connector-curvature="0"
         id="path8627"
         d="m 684.61812,214.51702 -0.18221,4.36033 0.18963,-5.11869 0.80647,-8.02389 3.52997,-16.1198 1.92246,2.65242 2.925,9.42518 3.57068,-1.99255 7.48019,-16.59085 2.68504,2.94399 1.57685,7.36802 2.99291,-3.29274 4.13873,-5.90594 5.09672,28.96094"
         style="fill:none;fill-rule:evenodd;stroke:#000000;stroke-width:1px;stroke-linecap:butt;stroke-linejoin:miter;stroke-opacity:1" />
      <path
         sodipodi:nodetypes="ccccccccc"
         inkscape:connector-curvature="0"
         id="path8629"
         d="m 713.81806,253.57145 -13.0369,49.71552 -13.75134,91.18865 0.28986,50.83258 -15.0032,-30.93641 -13.02705,20.20997 -1.59821,-21.50218 -18.16842,20.7877 -2.8505,-6.23742"
         style="fill:none;fill-rule:evenodd;stroke:#000000;stroke-width:1px;stroke-linecap:butt;stroke-linejoin:miter;stroke-opacity:1" />
      <path
         sodipodi:nodetypes="ccccccccccc"
         inkscape:connector-curvature="0"
         id="path8641"
         d="m 608.0516,290.20198 c -2.08714,1.27462 -2.54928,10.1736 -2.54928,10.1736 -0.11158,9.6928 4.97425,8.24905 7.2397,14.69209 0.52324,1.75242 1.95144,3.6349 4.01345,3.13793 1.67767,-0.59359 2.02641,-3.29333 4.28569,-2.73108 2.84398,0.32854 5.87887,0.16196 8.38418,-1.38272 2.00821,-1.24509 3.71462,-2.99164 5.06218,-4.92578 1.19368,-1.62455 1.78819,-3.57738 1.82418,-5.58341 0.38928,-2.68269 -0.30736,-5.39515 -1.67269,-7.71114 -1.21926,-2.49036 -3.33538,-4.6624 -3.5,-7.56078 -0.1777,-1.58045 -0.0532,-3.17341 0.0692,-4.75285"
         style="fill:#000000;fill-rule:evenodd;stroke:#000000;stroke-width:1px;stroke-linecap:butt;stroke-linejoin:miter;stroke-opacity:1" />
      <path
         sodipodi:nodetypes="ccccccccccccccc"
         inkscape:connector-curvature="0"
         id="path8645"
         d="m 665.29597,239.34998 -9.68727,35.25876 -7.57748,23.91596 7.99867,-16.29726 3.98861,-10.95246 -1.18897,12.10638 1.5715,3.06187 5.84066,-15.79763 0.34896,0.21261 -0.033,22.80792 2.64994,-0.21222 7.01725,-22.87081 1.55443,-6.23643 -0.89681,13.48152 -0.12661,18.36661"
         style="fill:none;fill-rule:evenodd;stroke:#000000;stroke-width:1px;stroke-linecap:butt;stroke-linejoin:miter;stroke-opacity:1" />
      <path
         sodipodi:nodetypes="cccccccccccccccccc"
         inkscape:connector-curvature="0"
         id="path8753"
         d="m 304.57157,385.25068 -20.09375,-11.19857 -16.41979,11.50919 -13.20218,-8.08963 -15.83232,10.99411 -14.57083,-13.47024 -12.42099,12.63976 -7.4101,3.71708 -8.72007,-1.28764 -10.26265,0.4818 -13.85819,-12.13171 -17.63064,8.5895 -15.61323,-5.9136 -20.7037,4.82838 -15.26632,-9.9854 -18.183883,13.16158 -0.01588,-0.54168 0.291488,-1.11296"
         style="fill:none;fill-rule:evenodd;stroke:#000000;stroke-width:1.05999684px;stroke-linecap:butt;stroke-linejoin:miter;stroke-opacity:1" />
      <path
         sodipodi:nodetypes="cccccccccccccccccccccccccc"
         inkscape:connector-curvature="0"
         id="path8755"
         d="m 473.85078,372.83209 7.66998,6.9064 10.27144,-10.79057 5.42784,4.36251 4.15867,7.8491 6.99715,-3.56137 6.66,-2.68393 6.94538,9.57009 9.57554,-3.36235 6.50102,-3.4981 6.07316,5.80237 6.549,-4.11291 1.67976,14.92198 7.69409,3.84242 1.98004,16.24693 -0.25225,0.47962 22.30415,-2.53095 8.39178,16.19712 20.40519,5.96526 10.69425,12.82095 19.5762,1.1796 6.11089,17.37484 9.1756,4.62195 6.96275,5.40535 8.28034,0.40264 17.02824,-4.90751"
         style="fill:none;fill-rule:evenodd;stroke:#000000;stroke-width:1px;stroke-linecap:butt;stroke-linejoin:miter;stroke-opacity:1" />
      <path
         sodipodi:nodetypes="cccccc"
         inkscape:connector-curvature="0"
         id="path8759"
         d="m 206.77085,294.63207 c -2.26208,9.21062 -3.0444,18.89886 -4.33893,28.13428 -0.56189,4.13407 -0.74272,8.34014 -2.07644,12.33766 -0.38114,3.44372 -2.08289,6.41556 -3.42662,9.52755 -1.63085,3.41758 -2.38532,7.14229 -2.53684,10.91526 0.6071,1.7724 -3.08044,6.79702 -0.36773,6.91881"
         style="fill:none;fill-rule:evenodd;stroke:#000000;stroke-width:1px;stroke-linecap:butt;stroke-linejoin:miter;stroke-opacity:1" />
      <path
         sodipodi:nodetypes="ccccc"
         inkscape:connector-curvature="0"
         id="path8761"
         d="m 275.56723,197.63054 c -2.01732,16.34527 0.37164,32.77959 3.40972,48.83051 1.70611,10.84698 -0.13803,21.92982 2.01086,32.7168 1.37548,12.32912 -0.7578,24.82979 1.23627,37.1086 0.0228,3.56226 -0.008,7.14681 -0.47886,10.68282"
         style="fill:none;fill-rule:evenodd;stroke:#000000;stroke-width:0.99999994px;stroke-linecap:butt;stroke-linejoin:miter;stroke-opacity:1" />
      <path
         sodipodi:nodetypes="cc"
         inkscape:connector-curvature="0"
         id="path8763"
         d="m 514.31563,176.299 2.4972,197.31153"
         style="fill:none;fill-rule:evenodd;stroke:#000000;stroke-width:1px;stroke-linecap:butt;stroke-linejoin:miter;stroke-opacity:1" />
      <path
         sodipodi:nodetypes="cccc"
         inkscape:connector-curvature="0"
         id="path8771"
         d="m 91.061338,209.13468 c 4.751758,17.37273 -12.644627,34.27206 -3.631344,51.19199 8.347095,13.36511 12.274343,28.79552 10.356381,44.42204 1.005656,18.26318 2.091657,36.79246 5.487245,54.66408"
         style="fill:none;fill-rule:evenodd;stroke:#000000;stroke-width:1px;stroke-linecap:butt;stroke-linejoin:miter;stroke-opacity:1" />
      <path
         sodipodi:nodetypes="ccccccccc"
         inkscape:connector-curvature="0"
         id="path8781"
         d="m 127.24989,319.3634 7.20614,-17.08421 8.2744,13.67532 7.79452,-15.9663 6.27086,26.10277 9.9069,-24.02219 6.19069,22.01605 9.60804,-13.34653 6.40046,8.62509"
         style="fill:none;fill-rule:evenodd;stroke:#000000;stroke-width:1px;stroke-linecap:butt;stroke-linejoin:miter;stroke-opacity:1" />
      <path
         sodipodi:nodetypes="ccccccc"
         inkscape:connector-curvature="0"
         id="path8783"
         d="m 266.06098,343.75517 -8.41228,-10.1601 -12.03909,15.52187 -9.69251,-14.86426 -7.03104,17.84683 -8.83592,-7.87218 -3.77199,11.05353"
         style="fill:none;fill-rule:evenodd;stroke:#000000;stroke-width:1px;stroke-linecap:butt;stroke-linejoin:miter;stroke-opacity:1" />
      <path
         sodipodi:nodetypes="ccccccccc"
         inkscape:connector-curvature="0"
         id="path8785"
         d="m 411.43037,215.24125 7.99052,-9.83456 15.12569,15.8288 18.6057,-15.23759 8.41536,15.33291 7.67751,-13.77379 8.3441,12.96588 8.07758,-15.84938 9.0089,13.29632"
         style="fill:none;fill-rule:evenodd;stroke:#000000;stroke-width:1px;stroke-linecap:butt;stroke-linejoin:miter;stroke-opacity:1" />
      <path
         sodipodi:nodetypes="cccccc"
         inkscape:connector-curvature="0"
         id="path8787"
         d="m 335.2651,189.05648 -9.14746,14.09988 -10.81811,-17.74415 -5.79269,9.93586 -11.31274,-8.67314 -4.42842,18.2507"
         style="fill:none;fill-rule:evenodd;stroke:#000000;stroke-width:1px;stroke-linecap:butt;stroke-linejoin:miter;stroke-opacity:1" />
      <path
         style="fill:none;fill-rule:evenodd;stroke:#000000;stroke-width:1px;stroke-linecap:butt;stroke-linejoin:miter;stroke-opacity:1"
         d="m 126.88705,237.21152 c 4.09625,1.44508 9.28289,0.67948 12.31129,-2.57918 2.78113,-2.92853 2.62745,-8.53477 -1.2195,-10.484 -11.5002,-6.48926 -21.09758,9.98065 -11.09179,13.06318 z"
         id="path9160"
         inkscape:connector-curvature="0"
         sodipodi:nodetypes="cccc" />
      <path
         style="fill:none;fill-rule:evenodd;stroke:#000000;stroke-width:1px;stroke-linecap:butt;stroke-linejoin:miter;stroke-opacity:1"
         d="m 185.74564,256.69341 c -2.27348,1.29461 -6.49959,-0.7492 -9.13826,0.54617 -3.24787,0.90382 -7.07965,2.45058 -10.4734,0.93508 -2.56119,-1.41736 -5.9731,-2.19224 -9.06772,-1.21402 -4.13305,1.09712 -8.40861,0.0195 -12.3643,-0.91233 -3.89686,-0.99439 -8.15261,-0.0999 -12.04515,-1.00556 -4.09531,-1.0674 -6.11862,-4.32709 -10.15242,-5.41798 -3.49653,-0.29222 -8.05546,4.87095 -9.90866,6.33061"
         id="path9170"
         inkscape:connector-curvature="0"
         sodipodi:nodetypes="cccccccc" />
      <path
         inkscape:connector-curvature="0"
         id="path9174"
         d="m 182.00627,230.45266 c -1.37351,0.55843 -3.09521,1.27327 -4.43092,0.23443 -1.80978,-1.41078 -2.67869,-3.71483 -3.1184,-5.89914 -0.15677,-1.17543 -0.31659,-2.68469 0.70601,-3.52001 0.7147,-0.84486 1.99847,1.34731 1.77662,-0.22956 -0.28421,-2.0156 -0.16605,-4.19835 1.03317,-5.92208 0.94362,-1.59448 2.77051,-2.58254 4.62783,-2.40616 1.32617,-0.21842 2.97292,1.57241 3.65794,-0.23973 0.72479,-1.14941 2.34926,-0.93393 2.89049,0.28445 1.02114,1.54133 1.56717,3.52047 1.14064,5.34676 -0.70042,1.23593 1.53144,-0.0631 1.8982,0.98168 1.44229,1.55339 2.42208,3.61217 2.5786,5.73834 -0.002,0.76865 -0.60319,1.1652 0.17911,0.35246 1.03507,-1.22089 2.72538,-0.46955 3.41366,0.71087 1.05846,1.48121 2.19051,3.28284 1.82039,5.18362 -0.20313,1.31885 -2.30495,1.40118 -1.42837,2.90311 0.20115,1.93701 -1.76437,3.3174 -3.54267,3.2975 -2.13881,0.0972 -4.7044,-0.58951 -5.71765,-2.65927 -0.3345,-0.42817 -0.17865,-2.20009 -0.57178,-0.82968 -0.88517,1.77556 -3.58764,1.60139 -4.59324,0.0389 -0.49445,-0.48173 -0.71477,-2.31694 -0.60709,-2.19357 0.338,1.59137 -1.20513,1.0265 -1.41041,-0.0522 -0.63334,-0.86972 -0.15825,-1.47188 0.40709,-2.19031"
         style="fill:none;fill-rule:evenodd;stroke:#000000;stroke-width:1px;stroke-linecap:butt;stroke-linejoin:miter;stroke-opacity:1" />
      <path
         sodipodi:nodetypes="cccccccccccccc"
         inkscape:connector-curvature="0"
         id="path9176"
         d="m 186.88446,235.29996 c 0.53367,6.28643 0.60977,25.15707 -3.37416,25.02186 -0.75033,1.02612 -1.69179,2.02083 -1.85991,3.33805 -0.48956,0.98612 -0.10837,0.24267 0.4235,-0.0124 1.37834,-0.78205 2.79046,-1.51517 4.05983,-2.4701 0.80954,-0.0709 -0.0537,1.47798 0.10271,2.0643 -0.0577,0.60582 -0.29726,2.1847 0.52283,1.08603 0.73437,-1.11843 1.15842,-2.43212 2.01023,-3.47686 0.95548,-0.53543 0.94335,1.45221 1.77321,1.79408 0.80089,0.82667 1.85504,1.43217 3.00166,1.60099 -3.11349,-5.22287 -3.55868,-11.02798 -3.09555,-20.25757 -0.58116,-2.22596 -0.9743,-4.52095 -0.7572,-6.82767 -0.0138,-0.70102 0.22519,-2.21975 0.42704,-2.36605 -0.15339,0.3286 -0.6542,0.37894 -0.93352,0.19497"
         style="fill:none;fill-rule:evenodd;stroke:#000000;stroke-width:1px;stroke-linecap:butt;stroke-linejoin:miter;stroke-opacity:1" />
      <path
         sodipodi:nodetypes="cccccccccccc"
         inkscape:connector-curvature="0"
         id="path9185"
         d="m 189.929,256.67295 c 3.13954,-0.36514 6.40417,-1.08774 8.59422,-3.56772 2.77195,-3.14462 6.85873,-4.6601 9.27464,-8.14701 1.12449,-1.87824 6.00126,-5.66242 5.46413,-0.9805 -0.46624,3.62327 2.05867,3.63061 3.20064,0.73758 2.70841,-2.46422 6.03519,-4.12314 7.01319,-7.99641 1.153,-3.91756 4.74122,-7.91104 7.6107,-3.02066 2.89107,0.91155 5.65685,2.12068 6.73442,5.1554 1.69947,-0.1343 3.49643,-4.10709 4.0503,-0.34376 2.60515,2.39186 3.37512,5.40862 3.49992,8.81153 0.2774,3.46416 3.4655,4.97303 6.21125,3.12056 2.71092,-0.41561 2.15507,6.54218 4.47278,4.91122"
         style="fill:none;fill-rule:evenodd;stroke:#000000;stroke-width:1px;stroke-linecap:butt;stroke-linejoin:miter;stroke-opacity:1" />
      <path
         inkscape:connector-curvature="0"
         id="path9191"
         d="m 215.61734,259.48473 c 2.64866,-1.68348 5.7184,-3.03492 6.95578,-6.18516 2.21335,-2.65699 -1.63086,7.29667 1.58684,3.23076 1.06712,-1.3951 3.93206,-7.32386 4.69351,-2.8899 -0.82636,2.16053 0.44195,7.19371 2.63875,3.14692 2.18566,-1.75651 3.9535,0.42536 6.35473,0.0498 2.91269,2.10135 7.63085,-2.35773 9.49893,0.48049 -0.20213,3.65171 1.84224,2.38 2.63854,-0.0114 2.43866,-3.09997 3.67957,2.37279 6.50939,2.29916"
         style="fill:none;fill-rule:evenodd;stroke:#000000;stroke-width:1px;stroke-linecap:butt;stroke-linejoin:miter;stroke-opacity:1" />
      <path
         sodipodi:nodetypes="ccccccccccccccccccccccccccccccccccccccccccccccccccccccccccccccccccccc"
         inkscape:connector-curvature="0"
         id="path9199"
         d="m 180.61328,176.6582 -0.33984,6.75 -0.61719,15.56836 -8.45497,-8.40287 -2.76378,13.82475 -8.98047,-17.34375 -9.6976,19.25718 -2.45294,-6.9994 -3.56224,-5.66817 -6.81652,16.23461 -14.5,-26.1875 -1.86914,25.03711 -15.77539,-17.00977 5.25391,109.84375 19.46484,-25.16211 6.82617,21.79883 14.92774,-21.38281 15.18359,21.125 0.8125,-19.25977 8.63672,12.66797 9.47461,-11.95899 8.39844,10.44532 6.83984,-12.83985 3.72408,-9.49872 20.87163,29.34833 -0.60938,-15.21679 7.86696,4.65862 7.90257,-13.68011 18.06641,27.72461 4.05664,-108.5625 -19.83203,22.67774 -12.15821,-34.6543 -4.61718,27.53125 -14.69141,-24.41406 -9.53516,30.04687 z m 3.31641,13.69922 18.79492,32.4336 9.59375,-30.23633 15.87305,26.375 3.60351,-24.31446 9.28711,27.69922 16.98047,-19.41601 -3.16602,84.73828 -14.64257,-22.3711 -9.69336,15.76563 -10.5293,-7.11523 0.91211,9.76367 -17.07227,-24.64453 -10.89453,25.6914 -7.70898,-12.79492 -9.97266,13.60156 -11.40234,-22.07226 -0.96094,22.74609 -11.72266,-16.3125 -13.49804,19.33594 -6.6836,-21.3418 -17.51367,22.64258 -4.21094,-88.05859 14.56055,15.70117 1.56055,-20.88086 11.71875,21.77539 7.61523,-18.06445 5.03125,14.09179 8.04102,-23.01562 11.85937,22.85937 4.23438,-16.71484 9.01172,11.87695 z"
         style="fill:none;fill-rule:evenodd;stroke:#000000;stroke-width:0.87735891px;stroke-linecap:butt;stroke-linejoin:miter;stroke-opacity:1" />
      <path
         style="fill:none;fill-rule:evenodd;stroke:#000000;stroke-width:1px;stroke-linecap:butt;stroke-linejoin:miter;stroke-opacity:1"
         d="m 501.30091,235.06846 c -2.92622,3.5575 -5.19621,7.70143 -5.94324,12.30625 -1.71061,7.12651 3.28652,13.4659 3.24487,20.50799 0.45706,9.52429 -0.86955,19.04546 -2.22501,28.45483 -1.09528,5.90379 -4.2287,11.06464 -6.89281,16.3439 -2.86671,5.9768 -0.98347,12.80854 -2.49172,19.0921 -0.22228,4.10361 -2.46335,7.89041 -2.13822,12.00842"
         id="path9219"
         inkscape:connector-curvature="0" />
    </g>
  </g>
</svg>
