<?xml version="1.0" encoding="UTF-8" standalone="no"?>
<!-- Created with Inkscape (http://www.inkscape.org/) -->

<svg
   xmlns:dc="http://purl.org/dc/elements/1.1/"
   xmlns:cc="http://creativecommons.org/ns#"
   xmlns:rdf="http://www.w3.org/1999/02/22-rdf-syntax-ns#"
   xmlns:svg="http://www.w3.org/2000/svg"
   xmlns="http://www.w3.org/2000/svg"
   xmlns:sodipodi="http://sodipodi.sourceforge.net/DTD/sodipodi-0.dtd"
   xmlns:inkscape="http://www.inkscape.org/namespaces/inkscape"
   width="119.16576mm"
   height="61.722809mm"
   viewBox="0 0 422.24087 218.70286"
   id="svg24568"
   version="1.1"
   inkscape:version="0.91 r13725"
   sodipodi:docname="furniture-diy.svg">
  <defs
     id="defs24570">
    <inkscape:path-effect
       effect="powerstroke"
       id="path-effect7667"
       is_visible="true"
       offset_points="2.9468418,-1.0466496"
       sort_points="true"
       interpolator_type="Linear"
       interpolator_beta="0.2"
       start_linecap_type="butt"
       linejoin_type="round"
       miter_limit="4.5"
       end_linecap_type="butt" />
    <inkscape:path-effect
       end_linecap_type="butt"
       miter_limit="4"
       linejoin_type="extrp_arc"
       start_linecap_type="butt"
       interpolator_beta="0.2"
       interpolator_type="CubicBezierFit"
       sort_points="true"
       offset_points="0.13514838,0.21916359 | 1.9233596,0.6776357 | 4,0.58832489"
       is_visible="true"
       id="path-effect7671"
       effect="powerstroke" />
    <inkscape:path-effect
       effect="powerstroke"
       id="path-effect7675"
       is_visible="true"
       offset_points="0.13514838,0.21916359 | 1.9233596,0.6776357 | 3.9433353,0.45733661"
       sort_points="true"
       interpolator_type="CubicBezierFit"
       interpolator_beta="0.2"
       start_linecap_type="butt"
       linejoin_type="extrp_arc"
       miter_limit="4"
       end_linecap_type="butt" />
  </defs>
  <sodipodi:namedview
     id="base"
     pagecolor="#ffffff"
     bordercolor="#666666"
     borderopacity="1.0"
     inkscape:pageopacity="0.0"
     inkscape:pageshadow="2"
     inkscape:zoom="0.35"
     inkscape:cx="200.40616"
     inkscape:cy="-293.50571"
     inkscape:document-units="px"
     inkscape:current-layer="layer1"
     showgrid="false"
     fit-margin-top="0"
     fit-margin-left="0"
     fit-margin-right="0"
     fit-margin-bottom="0"
     inkscape:window-width="2560"
     inkscape:window-height="1403"
     inkscape:window-x="2560"
     inkscape:window-y="0"
     inkscape:window-maximized="1" />
  <metadata
     id="metadata24573">
    <rdf:RDF>
      <cc:Work
         rdf:about="">
        <dc:format>image/svg+xml</dc:format>
        <dc:type
           rdf:resource="http://purl.org/dc/dcmitype/StillImage" />
        <dc:title></dc:title>
      </cc:Work>
    </rdf:RDF>
  </metadata>
  <g
     inkscape:label="Layer 1"
     inkscape:groupmode="layer"
     id="layer1"
     transform="translate(385.40616,-43.010767)">
    <g
       id="g8817"
       transform="matrix(1.1160863,0,0,1.1161763,-813.19229,-494.79044)"
       style="display:inline;stroke-width:0.83995497">
      <rect
         y="562.12457"
         x="621.17798"
         height="22.041119"
         width="97.024849"
         id="rect9274"
         style="fill:none;fill-opacity:1;stroke:#000000;stroke-width:0.83995497;stroke-linecap:round;stroke-linejoin:round;stroke-miterlimit:4;stroke-dasharray:none;stroke-opacity:1" />
      <rect
         style="fill:none;fill-opacity:1;stroke:#000000;stroke-width:0.83995497;stroke-linecap:round;stroke-linejoin:round;stroke-miterlimit:4;stroke-dasharray:none;stroke-opacity:1"
         id="rect9276"
         width="19.277632"
         height="51.656525"
         x="621.18256"
         y="-635.77417"
         transform="scale(1,-1)" />
      <rect
         transform="scale(1,-1)"
         y="-635.77417"
         x="699.1134"
         height="51.656525"
         width="19.277632"
         id="rect9278"
         style="fill:none;fill-opacity:1;stroke:#000000;stroke-width:0.83995497;stroke-linecap:round;stroke-linejoin:round;stroke-miterlimit:4;stroke-dasharray:none;stroke-opacity:1" />
      <g
         style="display:inline;stroke-width:2.74433684"
         id="g9112"
         transform="matrix(0.20369241,-0.04068039,-0.04424758,-0.23088805,508.33058,528.19637)">
        <path
           inkscape:connector-curvature="0"
           id="path9115"
           d="m 435.84522,-11.464801 c -0.45236,0.0759 -0.90225,0.179261 -1.34153,0.31456 -3.75277,1.3349389 -6.28766,4.1956723 -7.72306,7.168662 -1.90607,3.91464721 -2.88833,8.2973715 -1.44997,12.3587384 1.34065,3.8328816 5.52099,6.8217216 10.39411,7.6324456 3.34361,0.667006 7.11591,0.424073 10.09616,-1.125538 2.27502,-1.124605 3.8248,-3.008096 4.54389,-5.0281456 0.96971,-2.6237772 0.81899,-5.3865529 0.53329,-8.0598222 -0.55828,-4.1195323 -2.47108,-8.2395199 -6.19878,-11.1620282 -2.29675,-1.746686 -5.68767,-2.630129 -8.85411,-2.098872 z"
           style="fill:#000000;fill-opacity:1;stroke:none;stroke-width:10.04430008;stroke-linecap:round;stroke-linejoin:round;stroke-miterlimit:4;stroke-dasharray:none;stroke-opacity:1" />
        <path
           id="path9117"
           d="m 438.64621,-8.6605331 c 1.97598,-0.392536 4.11123,0.349336 5.57103,1.770692 3.26455,5.336169 0.72599,9.425252 -4.0134,9.228183 -3.88448,0.109168 -7.39099,-0.63164 -7.13789,-5.103876 0.86172,-2.364254 2.41324,-4.627282 4.74632,-5.656899 0.27337,-0.1037 0.55166,-0.182026 0.83394,-0.2381 z"
           style="fill:#ffffff;fill-opacity:1;stroke:none;stroke-width:9.1310482;stroke-linecap:round;stroke-linejoin:round;stroke-miterlimit:4;stroke-dasharray:none;stroke-opacity:1"
           inkscape:connector-curvature="0" />
        <path
           id="path9119"
           d="m 445.17092,4.0682939 c 0.63765,-0.2202872 1.34296,-0.1257229 1.77867,0.1716693 0.61748,0.4367862 0.89609,1.0922467 0.93531,1.7640608 0.0119,0.4368732 -0.002,0.8903475 -0.2112,1.3340826 -0.1565,0.3412963 -0.45684,0.6703849 -0.87577,0.8828093 -0.54992,0.2908478 -1.22078,0.3762656 -1.80294,0.3063809 -0.85079,-0.075267 -1.54797,-0.518701 -1.7298,-1.1339506 -0.19586,-0.6517111 0.0414,-1.3849607 0.43541,-2.052492 0.29706,-0.5068081 0.78678,-1.0078268 1.47032,-1.2725603 z"
           style="fill:#ffffff;fill-opacity:1;stroke:none;stroke-width:9.1310482;stroke-linecap:round;stroke-linejoin:round;stroke-miterlimit:4;stroke-dasharray:none;stroke-opacity:1"
           inkscape:connector-curvature="0" />
      </g>
      <g
         style="display:inline;stroke-width:2.30055451"
         id="g9121"
         transform="matrix(-0.22033892,0.11332694,-0.12635145,-0.25037362,678.07995,459.28576)">
        <path
           style="fill:#000000;fill-opacity:1;stroke:none;stroke-width:8.42005348;stroke-linecap:round;stroke-linejoin:round;stroke-miterlimit:4;stroke-dasharray:none;stroke-opacity:1"
           d="m 435.84522,-11.464801 c -0.45236,0.0759 -0.90225,0.179261 -1.34153,0.31456 -3.75277,1.3349389 -6.28766,4.1956723 -7.72306,7.168662 -1.90607,3.91464721 -2.88833,8.2973715 -1.44997,12.3587384 1.34065,3.8328816 5.52099,6.8217216 10.39411,7.6324456 3.34361,0.667006 7.11591,0.424073 10.09616,-1.125538 2.27502,-1.124605 3.8248,-3.008096 4.54389,-5.0281456 0.96971,-2.6237772 0.81899,-5.3865529 0.53329,-8.0598222 -0.55828,-4.1195323 -2.47108,-8.2395199 -6.19878,-11.1620282 -2.29675,-1.746686 -5.68767,-2.630129 -8.85411,-2.098872 z"
           id="path9125"
           inkscape:connector-curvature="0" />
        <path
           style="fill:#ffffff;fill-opacity:1;stroke:none;stroke-width:7.65448189;stroke-linecap:round;stroke-linejoin:round;stroke-miterlimit:4;stroke-dasharray:none;stroke-opacity:1"
           d="m 438.64621,-8.6605332 c 1.97598,-0.3925361 4.11123,0.3493364 5.57103,1.7706917 3.26455,5.3361696 0.72599,9.4252525 -4.0134,9.2281838 -3.88448,0.1091676 -7.39099,-0.6316404 -7.13789,-5.1038769 0.86172,-2.3642531 2.41324,-4.6272817 4.74632,-5.656899 0.27337,-0.1037 0.55166,-0.1820255 0.83394,-0.2380996 z"
           id="path9133"
           inkscape:connector-curvature="0" />
        <path
           style="fill:#ffffff;fill-opacity:1;stroke:none;stroke-width:7.65448189;stroke-linecap:round;stroke-linejoin:round;stroke-miterlimit:4;stroke-dasharray:none;stroke-opacity:1"
           d="m 445.17092,4.0682939 c 0.63765,-0.2202872 1.34296,-0.1257229 1.77867,0.1716693 0.61748,0.4367862 0.89609,1.0922467 0.93531,1.7640608 0.0119,0.4368732 -0.002,0.8903475 -0.2112,1.3340826 -0.1565,0.3412963 -0.45684,0.6703849 -0.87577,0.8828093 -0.54992,0.2908478 -1.22078,0.3762656 -1.80294,0.3063809 -0.85079,-0.075267 -1.54797,-0.518701 -1.7298,-1.1339506 -0.19586,-0.6517111 0.0414,-1.3849607 0.43541,-2.052492 0.29706,-0.5068081 0.78678,-1.0078268 1.47032,-1.2725603 z"
           id="path9140"
           inkscape:connector-curvature="0" />
      </g>
      <path
         sodipodi:nodetypes="cccccc"
         inkscape:connector-curvature="0"
         id="path9147"
         d="m 559.71208,500.15158 c -14.97101,10.39367 -0.13535,35.83188 16.8949,38.74679 6.11567,1.58211 12.41049,-0.0261 18.04487,-2.10163 4.95912,-2.4172 9.85052,-5.53628 12.64931,-10.33073 3.67091,-8.81261 2.64897,-16.70746 -3.37506,-23.33932 -9.52699,-13.87295 -33.79809,-13.12013 -44.21404,-2.97511 z"
         style="display:inline;fill:none;fill-rule:evenodd;stroke:#000000;stroke-width:1.67990994;stroke-linecap:butt;stroke-linejoin:miter;stroke-miterlimit:4;stroke-dasharray:none;stroke-opacity:1" />
      <g
         style="stroke-width:1.30274546"
         transform="matrix(0.58117564,0.21773218,-0.19004177,0.77604157,293.88622,249.19679)"
         id="g9151">
        <path
           inkscape:connector-curvature="0"
           d="m 559.70707,193.03227 c -0.75036,3.61684 0.98632,7.18512 4.31499,9.70697 3.3259,2.51975 8.14124,3.89754 13.2017,3.07946 a 1.0464302,1.0469169 38.671345 0 1 0.10313,-0.0115 c 4.87175,-0.29804 10.0087,-1.53656 14.40369,-3.62105 4.35558,-2.0658 7.90544,-4.92468 9.83547,-8.4266 0.40442,-1.8065 0.10998,-3.46196 -0.69732,-4.95437 -0.83548,-1.54449 -2.23552,-2.93674 -4.05604,-4.08996 -3.25556,-2.06224 -7.69577,-3.25594 -12.02347,-3.15837 -0.51246,0.0115 -1.02237,0.0412 -1.52757,0.0895 a 1.051204,1.0422159 39.986931 0 1 -0.0252,0.002 c -8.35347,0.59511 -17.22381,3.5261 -22.27549,8.89916 -0.6334,0.8147 -1.07023,1.66627 -1.25742,2.50104 z m -2.04612,-0.44163 c 0.27452,-1.22421 0.89265,-2.36712 1.68122,-3.37112 a 1.0463559,1.0469982 85.60142 0 1 0.0588,-0.0685 c 5.55119,-5.93404 15.05162,-8.97305 23.67422,-9.58962 0.55295,-0.0525 1.10934,-0.0847 1.66689,-0.0973 4.70252,-0.106 9.55638,1.18053 13.19081,3.48278 2.03431,1.28864 3.73655,2.92805 4.78362,4.86501 1.05589,1.95328 1.42978,4.18539 0.85409,6.5692 a 1.0466797,1.0466791 0 0 1 -0.0958,0.25039 c -2.19962,4.08638 -6.20317,7.23827 -10.8522,9.44352 -4.64376,2.20274 -10.01043,3.4996 -15.11637,3.81843 -5.60204,0.89105 -10.97435,-0.62653 -14.74825,-3.48569 -3.78273,-2.86585 -6.05977,-7.17707 -5.10055,-11.80071 z"
           id="path9159"
           inkscape:original-d="m 558.68224,192.81966 c -1.70958,8.24048 8.02744,15.75899 18.70856,14.03228 9.99309,-0.61135 21.04821,-5.07338 25.16237,-12.71653 2.0484,-8.482 -9.39909,-14.4859 -19.3911,-13.53093 -8.49835,0.60543 -17.69671,3.59592 -22.99679,9.26154 -0.7184,0.91466 -1.25084,1.91815 -1.48304,2.95364 z"
           inkscape:path-effect="#path-effect7667"
           style="display:inline;fill:#000000;fill-rule:evenodd;stroke:none;stroke-width:4.89583874;stroke-linecap:butt;stroke-linejoin:miter;stroke-miterlimit:4;stroke-dasharray:none;stroke-opacity:1" />
        <path
           style="fill:#ffffff;fill-opacity:1;stroke:none;stroke-width:1.30274546;stroke-linecap:round;stroke-linejoin:round;stroke-miterlimit:4;stroke-dasharray:none;stroke-opacity:1"
           d="m 576.40206,205.82366 c -3.66951,0.3185 -6.61544,-0.16644 -9.60017,-1.5803 -2.37877,-1.12682 -4.60826,-3.04396 -5.82297,-5.00716 -1.46995,-2.37569 -1.72212,-5.44072 -0.61816,-7.51346 1.29796,-2.43701 5.90279,-5.58628 10.80911,-7.39244 3.24935,-1.19618 4.22971,-1.42885 8.82942,-2.09561 3.89191,-0.56403 4.44619,-0.61658 5.88833,-0.55713 4.56533,0.18831 8.75645,1.56072 11.81301,3.86824 2.62898,1.98473 3.95492,4.24109 3.91033,6.65423 -0.024,1.29614 -0.15331,1.63512 -1.14012,2.98798 -2.92868,4.01498 -7.89757,7.09389 -14.62435,9.06178 -1.64528,0.48132 -6.85037,1.34873 -9.44443,1.57387 z"
           id="path9162"
           inkscape:connector-curvature="0" />
        <path
           inkscape:original-d="m 594.75712,197.48237 c 1.48983,-1.36752 0.9538,-3.52195 0.716,-5.23992 -0.41487,-1.94896 -1.2616,-3.84315 -2.64026,-5.3514 -2.01955,-0.23611 -2.05877,3.99175 -2.17013,5.19069 0.0814,2.61031 0.37394,4.17625 1.51743,5.21886"
           inkscape:path-effect="#path-effect7671"
           sodipodi:nodetypes="ccccc"
           inkscape:connector-curvature="0"
           id="path9165"
           d="m 594.90532,197.64383 c 0.21585,-0.19813 0.38406,-0.41882 0.53583,-0.63887 0.44134,-0.63989 0.5869,-1.36565 0.6296,-2.00364 0.064,-0.95591 -0.11973,-2.28203 -0.16565,-2.81866 0,0 2.7e-4,0.003 2.7e-4,0.003 0,0 -0.006,-0.0342 -0.006,-0.0342 -0.30199,-1.79462 -0.87062,-3.08863 -1.27935,-3.85943 -0.41859,-0.78939 -0.86124,-1.39322 -1.28029,-1.86475 -0.0493,-0.0555 -0.0994,-0.11038 -0.15013,-0.16459 -0.0911,-0.0242 -0.18372,-0.0424 -0.27724,-0.0543 -0.67957,-0.0865 -1.32615,0.16912 -1.80523,0.80846 -0.32091,0.42825 -0.56129,1.01699 -0.73257,1.777 -0.11394,0.50557 -0.19346,1.07052 -0.24853,1.67564 -0.0664,0.72916 -0.0658,1.05746 -0.10199,1.55275 -0.001,0.016 -0.002,0.0319 -0.004,0.0479 0,0 0.001,0.0314 0.001,0.0314 0.038,0.96972 0.11196,2.05954 0.31846,2.9789 0.2136,0.95095 0.6005,1.89844 1.44341,2.65472 l 0.79278,-0.86948 c -0.58075,-0.54133 -0.86023,-1.22887 -1.02876,-2.04594 -0.16533,-0.80156 -0.22021,-1.7552 -0.24313,-2.7113 0.45993,-4.21882 -0.34932,2.90151 0.13661,-1.51355 0.0624,-0.56701 0.14195,-1.05936 0.24833,-1.49262 0.16098,-0.65564 0.35082,-1.03631 0.51786,-1.25173 0.11916,-0.15367 0.22761,-0.22871 0.33473,-0.26048 0.31581,0.35327 0.67327,0.7966 1.01695,1.32382 0.42054,0.64514 1.05698,1.77178 1.48744,3.41918 l -0.005,-0.031 c 0.11675,0.61568 0.39342,1.77938 0.41407,2.6841 0.0131,0.57505 -0.0586,1.21102 -0.38457,1.78434 -0.11409,0.20068 -0.2749,0.37875 -0.46172,0.55023 l 0.2964,0.32292 z"
           style="display:inline;fill:#000000;fill-rule:evenodd;stroke:none;stroke-width:1.19483924px;stroke-linecap:butt;stroke-linejoin:miter;stroke-opacity:1" />
        <path
           style="display:inline;fill:#000000;fill-rule:evenodd;stroke:none;stroke-width:1.19483924px;stroke-linecap:butt;stroke-linejoin:miter;stroke-opacity:1"
           d="m 574.33111,201.31695 c 0.21585,-0.19813 0.38406,-0.41882 0.53583,-0.63887 0.41338,-0.59935 0.58716,-1.29156 0.64177,-2.00334 0.0738,-0.96209 -0.0719,-1.98801 -0.13565,-2.82479 0,0 5.1e-4,0.007 5.1e-4,0.007 0,0 -0.006,-0.0407 -0.006,-0.0407 -0.30171,-1.8775 -1.0089,-3.76828 -2.27909,-5.33076 -0.10512,-0.12931 -0.21391,-0.25628 -0.32638,-0.38072 -0.0508,-0.0562 -0.10223,-0.11177 -0.15434,-0.16673 -0.0887,-0.0225 -0.17868,-0.0393 -0.2695,-0.0503 -0.79511,-0.0963 -1.39915,0.27741 -1.79752,0.80817 -0.37316,0.49718 -0.59162,1.15304 -0.7296,1.774 -0.14037,0.63171 -0.21381,1.30745 -0.25493,1.8812 -0.0387,0.54006 -0.0537,1.10791 -0.0644,1.34867 -9.2e-4,0.0208 -0.002,0.0415 -0.003,0.0623 0,0 6e-4,0.0119 6e-4,0.0119 0.12632,2.47395 0.44205,4.16501 1.5991,5.3329 0.0685,0.0691 0.13689,0.13889 0.20963,0.20522 l 0.61628,-0.6759 c -0.0568,-0.0518 -0.11256,-0.10358 -0.16298,-0.15953 -0.81551,-0.90507 -1.03373,-2.27235 -1.06258,-4.68783 0.0394,-0.30543 0.0799,-0.81568 0.1369,-1.32948 0.0608,-0.54869 0.14395,-1.14018 0.27993,-1.68571 0.13875,-0.55662 0.3146,-0.98783 0.52083,-1.25472 0.11408,-0.14763 0.22039,-0.22882 0.33761,-0.26258 0.0271,0.0312 0.0541,0.0626 0.0808,0.0942 1.12827,1.33093 1.92155,2.94496 2.38613,4.66514 l -0.006,-0.034 c 0.17525,0.8827 0.41395,1.78989 0.44404,2.67797 0.0216,0.63661 -0.0669,1.2473 -0.3724,1.78464 -0.11408,0.20068 -0.27489,0.37875 -0.46171,0.55023 l 0.2964,0.32292 z"
           id="path9167"
           inkscape:connector-curvature="0"
           sodipodi:nodetypes="ccccc"
           inkscape:path-effect="#path-effect7675"
           inkscape:original-d="m 574.18291,201.15549 c 1.48983,-1.36752 0.95379,-3.52194 0.71601,-5.23992 -0.41488,-1.94896 -1.2616,-3.84315 -2.64027,-5.35138 -2.01955,-0.23612 -2.05877,3.99173 -2.17014,5.19068 0.0814,2.61031 0.37396,4.17624 1.51744,5.21886" />
      </g>
      <path
         inkscape:connector-curvature="0"
         id="path9169"
         d="m 558.29643,486.76699 c -0.43949,-0.23179 -0.74278,0.33757 -0.78213,0.71556 -0.006,0.83528 0.41564,1.5914 0.55317,2.40335 0.29017,1.35236 0.44889,2.73972 0.43306,4.12485 -0.048,1.14229 -0.0648,2.31892 0.29792,3.41526 0.12475,0.3801 0.60215,0.87789 1.01361,0.63333"
         style="display:inline;fill:none;fill-rule:evenodd;stroke:#000000;stroke-width:0.83995497px;stroke-linecap:butt;stroke-linejoin:miter;stroke-opacity:1" />
      <path
         sodipodi:nodetypes="ccccccccccc"
         inkscape:connector-curvature="0"
         id="path9171"
         d="m 566.52788,495.37556 c 0.96253,-0.94462 -3.90438,-6.3484 -4.4396,-7.33723 -0.81801,-1.48577 -2.02481,-2.69145 -2.96585,-4.09163 -0.25164,-0.39068 -0.53451,-0.54903 -0.64046,0.0162 -0.76169,0.4813 -1.3414,-0.50779 -1.90689,-0.89705 -0.39845,-0.33566 -0.99088,-1.12766 -1.08291,-0.11156 -0.45803,1.25014 -0.75906,2.59108 -0.57119,3.93016 0.268,2.15093 0.58125,4.29921 0.65958,6.46899 0.18592,1.6059 0.17439,3.22522 0.32752,4.83338 0.0629,0.8668 0.0524,1.78795 0.38978,2.59583 0.41563,0.68828 0.74682,1.59396 1.06749,1.98393"
         style="display:inline;fill:none;fill-rule:evenodd;stroke:#000000;stroke-width:1.2599324;stroke-linecap:butt;stroke-linejoin:miter;stroke-miterlimit:4;stroke-dasharray:none;stroke-opacity:1" />
      <g
         transform="matrix(-0.59935737,0.09097155,0.08911368,0.61185289,917.05472,121.27179)"
         id="g9177"
         style="stroke-width:1.37196028">
        <path
           inkscape:connector-curvature="0"
           id="path9173"
           d="m 594.49955,517.68636 c -0.6588,-0.12241 -0.8338,0.71958 -0.73986,1.21517 0.31241,1.06345 1.14925,1.85888 1.63893,2.83649 0.8949,1.60436 1.63272,3.30461 2.14337,5.07039 0.37578,1.46986 0.80532,2.9711 1.69598,4.22186 0.30755,0.43401 1.11751,0.8795 1.55732,0.40776"
           style="display:inline;fill:none;fill-rule:evenodd;stroke:#000000;stroke-width:1.37196028px;stroke-linecap:butt;stroke-linejoin:miter;stroke-opacity:1" />
        <path
           sodipodi:nodetypes="ccccccccccc"
           inkscape:connector-curvature="0"
           id="path9175"
           d="m 608.18837,525.27253 c 0.886,-1.57677 -7.49765,-6.53612 -8.57091,-7.58274 -1.63056,-1.56719 -3.65788,-2.62639 -5.41516,-4.0367 -0.47614,-0.39778 -0.90369,-0.4882 -0.8243,0.27146 -0.80319,0.90958 -1.93427,-0.11997 -2.81687,-0.39309 -0.64541,-0.2704 -1.71738,-1.0446 -1.44713,0.2822 -0.11458,1.76738 0.009,3.58865 0.76673,5.21613 1.17236,2.62747 2.40239,5.23387 3.33601,7.95954 0.85689,1.96725 1.4629,4.02882 2.27817,6.01175 0.414,1.0765 0.75362,2.25076 1.5009,3.14498 0.80291,0.71164 1.5797,1.7325 2.14512,2.10235"
           style="display:inline;fill:none;fill-rule:evenodd;stroke:#000000;stroke-width:2.05794001;stroke-linecap:butt;stroke-linejoin:miter;stroke-miterlimit:4;stroke-dasharray:none;stroke-opacity:1" />
      </g>
      <path
         sodipodi:nodetypes="cccccccc"
         inkscape:connector-curvature="0"
         id="path9182"
         d="m 538.51857,545.88666 c -4.47464,-4.02633 -11.37825,-5.77835 -15.52096,-9.25758 -4.15947,-3.62637 -10.59979,-9.57615 -5.27363,-14.32075 1.96989,-1.97865 4.77427,-2.60909 7.45462,-2.54145 14.29324,1.84512 25.46683,12.72567 30.78146,20.59665 -3.54943,-0.62746 -7.28223,-2.97333 -10.6302,-3.53437 1.82391,3.40187 3.82811,6.87411 4.47184,10.44476 -8.57296,-2.19193 -14.59766,-9.12854 -22.00381,-12.15467"
         style="fill:none;fill-rule:evenodd;stroke:#000000;stroke-width:1.67990994;stroke-linecap:butt;stroke-linejoin:miter;stroke-miterlimit:4;stroke-dasharray:none;stroke-opacity:1" />
      <path
         sodipodi:nodetypes="cc"
         inkscape:connector-curvature="0"
         id="path9184"
         d="m 537.45071,540.69951 c 1.60189,-4.24221 3.94973,-9.59499 7.48196,-11.95801"
         style="fill:none;fill-rule:evenodd;stroke:#000000;stroke-width:0.83995497px;stroke-linecap:butt;stroke-linejoin:miter;stroke-opacity:1" />
      <path
         sodipodi:nodetypes="ccccccccccccccccsc"
         inkscape:connector-curvature="0"
         id="path9190"
         d="m 565.65549,524.48222 c -1.05546,1.6622 -2.00697,1.66909 -1.78829,2.93271 1.11333,1.14405 2.24556,3.23829 3.69009,3.43152 1.54087,-1.73935 3.60018,-2.96693 4.84484,-4.98941 1.12289,-1.89539 2.99187,-3.12823 4.3495,-4.80009 -1.02019,-1.13201 -2.16767,-2.95973 -3.82944,-2.91773 -1.28545,0.77884 -1.72419,1.97256 -3.23528,3.02508 -1.02066,-0.93539 -4.21472,-2.44354 -2.50791,-3.89236 1.79401,-1.43839 -1.23682,-2.37055 -2.10306,-3.27033 -1.62205,-1.09324 -3.23361,-2.19767 -4.75761,-3.42746 -5.9339,-3.73628 -13.20861,-7.62095 -19.84641,-5.5116 3.71599,1.75692 7.77826,1.43099 11.28301,4.55069 -4.71775,-2.62383 -11.55624,-0.40552 -15.23374,0.0677 1.85655,0.64463 6.92479,0.89147 9.17303,3.76583 1.96651,-1.15157 10.8422,-0.74552 7.31469,6.06349 1.05751,1.23556 5.10033,3.19686 7.0802,4.55346 0.2593,-0.65916 2.1521,-3.01273 2.99505,-2.16561 z"
         style="fill:#ffffff;fill-rule:evenodd;stroke:#000000;stroke-width:0.83995497px;stroke-linecap:butt;stroke-linejoin:miter;stroke-opacity:1" />
      <path
         inkscape:connector-curvature="0"
         id="path9196"
         d="m 553.97481,520.33632 -7.03118,9.61201 4.87877,3.87347 8.03564,-10.32931 z"
         style="fill:#ffffff;fill-rule:evenodd;stroke:#000000;stroke-width:0.83995497px;stroke-linecap:butt;stroke-linejoin:miter;stroke-opacity:1" />
      <path
         sodipodi:nodetypes="ccccc"
         inkscape:connector-curvature="0"
         id="path9200"
         d="m 539.33847,542.28611 -12.05344,17.93286 c 1.22237,2.22763 1.4453,5.2047 7.03118,4.16041 l 10.04453,-19.08055 z"
         style="fill:#ffffff;fill-rule:evenodd;stroke:#000000;stroke-width:0.83995497px;stroke-linecap:butt;stroke-linejoin:miter;stroke-opacity:1" />
      <path
         sodipodi:nodetypes="cc"
         inkscape:connector-curvature="0"
         id="path9202"
         d="M 547.66109,540.8515 549.67,538.26915"
         style="fill:none;fill-rule:evenodd;stroke:#000000;stroke-width:0.83995497px;stroke-linecap:butt;stroke-linejoin:miter;stroke-opacity:1" />
      <path
         sodipodi:nodetypes="cccccc"
         inkscape:connector-curvature="0"
         id="path9204"
         d="m 591.5682,538.3842 c 7.03885,7.73851 18.40015,6.14137 26.42729,3.4376 4.21181,-1.03051 8.10195,-2.99682 12.10451,-4.61976 l -5.51759,6.80387 11.36858,-0.59356 c -12.74206,14.56908 -31.18757,21.60376 -48.35312,25.21801"
         style="fill:none;fill-rule:evenodd;stroke:#000000;stroke-width:1.67990994;stroke-linecap:butt;stroke-linejoin:miter;stroke-miterlimit:4;stroke-dasharray:none;stroke-opacity:1" />
      <path
         sodipodi:nodetypes="cc"
         inkscape:connector-curvature="0"
         id="path9206"
         d="m 617.70162,542.02603 c -0.48982,4.56428 -0.63013,11.91983 2.13567,14.63404"
         style="fill:none;fill-rule:evenodd;stroke:#000000;stroke-width:0.83995497px;stroke-linecap:butt;stroke-linejoin:miter;stroke-opacity:1" />
      <path
         sodipodi:nodetypes="cc"
         inkscape:connector-curvature="0"
         id="path9212"
         d="m 553.54101,520.65399 c -7.52259,-0.82851 -16.79818,-0.90255 -23.81205,0.14724"
         style="fill:none;fill-rule:evenodd;stroke:#000000;stroke-width:1.67990994;stroke-linecap:butt;stroke-linejoin:miter;stroke-miterlimit:4;stroke-dasharray:none;stroke-opacity:1" />
      <path
         sodipodi:nodetypes="csc"
         inkscape:connector-curvature="0"
         id="path9218"
         d="m 533.91156,543.19734 c -9.93496,11.90993 -16.40414,27.63616 -11.46072,41.61384 4.79254,13.55107 15.21156,19.36636 27.36214,24.39046"
         style="fill:none;fill-rule:evenodd;stroke:#000000;stroke-width:1.67990994;stroke-linecap:butt;stroke-linejoin:miter;stroke-miterlimit:4;stroke-dasharray:none;stroke-opacity:1" />
      <path
         sodipodi:nodetypes="cccc"
         inkscape:connector-curvature="0"
         id="path9229"
         d="m 576.76705,539.20802 c -0.21298,10.25999 -3.34685,21.55095 -3.79082,30.73534 2.45888,0.79144 4.74009,1.38986 7.12895,1.71254 -0.022,-9.48647 4.56855,-24.52554 3.56699,-32.34918"
         style="fill:none;fill-rule:evenodd;stroke:#000000;stroke-width:0.83995497px;stroke-linecap:butt;stroke-linejoin:miter;stroke-opacity:1" />
      <path
         sodipodi:nodetypes="cc"
         inkscape:connector-curvature="0"
         id="path9223"
         d="m 586.03833,554.67034 c -0.59637,11.88523 4.87332,26.63862 -0.86448,37.38871"
         style="fill:none;fill-rule:evenodd;stroke:#000000;stroke-width:1.67990994;stroke-linecap:butt;stroke-linejoin:miter;stroke-miterlimit:4;stroke-dasharray:none;stroke-opacity:1" />
      <ellipse
         ry="1.8650159"
         rx="1.6501743"
         cy="566.6748"
         cx="577.29248"
         id="path9233"
         style="fill:#ffffff;fill-opacity:1;stroke:#000000;stroke-width:0.83995491;stroke-linecap:round;stroke-linejoin:round;stroke-miterlimit:4;stroke-dasharray:none;stroke-opacity:1" />
      <path
         sodipodi:nodetypes="cccc"
         inkscape:connector-curvature="0"
         id="path9235"
         d="m 561.57351,529.53666 c -1.065,8.94824 -14.4315,34.20518 -13.1227,37.76103 l 6.61317,1.09142 c 2.06385,-11.61392 10.93427,-23.21731 11.53196,-33.49795"
         style="fill:none;fill-rule:evenodd;stroke:#000000;stroke-width:0.83995497px;stroke-linecap:butt;stroke-linejoin:miter;stroke-opacity:1" />
      <ellipse
         style="fill:#ffffff;fill-opacity:1;stroke:#000000;stroke-width:0.83995491;stroke-linecap:round;stroke-linejoin:round;stroke-miterlimit:4;stroke-dasharray:none;stroke-opacity:1"
         id="ellipse9241"
         cx="552.75513"
         cy="564.37939"
         rx="1.6501743"
         ry="1.8650159" />
      <path
         sodipodi:nodetypes="cc"
         inkscape:connector-curvature="0"
         id="path9243"
         d="m 526.98784,553.18595 c 1.31553,0.52257 2.50413,0.57699 3.72764,1.17782"
         style="fill:none;fill-rule:evenodd;stroke:#000000;stroke-width:0.83995497px;stroke-linecap:butt;stroke-linejoin:miter;stroke-opacity:1" />
      <path
         sodipodi:nodetypes="cc"
         inkscape:connector-curvature="0"
         id="path9245"
         d="m 538.82257,556.32377 c 3.8451,1.59348 7.08006,1.65909 10.90027,3.38197"
         style="fill:none;fill-rule:evenodd;stroke:#000000;stroke-width:0.83995497px;stroke-linecap:butt;stroke-linejoin:miter;stroke-opacity:1" />
      <path
         sodipodi:nodetypes="cc"
         inkscape:connector-curvature="0"
         id="path9247"
         d="m 557.15963,561.55001 c 5.65551,1.38065 10.82304,2.53147 16.08681,4.97427"
         style="fill:none;fill-rule:evenodd;stroke:#000000;stroke-width:0.83995497px;stroke-linecap:butt;stroke-linejoin:miter;stroke-opacity:1" />
      <path
         sodipodi:nodetypes="cc"
         inkscape:connector-curvature="0"
         id="path9249"
         d="m 580.36158,568.15769 c 2.4648,0.53242 4.2579,0.70579 6.76296,1.5094"
         style="fill:none;fill-rule:evenodd;stroke:#000000;stroke-width:0.83995497px;stroke-linecap:butt;stroke-linejoin:miter;stroke-opacity:1" />
      <path
         sodipodi:nodetypes="cc"
         style="fill:none;fill-rule:evenodd;stroke:#000000;stroke-width:0.83995497px;stroke-linecap:butt;stroke-linejoin:miter;stroke-opacity:1"
         d="m 567.26648,629.83823 -25.27781,-1.11325"
         id="path9567"
         inkscape:connector-curvature="0" />
      <path
         sodipodi:nodetypes="cccccccccc"
         inkscape:connector-curvature="0"
         id="path9256"
         d="m 521.90138,583.02356 c 0.52423,15.26357 1.07914,41.0339 -1.83533,54.40102 l 9.58056,-6.82139 6.51891,8.67527 c 4.25644,-10.24329 9.00775,-20.29086 13.6317,-30.19492 2.01033,0.82192 9.05908,2.6074 11.42959,2.0645 5.92015,1.36068 5.93842,21.56049 7.33533,28.15644 l 7.3684,-8.97468 11.71605,7.52277 c -0.82626,-15.58009 -1.23546,-30.39441 -2.54856,-46.50715"
         style="fill:none;fill-rule:evenodd;stroke:#000000;stroke-width:1.67990994;stroke-linecap:butt;stroke-linejoin:miter;stroke-miterlimit:4;stroke-dasharray:none;stroke-opacity:1" />
      <path
         sodipodi:nodetypes="cc"
         inkscape:connector-curvature="0"
         id="path9261"
         d="m 522.11639,621.07338 c 7.61836,0.48835 13.34963,2.59462 19.16544,6.16087"
         style="fill:none;fill-rule:evenodd;stroke:#000000;stroke-width:0.83995497px;stroke-linecap:butt;stroke-linejoin:miter;stroke-opacity:1" />
      <path
         style="fill:none;fill-rule:evenodd;stroke:#000000;stroke-width:0.83995497px;stroke-linecap:butt;stroke-linejoin:miter;stroke-opacity:1"
         d="m 522.09084,616.51156 c 8.39326,0.54084 14.70749,2.87346 21.11488,6.82295"
         id="path9268"
         inkscape:connector-curvature="0"
         sodipodi:nodetypes="cc" />
      <path
         style="fill:none;fill-rule:evenodd;stroke:#000000;stroke-width:0.83995497px;stroke-linecap:butt;stroke-linejoin:miter;stroke-opacity:1"
         d="m 586.78598,623.52626 c -7.62107,-0.44395 -13.56643,0.94799 -19.77375,3.77869"
         id="path9270"
         inkscape:connector-curvature="0"
         sodipodi:nodetypes="cc" />
      <path
         sodipodi:nodetypes="cc"
         inkscape:connector-curvature="0"
         id="path9272"
         d="m 586.76812,619.1216 c -7.93877,-0.45754 -14.13308,0.9966 -20.60125,3.95"
         style="fill:none;fill-rule:evenodd;stroke:#000000;stroke-width:0.83995497px;stroke-linecap:butt;stroke-linejoin:miter;stroke-opacity:1" />
      <path
         sodipodi:nodetypes="cccccccccccc"
         inkscape:connector-curvature="0"
         id="path9280"
         d="m 624.39869,533.93613 0,4.25906 4.59178,0 c 0.0115,7.10166 0.0157,5.02131 -0.0515,12.12259 l 1.85197,9.07846 1.85196,-9.07846 c -0.0875,-7.10102 -0.0515,-5.02117 -0.0515,-12.12259 l 4.59179,10e-6 0,-4.25905 -4.59179,0 -3.60079,-2e-5 z"
         style="fill:#ffffff;fill-rule:evenodd;stroke:#000000;stroke-width:0.83995497px;stroke-linecap:butt;stroke-linejoin:miter;stroke-opacity:1" />
      <g
         transform="matrix(-0.581266,0.08824031,0.08642382,0.59348322,830.67413,144.7893)"
         id="g9296"
         style="stroke-width:1.41454339">
        <rect
           transform="matrix(-0.98912677,0.14706541,0.1470654,0.98912677,0,0)"
           y="718.71411"
           x="-721.83069"
           height="32.023949"
           width="144.00845"
           id="rect9285"
           style="fill:none;fill-opacity:1;stroke:#000000;stroke-width:1.41454339;stroke-linecap:round;stroke-linejoin:round;stroke-miterlimit:4;stroke-dasharray:none;stroke-opacity:1" />
        <path
           style="fill:none;fill-opacity:1;stroke:#000000;stroke-width:1.41454363;stroke-linecap:round;stroke-linejoin:round;stroke-miterlimit:4;stroke-dasharray:none;stroke-opacity:1"
           d="m 832.81206,705.98325 -27.34692,3.93188 -30.02141,-66.37714 27.34692,-3.93188 z"
           id="rect9287"
           inkscape:connector-curvature="0"
           sodipodi:nodetypes="ccccc" />
        <rect
           style="fill:none;fill-opacity:1;stroke:#000000;stroke-width:1.41454339;stroke-linecap:round;stroke-linejoin:round;stroke-miterlimit:4;stroke-dasharray:none;stroke-opacity:1"
           id="rect9291"
           width="99.795837"
           height="90.800087"
           x="-699.72437"
           y="-718.79224"
           transform="matrix(-0.98912677,0.1470654,-0.1470654,-0.98912677,0,0)" />
        <path
           sodipodi:nodetypes="ccccc"
           inkscape:connector-curvature="0"
           id="path9294"
           d="m 692.07454,726.90839 27.3079,-4.19431 9.41151,-72.24011 -27.3079,4.19431 z"
           style="fill:none;fill-opacity:1;stroke:#000000;stroke-width:1.41454363;stroke-linecap:round;stroke-linejoin:round;stroke-miterlimit:4;stroke-dasharray:none;stroke-opacity:1" />
      </g>
      <path
         sodipodi:nodetypes="cc"
         style="fill:none;fill-rule:evenodd;stroke:#000000;stroke-width:0.83995497px;stroke-linecap:butt;stroke-linejoin:miter;stroke-opacity:1"
         d="m 698.71873,629.83823 -57.72984,-1.11325"
         id="path9563"
         inkscape:connector-curvature="0" />
      <path
         inkscape:connector-curvature="0"
         id="path9303"
         d="m 587.61415,629.83823 33.11029,-1.11325"
         style="fill:none;fill-rule:evenodd;stroke:#000000;stroke-width:0.83995497px;stroke-linecap:butt;stroke-linejoin:miter;stroke-opacity:1"
         sodipodi:nodetypes="cc" />
      <path
         inkscape:connector-curvature="0"
         id="path9565"
         d="m 718.93658,629.83823 42.66652,-1.11325"
         style="fill:none;fill-rule:evenodd;stroke:#000000;stroke-width:0.83995497px;stroke-linecap:butt;stroke-linejoin:miter;stroke-opacity:1"
         sodipodi:nodetypes="cc" />
      <path
         inkscape:connector-curvature="0"
         id="path9569"
         d="m 489.64325,629.83823 30.88521,-1.11325"
         style="fill:none;fill-rule:evenodd;stroke:#000000;stroke-width:0.83995497px;stroke-linecap:butt;stroke-linejoin:miter;stroke-opacity:1"
         sodipodi:nodetypes="cc" />
      <path
         sodipodi:nodetypes="cc"
         style="fill:none;fill-rule:evenodd;stroke:#000000;stroke-width:0.83995497px;stroke-linecap:butt;stroke-linejoin:miter;stroke-opacity:1"
         d="m 473.25985,629.83823 -47.6777,-1.11325"
         id="path9572"
         inkscape:connector-curvature="0" />
      <path
         inkscape:connector-curvature="0"
         id="path9574"
         d="m 383.30892,629.83823 26.46094,-1.11325"
         style="fill:none;fill-rule:evenodd;stroke:#000000;stroke-width:0.83995497px;stroke-linecap:butt;stroke-linejoin:miter;stroke-opacity:1"
         sodipodi:nodetypes="cc" />
      <path
         inkscape:connector-curvature="0"
         id="path9576"
         d="m 596.70229,649.60941 c 0.27832,0.59808 25.60583,10.52605 25.60583,10.52605 l 31.72897,-8.73184 -27.55411,-9.92797 z"
         style="fill:none;fill-rule:evenodd;stroke:#000000;stroke-width:0.83995497px;stroke-linecap:butt;stroke-linejoin:miter;stroke-opacity:1" />
      <path
         inkscape:connector-curvature="0"
         id="path9578"
         d="m 601.15548,651.52324 -5.84481,2.39229 24.49253,9.56912 24.21421,-7.29646 -2.78324,-1.43537"
         style="fill:none;fill-rule:evenodd;stroke:#000000;stroke-width:0.83995497px;stroke-linecap:butt;stroke-linejoin:miter;stroke-opacity:1" />
      <path
         inkscape:connector-curvature="0"
         id="path9581"
         d="m 596.70229,654.63321 -1.39162,0.95691 22.82259,9.21029 20.59599,-5.86109 -1.39162,-1.07653"
         style="fill:none;fill-rule:evenodd;stroke:#000000;stroke-width:0.83995497px;stroke-linecap:butt;stroke-linejoin:miter;stroke-opacity:1" />
      <path
         inkscape:connector-curvature="0"
         id="path9588"
         d="m 623.18078,656.82939 c 0.77034,-0.44504 0.86332,-1.30182 2.51479,-1.31666 2.11743,0.313 2.42162,-0.76684 3.93442,-1.04144 1.61757,0.0927 1.98425,-0.69794 3.11233,-0.95949 1.62647,0.0507 1.78189,-0.95822 3.44856,-0.9275 1.49267,-0.43388 2.28765,-1.33587 4.39056,-1.32001 0.50866,-0.0587 0.84006,-0.2553 0.88597,-0.47563"
         style="fill:none;fill-rule:evenodd;stroke:#000000;stroke-width:0.83995497px;stroke-linecap:butt;stroke-linejoin:miter;stroke-opacity:1" />
      <path
         inkscape:connector-curvature="0"
         id="path9590"
         d="m 619.25156,654.63493 c 1.05924,-0.47472 1.61791,-1.13813 2.84206,-1.53539 1.40609,-0.1295 3.39694,0.36939 3.97331,-0.52336 0.34565,-0.47424 1.01503,-0.99573 2.35178,-0.74468 1.45681,-0.23171 1.36714,-1.20639 2.94703,-1.37457 1.13888,0.22004 2.15397,0.11587 2.09352,-0.49715 0.28976,-0.69262 2.49612,0.0206 3.1454,-0.69447 0.2488,-0.10319 0.426,-0.23479 0.46798,-0.38382"
         style="fill:none;fill-rule:evenodd;stroke:#000000;stroke-width:0.83995497px;stroke-linecap:butt;stroke-linejoin:miter;stroke-opacity:1" />
      <path
         inkscape:connector-curvature="0"
         id="path9592"
         d="m 614.22368,652.26492 c 1.82743,-0.35236 2.21556,-1.3649 4.05755,-1.73532 1.51312,-0.38874 3.98926,-0.0148 4.6463,-0.93734 0.38169,-0.49422 1.25336,-1.31817 2.75207,-0.87697 1.79746,0.52742 2.42894,-0.55484 3.1804,-1.032 1.58307,0.0293 2.85535,-0.44489 3.85514,-0.95639 l 0,-0.0798"
         style="fill:none;fill-rule:evenodd;stroke:#000000;stroke-width:0.83995497px;stroke-linecap:butt;stroke-linejoin:miter;stroke-opacity:1" />
      <path
         inkscape:connector-curvature="0"
         id="path9596"
         d="m 608.97233,650.94026 c 2.16464,-0.53139 2.93952,-1.77984 5.47502,-2.09046 1.81042,-0.1754 2.83855,-0.86021 3.67009,-1.51192 1.05543,-0.41733 2.92688,-0.36209 3.5419,-1.06833 1.07619,-0.71369 2.13212,-1.69082 4.43117,-1.69913 0.56486,-0.11962 1.99964,0.25512 2.04366,-0.10977"
         style="fill:none;fill-rule:evenodd;stroke:#000000;stroke-width:0.83995497px;stroke-linecap:butt;stroke-linejoin:miter;stroke-opacity:1" />
      <path
         inkscape:connector-curvature="0"
         id="path9606"
         d="m 645.40903,653.55668 10.57633,6.6984 28.11074,-5.26302 -18.92604,-13.51641 -28.6674,3.58842"
         style="fill:none;fill-rule:evenodd;stroke:#000000;stroke-width:0.83995497px;stroke-linecap:butt;stroke-linejoin:miter;stroke-opacity:1" />
      <path
         sodipodi:nodetypes="ccccc"
         inkscape:connector-curvature="0"
         id="path9609"
         d="m 662.81731,651.95799 c 0.93733,1.27467 3.13744,2.2881 4.14008,3.55052 2.08055,0.46449 4.99513,-1.26716 7.26837,-1.23434 2.28254,-0.60357 -4.44352,-3.9817 -5.10032,-3.99989 -1.86524,0.7534 -4.4382,1.0629 -6.58245,1.68394"
         style="fill:none;fill-rule:evenodd;stroke:#000000;stroke-width:0.83995497px;stroke-linecap:butt;stroke-linejoin:miter;stroke-opacity:1" />
      <path
         inkscape:connector-curvature="0"
         id="path9617"
         d="m 661.70033,654.56608 c 0.42626,0.97403 -2.4134,1.28131 -3.40269,1.36965 -0.20171,0.20366 -0.47202,0.40137 -0.87269,0.54515"
         style="fill:none;fill-rule:evenodd;stroke:#000000;stroke-width:0.83995497px;stroke-linecap:butt;stroke-linejoin:miter;stroke-opacity:1" />
      <path
         inkscape:connector-curvature="0"
         id="path9620"
         d="m 659.38932,653.03093 c -2.16167,0.56503 -4.96871,0.45515 -6.80501,1.27941 l -0.35912,0.0411"
         style="fill:none;fill-rule:evenodd;stroke:#000000;stroke-width:0.83995497px;stroke-linecap:butt;stroke-linejoin:miter;stroke-opacity:1" />
      <path
         inkscape:connector-curvature="0"
         id="path9624"
         d="m 665.84089,647.08843 c -1.44281,1.05667 -4.35033,1.82877 -6.94547,2.14995 -2.13832,-0.67022 -3.10486,0.71097 -5.68805,0.34259"
         style="fill:none;fill-rule:evenodd;stroke:#000000;stroke-width:0.83995497px;stroke-linecap:butt;stroke-linejoin:miter;stroke-opacity:1" />
      <path
         inkscape:connector-curvature="0"
         id="path9626"
         d="m 661.27664,645.04159 c -2.82511,0.5049 -5.65213,1.03041 -8.62886,1.30162 -1.44641,0.56144 -2.89505,1.7083 -4.12114,0.44006 -0.34776,-0.13357 -0.86665,7.5e-4 -1.05827,0.14012"
         style="fill:none;fill-rule:evenodd;stroke:#000000;stroke-width:0.83995497px;stroke-linecap:butt;stroke-linejoin:miter;stroke-opacity:1" />
      <path
         style="fill:#ffffff;fill-rule:evenodd;stroke:#000000;stroke-width:0.83995497px;stroke-linecap:butt;stroke-linejoin:miter;stroke-opacity:1"
         d="m 595.4195,663.37581 -3.28526,0.96215 1.04701,3.50882 c -5.47531,1.61308 -3.86965,1.14635 -9.36261,2.69921 l -6.58047,3.46608 7.42502,-0.63572 c 5.45748,-1.67104 3.86137,-1.17371 9.33911,-2.77797 l 1.047,3.50883 3.28525,-0.96214 -1.047,-3.50885 -0.82103,-2.75155 z"
         id="path9650"
         inkscape:connector-curvature="0"
         sodipodi:nodetypes="cccccccccccc" />
      <path
         sodipodi:nodetypes="cccccccccccc"
         inkscape:connector-curvature="0"
         id="path9652"
         d="m 556.6007,665.24999 2.28479,1.10062 1.17628,-2.4267 c 3.81268,1.82914 2.69774,1.2893 6.49007,3.15993 l 5.34462,1.3673 -4.39578,-3.32477 c -3.83182,-1.78879 -2.70685,-1.27032 -6.51648,-3.10546 l 1.1763,-2.4267 -2.28481,-1.10062 -1.17628,2.42672 -0.92241,1.90296 z"
         style="fill:#ffffff;fill-rule:evenodd;stroke:#000000;stroke-width:0.83995497px;stroke-linecap:butt;stroke-linejoin:miter;stroke-opacity:1" />
      <path
         style="fill:#ffffff;fill-rule:evenodd;stroke:#000000;stroke-width:0.83995497px;stroke-linecap:butt;stroke-linejoin:miter;stroke-opacity:1"
         d="m 604.88689,674.15595 -2.28479,1.10062 -1.17628,-2.42671 c -3.81267,1.82914 -2.69774,1.28931 -6.49007,3.15994 l -5.34462,1.36729 4.39578,-3.32477 c 3.83182,-1.78878 2.70685,-1.27031 6.51648,-3.10545 l -1.1763,-2.4267 2.28481,-1.10063 1.17628,2.42672 0.92241,1.90297 z"
         id="path9654"
         inkscape:connector-curvature="0"
         sodipodi:nodetypes="cccccccccccc" />
      <path
         sodipodi:nodetypes="cc"
         inkscape:connector-curvature="0"
         id="path10167"
         d="m 561.07679,610.77391 c 6.61491,0.1168 14.56169,-2.94825 17.13565,-7.71699"
         style="fill:none;fill-rule:evenodd;stroke:#000000;stroke-width:0.83995497px;stroke-linecap:butt;stroke-linejoin:miter;stroke-opacity:1" />
    </g>
  </g>
</svg>
