<?xml version="1.0" encoding="UTF-8" standalone="no"?>
<!-- Created with Inkscape (http://www.inkscape.org/) -->

<svg
   xmlns:dc="http://purl.org/dc/elements/1.1/"
   xmlns:cc="http://creativecommons.org/ns#"
   xmlns:rdf="http://www.w3.org/1999/02/22-rdf-syntax-ns#"
   xmlns:svg="http://www.w3.org/2000/svg"
   xmlns="http://www.w3.org/2000/svg"
   xmlns:sodipodi="http://sodipodi.sourceforge.net/DTD/sodipodi-0.dtd"
   xmlns:inkscape="http://www.inkscape.org/namespaces/inkscape"
   width="175.60641mm"
   height="77.572052mm"
   viewBox="0 0 622.22745 274.8616"
   id="svg9589"
   version="1.1"
   inkscape:version="0.91 r13725"
   sodipodi:docname="houses.svg">
  <defs
     id="defs9591" />
  <sodipodi:namedview
     id="base"
     pagecolor="#ffffff"
     bordercolor="#666666"
     borderopacity="1.0"
     inkscape:pageopacity="0.0"
     inkscape:pageshadow="2"
     inkscape:zoom="0.35"
     inkscape:cx="1214.6852"
     inkscape:cy="-1025.4263"
     inkscape:document-units="px"
     inkscape:current-layer="layer1"
     showgrid="false"
     fit-margin-top="0"
     fit-margin-left="0"
     fit-margin-right="0"
     fit-margin-bottom="0"
     inkscape:window-width="2560"
     inkscape:window-height="1376"
     inkscape:window-x="0"
     inkscape:window-y="27"
     inkscape:window-maximized="1" />
  <metadata
     id="metadata9594">
    <rdf:RDF>
      <cc:Work
         rdf:about="">
        <dc:format>image/svg+xml</dc:format>
        <dc:type
           rdf:resource="http://purl.org/dc/dcmitype/StillImage" />
        <dc:title></dc:title>
      </cc:Work>
    </rdf:RDF>
  </metadata>
  <g
     inkscape:label="Layer 1"
     inkscape:groupmode="layer"
     id="layer1"
     transform="translate(1399.6852,745.06859)">
    <g
       transform="matrix(0.9375,0,0,0.9375,-1468.246,-886.11553)"
       style="display:inline"
       id="g9492">
      <path
         sodipodi:nodetypes="ccccccccccccccc"
         inkscape:connector-curvature="0"
         id="path4793"
         d="m 325.30061,259.19679 c 2.27441,27.46125 -0.54336,56.64853 -0.29988,80.4226 -0.13057,7.68715 -0.10685,15.48341 -0.55193,23.09806 4.02992,1.40447 12.66789,0.66953 18.35355,0.41409 21.0801,-0.43619 42.08065,-2.61388 63.16791,-2.98981 4.01755,-0.12865 8.03493,-0.19188 12.05372,-0.2347 -0.14566,-0.35235 -0.32999,-0.72884 -0.56543,-1.14285 0.85171,-8.03418 10.22688,-7.30572 14.90899,-9.50812 2.25985,-4.58137 7.82334,-7.70217 12.57289,-4.75632 3.30762,1.06581 3.88999,7.89054 6.79709,3.34087 4.82097,-2.89682 9.49815,2.20479 10.73589,5.46794 1.29831,-6.13674 7.14545,-7.93246 12.66594,-6.9897 0.82548,-0.64226 1.76124,-1.30463 2.76011,-1.90678 -2.00321,-14.80108 -1.0694,-29.99094 -2.46138,-44.86313 -0.85162,-11.42446 -0.89929,-22.93608 -1.03948,-34.35515"
         style="display:inline;fill:none;fill-rule:evenodd;stroke:#000000;stroke-width:1.99999988;stroke-linecap:butt;stroke-linejoin:miter;stroke-miterlimit:4;stroke-dasharray:none;stroke-opacity:1" />
      <path
         sodipodi:nodetypes="ccccccc"
         inkscape:connector-curvature="0"
         id="path4795"
         d="m 315.836,266.81224 -6.66334,-6.17598 91.2764,-75.1235 88.24747,77.68642 -9.24037,6.55316 -77.36247,-69.27361 z"
         style="display:inline;fill:none;fill-rule:evenodd;stroke:#000000;stroke-width:1.99999988;stroke-linecap:butt;stroke-linejoin:miter;stroke-miterlimit:4;stroke-dasharray:none;stroke-opacity:1" />
      <path
         inkscape:connector-curvature="0"
         id="path4803"
         d="m 417.8717,377.45676 c -6.25012,-0.18322 -8.91639,-10.36677 -3.88249,-13.57115 4.09621,-0.32253 5.53391,-1.49007 3.46855,-5.12204 0.85171,-8.03418 10.22749,-7.30588 14.9096,-9.50828 2.25985,-4.58137 7.82307,-7.70094 12.57263,-4.7551 3.30753,1.06582 3.88972,7.88961 6.79682,3.33992 4.82107,-2.89684 9.49797,2.20479 10.73581,5.46794 1.29823,-6.13675 7.14561,-7.93265 12.6661,-6.98989 3.9653,-3.08505 10.38376,-6.71275 14.89788,-1.22588 3.74548,5.16527 13.07677,-0.81194 16.31227,6.71364 4.09964,4.15046 -3.15675,12.12229 4.49347,12.46198 4.1106,4.54951 0.16402,11.03362 -3.61174,14.41603 -3.6151,4.08252 -9.31268,3.35644 -13.93299,1.7402 -6.09007,-2.8913 -5.25735,7.71589 -11.94814,7.19528 -4.76633,2.01701 -7.89386,-2.7444 -10.96931,-4.00544 -2.96658,4.62135 -7.5365,10.1303 -13.8651,8.02826 -4.23207,0.11161 -7.04021,-8.42278 -6.27836,-7.80552 -2.64351,6.76023 -13.58571,5.99453 -15.80645,-0.76271 -2.69769,-2.38074 2.88999,-8.96068 0.22918,-3.40619 -2.82314,5.32251 -9.34312,3.38291 -11.66334,-0.46757 -2.76735,0.79735 -6.96642,3.94165 -5.12439,-1.74348 z"
         style="display:inline;fill:none;fill-rule:evenodd;stroke:#000000;stroke-width:1.99999988;stroke-linecap:butt;stroke-linejoin:miter;stroke-miterlimit:4;stroke-dasharray:none;stroke-opacity:1" />
      <path
         sodipodi:nodetypes="ccccc"
         inkscape:connector-curvature="0"
         id="path4812"
         d="m 405.30729,285.05821 c -1.60835,17.10755 2.07039,34.66346 -0.17143,52.33808 l 58.41702,-3.72683 c -0.32672,-17.01104 -0.64619,-35.60093 -2.46976,-50.10493 -16.33664,2.3529 -40.54391,2.06361 -55.77583,1.49368 z"
         style="display:inline;fill:none;fill-rule:evenodd;stroke:#000000;stroke-width:1.99999988;stroke-linecap:butt;stroke-linejoin:miter;stroke-miterlimit:4;stroke-dasharray:none;stroke-opacity:1" />
      <path
         style="display:inline;fill:none;fill-rule:evenodd;stroke:#000000;stroke-width:1.99999988;stroke-linecap:butt;stroke-linejoin:miter;stroke-miterlimit:4;stroke-dasharray:none;stroke-opacity:1"
         d="m 413.57448,257.95665 c 0.82681,-7.95079 -1.08266,-16.11167 0.0715,-24.3258 l -30.2292,1.7133 c 0.17452,7.90655 0.34588,16.54691 1.29426,23.28871 8.45336,-1.0883 20.9806,-0.94603 28.86316,-0.67621 z"
         id="path4819"
         inkscape:connector-curvature="0"
         sodipodi:nodetypes="ccccc" />
      <path
         style="display:inline;fill:none;fill-rule:evenodd;stroke:#000000;stroke-width:1.99999988;stroke-linecap:butt;stroke-linejoin:miter;stroke-miterlimit:4;stroke-dasharray:none;stroke-opacity:1"
         d="m 354.53447,350.2399 c 0.42752,-24.04988 -3.23022,-43.3063 -1.86136,-63.79224 9.9835,0.40964 30.40531,-0.0653 40.31289,-0.67863 0.82894,24.21081 -1.7194,38.39857 -0.48588,63.41925"
         id="path4821"
         inkscape:connector-curvature="0"
         sodipodi:nodetypes="cccc" />
      <path
         sodipodi:nodetypes="ccccc"
         inkscape:connector-curvature="0"
         id="path4823"
         d="m 380.6979,318.55448 c -4.4036,1.41796 -1.08997,7.02739 1.39665,7.27094 1.43453,0.18453 3.56125,0.16439 3.96574,-1.59396 0.58388,-1.70728 0.32654,-4.01031 -1.42208,-4.92935 -1.30414,-0.86065 -2.22699,-1.15974 -3.94031,-0.74763 z"
         style="display:inline;fill:none;fill-rule:evenodd;stroke:#000000;stroke-width:1.99999988;stroke-linecap:butt;stroke-linejoin:miter;stroke-miterlimit:4;stroke-dasharray:none;stroke-opacity:1" />
      <path
         sodipodi:nodetypes="cccc"
         inkscape:connector-curvature="0"
         id="path4831"
         d="m 348.63278,362.58006 0.42207,-11.8057 47.60785,-1.76588 1.08195,10.65676"
         style="display:inline;fill:none;fill-rule:evenodd;stroke:#000000;stroke-width:1.99999988;stroke-linecap:butt;stroke-linejoin:miter;stroke-miterlimit:4;stroke-dasharray:none;stroke-opacity:1" />
      <path
         style="display:inline;fill:none;fill-rule:evenodd;stroke:#000000;stroke-width:1.99999988;stroke-linecap:butt;stroke-linejoin:miter;stroke-miterlimit:4;stroke-dasharray:none;stroke-opacity:1"
         d="m 345.59204,374.91713 0.46442,-11.80542 53.35717,-1.73067 1.22055,10.65761"
         id="path4834"
         inkscape:connector-curvature="0"
         sodipodi:nodetypes="cccc" />
      <path
         sodipodi:nodetypes="ccccc"
         inkscape:connector-curvature="0"
         id="path4836"
         d="m 342.46732,386.36111 0.29803,-11.81235 59.28304,-2.74935 1.43198,12.50721 z"
         style="display:inline;fill:none;fill-rule:evenodd;stroke:#000000;stroke-width:1.99999988;stroke-linecap:butt;stroke-linejoin:miter;stroke-miterlimit:4;stroke-dasharray:none;stroke-opacity:1" />
      <path
         sodipodi:nodetypes="cccccccccccccc"
         inkscape:connector-curvature="0"
         id="path4865"
         d="m 105.28181,270.01977 c 0.55806,11.40631 1.21386,22.89991 1.0621,34.35505 -0.34634,10.75695 1.59857,28.01001 2.30697,42.39437 2.51199,1.85652 3.25432,6.91695 5.86224,2.83549 4.82099,-2.89683 9.4987,2.20443 10.73652,5.46756 1.29824,-6.13673 7.14542,-7.93235 12.66589,-6.98959 3.96525,-3.08506 10.38291,-6.71242 14.89699,-1.22555 3.74547,5.16527 13.0771,-0.81178 16.31255,6.71381 1.92552,1.94936 1.34989,4.73057 0.98624,7.1792 l 9.27269,-0.13962 c 21.07083,-0.91292 42.1655,-0.0217 63.23288,-0.87391 5.69061,-0.0923 14.35708,0.11392 18.29369,-1.53409 -0.90962,-7.57323 -1.36205,-15.35692 -1.96217,-23.02173 -1.21003,-23.74451 -5.80554,-52.70484 -5.2139,-80.2537"
         style="display:inline;fill:none;fill-rule:evenodd;stroke:#000000;stroke-width:1.99999988;stroke-linecap:butt;stroke-linejoin:miter;stroke-miterlimit:4;stroke-dasharray:none;stroke-opacity:1" />
      <path
         sodipodi:nodetypes="ccccccc"
         inkscape:connector-curvature="0"
         id="path4867"
         d="m 263.64631,261.95011 6.27334,-6.57148 -95.69742,-69.40743 -83.334356,82.93193 9.623636,5.97646 72.98395,-73.86992 z"
         style="display:inline;fill:none;fill-rule:evenodd;stroke:#000000;stroke-width:1.99999988;stroke-linecap:butt;stroke-linejoin:miter;stroke-miterlimit:4;stroke-dasharray:none;stroke-opacity:1" />
      <path
         sodipodi:nodetypes="ccccc"
         inkscape:connector-curvature="0"
         id="path4869"
         d="m 175.45738,285.62741 c 2.651,16.97734 0.0521,34.72517 3.37003,52.22983 l -58.53565,-0.15142 c -0.7136,-16.9992 -1.53095,-35.57388 -0.59727,-50.16217 16.44987,1.35056 40.59429,-0.4169 55.76289,-1.91624 z"
         style="display:inline;fill:none;fill-rule:evenodd;stroke:#000000;stroke-width:1.99999988;stroke-linecap:butt;stroke-linejoin:miter;stroke-miterlimit:4;stroke-dasharray:none;stroke-opacity:1" />
      <path
         style="display:inline;fill:none;fill-rule:evenodd;stroke:#000000;stroke-width:1.99999988;stroke-linecap:butt;stroke-linejoin:miter;stroke-miterlimit:4;stroke-dasharray:none;stroke-opacity:1"
         d="m 165.54916,259.08151 c -1.31122,-7.88542 0.0959,-16.14769 -1.55845,-24.27597 l 30.27748,-0.13648 c 0.30897,7.90244 0.66606,16.53713 0.13153,23.32428 -8.50404,-0.56991 -20.99917,0.33735 -28.85055,1.08817 z"
         id="path4871"
         inkscape:connector-curvature="0"
         sodipodi:nodetypes="ccccc" />
      <path
         style="display:inline;fill:none;fill-rule:evenodd;stroke:#000000;stroke-width:1.99999988;stroke-linecap:butt;stroke-linejoin:miter;stroke-miterlimit:4;stroke-dasharray:none;stroke-opacity:1"
         d="m 230.1193,347.58581 c -1.89676,-23.97882 0.57716,-43.42269 -2.04117,-63.78674 -9.9398,1.01873 -30.35253,1.79211 -40.27902,1.78518 0.65236,24.21621 4.06304,38.22179 4.36116,63.27108"
         id="path4873"
         inkscape:connector-curvature="0"
         sodipodi:nodetypes="cccc" />
      <path
         sodipodi:nodetypes="ccccc"
         inkscape:connector-curvature="0"
         id="path4875"
         d="m 202.06812,317.55782 c 4.48199,1.14631 1.51741,6.94766 -0.94971,7.34268 -1.42048,0.27179 -3.54455,0.3816 -4.05568,-1.34876 -0.68717,-1.66841 -0.57108,-3.98286 1.11813,-5.00699 1.24906,-0.93872 2.15187,-1.29362 3.88726,-0.98693 z"
         style="display:inline;fill:none;fill-rule:evenodd;stroke:#000000;stroke-width:1.99999988;stroke-linecap:butt;stroke-linejoin:miter;stroke-miterlimit:4;stroke-dasharray:none;stroke-opacity:1" />
      <path
         sodipodi:nodetypes="cccc"
         inkscape:connector-curvature="0"
         id="path4877"
         d="m 236.7642,359.54239 -1.14294,-11.75784 -47.62678,1.14558 -0.42854,10.70295"
         style="display:inline;fill:none;fill-rule:evenodd;stroke:#000000;stroke-width:1.99999988;stroke-linecap:butt;stroke-linejoin:miter;stroke-miterlimit:4;stroke-dasharray:none;stroke-opacity:1" />
      <path
         style="display:inline;fill:none;fill-rule:evenodd;stroke:#000000;stroke-width:1.99999988;stroke-linecap:butt;stroke-linejoin:miter;stroke-miterlimit:4;stroke-dasharray:none;stroke-opacity:1"
         d="m 240.55329,371.67067 -1.18505,-11.755 -53.36336,1.53195 -0.56679,10.71224"
         id="path4879"
         inkscape:connector-curvature="0"
         sodipodi:nodetypes="cccc" />
      <path
         sodipodi:nodetypes="ccccc"
         inkscape:connector-curvature="0"
         id="path4881"
         d="m 244.37159,382.9024 -1.01935,-11.77207 -59.34041,0.87714 -0.66482,12.57131 z"
         style="display:inline;fill:none;fill-rule:evenodd;stroke:#000000;stroke-width:1.99999988;stroke-linecap:butt;stroke-linejoin:miter;stroke-miterlimit:4;stroke-dasharray:none;stroke-opacity:1" />
      <path
         style="display:inline;fill:none;fill-rule:evenodd;stroke:#000000;stroke-width:1.99999988;stroke-linecap:butt;stroke-linejoin:miter;stroke-miterlimit:4;stroke-dasharray:none;stroke-opacity:1"
         d="m 571.92927,258.03096 c 1.80529,27.49603 -1.51019,56.63102 -1.67244,80.40577 -0.26175,7.6838 -0.37112,15.47934 -0.94608,23.08529 4.00536,1.473 12.65462,0.8855 18.34382,0.7271 21.08452,-0.0765 42.11915,-1.89574 63.20967,-1.91192 l 70.6496,-2.05186 c -1.75029,-14.83309 0.9806,-42.45343 -0.15765,-57.34719 -0.65654,-11.43734 -0.50779,-22.94809 -0.45306,-34.3679"
         id="path4887"
         inkscape:connector-curvature="0"
         sodipodi:nodetypes="cccccccc" />
      <path
         style="display:inline;fill:none;fill-rule:evenodd;stroke:#000000;stroke-width:1.99999988;stroke-linecap:butt;stroke-linejoin:miter;stroke-miterlimit:4;stroke-dasharray:none;stroke-opacity:1"
         d="m 562.33605,265.48387 -6.55698,-6.28875 92.54523,-73.55565 86.90881,79.18034 -9.3509,6.3946 -76.16903,-70.58311 z"
         id="path4889"
         inkscape:connector-curvature="0"
         sodipodi:nodetypes="ccccccc" />
      <path
         style="display:inline;fill:none;fill-rule:evenodd;stroke:#000000;stroke-width:1.99999988;stroke-linecap:butt;stroke-linejoin:miter;stroke-miterlimit:4;stroke-dasharray:none;stroke-opacity:1"
         d="m 651.48289,285.2533 c -1.9001,17.07762 1.4785,34.69371 -1.06464,52.32753 l 58.47213,-2.72987 c -0.0362,-17.01413 -0.0389,-35.60677 -1.61435,-50.13976 -16.37433,2.0739 -40.57322,1.37176 -55.79314,0.5421 z"
         id="path4891"
         inkscape:connector-curvature="0"
         sodipodi:nodetypes="ccccc" />
      <path
         sodipodi:nodetypes="ccccc"
         inkscape:connector-curvature="0"
         id="path4893"
         d="m 660.21142,258.29669 c 0.96232,-7.93552 -0.80747,-16.12779 0.48695,-24.32105 l -30.25409,1.19746 c 0.0398,7.90836 0.0636,16.5504 0.89656,23.30739 8.47075,-0.94396 20.99368,-0.58803 28.8705,-0.1838 z"
         style="display:inline;fill:none;fill-rule:evenodd;stroke:#000000;stroke-width:1.99999988;stroke-linecap:butt;stroke-linejoin:miter;stroke-miterlimit:4;stroke-dasharray:none;stroke-opacity:1" />
      <path
         sodipodi:nodetypes="cccc"
         inkscape:connector-curvature="0"
         id="path4895"
         d="m 599.605,349.55946 c 0.83793,-24.03909 -2.49061,-43.35509 -0.77235,-63.8147 9.97503,0.57987 30.40204,0.45328 40.31854,0.009 0.4157,24.22144 -2.37443,38.36367 -1.56809,63.40175"
         style="display:inline;fill:none;fill-rule:evenodd;stroke:#000000;stroke-width:1.99999988;stroke-linecap:butt;stroke-linejoin:miter;stroke-miterlimit:4;stroke-dasharray:none;stroke-opacity:1" />
      <path
         style="display:inline;fill:none;fill-rule:evenodd;stroke:#000000;stroke-width:1.99999988;stroke-linecap:butt;stroke-linejoin:miter;stroke-miterlimit:4;stroke-dasharray:none;stroke-opacity:1"
         d="m 626.30535,318.32493 c -4.42708,1.34263 -1.20968,7.00776 1.27245,7.2937 1.43108,0.20896 3.55789,0.22509 3.9923,-1.52609 0.61292,-1.69708 0.39496,-4.00415 -1.33768,-4.95288 -1.28931,-0.88278 -2.20688,-1.19756 -3.92707,-0.81473 z"
         id="path4897"
         inkscape:connector-curvature="0"
         sodipodi:nodetypes="ccccc" />
      <path
         style="display:inline;fill:none;fill-rule:evenodd;stroke:#000000;stroke-width:1.99999988;stroke-linecap:butt;stroke-linejoin:miter;stroke-miterlimit:4;stroke-dasharray:none;stroke-opacity:1"
         d="m 593.49358,361.79714 0.62349,-11.79675 47.63109,-0.95358 0.89983,10.67366"
         id="path4899"
         inkscape:connector-curvature="0"
         sodipodi:nodetypes="cccc" />
      <path
         sodipodi:nodetypes="cccc"
         inkscape:connector-curvature="0"
         id="path4901"
         d="m 590.24271,374.08057 0.6658,-11.79579 53.37898,-0.8203 1.03842,10.67688"
         style="display:inline;fill:none;fill-rule:evenodd;stroke:#000000;stroke-width:1.99999988;stroke-linecap:butt;stroke-linejoin:miter;stroke-miterlimit:4;stroke-dasharray:none;stroke-opacity:1" />
      <path
         style="display:inline;fill:none;fill-rule:evenodd;stroke:#000000;stroke-width:1.99999988;stroke-linecap:butt;stroke-linejoin:miter;stroke-miterlimit:4;stroke-dasharray:none;stroke-opacity:1"
         d="m 586.92319,385.46958 0.49947,-11.80554 59.32145,-1.73775 1.21824,12.5298 z"
         id="path4903"
         inkscape:connector-curvature="0"
         sodipodi:nodetypes="ccccc" />
      <path
         style="display:inline;fill:none;fill-rule:evenodd;stroke:#000000;stroke-width:1.99999988;stroke-linecap:butt;stroke-linejoin:miter;stroke-miterlimit:4;stroke-dasharray:none;stroke-opacity:1"
         d="m 80.647975,379.22182 c -6.250135,-0.18321 -8.916394,-10.36676 -3.88245,-13.57114 4.096157,-0.32252 5.533908,-1.49007 3.46853,-5.12205 0.851675,-8.03418 10.227493,-7.30588 14.909616,-9.50828 2.259825,-4.58137 7.823049,-7.70094 12.572559,-4.75508 3.30762,1.0658 3.88981,7.88958 6.79691,3.33991 4.82099,-2.89683 9.49797,2.2048 10.73577,5.46793 1.29825,-6.13673 7.14563,-7.93264 12.6661,-6.98987 3.96525,-3.08506 10.38378,-6.71276 14.89786,-1.22589 3.74547,5.16527 13.07681,-0.81194 16.31225,6.71365 4.09971,4.15045 -3.15675,12.12228 4.49348,12.46197 4.11062,4.5495 0.164,11.03361 -3.61175,14.41603 -3.61504,4.08252 -9.31265,3.35644 -13.93297,1.74019 -6.09006,-2.8913 -5.2573,7.7159 -11.94814,7.19529 -4.76633,2.01699 -7.89387,-2.74439 -10.96929,-4.00545 -2.96662,4.62137 -7.53656,10.13031 -13.86508,8.02827 -4.23214,0.11162 -7.04025,-8.42278 -6.27836,-7.80552 -2.64357,6.76024 -13.585754,5.99453 -15.80645,-0.76271 -2.69768,-2.38074 2.88999,-8.9607 0.229135,-3.40619 -2.823088,5.32251 -9.343075,3.3829 -11.663367,-0.46757 -2.767309,0.79733 -6.966405,3.94163 -5.124353,-1.74349 z"
         id="path4922"
         inkscape:connector-curvature="0" />
      <g
         style="display:inline;stroke-width:1.69940996;stroke-miterlimit:4;stroke-dasharray:none"
         transform="matrix(0.8827846,0,0,0.88253387,56.914943,-184.82791)"
         id="g4937">
        <path
           style="fill:none;fill-rule:evenodd;stroke:#000000;stroke-width:1.69940996;stroke-linecap:butt;stroke-linejoin:miter;stroke-miterlimit:4;stroke-dasharray:none;stroke-opacity:1"
           d="m 251.62578,458.55074 c -0.67306,7.05714 -12.0442,9.4581 -14.89493,2.59089 -2.76994,-2.57267 1.40632,-10.8581 -3.5919,-6.14734 -5.8307,2.14173 -12.84744,0.26019 -17.45101,-3.68361 -2.96928,-1.55926 -0.94653,-9.10308 -1.68745,-8.56819 -6.77862,6.23075 -19.3394,0.81431 -19.89806,-8.2884 -1.4881,-4.46008 4.37342,-8.8284 5.0677,-9.94562 -6.01297,-2.90908 -12.51001,-9.40943 -9.68505,-16.63365 1.02139,-3.31929 6.62674,-3.34927 1.91968,-6.38973 -4.2837,-7.96213 4.50565,-17.91908 13.01323,-15.89521 3.75848,-0.85576 6.796,5.73476 8.49318,5.09204 1.08779,-6.0418 9.79853,-6.5399 13.12553,-2.14613 0.77246,-6.52283 9.74525,-5.45738 12.36466,-0.74565 2.34364,1.9927 1.64653,10.06197 4.38353,3.61222 3.36482,-4.26812 10.44277,-7.05142 15.27641,-3.68038 3.59643,1.64723 3.48943,10.23531 4.35856,10.09622 0.8125,-4.54948 6.50144,-12.66207 10.93539,-6.82815 2.27052,4.77424 3.44636,-6.76975 7.23261,-7.06902 4.63197,-3.75444 13.2692,-4.99179 16.71197,0.90665 2.30739,3.42557 -1.39241,9.77976 -0.44038,11.68542 3.87739,-3.63834 9.79338,-7.2681 15.02573,-4.12578 4.61876,2.60812 3.17245,9.00562 -0.54314,11.73716 4.46027,-3.26147 10.13119,1.19311 6.42441,5.89209 -1.35032,3.82373 -7.47228,6.41945 -9.0623,7.8696 5.21897,1.02054 11.85866,5.2523 10.32874,11.41563 -0.40245,3.74463 -7.48991,8.75297 -9.29797,5.7575 4.31293,1.61392 5.09964,7.4595 4.15681,11.49931 -1.09166,6.23384 -6.51811,12.61398 -13.42524,11.23569 -3.55757,-0.0639 -7.32778,-4.45999 -7.44784,-6.48901 1.67247,5.45221 -3.74522,11.97893 -9.46399,9.76074 -4.40821,-2.19225 -6.32532,-7.21585 -8.1744,-11.46842 0.18217,6.10006 -2.80961,12.45214 -7.84247,15.94281 -4.5209,3.03729 -6.98964,-12.33575 -5.46501,-3.25423 0.65964,5.81075 -7.34489,6.4281 -7.24215,0.28978 -0.15673,-1.65921 -1.07674,-4.30903 -3.20485,-4.02523 z"
           id="path4929"
           inkscape:connector-curvature="0" />
        <path
           style="fill:none;fill-rule:evenodd;stroke:#000000;stroke-width:1.69940996;stroke-linecap:butt;stroke-linejoin:miter;stroke-miterlimit:4;stroke-dasharray:none;stroke-opacity:1"
           d="m 245.27624,464.52727 c 2.8204,8.90734 4.00444,17.52499 4.38644,26.85263 0.0537,12.10822 0.53381,24.32876 -2.02588,36.2535 -1.91268,12.48456 -3.00296,25.04428 -3.58238,37.68744 -0.41674,9.09353 -2.57232,34.44024 2.15816,39.02554 6.16031,5.97125 15.11937,3.23685 19.52887,-0.0816 4.90302,-3.68986 1.28798,-9.52303 0.85623,-13.22233 -0.80295,-6.87971 -2.4243,-13.60203 -4.23221,-20.34581 -2.82275,-10.52928 -1.83001,-21.64953 -3.05798,-32.44596 1.17197,-20.67267 -5.06831,-56.97341 1.10712,-72.26991"
           id="path4933"
           inkscape:connector-curvature="0"
           sodipodi:nodetypes="cccssssscc" />
      </g>
      <path
         sodipodi:nodetypes="cccccccccssssccssccscsssssccccsccssssssssccssscscsssccscssscssssscccsssssccsssccssssscssssssccccsscscccccssccccc"
         inkscape:connector-curvature="0"
         d="m 579.38508,240.24941 c -3.11428,-4.18161 -7.13829,-7.53361 -10.8262,-11.16567 -0.42789,-2.82445 4.26906,-0.92221 5.97777,-1.1012 -0.76272,-4.27161 -2.9636,-8.22589 -5.58211,-11.66359 l -2.66389,-4.89242 c 1.65461,-0.037 8.94693,2.10135 9.37499,0.18732 -1.88166,-2.25296 -4.05789,-4.25041 -6.13809,-6.32001 -7.46234,-6.91661 -14.93848,-15.41136 -21.82597,-22.85757 -1.73184,-2.54784 -5.09833,-4.35079 -6.0995,-7.53549 -2.17766,3.84191 -4.35566,7.49405 -6.54373,11.12015 -1.24429,2.06206 -2.43561,4.14118 -3.82254,6.11447 -3.49813,4.97717 -7.59284,9.53432 -11.96439,13.75754 -1.88766,1.82373 -3.85512,3.56382 -5.7877,5.3394 -0.30343,0.27874 -0.6026,0.56212 -0.90706,0.83967 -0.11954,0.10888 -0.84386,0.70463 -0.8639,0.90425 -0.0265,0.26749 0.47096,0.27419 0.64787,0.27988 1.13535,0.0366 2.27812,-0.26115 3.3906,-0.43059 3.03881,-0.46282 6.07982,-0.95334 9.13532,-1.29179 0.30403,-0.0338 1.69186,-0.29069 1.8572,0.0861 0.26316,0.59948 -0.44279,1.48422 -0.71267,1.93768 -0.41437,0.69638 -0.45155,0.76821 -0.90697,1.48557 -0.66509,1.0475 -1.37131,2.05664 -2.07331,3.07876 -1.63359,2.37855 -3.2211,4.78656 -4.88074,7.14789 -2.16945,3.08674 -4.31054,6.20495 -6.58689,9.21477 -0.33034,0.43676 -0.68284,0.85642 -1.01504,1.29179 -1.3043,1.70946 -2.55273,3.45878 -3.88733,5.14562 -0.50099,0.63322 -0.9965,1.27283 -1.51169,1.89463 -0.31099,0.37533 -0.90661,0.92448 -1.07981,1.39944 -0.0912,0.24999 0.35991,0.17569 0.45348,0.17224 0.9046,-0.0334 1.77237,-0.3074 2.65639,-0.47366 1.92756,-0.36259 3.8914,-0.51671 5.85259,-0.51671 0.75981,0 1.51151,-0.003 2.26761,0.0861 0.51908,0.0617 1.27413,0.23681 1.29575,0.90425 0.0194,0.59805 -0.58573,1.44881 -0.88542,1.91616 -0.52809,0.82335 -1.10534,1.60844 -1.6629,2.41134 -2.71492,3.90937 -5.35878,7.87168 -8.14184,11.73375 -1.84228,2.55652 -3.71264,5.09928 -5.65821,7.5785 -1.38367,1.76314 -2.81219,3.49819 -4.23286,5.23173 -1.96808,2.40146 -4.01429,4.7369 -6.04699,7.08332 -0.87775,1.01321 -1.73361,2.0455 -2.61314,3.05722 -0.53072,0.61046 -1.05783,1.228 -1.5981,1.83004 -0.24073,0.26814 -0.62483,0.58282 -0.5399,0.66742 0.0521,0.0519 0.67831,-0.31506 0.7342,-0.34446 1.13915,-0.59937 2.25454,-1.22327 3.43386,-1.74394 1.66679,-0.73588 3.3771,-1.40159 5.13992,-1.87308 2.40957,-0.64449 4.87872,-0.91377 7.34274,-1.24873 1.00108,-0.13611 1.99263,-0.34046 3.00182,-0.40906 0.2697,-0.0183 1.05237,-0.13652 1.29584,0 0.72354,0.40573 -0.0239,2.15355 -0.21602,2.64816 -0.3171,0.81669 -0.66525,1.62787 -1.05819,2.41134 -0.93055,1.8553 -1.9499,3.66462 -2.93711,5.4901 -1.79594,3.321 -3.67573,6.5933 -5.52861,9.88218 -0.59933,1.06373 -1.2178,2.13645 -1.61974,3.29406 -0.0494,0.14269 -0.17771,0.41505 -0.0644,0.55979 0.33025,0.42325 1.30166,-0.40441 1.55493,-0.55979 0.14832,-0.091 0.30563,-0.16663 0.45349,-0.25834 0.57743,-0.35816 1.13306,-0.75429 1.70616,-1.11956 2.18366,-1.39183 4.417,-2.75911 6.84599,-3.6816 0.54168,-0.2057 1.07858,-0.39799 1.64137,-0.53825 0.51634,-0.1287 1.35233,-0.30151 1.29575,0.51672 -0.0654,0.94404 -1.02509,2.49616 -1.49014,3.29407 -1.23581,2.12012 -2.709,4.09176 -4.1249,6.09292 -1.49022,2.10625 -3.00597,4.19328 -4.51359,6.28671 -1.77635,2.46647 -3.45302,5.00632 -5.29115,7.4278 -1.03321,1.36119 -2.0515,2.74023 -3.15304,4.04759 -0.14786,0.17551 -0.69642,0.60296 -0.62634,0.88274 0.0609,0.24357 1.02845,0.10943 1.20942,0.0861 0.6062,-0.078 1.16889,-0.26295 1.74932,-0.45214 0.87847,-0.2863 1.75665,-0.57355 2.63476,-0.86119 3.96318,-1.29818 7.88901,-2.68414 11.6404,-4.52125 1.21957,-0.59727 2.40709,-1.25904 3.60653,-1.89463 1.87619,-0.99417 3.77011,-1.95944 5.70146,-2.84193 0.94069,-0.42982 1.88554,-0.8141 2.85069,-1.18414 0.87378,-0.33503 1.75657,-0.65594 2.67793,-0.83966 0.14283,-0.0286 0.28822,-0.0414 0.43194,-0.0647 0.37307,-0.0602 1.10808,-0.25529 0.92869,0.40906 -0.15298,0.56622 -0.74312,1.13976 -1.10144,1.59321 -0.41924,0.53051 -0.80387,1.09511 -1.14462,1.67931 -1.04858,1.79807 -1.80027,4.1551 -2.05159,6.22213 -0.0865,0.71427 -0.0973,1.43639 0.77747,1.55015 0.6703,0.0872 1.58291,-0.55179 2.11639,-0.88274 0.55774,-0.34594 1.11538,-0.68494 1.68452,-1.01188 3.32854,-1.91228 6.63096,-3.87248 9.95587,-5.79154 1.22513,-0.70709 2.42951,-1.4503 3.7362,-2.00226 0.80228,-0.3389 1.99095,-0.7591 2.87232,-0.51671 0.83733,0.23028 1.02659,1.07504 1.23096,1.80849 0.32027,1.14936 0.41376,2.37073 0.58308,3.55243 0.2455,1.71338 0.53338,3.46396 1.23105,5.0595 0.14892,0.34075 0.29635,0.73065 0.51828,1.03343 0.39601,0.5403 1.10922,0.95789 1.79249,0.75355 0.90883,-0.27181 1.56395,-1.54474 1.98688,-2.30368 1.22601,-2.20014 2.35554,-4.48237 3.90889,-6.48048 0.53382,-0.68671 1.13579,-1.46566 1.90045,-1.91616 0.0751,-0.0441 0.16226,-0.0641 0.23755,-0.10766 0.18451,-0.10643 0.13754,-0.15487 0.34562,-0.19378 0.308,-0.0575 0.72512,0.21071 0.97176,0.36602 0.93179,0.58667 1.58496,1.49493 2.31087,2.30369 1.30502,1.45413 2.62347,3.15137 4.16808,4.34902 0.4857,0.3766 0.96919,0.64784 1.55492,0.81813 0.0812,0.0236 0.15335,0.0861 0.23756,0.0861 0.1296,0 0.3511,-0.14555 0.43195,-0.23683 0.38314,-0.43293 0.29495,-2.10317 0.28073,-2.6697 -0.0389,-1.53801 -0.14081,-3.07366 -0.25919,-4.60737 -0.0212,-0.26907 -0.17823,-1.62462 0.0212,-1.80851 0.34041,-0.31322 1.01803,0.28188 1.27421,0.45212 0.91493,0.60806 1.79161,1.26822 2.67793,1.91616 0.53355,0.39005 1.01697,0.85066 1.57656,1.20567 0.34799,0.22078 0.7855,0.3207 1.18778,0.38754 0.0389,0.007 0.52561,0.0819 0.51829,0.10765 -0.0142,0.0503 -0.19385,-0.0734 -0.15113,-0.0431 0.0918,0.0652 0.2048,0.0944 0.30235,0.1507 0.41138,0.23745 0.95023,0.7542 0.95023,-0.1507"
         style="display:inline;fill:none;fill-rule:evenodd;stroke:#000000;stroke-width:1.49999988;stroke-linecap:butt;stroke-linejoin:miter;stroke-miterlimit:4;stroke-dasharray:none;stroke-opacity:1"
         id="path4946" />
      <path
         sodipodi:nodetypes="cccccccccccc"
         inkscape:connector-curvature="0"
         id="path4950"
         d="m 534.11863,317.37433 c -0.0565,1.41865 -0.48713,2.8154 -0.53436,4.25103 0.10363,1.93175 0.56199,3.83205 0.47336,5.77425 0.0904,3.66322 -0.99075,7.24115 -1.53931,10.85533 -0.57303,3.54633 -1.83769,6.9828 -2.42042,10.52258 -0.0282,1.52176 -0.49984,3.1236 1.76159,3.48484 3.71387,1.45604 7.54799,3.12591 11.74562,3.01911 3.00085,0.12157 5.70041,-1.16867 8.57961,-1.67524 1.71163,-0.55871 4.06346,-0.48836 5.34756,-1.54482 0.62219,-3.82236 0.39928,-7.7132 -0.0671,-11.54284 -0.22025,-4.33315 -1.25752,-8.60184 -1.40751,-12.93698 0,-2.63366 0.0476,-5.51807 0.17806,-8.16374"
         style="display:inline;fill:none;fill-rule:evenodd;stroke:#000000;stroke-width:1.49999988;stroke-linecap:butt;stroke-linejoin:miter;stroke-miterlimit:4;stroke-dasharray:none;stroke-opacity:1" />
      <g
         transform="matrix(0.8827846,0,0,0.88253387,49.228442,-199.67956)"
         id="g5158"
         style="display:inline;stroke-width:1.13294005">
        <path
           style="fill:#000000;fill-rule:evenodd;stroke:none;stroke-width:1.13294005px;stroke-linecap:butt;stroke-linejoin:miter;stroke-opacity:1"
           d="m 451.32798,566.2056 c -0.006,10e-5 -0.0125,-2e-5 -0.0188,3.9e-4 -0.30353,0.0118 -0.51469,0.17499 -0.69046,0.36107 -0.18682,0.1978 -0.30742,0.3829 -0.48216,0.52461 -0.54142,0.40916 -1.01285,0.83711 -1.56618,1.18483 l -0.003,0.002 c -0.88195,0.59461 -1.57566,1.24986 -2.46453,1.73926 l -0.004,0.002 -0.01,0.006 c -0.62513,0.40372 -1.30231,0.71948 -2.00423,0.98426 -0.16429,0.062 -0.32933,0.1232 -0.4952,0.18263 -2.82625,-1.83538 -6.29899,-2.5002 -9.66671,-2.20463 -2.52262,0.22141 -4.99999,0.98283 -7.11779,2.20463 -0.1703,-0.0594 -0.33864,-0.12236 -0.50634,-0.18684 -0.60473,-0.23256 -1.18681,-0.50957 -1.72267,-0.86199 l -0.007,-0.005 -0.005,-0.003 c -0.76382,-0.42859 -1.35239,-0.99613 -2.11432,-1.51915 l -0.003,-0.002 -3.9e-4,-3.9e-4 c -0.47355,-0.30639 -0.87015,-0.67771 -1.33986,-1.04079 -0.13631,-0.1165 -0.26864,-0.32789 -0.46337,-0.56433 -0.1751,-0.2126 -0.41045,-0.45362 -0.71654,-0.46844 -0.0122,-5.9e-4 -0.0242,-5.9e-4 -0.0364,-3.9e-4 -0.004,0.002 -0.009,0.004 -0.0138,0.006 -0.0312,0.0107 -0.0924,0.015 -0.17913,0.0172 -0.0772,0.002 -0.17653,0.002 -0.25815,0.0153 -0.0413,0.007 -0.0893,0.0177 -0.13272,0.0401 -0.0454,0.0235 -0.0949,0.0644 -0.11738,0.1322 -0.0217,0.0654 -0.009,0.1299 0.0123,0.18225 0.0211,0.0513 0.0565,0.10514 0.10088,0.16049 l 0.003,0.004 0.002,0.002 c 0.13561,0.14979 0.27426,0.27989 0.41044,0.44053 0.0397,0.0468 0.0765,0.0942 0.11008,0.14138 0.1444,0.20326 0.20848,0.39227 0.145,0.57923 l -7.9e-4,0.003 -0.001,0.003 c -0.15865,0.55119 -0.32954,1.18733 -0.12735,1.80534 0.0931,0.49153 0.26545,0.9723 0.5282,1.41445 0.30866,0.58907 0.64034,1.09847 0.91983,1.67965 0.0401,0.1091 0.0856,0.22802 0.13541,0.35305 0.2148,0.53911 0.5241,1.20686 0.88838,1.66206 -1.51134,1.69585 -2.14926,3.67082 -2.11086,5.69799 0.042,2.21784 0.88888,4.48909 2.24396,6.52483 2.70315,4.06094 7.49011,7.27085 12.20144,7.31154 3.42877,0.32036 6.6998,-1.15104 9.53706,-2.78539 l 0.0107,-0.006 0.0104,-0.007 c 2.46143,-1.765 4.8762,-3.93371 6.04184,-6.8622 l 0.006,-0.0149 0.004,-0.0157 c 0.66713,-2.6051 0.54845,-4.76409 -0.21634,-6.67155 -0.34543,-0.86154 -0.82138,-1.66513 -1.4089,-2.43118 0.45038,-0.52624 0.83675,-1.34177 1.09398,-1.99984 0.057,-0.14582 0.10831,-0.28469 0.15382,-0.41189 0.31418,-0.67098 0.69229,-1.26576 1.04411,-1.95816 0.29141,-0.50728 0.48017,-1.06325 0.57998,-1.638 0.21948,-0.69813 0.0193,-1.41567 -0.17069,-2.05292 l -7.9e-4,-0.002 -3.9e-4,-7.8e-4 c -0.048,-0.1363 -0.0571,-0.23077 -0.0445,-0.30186 0.0124,-0.0697 0.047,-0.12516 0.10279,-0.18111 0.0949,-0.0952 0.20649,-0.15748 0.36211,-0.29305 0.0483,-0.0421 0.098,-0.0892 0.14691,-0.14329 l 7.9e-4,-0.001 0.002,-0.002 c 0.0981,-0.12231 0.14334,-0.23303 0.12735,-0.33546 -0.0163,-0.10456 -0.0916,-0.17446 -0.17377,-0.222 -0.15733,-0.091 -0.40619,-0.13365 -0.51745,-0.17041 -0.004,-10e-4 -0.008,-0.002 -0.0115,-0.004 z"
           id="path5153"
           inkscape:connector-curvature="0" />
        <path
           style="fill:#000000;fill-rule:evenodd;stroke:none;stroke-width:1.13294005px;stroke-linecap:butt;stroke-linejoin:miter;stroke-opacity:1"
           d="m 419.75,606.75 c 0,0 -0.75,-16 6.25,-17.5 7,-1.5 19.5,-0.75 19.5,-0.75 0,0 3.25,0 6.5,5.75 3.25,5.75 2.5,11 2.5,11 z"
           id="path5155"
           inkscape:connector-curvature="0"
           sodipodi:nodetypes="cscscc" />
      </g>
      <path
         inkscape:connector-curvature="0"
         id="path4838"
         d="m 342.08835,385.11668 -23.94156,56.13381"
         style="display:inline;fill:none;fill-rule:evenodd;stroke:#000000;stroke-width:2;stroke-linecap:butt;stroke-linejoin:miter;stroke-miterlimit:4;stroke-dasharray:none;stroke-opacity:1" />
      <path
         inkscape:connector-curvature="0"
         id="path4840"
         d="m 402.96429,383.74526 21.60289,58.73247"
         style="display:inline;fill:none;fill-rule:evenodd;stroke:#000000;stroke-width:2;stroke-linecap:butt;stroke-linejoin:miter;stroke-miterlimit:4;stroke-dasharray:none;stroke-opacity:1" />
      <path
         inkscape:connector-curvature="0"
         id="path4883"
         d="m 244.74554,382.86786 29.2087,55.08433"
         style="display:inline;fill:none;fill-rule:evenodd;stroke:#000000;stroke-width:2;stroke-linecap:butt;stroke-linejoin:miter;stroke-miterlimit:4;stroke-dasharray:none;stroke-opacity:1" />
      <path
         inkscape:connector-curvature="0"
         id="path4885"
         d="m 183.85359,383.90085 -16.00472,59.47506"
         style="display:inline;fill:none;fill-rule:evenodd;stroke:#000000;stroke-width:2;stroke-linecap:butt;stroke-linejoin:miter;stroke-miterlimit:4;stroke-dasharray:none;stroke-opacity:1" />
      <path
         style="display:inline;fill:none;fill-rule:evenodd;stroke:#000000;stroke-width:2;stroke-linecap:butt;stroke-linejoin:miter;stroke-miterlimit:4;stroke-dasharray:none;stroke-opacity:1"
         d="m 586.54543,384.53667 -25.42128,55.86192"
         id="path4905"
         inkscape:connector-curvature="0" />
      <path
         style="display:inline;fill:none;fill-rule:evenodd;stroke:#000000;stroke-width:2;stroke-linecap:butt;stroke-linejoin:miter;stroke-miterlimit:4;stroke-dasharray:none;stroke-opacity:1"
         d="m 647.44874,383.83613 20.04787,58.9619"
         id="path4907"
         inkscape:connector-curvature="0" />
    </g>
  </g>
</svg>
