<?xml version="1.0" encoding="UTF-8" standalone="no"?>
<!-- Created with Inkscape (http://www.inkscape.org/) -->

<svg
   xmlns:dc="http://purl.org/dc/elements/1.1/"
   xmlns:cc="http://creativecommons.org/ns#"
   xmlns:rdf="http://www.w3.org/1999/02/22-rdf-syntax-ns#"
   xmlns:svg="http://www.w3.org/2000/svg"
   xmlns="http://www.w3.org/2000/svg"
   xmlns:sodipodi="http://sodipodi.sourceforge.net/DTD/sodipodi-0.dtd"
   xmlns:inkscape="http://www.inkscape.org/namespaces/inkscape"
   width="61.047855mm"
   height="85.18895mm"
   viewBox="0 0 61.047855 85.18895"
   id="svg23865"
   version="1.1"
   inkscape:version="0.91+devel r13901"
   sodipodi:docname="maintenance-pig.svg">
  <defs
     id="defs23867">
    <inkscape:path-effect
       effect="powerstroke"
       id="path-effect9725"
       is_visible="true"
       offset_points="2.9468418,-1.0466496"
       sort_points="true"
       interpolator_type="CubicBezierJohan"
       interpolator_beta="0.2"
       start_linecap_type="butt"
       linejoin_type="round"
       miter_limit="4.5"
       end_linecap_type="butt" />
    <inkscape:path-effect
       end_linecap_type="butt"
       miter_limit="4"
       linejoin_type="extrp_arc"
       start_linecap_type="butt"
       interpolator_beta="0.2"
       interpolator_type="CubicBezierFit"
       sort_points="true"
       offset_points="0.13514838,0.21916359 | 1.9233596,0.6776357 | 3.9525396,0.18126127"
       is_visible="true"
       id="path-effect9695"
       effect="powerstroke" />
    <inkscape:path-effect
       end_linecap_type="butt"
       miter_limit="4"
       linejoin_type="extrp_arc"
       start_linecap_type="butt"
       interpolator_beta="0.2"
       interpolator_type="CubicBezierFit"
       sort_points="true"
       offset_points="0.14626936,0.88689727 | 5,0.5 | 9.9626833,1.28013"
       is_visible="true"
       id="path-effect9707"
       effect="powerstroke" />
    <inkscape:path-effect
       effect="powerstroke"
       id="path-effect9729"
       is_visible="true"
       offset_points="0.13514838,0.21916359 | 1.9233596,0.6776357 | 3.9525396,0.18126127"
       sort_points="true"
       interpolator_type="CubicBezierFit"
       interpolator_beta="0.2"
       start_linecap_type="butt"
       linejoin_type="extrp_arc"
       miter_limit="4"
       end_linecap_type="butt" />
  </defs>
  <sodipodi:namedview
     id="base"
     pagecolor="#ffffff"
     bordercolor="#666666"
     borderopacity="1.0"
     inkscape:pageopacity="0.0"
     inkscape:pageshadow="2"
     inkscape:zoom="0.98994949"
     inkscape:cx="-239.02743"
     inkscape:cy="58.403925"
     inkscape:document-units="mm"
     inkscape:current-layer="layer1"
     showgrid="false"
     fit-margin-top="0"
     fit-margin-left="0"
     fit-margin-right="0"
     fit-margin-bottom="0"
     inkscape:window-width="1920"
     inkscape:window-height="996"
     inkscape:window-x="0"
     inkscape:window-y="38"
     inkscape:window-maximized="1" />
  <metadata
     id="metadata23870">
    <rdf:RDF>
      <cc:Work
         rdf:about="">
        <dc:format>image/svg+xml</dc:format>
        <dc:type
           rdf:resource="http://purl.org/dc/dcmitype/StillImage" />
        <dc:title></dc:title>
      </cc:Work>
    </rdf:RDF>
  </metadata>
  <g
     inkscape:label="Layer 1"
     inkscape:groupmode="layer"
     id="layer1"
     transform="translate(-74.343034,-174.77958)">
    <g
       id="g10230"
       transform="matrix(0.6218681,0,0,0.6216915,-83.584389,-361.86437)"
       style="display:inline;stroke-width:0.85443461">
      <g
         style="stroke-width:1.84433615"
         transform="matrix(0.46327488,0,0,0.46327488,385.74011,469.77635)"
         id="g9759">
        <path
           inkscape:connector-curvature="0"
           d="m -199.95634,936.11544 c -0.62747,0.19762 -1.21585,0.49659 -1.7832,0.82555 -0.86065,0.50997 -1.66405,1.10855 -2.45864,1.71429 -1.00091,0.76909 -1.93694,1.61598 -2.82962,2.50709 -0.74357,0.7255 -1.33902,1.57794 -1.98643,2.38525 -0.30462,0.39725 -0.71819,0.71265 -0.94831,1.16263 0.0115,0.0422 0.0229,0.0844 0.0343,0.12658 0.0215,0.0209 -0.008,0.0513 -0.0296,0.0304 l 0,0 c -0.0596,-0.0269 -0.11928,-0.0538 -0.17892,-0.0806 -0.0728,-0.0559 -0.15818,-0.0985 -0.21837,-0.16785 -0.46094,-0.53102 -0.29668,-1.34224 -0.11158,-1.93997 0.0722,-0.15678 0.1348,-0.31838 0.21667,-0.47035 0.4836,-0.89761 1.24572,-1.61073 1.93314,-2.34757 0.95137,-0.93533 1.93957,-1.83279 2.98112,-2.66745 0.85809,-0.68064 1.73339,-1.34531 2.69014,-1.88345 0.67003,-0.35859 1.354,-0.68578 2.06017,-0.96761 1.25377,-0.44481 1.88282,1.32829 0.62905,1.77309 z"
           id="path9743"
           style="display:inline;fill:#000000;fill-opacity:1;stroke:none;stroke-width:2.78828764;stroke-linecap:round;stroke-linejoin:round;stroke-miterlimit:4;stroke-dasharray:none;stroke-opacity:1" />
        <path
           sodipodi:nodetypes="ccccccc"
           inkscape:connector-curvature="0"
           id="path9745"
           d="m -200.1944,935.69951 c 2.05795,1.36838 4.64623,1.3423 6.90596,2.21979 13.28718,3.5759 26.36985,2.10984 38.56784,-2.01001 0.76502,-0.2269 3.19906,-0.84021 2.08266,0.63952 -0.85149,1.73189 -3.11606,1.65762 -4.68642,2.35069 -8.1579,4.69727 -37.6534,4.95869 -44.22274,-2.22955 -0.43464,-0.82375 0.71688,-1.62893 1.3527,-0.97044 z"
           style="display:inline;fill:#000000;fill-opacity:1;stroke:none;stroke-width:2.78828764;stroke-linecap:round;stroke-linejoin:round;stroke-miterlimit:4;stroke-dasharray:none;stroke-opacity:1" />
        <path
           inkscape:connector-curvature="0"
           d="m -147.80011,941.72583 c -0.38384,-0.42605 -0.79697,-0.82506 -1.20559,-1.22717 -0.46917,-0.45517 -0.93263,-0.91617 -1.40319,-1.36991 -0.50081,-0.4808 -1.00279,-0.96047 -1.51128,-1.43315 -0.44933,-0.42385 -0.91847,-0.82504 -1.42098,-1.18436 -0.36141,-0.25744 -0.76427,-0.43516 -1.18292,-0.57484 -0.24555,-0.077 -0.53183,-0.10042 -0.68457,-0.32822 -0.12863,-0.22898 -0.1066,-0.49397 -0.1073,-0.74721 -0.0281,-0.0104 -0.0134,-0.0502 0.0148,-0.0398 l 0,0 c 0.0569,-0.25317 0.11413,-0.51172 0.33652,-0.6726 0.33881,-0.16159 0.71244,-0.008 1.04615,0.10323 0.57976,0.21864 1.13157,0.50273 1.62054,0.88735 0.52861,0.42241 1.02577,0.88067 1.51406,1.34891 0.51415,0.48959 1.0305,0.9771 1.52808,1.48367 0.45407,0.46759 0.90768,0.93562 1.36351,1.40147 0.40801,0.40584 0.81872,0.81034 1.24906,1.19251 0.82031,0.81802 -0.33654,1.97811 -1.15686,1.16009 z"
           id="path9747"
           style="display:inline;fill:#000000;fill-opacity:1;stroke:none;stroke-width:2.78828764;stroke-linecap:round;stroke-linejoin:round;stroke-miterlimit:4;stroke-dasharray:none;stroke-opacity:1" />
        <path
           sodipodi:nodetypes="cccccccccccccc"
           inkscape:connector-curvature="0"
           id="path9749"
           d="m -197.88104,938.27404 c 2.82431,5.66464 7.31111,13.51115 9.6887,19.37089 -0.006,2.3285 2.311,1.96407 3.95493,2.58637 3.6027,0.94093 7.38826,0.95382 11.07875,0.69636 2.9555,-0.40587 5.86486,-1.13611 8.69302,-2.0783 3.44427,-7.93184 7.94035,-19.57746 9.40606,-22.23138 1.22773,-0.61507 2.45834,0.76966 1.27925,2.06792 -5.05422,9.33227 -6.62008,16.04395 -9.14175,21.50119 -1.51056,1.24083 -3.72418,1.26565 -5.5476,1.8909 -4.42849,1.16551 -9.06036,1.10923 -13.58001,0.62285 -2.21597,-0.37386 -4.44382,-0.84375 -6.56759,-1.56916 -1.4952,-1.1944 -1.36904,-3.41254 -2.26403,-5.01627 -1.90451,-5.20904 -7.09591,-14.06475 -9.74486,-18.94253 0,0 2.03048,-0.17799 2.74513,1.10116 z"
           style="display:inline;fill:#000000;fill-opacity:1;stroke:none;stroke-width:2.78828764;stroke-linecap:round;stroke-linejoin:round;stroke-miterlimit:4;stroke-dasharray:none;stroke-opacity:1" />
        <path
           inkscape:connector-curvature="0"
           d="m -158.0264,945.87929 c -0.46342,0.33696 -0.90971,0.69565 -1.38309,1.01891 -0.51874,0.35306 -1.08789,0.61876 -1.65969,0.87231 -0.55231,0.23561 -1.11217,0.45275 -1.6759,0.65936 -0.48843,0.17461 -0.97827,0.34545 -1.47124,0.50684 -0.27555,0.0786 -0.54038,0.1893 -0.8129,0.27658 -0.1523,0.0543 -0.24194,0.01 -0.32736,-0.11702 -0.10059,-0.1272 0.0574,-0.23757 -0.14533,-0.26113 -0.005,0.0193 -0.0324,0.0122 -0.0274,-0.007 l 0,0 c -0.14336,-0.1142 -0.0487,-0.20252 -0.10119,-0.35738 -0.0315,-0.15428 0.005,-0.25057 0.15378,-0.32295 0.28846,-0.14565 0.5997,-0.23206 0.9085,-0.32379 0.48147,-0.14663 0.95962,-0.30382 1.43456,-0.47038 0.54159,-0.19235 1.07979,-0.39534 1.60458,-0.63025 0.5164,-0.22431 1.02226,-0.47282 1.50541,-0.76274 0.46684,-0.29164 0.92619,-0.59737 1.35839,-0.93882 0.60643,-0.45173 1.24527,0.4059 0.63884,0.85763 z"
           id="path9751"
           style="display:inline;fill:#000000;fill-opacity:1;stroke:none;stroke-width:2.78828764;stroke-linecap:round;stroke-linejoin:round;stroke-miterlimit:4;stroke-dasharray:none;stroke-opacity:1" />
        <path
           inkscape:connector-curvature="0"
           d="m -194.39651,946.76817 c 0.38649,0.24596 0.78306,0.47635 1.17902,0.70677 0.31232,0.19107 0.62891,0.37454 0.95696,0.53721 0.3461,0.17663 0.71941,0.28026 1.09455,0.37344 0.45977,0.10557 0.92558,0.18179 1.39067,0.2595 0.54546,0.0931 1.09173,0.18106 1.63935,0.26041 0.52874,0.074 1.05874,0.13844 1.58808,0.20795 0.36981,0.0466 0.74171,0.0768 1.1087,0.14319 0.27167,0.0539 0.48676,0.19285 0.63069,0.42754 0.0517,0.1654 0.0304,0.081 0.0634,0.25312 0.0192,0.006 0.0113,0.0327 -0.008,0.0272 l 0,0 c -0.11934,0.12657 -0.0584,0.0662 -0.18247,0.18156 -0.20101,0.12978 -0.42192,0.18591 -0.66209,0.15728 -0.36622,-0.0443 -0.72992,-0.10805 -1.09511,-0.15999 -0.52962,-0.0794 -1.05935,-0.15808 -1.58959,-0.23328 -0.55467,-0.0812 -1.10805,-0.17075 -1.66049,-0.26592 -0.4975,-0.0836 -0.99576,-0.16912 -1.48276,-0.30285 -0.43476,-0.12709 -0.86443,-0.27323 -1.26288,-0.49238 -0.34333,-0.18031 -0.67831,-0.37546 -1.0028,-0.58804 -0.38005,-0.23726 -0.76564,-0.46833 -1.1701,-0.66181 -0.58751,-0.32865 -0.12272,-1.15952 0.46479,-0.83086 z"
           id="path9753"
           style="display:inline;fill:#000000;fill-opacity:1;stroke:none;stroke-width:2.78828764;stroke-linecap:round;stroke-linejoin:round;stroke-miterlimit:4;stroke-dasharray:none;stroke-opacity:1" />
        <path
           inkscape:connector-curvature="0"
           d="m -209.7607,976.71846 c 0.39616,-0.4267 0.74199,-0.91499 1.25066,-1.21556 0.0449,-0.0176 0.0897,-0.0351 0.13461,-0.0527 0.0252,-0.0173 0.0497,0.0184 0.0244,0.0357 l 0,0 c -0.0293,0.0331 -0.0585,0.0662 -0.0878,0.0993 -0.35556,0.44659 -0.80525,0.81468 -1.12664,1.2909 -0.11148,0.13807 -0.30673,-0.0196 -0.19525,-0.15765 z"
           id="path9757"
           style="display:inline;fill:#000000;fill-opacity:1;stroke:none;stroke-width:2.78828764;stroke-linecap:round;stroke-linejoin:round;stroke-miterlimit:4;stroke-dasharray:none;stroke-opacity:1" />
      </g>
      <path
         sodipodi:nodetypes="cssc"
         inkscape:connector-curvature="0"
         id="path9685"
         d="m 321.06513,893.74856 c 5.28376,26.548 -14.35594,29.35123 -26.21457,31.3639 -19.27847,3.27196 -35.83673,-18.14473 -21.89882,-38.016 11.91849,-16.9922 39.99931,-17.57749 48.11339,6.6521 z"
         style="fill:none;fill-rule:evenodd;stroke:#000000;stroke-width:1.70886922;stroke-linecap:butt;stroke-linejoin:miter;stroke-miterlimit:4;stroke-dasharray:none;stroke-opacity:1" />
      <g
         id="g9687"
         transform="matrix(-0.55491961,0,0,0.99111094,563.8666,315.24219)"
         style="stroke-width:1.15213311">
        <path
           inkscape:connector-curvature="0"
           id="path9689"
           d="m 441.32992,597.67772 c -6.01429,-0.65256 -11.62167,-2.50949 -14.79435,-4.89927 -1.96732,-1.48187 -1.99662,-1.52436 -1.99079,-2.88851 0.007,-1.79875 0.81733,-3.10669 2.97734,-4.80962 1.98219,-1.56274 5.80081,-3.13892 9.28713,-3.83337 3.1505,-0.62755 11.19976,-0.63592 15.1586,-0.0157 5.1391,0.80504 9.47175,2.25253 11.81043,3.94573 4.7869,3.46568 -0.10956,10.34306 -8.63875,12.13372 -2.29645,0.48212 -10.6924,0.7053 -13.80961,0.36708 z"
           style="fill:#ffffff;fill-opacity:1;stroke:none;stroke-width:3.45639896;stroke-linecap:round;stroke-linejoin:round;stroke-miterlimit:4;stroke-dasharray:none;stroke-opacity:1" />
        <path
           inkscape:connector-curvature="0"
           d="m 466.83012,585.85756 c 0.81519,1.73463 0.83194,3.54779 0.19906,5.24494 -0.62504,1.67613 -1.86885,3.20855 -3.48561,4.48398 -3.24864,2.56281 -8.15015,4.21791 -13.50398,4.16384 -5.01588,0.32414 -10.2823,-0.0877 -14.878,-1.18205 -4.95442,-1.17979 -9.07658,-3.13191 -11.65433,-5.82467 a 1.0466496,1.0466496 0 0 1 -0.17337,-0.24248 c -0.97363,-1.88018 -0.85756,-3.72024 -0.10455,-5.31878 0.79971,-1.69765 2.29995,-3.11104 3.95378,-4.21399 3.71517,-2.47765 8.45084,-3.64759 12.03122,-3.99014 0.51189,-0.049 1.04333,-0.0861 1.59034,-0.10749 5.58607,-0.32065 16.46228,-0.0294 23.80463,4.51823 a 1.0463355,1.047019 79.107167 0 1 0.0701,0.0474 c 0.82736,0.61008 1.65337,1.41288 2.14207,2.40319 z m -1.88584,0.90835 c -0.27924,-0.56583 -0.80426,-1.12087 -1.47379,-1.61996 -3.34393,-2.0599 -7.68111,-3.20194 -11.7221,-3.77054 -4.0638,-0.57182 -7.89796,-0.58334 -10.83312,-0.41429 a 1.0484661,1.0448232 42.14217 0 1 -0.0196,9.4e-4 c -0.50875,0.0197 -1.004,0.0542 -1.48192,0.0999 -3.36516,0.32196 -7.7331,1.42307 -11.06915,3.64789 -1.49213,0.99511 -2.6483,2.14767 -3.22151,3.36451 -0.48516,1.02993 -0.57126,2.13452 0.004,3.33257 2.19931,2.23275 5.83701,4.00992 10.51942,5.12495 4.38906,1.04516 9.46081,1.44332 14.29646,1.12696 a 1.045927,1.047502 43.506827 0 1 0.0806,-0.002 c 4.9597,0.0581 9.3932,-1.4809 12.22351,-3.7137 1.40751,-1.11036 2.35342,-2.34071 2.81191,-3.56861 0.45103,-1.20791 0.44011,-2.42749 -0.12337,-3.62651 z"
           id="path9691"
           inkscape:original-d="m 465.88286,586.30273 c 2.77711,5.90934 -5.45337,12.52253 -15.87156,12.40057 -9.60717,0.62851 -20.76283,-1.4759 -25.74798,-6.68347 -3.1336,-6.05131 6.93774,-11.72937 16.59177,-12.10363 8.18209,-0.47123 17.3635,0.7457 23.20311,4.36255 0.81198,0.59874 1.45913,1.28327 1.82466,2.02398 z"
           inkscape:path-effect="#path-effect9725"
           style="display:inline;fill:#000000;fill-rule:evenodd;stroke:none;stroke-width:4.32982397;stroke-linecap:butt;stroke-linejoin:miter;stroke-miterlimit:4;stroke-dasharray:none;stroke-opacity:1" />
      </g>
      <path
         style="display:inline;fill:#000000;fill-rule:evenodd;stroke:none;stroke-width:0.7836619px;stroke-linecap:butt;stroke-linejoin:miter;stroke-opacity:1"
         d="m 314.8496,903.80021 c 0.18909,-0.1246 0.34278,-0.27355 0.48677,-0.42001 0.39354,-0.40032 0.6154,-0.89746 0.74871,-1.42278 0.17925,-0.70632 0.20071,-1.48922 0.26008,-2.10028 0,0 -0.001,0.0151 -0.001,0.0151 1.7e-4,-0.0173 2.9e-4,-0.0346 3.7e-4,-0.0519 0.006,-1.43084 -0.30678,-2.9346 -1.13196,-4.24115 -0.0744,-0.10634 -0.15029,-0.20928 -0.22752,-0.3089 -0.0517,-0.0667 -0.10447,-0.13249 -0.15831,-0.19743 -0.0707,-0.0254 -0.14291,-0.0463 -0.21622,-0.0627 -0.67844,-0.15167 -1.195,0.13466 -1.52621,0.47793 -0.35525,0.36818 -0.57927,0.87392 -0.72169,1.27429 -0.35659,1.00245 -0.49923,2.24197 -0.51422,2.36246 -0.005,0.0371 -0.009,0.0742 -0.0131,0.11127 0.001,-0.0207 0.003,-0.0415 0.004,-0.0622 -0.12179,1.81453 0.083,2.48108 0.13826,2.70043 0.0316,0.12555 0.18237,0.85846 0.68316,1.45051 l 0.27678,-0.23412 c -0.47077,-0.55656 -0.53462,-1.11643 -0.55114,-1.28888 -0.021,-0.21931 -0.0678,-0.78184 0.22431,-2.49829 0.0434,-0.15499 0.48295,-1.6036 0.73606,-2.14046 0.16611,-0.35233 0.35883,-0.65413 0.55987,-0.81165 0.0531,-0.0416 0.0989,-0.068 0.14076,-0.0831 0.006,0.0107 0.0119,0.0214 0.0178,0.0322 0.67073,1.07241 1.10448,2.29899 1.29269,3.58557 l -0.001,-0.0368 c 0.0507,0.67624 0.14771,1.34865 0.0899,1.9952 -0.0411,0.45923 -0.16144,0.88918 -0.43805,1.24501 -0.10358,0.13325 -0.24324,0.2415 -0.39981,0.34466 l 0.24118,0.36602 z"
         id="path9693"
         inkscape:connector-curvature="0"
         sodipodi:nodetypes="ccccc"
         inkscape:path-effect="#path-effect9695"
         inkscape:original-d="m 314.72901,903.6172 c 1.2789,-0.84268 1.11163,-2.47927 1.12178,-3.76397 -0.0983,-1.473 -0.52953,-2.95215 -1.40606,-4.20538 -1.50235,-0.38952 -1.99992,2.70516 -2.21689,3.57204 -0.22727,1.92199 -0.17916,3.10113 0.57091,3.98789" />
      <g
         style="display:inline;stroke-width:1.95226312"
         id="g9697"
         transform="matrix(0.31599166,0,0,0.31597762,156.75461,888.98786)">
        <path
           inkscape:connector-curvature="0"
           id="path9699"
           d="m 435.84522,-11.464801 c -0.45236,0.0759 -0.90225,0.179261 -1.34153,0.31456 -3.75277,1.3349389 -6.28766,4.1956723 -7.72306,7.168662 -1.90607,3.91464721 -2.88833,8.2973715 -1.44997,12.3587384 1.34065,3.8328816 5.52099,6.8217216 10.39411,7.6324456 3.34361,0.667006 7.11591,0.424073 10.09616,-1.125538 2.27502,-1.124605 3.8248,-3.008096 4.54389,-5.0281456 0.96971,-2.6237772 0.81899,-5.3865529 0.53329,-8.0598222 -0.55828,-4.1195323 -2.47108,-8.2395199 -6.19878,-11.1620282 -2.29675,-1.746686 -5.68767,-2.630129 -8.85411,-2.098872 z"
           style="fill:#000000;fill-opacity:1;stroke:none;stroke-width:7.14530182;stroke-linecap:round;stroke-linejoin:round;stroke-miterlimit:4;stroke-dasharray:none;stroke-opacity:1" />
        <path
           id="path9701"
           d="m 438.64621,-8.6605331 c 1.97598,-0.392536 4.11123,0.349336 5.57103,1.770692 3.26455,5.336169 0.72599,9.425252 -4.0134,9.228183 -3.88448,0.109168 -7.39099,-0.63164 -7.13789,-5.103876 0.86172,-2.364254 2.41324,-4.627282 4.74632,-5.656899 0.27337,-0.1037 0.55166,-0.182026 0.83394,-0.2381 z"
           style="fill:#ffffff;fill-opacity:1;stroke:none;stroke-width:6.49563503;stroke-linecap:round;stroke-linejoin:round;stroke-miterlimit:4;stroke-dasharray:none;stroke-opacity:1"
           inkscape:connector-curvature="0" />
        <path
           id="path9703"
           d="m 445.17092,4.0682939 c 0.63765,-0.2202872 1.34296,-0.1257229 1.77867,0.1716693 0.61748,0.4367862 0.89609,1.0922467 0.93531,1.7640608 0.0119,0.4368732 -0.002,0.8903475 -0.2112,1.3340826 -0.1565,0.3412963 -0.45684,0.6703849 -0.87577,0.8828093 -0.54992,0.2908478 -1.22078,0.3762656 -1.80294,0.3063809 -0.85079,-0.075267 -1.54797,-0.518701 -1.7298,-1.1339506 -0.19586,-0.6517111 0.0414,-1.3849607 0.43541,-2.052492 0.29706,-0.5068081 0.78678,-1.0078268 1.47032,-1.2725603 z"
           style="fill:#ffffff;fill-opacity:1;stroke:none;stroke-width:6.49563503;stroke-linecap:round;stroke-linejoin:round;stroke-miterlimit:4;stroke-dasharray:none;stroke-opacity:1"
           inkscape:connector-curvature="0" />
      </g>
      <path
         style="display:inline;fill:#000000;fill-rule:evenodd;stroke:none;stroke-width:0.85443461px;stroke-linecap:butt;stroke-linejoin:miter;stroke-opacity:1"
         d="m 286.28755,878.22077 c 0.22156,-0.34335 0.22691,-0.71491 0.14938,-1.01198 -0.0715,-0.27374 -0.21678,-0.50992 -0.35792,-0.69588 -0.0509,-0.067 -0.10512,-0.13261 -0.16171,-0.19661 -0.26914,-0.30435 -0.62682,-0.61751 -1.02283,-0.927 -0.95675,-0.74772 -2.30328,-1.60075 -3.66829,-2.4193 -1.36782,-0.82024 -2.80502,-1.63546 -3.92927,-2.28975 -0.56812,-0.33063 -1.05396,-0.61872 -1.42578,-0.85318 -0.19742,-0.12449 -0.32343,-0.20921 -0.44725,-0.29751 -0.11725,-0.0836 -0.17222,-0.12912 -0.16909,-0.12488 -1.42129,-1.49363 -3.49145,-2.76923 -4.85128,-3.95522 -0.12387,-0.10393 -0.27388,-0.21221 -0.43241,-0.29257 -0.14335,-0.0727 -0.373,-0.16323 -0.63207,-0.13297 -0.32115,0.0375 -0.55403,0.24421 -0.6631,0.50091 -0.0487,0.11468 -0.0729,0.23635 -0.0824,0.35666 -0.025,0.01 -0.0492,0.0152 -0.0732,0.0183 -0.0898,0.0114 -0.21879,-0.007 -0.40793,-0.0814 0.0656,0.0258 -1.25241,-0.62467 -1.31031,-0.64565 l 0.0447,0.0194 c -0.16394,-0.0748 -0.70469,-0.41257 -1.04785,-0.50087 -0.10738,-0.0276 -0.24947,-0.05 -0.40183,-0.0233 -0.16749,0.0294 -0.33022,0.11624 -0.44866,0.27237 -0.18616,0.24541 -0.19713,0.57737 -0.16591,0.87222 -0.28425,1.8285 -0.25346,3.51546 0.29777,5.05477 1.08934,3.10295 1.81266,5.03674 2.41322,7.43091 0,0 0.002,0.009 0.002,0.009 0,0 0.0182,0.0551 0.0182,0.0551 0.0262,0.0794 1.77642,6.3753 1.55852,5.65962 l -0.007,-0.0223 c 0.25392,1.04806 0.30944,1.43262 0.56084,2.13992 0.18844,0.53015 0.39675,0.92784 0.60889,1.24317 0,0 0.004,0.006 0.004,0.006 0.0392,0.0446 0.0782,0.0895 0.11681,0.13465 0.29762,0.3478 0.3475,0.41961 0.88824,1.07871 0.14838,0.18086 0.62606,0.78071 1.06671,1.10901 l 1.52962,-2.0531 c -0.12566,-0.0936 -0.37727,-0.38792 -0.62573,-0.68578 -0.4616,-0.55337 -0.72778,-0.86505 -1.08557,-1.19016 -0.10402,-0.13177 -0.22761,-0.3101 -0.35968,-0.55686 -0.27322,-0.51045 -0.33336,-0.74781 -0.75383,-1.84193 l 0.20674,0.53797 -0.21406,-0.56025 c 1.02477,2.68204 -2.5798,-7.2024 -1.92936,-5.56948 l 0.0205,0.0641 c -0.73668,-2.45923 -1.57268,-4.42511 -2.78462,-7.46222 -0.54867,-1.25744 -0.6967,-2.73083 -0.53167,-4.50913 0.002,-0.0268 0.005,-0.0537 0.008,-0.0805 -0.003,-0.0173 -0.006,-0.0346 -0.009,-0.0519 -0.046,-0.29861 0.0131,-0.29518 -0.0459,-0.2185 -0.0462,0.06 -0.11314,0.0936 -0.16783,0.10301 -0.0396,0.007 -0.0511,-0.002 -0.0166,0.007 0.21511,0.0578 0.44852,0.24742 0.84888,0.4541 0,0 0.0156,0.008 0.0156,0.008 0.01,0.004 0.0195,0.008 0.0291,0.0114 0.58543,0.23744 0.44422,0.31799 1.24381,0.68336 0.2521,0.11519 0.56184,0.21938 0.90077,0.20704 0.35462,-0.0129 0.69445,-0.15205 0.99195,-0.43824 0.0678,-0.0652 0.13056,-0.1353 0.18791,-0.2098 -0.0147,-0.0735 -0.0213,-0.14834 -0.0196,-0.22325 0.004,-0.15239 0.0306,-0.13862 0.0185,-0.10058 -0.0301,0.094 -0.1512,0.21796 -0.32589,0.24498 -0.12467,0.0193 -0.16315,-0.0171 -0.12891,0.0189 0.0483,0.0508 0.062,0.0552 0.15396,0.16022 1.70058,1.6026 3.21361,2.46966 4.59793,4.03201 0.10738,0.12132 0.25911,0.2479 0.39475,0.34993 0.13777,0.10364 0.33517,0.23861 0.52284,0.36212 0.39575,0.26047 0.90073,0.56989 1.46709,0.90943 1.14366,0.68563 2.53664,1.49382 3.88747,2.322 1.35215,0.82898 2.61147,1.6479 3.46669,2.3329 0.35564,0.28485 0.61479,0.52579 0.77633,0.71506 0.0318,0.0373 0.0582,0.0704 0.0798,0.0995 0.0717,0.0965 0.0687,0.11929 0.0582,0.0779 -0.0165,-0.065 -0.0315,-0.23147 0.078,-0.40118 l 1.49044,0.96174 z"
         id="path9705"
         inkscape:connector-curvature="0"
         sodipodi:nodetypes="ccccccccccc"
         inkscape:path-effect="#path-effect9707"
         inkscape:original-d="m 285.54233,877.7399 c 0.8968,-1.38978 -9.96275,-6.77878 -10.88397,-7.79402 -1.40091,-1.5215 -3.19233,-2.60148 -4.71766,-3.98685 -0.41242,-0.38966 -0.79768,-0.49608 -0.76758,0.20173 -0.78397,0.78539 -1.75897,-0.21748 -2.54933,-0.51604 -0.57405,-0.28286 -1.50935,-1.04937 -1.33673,0.17682 -0.20323,1.60682 -0.19188,3.27612 0.40862,4.80393 0.92349,2.46373 1.90073,4.91144 2.6008,7.45146 0.67234,1.84348 1.11046,3.75905 1.74394,5.61455 0.3178,1.0057 0.56226,2.09647 1.19447,2.95441 0.69319,0.69438 1.34524,1.66956 1.84072,2.03871" />
      <path
         sodipodi:nodetypes="ccccc"
         inkscape:connector-curvature="0"
         id="path9709"
         d="m 268.70118,869.76857 c -0.59455,-0.1485 -0.80127,0.61026 -0.74318,1.06787 0.22279,0.99295 0.95854,1.75995 1.34033,2.68823 0.85267,1.78658 1.50813,3.67573 1.85136,5.62832 0.24363,1.09597 1.25662,2.89966 1.88857,3.83928"
         style="display:inline;fill:none;fill-rule:evenodd;stroke:#000000;stroke-width:0.85443461px;stroke-linecap:butt;stroke-linejoin:miter;stroke-opacity:1" />
      <path
         sodipodi:nodetypes="ccc"
         inkscape:connector-curvature="0"
         id="path9711"
         d="m 297.99451,874.96103 c 3.66896,-3.22131 7.21077,-9.13361 11.7009,-10.80653 -0.55489,6.32315 -0.99328,10.52166 1.27424,15.55075"
         style="fill:none;fill-rule:evenodd;stroke:#000000;stroke-width:1.28165185;stroke-linecap:butt;stroke-linejoin:miter;stroke-miterlimit:4;stroke-dasharray:none;stroke-opacity:1" />
      <path
         inkscape:original-d="m 322.72901,903.6172 c 1.2789,-0.84268 1.11163,-2.47927 1.12178,-3.76397 -0.0983,-1.473 -0.52953,-2.95215 -1.40606,-4.20538 -1.50235,-0.38952 -1.99992,2.70516 -2.21689,3.57204 -0.22727,1.92199 -0.17916,3.10113 0.57091,3.98789"
         inkscape:path-effect="#path-effect9729"
         sodipodi:nodetypes="ccccc"
         inkscape:connector-curvature="0"
         id="path9727"
         d="m 322.8496,903.80021 c 0.18909,-0.1246 0.34278,-0.27355 0.48677,-0.42001 0.39354,-0.40032 0.6154,-0.89746 0.74871,-1.42278 0.17925,-0.70632 0.20071,-1.48922 0.26008,-2.10028 0,0 -0.001,0.0151 -0.001,0.0151 1.7e-4,-0.0173 2.9e-4,-0.0346 3.7e-4,-0.0519 0.006,-1.43084 -0.30678,-2.9346 -1.13196,-4.24115 -0.0744,-0.10634 -0.15029,-0.20928 -0.22752,-0.3089 -0.0517,-0.0667 -0.10447,-0.13249 -0.15831,-0.19743 -0.0707,-0.0254 -0.14291,-0.0463 -0.21622,-0.0627 -0.67844,-0.15167 -1.195,0.13466 -1.52621,0.47793 -0.35525,0.36818 -0.57927,0.87392 -0.72169,1.27429 -0.35659,1.00245 -0.49923,2.24197 -0.51422,2.36246 -0.005,0.0371 -0.009,0.0742 -0.0131,0.11127 0.001,-0.0207 0.003,-0.0415 0.004,-0.0622 -0.12179,1.81453 0.083,2.48108 0.13826,2.70043 0.0316,0.12555 0.18237,0.85846 0.68316,1.45051 l 0.27678,-0.23412 c -0.47077,-0.55656 -0.53462,-1.11643 -0.55114,-1.28888 -0.021,-0.21931 -0.0678,-0.78184 0.22431,-2.49829 0.0434,-0.15499 0.48295,-1.6036 0.73606,-2.14046 0.16611,-0.35233 0.35883,-0.65413 0.55987,-0.81165 0.0531,-0.0416 0.0989,-0.068 0.14076,-0.0831 0.006,0.0107 0.0119,0.0214 0.0178,0.0322 0.67073,1.07241 1.10448,2.29899 1.29269,3.58557 l -0.001,-0.0368 c 0.0507,0.67624 0.14771,1.34865 0.0899,1.9952 -0.0411,0.45923 -0.16144,0.88918 -0.43805,1.24501 -0.10358,0.13325 -0.24324,0.2415 -0.39981,0.34466 l 0.24118,0.36602 z"
         style="display:inline;fill:#000000;fill-rule:evenodd;stroke:none;stroke-width:0.7836619px;stroke-linecap:butt;stroke-linejoin:miter;stroke-opacity:1" />
      <g
         transform="matrix(-0.24043428,0,0,0.2404236,415.40167,886.11005)"
         id="g9731"
         style="display:inline;stroke-width:2.5657692">
        <path
           style="fill:#000000;fill-opacity:1;stroke:none;stroke-width:9.39073944;stroke-linecap:round;stroke-linejoin:round;stroke-miterlimit:4;stroke-dasharray:none;stroke-opacity:1"
           d="m 435.84522,-11.464801 c -0.45236,0.0759 -0.90225,0.179261 -1.34153,0.31456 -3.75277,1.3349389 -6.28766,4.1956723 -7.72306,7.168662 -1.90607,3.91464721 -2.88833,8.2973715 -1.44997,12.3587384 1.34065,3.8328816 5.52099,6.8217216 10.39411,7.6324456 3.34361,0.667006 7.11591,0.424073 10.09616,-1.125538 2.27502,-1.124605 3.8248,-3.008096 4.54389,-5.0281456 0.96971,-2.6237772 0.81899,-5.3865529 0.53329,-8.0598222 -0.55828,-4.1195323 -2.47108,-8.2395199 -6.19878,-11.1620282 -2.29675,-1.746686 -5.68767,-2.630129 -8.85411,-2.098872 z"
           id="path9733"
           inkscape:connector-curvature="0" />
        <path
           inkscape:connector-curvature="0"
           style="fill:#ffffff;fill-opacity:1;stroke:none;stroke-width:8.53691292;stroke-linecap:round;stroke-linejoin:round;stroke-miterlimit:4;stroke-dasharray:none;stroke-opacity:1"
           d="m 438.64621,-8.6605331 c 1.97598,-0.392536 4.11123,0.349336 5.57103,1.770692 3.26455,5.336169 0.72599,9.425252 -4.0134,9.228183 -3.88448,0.109168 -7.39099,-0.63164 -7.13789,-5.103876 0.86172,-2.364254 2.41324,-4.627282 4.74632,-5.656899 0.27337,-0.1037 0.55166,-0.182026 0.83394,-0.2381 z"
           id="path9736" />
        <path
           inkscape:connector-curvature="0"
           style="fill:#ffffff;fill-opacity:1;stroke:none;stroke-width:8.53691292;stroke-linecap:round;stroke-linejoin:round;stroke-miterlimit:4;stroke-dasharray:none;stroke-opacity:1"
           d="m 445.17092,4.0682939 c 0.63765,-0.2202872 1.34296,-0.1257229 1.77867,0.1716693 0.61748,0.4367862 0.89609,1.0922467 0.93531,1.7640608 0.0119,0.4368732 -0.002,0.8903475 -0.2112,1.3340826 -0.1565,0.3412963 -0.45684,0.6703849 -0.87577,0.8828093 -0.54992,0.2908478 -1.22078,0.3762656 -1.80294,0.3063809 -0.85079,-0.075267 -1.54797,-0.518701 -1.7298,-1.1339506 -0.19586,-0.6517111 0.0414,-1.3849607 0.43541,-2.052492 0.29706,-0.5068081 0.78678,-1.0078268 1.47032,-1.2725603 z"
           id="path9739" />
      </g>
      <path
         sodipodi:nodetypes="cccccc"
         inkscape:connector-curvature="0"
         id="path9770"
         d="m 270.65003,914.9165 c -8.29826,5.28426 -10.40927,17.2579 -6.25668,24.86068 11.54436,19.12079 21.46611,11.60733 77.90834,11.92625 -3.20714,-1.83422 -5.74932,-3.59998 -8.7526,-5.80452 6.98456,-0.63861 11.29885,-0.64493 13.12934,-0.53567 -32.52022,-13.39084 -53.98764,-8.95722 -62.6903,-1.99258"
         style="fill:none;fill-rule:evenodd;stroke:#000000;stroke-width:1.70886922;stroke-linecap:butt;stroke-linejoin:miter;stroke-miterlimit:4;stroke-dasharray:none;stroke-opacity:1" />
      <g
         id="g9781"
         style="stroke-width:0.85443461">
        <path
           style="fill:none;fill-rule:evenodd;stroke:#000000;stroke-width:0.85443461px;stroke-linecap:butt;stroke-linejoin:miter;stroke-opacity:1"
           d="m 330.89529,939.52428 6.82676,-14.49961 c -4.01855,-5.90775 -1.04576,-10.97882 1.26286,-16.4128 l 3.0377,1.01527 c -0.13632,1.84006 -2.74682,7.79267 -1.07131,8.80835 1.21016,0.82286 2.74274,1.10182 4.18625,1.15576 2.32699,-0.21713 3.10766,-6.21686 3.98702,-8.15328 l 2.41827,0.57052 c 1.52581,12.45892 -8.58195,14.27749 -8.56787,14.86885 l -4.65005,15.10323"
           id="path9774"
           inkscape:connector-curvature="0"
           sodipodi:nodetypes="cccccccccc" />
        <path
           sodipodi:nodetypes="cccccccccc"
           inkscape:connector-curvature="0"
           id="path9777"
           d="m 334.49504,951.46966 -4.45176,8.24961 c 4.01855,5.90775 1.04576,10.97882 -1.26286,16.4128 l -3.0377,-1.01527 c 0.13632,-1.84006 2.74682,-7.79267 1.07131,-8.80835 -1.21016,-0.82286 -2.74274,-1.10182 -4.18625,-1.15576 -2.32699,0.21713 -3.10766,6.21686 -3.98702,8.15328 l -2.41827,-0.57052 c -1.52581,-12.45892 8.58195,-14.27749 8.56787,-14.86885 l 1.90005,-6.22823"
           style="fill:none;fill-rule:evenodd;stroke:#000000;stroke-width:0.85443461px;stroke-linecap:butt;stroke-linejoin:miter;stroke-opacity:1" />
        <path
           style="fill:none;fill-rule:evenodd;stroke:#000000;stroke-width:0.85443461px;stroke-linecap:butt;stroke-linejoin:miter;stroke-opacity:1"
           d="m 336.5,947.625 1,-2.125"
           id="path9779"
           inkscape:connector-curvature="0" />
      </g>
      <path
         sodipodi:nodetypes="cc"
         inkscape:connector-curvature="0"
         id="path9786"
         d="m 324.03896,951.72713 c -0.71037,-4.13679 0.37309,-9.78761 2.66735,-12.78013"
         style="fill:none;fill-rule:evenodd;stroke:#000000;stroke-width:0.85443461px;stroke-linecap:butt;stroke-linejoin:miter;stroke-opacity:1" />
      <path
         sodipodi:nodetypes="csccccc"
         inkscape:connector-curvature="0"
         id="path9793"
         d="m 301.45313,973.29191 c -2.56941,-1.45169 -6.75301,-2.27997 -9.40779,-1.5587 -12.12023,3.29292 -22.1891,8.19363 -33.6447,10.5224 1.06567,0.60926 8.22936,3.60525 11.56587,4.65454 l -13.03114,8.46212 c 16.57304,-0.33958 34.53958,5.92703 48.7853,-0.98302 18.76106,-13.07015 0.002,-32.74888 -13.23515,-37.80101"
         style="fill:none;fill-rule:evenodd;stroke:#000000;stroke-width:1.70886922;stroke-linecap:butt;stroke-linejoin:miter;stroke-miterlimit:4;stroke-dasharray:none;stroke-opacity:1" />
      <path
         sodipodi:nodetypes="cc"
         inkscape:connector-curvature="0"
         id="path9797"
         d="m 280.99168,997.38975 c -1.29524,-3.1126 -4.27348,-16.34048 -3.62846,-20.99232"
         style="fill:none;fill-rule:evenodd;stroke:#000000;stroke-width:0.85443461px;stroke-linecap:butt;stroke-linejoin:miter;stroke-opacity:1" />
      <path
         style="fill:none;fill-rule:evenodd;stroke:#000000;stroke-width:0.85443461px;stroke-linecap:butt;stroke-linejoin:miter;stroke-opacity:1"
         d="m 285.16846,997.87719 c -1.29524,-3.1126 -4.20026,-18.32792 -3.55524,-22.97976"
         id="path9806"
         inkscape:connector-curvature="0"
         sodipodi:nodetypes="cc" />
      <path
         sodipodi:nodetypes="cc"
         inkscape:connector-curvature="0"
         id="path9808"
         d="M 279.26361,975.89656 C 263.58204,971.49642 247.7334,952.93526 263.31,938.41207"
         style="fill:none;fill-rule:evenodd;stroke:#000000;stroke-width:1.70886922;stroke-linecap:butt;stroke-linejoin:miter;stroke-miterlimit:4;stroke-dasharray:none;stroke-opacity:1" />
      <path
         sodipodi:nodetypes="cccccccccc"
         inkscape:connector-curvature="0"
         id="path9823"
         d="m 334.351,952.3266 c 3.55217,0.69949 6.22764,4.61933 7.14071,8.17997 0.7766,3.21334 0.80914,6.57948 0.60209,9.8631 -0.74217,5.87195 -3.73485,11.09544 -6.43085,16.25126 -1.67594,3.78733 -3.95703,7.24961 -6.05223,10.80734 l -0.73522,-10.30416 -9.80154,7.24131 c 1.68003,-4.41477 1.94583,-9.43267 1.96105,-11.70833 0.0545,-2.25351 -0.5861,-5.07157 -2.39095,-6.66682 -1.45629,-1.0913 -4.95491,-1.18216 -6.57494,-1.50622"
         style="fill:none;fill-rule:evenodd;stroke:#000000;stroke-width:1.70886922;stroke-linecap:butt;stroke-linejoin:miter;stroke-miterlimit:4;stroke-dasharray:none;stroke-opacity:1" />
      <path
         sodipodi:nodetypes="cc"
         inkscape:connector-curvature="0"
         id="path9825"
         d="m 321.30091,981.20279 c 4.56916,-0.93649 9.7507,-2.05431 15.3834,3.36349"
         style="fill:none;fill-rule:evenodd;stroke:#000000;stroke-width:0.85443461px;stroke-linecap:butt;stroke-linejoin:miter;stroke-opacity:1" />
      <path
         sodipodi:nodetypes="cc"
         inkscape:connector-curvature="0"
         id="path9841"
         d="m 319.5826,913.47924 c 3.72344,4.59627 14.86897,10.03849 12.18046,26.48257"
         style="fill:none;fill-rule:evenodd;stroke:#000000;stroke-width:1.70886922;stroke-linecap:butt;stroke-linejoin:miter;stroke-miterlimit:4;stroke-dasharray:none;stroke-opacity:1" />
      <path
         sodipodi:nodetypes="ccccc"
         inkscape:connector-curvature="0"
         id="path9858"
         d="m 306.50817,952.65446 c -1.22097,3.07882 -1.875,4.5608 -2.76554,6.30057 1.41311,-0.51032 4.46199,-1.61075 5.78372,-1.82083 -0.12288,1.57972 -0.24344,8.97493 0.0599,7.4718 5.41829,-4.18187 9.36152,-7.76521 15.61009,-8.16772"
         style="fill:none;fill-rule:evenodd;stroke:#000000;stroke-width:1.70886922;stroke-linecap:butt;stroke-linejoin:miter;stroke-miterlimit:4;stroke-dasharray:none;stroke-opacity:1" />
      <path
         sodipodi:nodetypes="cc"
         inkscape:connector-curvature="0"
         id="path9860"
         d="m 332.18925,956.28875 c 1.6463,0.18756 3.55052,-1.07872 3.84888,-3.94302"
         style="fill:none;fill-rule:evenodd;stroke:#000000;stroke-width:1.70886922;stroke-linecap:butt;stroke-linejoin:miter;stroke-miterlimit:4;stroke-dasharray:none;stroke-opacity:1" />
      <path
         sodipodi:nodetypes="cc"
         inkscape:connector-curvature="0"
         id="path9864"
         d="m 316.29094,959.36859 c -2.51971,-1.90083 -4.13892,-3.96749 -5.04123,-6.63547"
         style="fill:none;fill-rule:evenodd;stroke:#000000;stroke-width:0.85443461px;stroke-linecap:butt;stroke-linejoin:miter;stroke-opacity:1" />
      <rect
         transform="matrix(0.96855388,-0.24880391,0.25169626,0.96780628,0,0)"
         ry="1.7862139"
         y="974.42334"
         x="62.086205"
         height="6.2517486"
         width="13.31939"
         id="rect9871"
         style="fill:none;fill-opacity:1;stroke:#000000;stroke-width:0.85443652;stroke-linecap:round;stroke-linejoin:round;stroke-miterlimit:4;stroke-dasharray:none;stroke-opacity:1" />
      <path
         sodipodi:nodetypes="ccsccccccscccccccccccccccscccccccccscccccccccccccccccccccscccc"
         inkscape:connector-curvature="0"
         id="path9873"
         d="m 307.92567,931.41578 c -0.089,-0.7657 -0.17849,-1.54147 -0.0208,-2.30491 0.0608,-0.29415 0.14095,-0.69316 0.41955,-0.86755 0.33623,-0.21046 0.95176,0.0852 0.9427,0.49794 -0.01,0.44574 -0.52938,0.96545 -0.85982,1.22176 -0.03,0.0232 -0.38214,0.25325 -0.41956,0.231 -0.0667,-0.0396 0.0843,-0.0802 0.0932,-0.0822 0.0981,-0.0211 0.19595,-0.0116 0.29524,-0.0257 0.10818,-0.0153 0.22307,-0.0481 0.32632,-0.0821 0.38549,-0.12735 0.73452,-0.36359 1.05147,-0.61088 0.13778,-0.10751 0.27874,-0.21219 0.40919,-0.32854 0.0279,-0.0249 0.17314,-0.17833 0.21237,-0.1848 0.0348,-0.006 0.0223,0.22518 0.0207,0.25667 -0.002,0.036 -0.007,0.0719 -0.0103,0.1078 -0.0235,0.25604 -0.0751,0.61833 -0.0208,0.86755 0.0261,0.11978 0.12839,0.24346 0.26416,0.2002 0.78028,-1.08282 0.65986,-1.09125 1.71968,-0.99075 0.32837,-0.10626 0.61603,-0.35565 0.70443,-0.69815 0.0277,-0.10724 0.0401,-0.30872 0.005,-0.4158 -0.0659,-0.20254 -0.24118,-0.18002 -0.36777,-0.0462 -0.23317,0.2465 -0.36724,0.57641 -0.49724,0.88295 -0.0669,0.15783 -0.13562,0.31363 -0.18646,0.4774 -0.006,0.0195 -0.0557,0.18028 -0.057,0.21561 -0.007,0.19918 0.26885,-0.0611 0.30042,-0.0924 0.17579,-0.17422 0.34681,-0.37134 0.48689,-0.57495 0.0753,-0.1094 0.14428,-0.22293 0.21754,-0.33367 0.0863,-0.13035 0.14838,-0.26379 0.21237,-0.40554 0.012,-0.0267 0.0218,-0.0544 0.0311,-0.0822 0.004,-0.0134 -0.003,-0.0455 0.0103,-0.0411 0.005,0.002 -0.002,0.20802 0,0.23099 0.009,0.13217 0.0388,0.2741 0.0777,0.40042 0.0852,0.27673 0.25117,0.52058 0.35221,0.79054 0.19209,0.51316 0.14411,0.87967 -0.27451,1.25769 -0.0957,0.0864 -0.3779,0.29531 -0.51797,0.27721 -0.20043,-0.0259 0.12273,-0.65018 0.15539,-0.71868 0.28042,-0.58814 0.61933,-1.14426 0.9686,-1.69404 0.1057,-0.16638 0.20439,-0.33711 0.31077,-0.50307 0.0538,-0.0839 0.39865,-0.54451 0.34186,-0.65708 -0.0379,-0.0752 -0.23549,0.12951 -0.2538,0.14887 -0.13796,0.14584 -0.2937,0.38377 -0.24344,0.59548 0.0583,0.24548 0.36492,0.31445 0.56976,0.39014 0.28584,0.10563 0.64101,0.23877 0.78731,0.52874 0.15701,0.31122 -0.0158,0.6719 -0.27453,0.86755 -0.0669,0.0506 -0.17785,0.12292 -0.26934,0.0975 -0.18654,-0.0518 -0.0848,-0.43451 -0.0622,-0.54415 0.0716,-0.3456 0.18959,-0.67739 0.31595,-1.00615 0.0993,-0.25829 0.19812,-0.51218 0.31078,-0.76488 0.0557,-0.12475 0.11025,-0.24994 0.16575,-0.37473 0.04,-0.09 0.0713,-0.19876 0.13468,-0.27721 0.0272,-0.0337 0.0296,0.16585 0.0311,0.17453 0.0266,0.16345 0.068,0.35386 0.25898,0.39528 0.32757,0.071 0.57669,-0.3244 0.8909,-0.30801 0.2383,0.0125 0.42156,0.26604 0.54905,0.43634 0.33007,0.44092 0.66744,1.1603 0.43509,1.70943 -0.1135,0.26824 -0.34914,0.43673 -0.63192,0.48768 -0.11734,0.0211 -0.25061,0.0242 -0.35222,-0.0513 -0.21008,-0.15615 -0.0751,-0.51212 0,-0.69815 0.17921,-0.44401 0.4779,-0.83996 0.78213,-1.20635 0.19389,-0.23352 0.40523,-0.45449 0.61638,-0.67248 0.10383,-0.11436 0.21876,-0.21785 0.32632,-0.32854 0.069,-0.071 0.20879,-0.19301 0.2279,-0.30287 0.014,-0.0803 -0.0648,-0.17152 -0.10359,-0.23101"
         style="fill:none;fill-rule:evenodd;stroke:#000000;stroke-width:0.4272173;stroke-linecap:butt;stroke-linejoin:miter;stroke-miterlimit:4;stroke-dasharray:none;stroke-opacity:1" />
      <path
         sodipodi:nodetypes="cc"
         inkscape:connector-curvature="0"
         id="path9875"
         d="m 300.06739,924.00041 c 0.57932,4.71013 -2.77669,11.55152 -3.2526,13.27443"
         style="fill:none;fill-rule:evenodd;stroke:#000000;stroke-width:0.85443461px;stroke-linecap:butt;stroke-linejoin:miter;stroke-opacity:1" />
      <path
         sodipodi:nodetypes="ccccc"
         inkscape:connector-curvature="0"
         id="path9877"
         d="m 299.62672,936.99059 c 0.82892,-0.44566 0.14233,-1.93752 4.19345,-3.59274 -0.45703,-2.32327 -1.34448,-2.97497 -1.64683,-3.51502 1.20059,-1.52605 2.69818,-3.23939 4.72667,-4.56542 -0.59576,-1.24768 -3.18769,-1.12412 -3.00447,-1.85031"
         style="fill:none;fill-rule:evenodd;stroke:#000000;stroke-width:0.85443461px;stroke-linecap:butt;stroke-linejoin:miter;stroke-opacity:1" />
      <path
         inkscape:connector-curvature="0"
         id="path9886"
         d="m 296.51214,936.63444 c -0.13863,-0.008 -0.28023,0.005 -0.41589,-0.0244 -0.0339,-0.007 -0.32916,-0.37038 -0.36696,-0.41472 -0.11914,-0.13977 -0.10887,-0.11425 -0.23852,-0.25615 -0.14177,-0.15517 -0.28056,-0.31359 -0.42812,-0.46352 -0.51098,-0.51916 -1.02548,-1.02583 -1.44948,-1.62229 -0.17294,-0.24329 -0.3256,-0.5021 -0.47093,-0.76236 -0.34049,-0.60978 -0.64752,-1.23618 -0.97243,-1.85406 -0.15703,-0.29861 -0.11127,-0.19133 -0.27522,-0.4879 -0.20465,-0.3702 -0.41064,-0.73867 -0.62383,-1.1039 -0.33365,-0.57158 -0.69752,-1.13311 -0.94186,-1.75037 -0.0745,-0.18822 -0.16827,-0.37532 -0.2324,-0.5672 -0.007,-0.0216 -0.006,-0.0452 -0.0122,-0.0671 -0.0249,-0.091 -0.067,-0.17987 -0.0978,-0.26835 -0.0227,-0.065 -0.0601,-0.12542 -0.0856,-0.18907 -0.0231,-0.0576 -0.0272,-0.12969 -0.0612,-0.18297 -0.004,-0.007 -0.0592,-0.11368 -0.0734,-0.0854 -0.0231,0.046 0.004,0.26881 0.0734,0.17687"
         style="fill:none;fill-rule:evenodd;stroke:#000000;stroke-width:0.85443461px;stroke-linecap:butt;stroke-linejoin:miter;stroke-opacity:1" />
      <path
         sodipodi:nodetypes="ccccc"
         inkscape:connector-curvature="0"
         id="path9888"
         d="m 287.23423,925.0222 c -0.46795,2.44825 -3.22298,5.09665 -4.16931,7.20023 1.89987,0.65081 5.34123,0.59509 6.89326,0.46797 -0.86038,2.17006 -0.52907,3.22077 -1.66983,5.10719 0.78371,0.0722 3.64989,0.999 4.05717,0.44218"
         style="fill:none;fill-rule:evenodd;stroke:#000000;stroke-width:0.85443461px;stroke-linecap:butt;stroke-linejoin:miter;stroke-opacity:1" />
      <path
         sodipodi:nodetypes="cc"
         inkscape:connector-curvature="0"
         id="path9894"
         d="m 267.36712,920.12902 c 6.41661,4.92622 16.98011,15.66335 15.5709,21.00377"
         style="fill:none;fill-rule:evenodd;stroke:#000000;stroke-width:0.85443461px;stroke-linecap:butt;stroke-linejoin:miter;stroke-opacity:1" />
      <path
         sodipodi:nodetypes="cc"
         inkscape:connector-curvature="0"
         id="path9896"
         d="m 321.06524,915.99441 c -1.01977,4.53261 0.56942,16.52 2.06922,19.84792"
         style="fill:none;fill-rule:evenodd;stroke:#000000;stroke-width:0.85443461px;stroke-linecap:butt;stroke-linejoin:miter;stroke-opacity:1" />
    </g>
  </g>
</svg>
