<?xml version="1.0" encoding="UTF-8" standalone="no"?>
<!-- Created with Inkscape (http://www.inkscape.org/) -->

<svg
   xmlns:dc="http://purl.org/dc/elements/1.1/"
   xmlns:cc="http://creativecommons.org/ns#"
   xmlns:rdf="http://www.w3.org/1999/02/22-rdf-syntax-ns#"
   xmlns:svg="http://www.w3.org/2000/svg"
   xmlns="http://www.w3.org/2000/svg"
   xmlns:sodipodi="http://sodipodi.sourceforge.net/DTD/sodipodi-0.dtd"
   xmlns:inkscape="http://www.inkscape.org/namespaces/inkscape"
   width="191.0834mm"
   height="85.6978mm"
   viewBox="0 0 191.0834 85.6978"
   id="svg23865"
   version="1.1"
   inkscape:version="0.91+devel r13901"
   sodipodi:docname="piggy-platter.svg">
  <defs
     id="defs23867">
    <inkscape:path-effect
       effect="powerstroke"
       id="path-effect9725"
       is_visible="true"
       offset_points="2.9468418,-1.0466496"
       sort_points="true"
       interpolator_type="CubicBezierJohan"
       interpolator_beta="0.2"
       start_linecap_type="butt"
       linejoin_type="round"
       miter_limit="4.5"
       end_linecap_type="butt" />
    <inkscape:path-effect
       end_linecap_type="butt"
       miter_limit="4"
       linejoin_type="extrp_arc"
       start_linecap_type="butt"
       interpolator_beta="0.2"
       interpolator_type="CubicBezierFit"
       sort_points="true"
       offset_points="0.13514838,0.21916359 | 1.9233596,0.6776357 | 3.9525396,0.18126127"
       is_visible="true"
       id="path-effect9695"
       effect="powerstroke" />
    <inkscape:path-effect
       end_linecap_type="butt"
       miter_limit="4"
       linejoin_type="extrp_arc"
       start_linecap_type="butt"
       interpolator_beta="0.2"
       interpolator_type="CubicBezierFit"
       sort_points="true"
       offset_points="0.14626936,0.88689727 | 5,0.5 | 9.9626833,1.28013"
       is_visible="true"
       id="path-effect9707"
       effect="powerstroke" />
    <inkscape:path-effect
       effect="powerstroke"
       id="path-effect9729"
       is_visible="true"
       offset_points="0.13514838,0.21916359 | 1.9233596,0.6776357 | 3.9525396,0.18126127"
       sort_points="true"
       interpolator_type="CubicBezierFit"
       interpolator_beta="0.2"
       start_linecap_type="butt"
       linejoin_type="extrp_arc"
       miter_limit="4"
       end_linecap_type="butt" />
    <inkscape:path-effect
       effect="powerstroke"
       id="path-effect9468"
       is_visible="true"
       offset_points="0.14626936,0.58103025 | 5,0.32756346 | 9.9626833,0.8386476"
       sort_points="true"
       interpolator_type="CubicBezierFit"
       interpolator_beta="0.2"
       start_linecap_type="butt"
       linejoin_type="extrp_arc"
       miter_limit="4"
       end_linecap_type="butt" />
    <inkscape:path-effect
       effect="powerstroke"
       id="path-effect9442"
       is_visible="true"
       offset_points="0.13514838,0.14357996 | 1.9233596,0.44393737 | 3.9525396,0.11874913"
       sort_points="true"
       interpolator_type="CubicBezierFit"
       interpolator_beta="0.2"
       start_linecap_type="butt"
       linejoin_type="extrp_arc"
       miter_limit="4"
       end_linecap_type="butt" />
    <inkscape:path-effect
       end_linecap_type="butt"
       miter_limit="4.5"
       linejoin_type="round"
       start_linecap_type="butt"
       interpolator_beta="0.2"
       interpolator_type="CubicBezierJohan"
       sort_points="true"
       offset_points="2.9468418,-1.0466496"
       is_visible="true"
       id="path-effect9438"
       effect="powerstroke" />
  </defs>
  <sodipodi:namedview
     id="base"
     pagecolor="#ffffff"
     bordercolor="#666666"
     borderopacity="1.0"
     inkscape:pageopacity="0.0"
     inkscape:pageshadow="2"
     inkscape:zoom="0.7"
     inkscape:cx="101.34249"
     inkscape:cy="174.40428"
     inkscape:document-units="mm"
     inkscape:current-layer="layer1"
     showgrid="false"
     fit-margin-top="0"
     fit-margin-left="0"
     fit-margin-right="0"
     fit-margin-bottom="0"
     inkscape:window-width="1920"
     inkscape:window-height="996"
     inkscape:window-x="0"
     inkscape:window-y="38"
     inkscape:window-maximized="1"
     showguides="false" />
  <metadata
     id="metadata23870">
    <rdf:RDF>
      <cc:Work
         rdf:about="">
        <dc:format>image/svg+xml</dc:format>
        <dc:type
           rdf:resource="http://purl.org/dc/dcmitype/StillImage" />
        <dc:title></dc:title>
      </cc:Work>
    </rdf:RDF>
  </metadata>
  <g
     inkscape:label="Layer 1"
     inkscape:groupmode="layer"
     id="layer1"
     transform="translate(-189.55032,-189.46547)">
    <g
       id="g25003">
      <g
         style="display:inline;stroke-width:1.25523078"
         transform="matrix(0.39052258,0,0,0.69752156,48.924562,-189.02529)"
         id="g9462">
        <path
           style="fill:#ffffff;fill-opacity:1;stroke:none;stroke-width:3.765692;stroke-linecap:round;stroke-linejoin:round;stroke-miterlimit:4;stroke-dasharray:none;stroke-opacity:1"
           d="m 446.57493,597.67772 c -4.8197,-0.65256 -9.31331,-2.50949 -11.85582,-4.89927 -1.57656,-1.48187 -1.60004,-1.52436 -1.59537,-2.88851 0.006,-1.79875 0.65499,-3.10669 2.38597,-4.80962 1.58847,-1.56274 4.64862,-3.13892 7.44247,-3.83337 2.52473,-0.62755 8.9752,-0.63592 12.14772,-0.0157 4.11834,0.80504 7.59042,2.25253 9.46458,3.94573 3.8361,3.46568 -0.0878,10.34306 -6.92288,12.13372 -1.84032,0.48212 -8.56862,0.7053 -11.06667,0.36708 z"
           id="path9460"
           inkscape:connector-curvature="0" />
        <path
           style="display:inline;fill:#000000;fill-rule:evenodd;stroke:none;stroke-width:4.71727419;stroke-linecap:butt;stroke-linejoin:miter;stroke-miterlimit:4;stroke-dasharray:none;stroke-opacity:1"
           inkscape:path-effect="#path-effect9438"
           inkscape:original-d="m 466.25103,586.30273 c 2.22551,5.90934 -4.37019,12.52253 -12.71906,12.40057 -7.69895,0.62851 -16.63881,-1.4759 -20.63378,-6.68347 -2.51119,-6.05131 5.55973,-11.72937 13.29622,-12.10363 6.55692,-0.47123 13.91467,0.7457 18.59439,4.36255 0.6507,0.59874 1.16931,1.28327 1.46223,2.02398 z"
           id="path9436"
           d="m 467.23052,585.93385 c 1.29398,3.43588 -0.005,6.98338 -2.63937,9.57678 -2.63536,2.5943 -6.6347,4.29056 -11.02375,4.23987 -4.2108,0.33733 -8.62372,-0.12408 -12.44263,-1.32307 -3.84942,-1.20856 -7.04057,-3.14204 -9.05702,-5.77053 a 1.046618,1.0467032 14.982205 0 1 -0.13628,-0.2359 c -0.79553,-1.91702 -0.66221,-3.76639 -0.003,-5.37059 0.65158,-1.58588 1.81312,-2.94024 3.10554,-4.0158 3.02028,-2.51346 6.87618,-3.70452 9.80145,-4.05377 0.41695,-0.0498 0.85007,-0.0876 1.29616,-0.10947 4.50531,-0.32213 13.32922,-0.0334 19.29733,4.57924 a 1.0464112,1.046933 85.173356 0 1 0.0686,0.0579 c 0.68082,0.62646 1.34159,1.43511 1.72684,2.40929 z m -1.9528,0.75378 c -0.22909,-0.5793 -0.64854,-1.12681 -1.16525,-1.60869 -2.63439,-2.02221 -6.05291,-3.14744 -9.25224,-3.70917 -3.22027,-0.5654 -6.26186,-0.57699 -8.59079,-0.40961 a 1.0475899,1.0457089 41.508418 0 1 -0.0245,0.001 c -0.39841,0.0193 -0.78656,0.053 -1.16146,0.0978 -2.6407,0.31526 -6.0802,1.39524 -8.71059,3.58425 -1.12412,0.93549 -2.01682,2.02015 -2.50104,3.19859 -0.45959,1.11853 -0.56285,2.34369 -0.0572,3.65108 1.67963,2.12752 4.41327,3.83611 7.93277,4.94117 3.5533,1.11566 7.72963,1.54972 11.69938,1.22565 a 1.0462641,1.0471159 43.108148 0 1 0.10045,-0.003 c 3.8687,0.0565 7.3428,-1.4401 9.57537,-3.63789 2.22587,-2.19117 3.06802,-4.90675 2.14891,-7.34726 z"
           inkscape:connector-curvature="0" />
      </g>
      <path
         inkscape:original-d="m 224.25422,225.05981 c -0.90002,-0.59307 -0.78231,-1.74487 -0.78944,-2.649 0.0693,-1.03668 0.37265,-2.07767 0.98951,-2.95968 1.05728,-0.27412 1.40742,1.90386 1.56012,2.51393 0.15996,1.35266 0.12603,2.18251 -0.40176,2.8066"
         inkscape:path-effect="#path-effect9442"
         sodipodi:nodetypes="ccccc"
         inkscape:connector-curvature="0"
         id="path9440"
         d="m 224.33322,224.93992 c -0.11097,-0.0731 -0.20957,-0.15028 -0.28347,-0.2444 -0.19748,-0.25152 -0.28469,-0.55571 -0.31584,-0.88054 -0.0438,-0.4563 0.0218,-0.93258 0.0547,-1.40672 l -7.2e-4,0.0241 c 0.12783,-0.90917 0.43017,-1.77917 0.90584,-2.53946 0.008,-0.0138 0.0154,-0.0275 0.0231,-0.0412 0.0413,0.01 0.085,0.0325 0.13632,0.0735 0.14527,0.1163 0.28158,0.33304 0.39795,0.58248 0.18232,0.39086 0.48303,1.4047 0.51247,1.51151 0.20171,1.21138 0.16501,1.61071 0.14935,1.76481 -0.0123,0.12056 -0.0588,0.51807 -0.39102,0.91088 l 0.18134,0.15336 c 0.35188,-0.41608 0.45529,-0.92685 0.4775,-1.01674 0.0381,-0.15416 0.17841,-0.62144 0.0884,-1.89667 0,0 0.002,0.0286 0.002,0.0286 -0.003,-0.0203 -0.005,-0.0405 -0.008,-0.0608 -0.011,-0.0825 -0.11699,-0.95999 -0.36733,-1.65749 -0.10075,-0.28071 -0.25775,-0.63149 -0.50394,-0.88558 -0.22875,-0.23608 -0.58234,-0.43075 -1.04605,-0.32635 -0.0483,0.0109 -0.096,0.0247 -0.14269,0.0412 -0.0349,0.0425 -0.0691,0.0856 -0.10268,0.12918 -0.0538,0.0699 -0.10669,0.14204 -0.15848,0.21659 -0.57685,0.91369 -0.8002,1.96526 -0.80049,2.96885 -7e-5,0.22003 0.0105,0.43994 0.0317,0.65896 -0.002,-0.21195 -0.0132,-0.42371 -0.0324,-0.63481 0.0392,0.43156 0.0513,0.98002 0.17451,1.47558 0.0916,0.36813 0.24526,0.71634 0.51935,0.997 0.10037,0.10277 0.20817,0.20659 0.34045,0.29376 l 0.158,-0.23978 z"
         style="display:inline;fill:#000000;fill-rule:evenodd;stroke:none;stroke-width:0.6008628px;stroke-linecap:butt;stroke-linejoin:miter;stroke-opacity:1" />
      <g
         transform="matrix(-0.28884446,0,0,0.28884446,366.11581,214.6565)"
         id="g9448"
         style="display:inline;stroke-width:1.63752103">
        <path
           style="fill:#000000;fill-opacity:1;stroke:none;stroke-width:5.99334288;stroke-linecap:round;stroke-linejoin:round;stroke-miterlimit:4;stroke-dasharray:none;stroke-opacity:1"
           d="m 435.84522,-11.464801 c -0.45236,0.0759 -0.90225,0.179261 -1.34153,0.31456 -3.75277,1.3349389 -6.28766,4.1956723 -7.72306,7.168662 -1.90607,3.91464721 -2.88833,8.2973715 -1.44997,12.3587384 1.34065,3.8328816 5.52099,6.8217216 10.39411,7.6324456 3.34361,0.667006 7.11591,0.424073 10.09616,-1.125538 2.27502,-1.124605 3.8248,-3.008096 4.54389,-5.0281456 0.96971,-2.6237772 0.81899,-5.3865529 0.53329,-8.0598222 -0.55828,-4.1195323 -2.47108,-8.2395199 -6.19878,-11.1620282 -2.29675,-1.746686 -5.68767,-2.630129 -8.85411,-2.098872 z"
           id="path9450"
           inkscape:connector-curvature="0" />
        <path
           inkscape:connector-curvature="0"
           style="fill:#ffffff;fill-opacity:1;stroke:none;stroke-width:5.4484148;stroke-linecap:round;stroke-linejoin:round;stroke-miterlimit:4;stroke-dasharray:none;stroke-opacity:1"
           d="m 438.64621,-8.6605331 c 1.97598,-0.392536 4.11123,0.349336 5.57103,1.770692 3.26455,5.336169 0.72599,9.425252 -4.0134,9.228183 -3.88448,0.109168 -7.39099,-0.63164 -7.13789,-5.103876 0.86172,-2.364254 2.41324,-4.627282 4.74632,-5.656899 0.27337,-0.1037 0.55166,-0.182026 0.83394,-0.2381 z"
           id="path9452" />
        <path
           inkscape:connector-curvature="0"
           style="fill:#ffffff;fill-opacity:1;stroke:none;stroke-width:5.4484148;stroke-linecap:round;stroke-linejoin:round;stroke-miterlimit:4;stroke-dasharray:none;stroke-opacity:1"
           d="m 445.17092,4.0682939 c 0.63765,-0.2202872 1.34296,-0.1257229 1.77867,0.1716693 0.61748,0.4367862 0.89609,1.0922467 0.93531,1.7640608 0.0119,0.4368732 -0.002,0.8903475 -0.2112,1.3340826 -0.1565,0.3412963 -0.45684,0.6703849 -0.87577,0.8828093 -0.54992,0.2908478 -1.22078,0.3762656 -1.80294,0.3063809 -0.85079,-0.075267 -1.54797,-0.518701 -1.7298,-1.1339506 -0.19586,-0.6517111 0.0414,-1.3849607 0.43541,-2.052492 0.29706,-0.5068081 0.78678,-1.0078268 1.47032,-1.2725603 z"
           id="path9454" />
      </g>
      <path
         inkscape:original-d="m 250.42421,204.03282 c -0.63113,-0.9781 7.01124,-4.77074 7.65955,-5.48524 0.98589,-1.0708 2.24661,-1.83088 3.32003,-2.80586 0.29025,-0.27425 0.56138,-0.34912 0.54018,0.14188 0.55172,0.55276 1.23789,-0.15302 1.79409,-0.36316 0.404,-0.19908 1.06221,-0.73852 0.94071,0.12454 0.14312,1.13085 0.13494,2.30567 -0.28755,3.3809 -0.64992,1.73392 -1.33764,3.45655 -1.83031,5.24417 -0.47315,1.29739 -0.78147,2.64553 -1.22729,3.95139 -0.22359,0.70778 -0.3957,1.47544 -0.8406,2.07925 -0.48783,0.48868 -0.94672,1.175 -1.2954,1.43479"
         inkscape:path-effect="#path-effect9468"
         sodipodi:nodetypes="ccccccccccc"
         inkscape:connector-curvature="0"
         id="path9466"
         d="m 250.91243,203.71779 c 0.069,0.10697 0.0587,0.21099 0.0494,0.24795 -0.005,0.0215 -0.004,2.4e-4 0.0483,-0.0698 0.0159,-0.0214 0.0351,-0.0455 0.0581,-0.0724 0.11633,-0.13603 0.30103,-0.3073 0.55233,-0.5084 0.60437,-0.48362 1.49265,-1.06075 2.44457,-1.64393 0.95102,-0.58263 1.93247,-1.15164 2.73681,-1.63338 0.39858,-0.23873 0.75356,-0.45601 1.03145,-0.63866 0.26416,-0.17364 0.49843,-0.33611 0.64112,-0.49702 0.97271,-1.09481 2.05049,-1.71525 3.23249,-2.82659 0.0636,-0.0702 0.0938,-0.0958 0.12188,-0.12223 0.0277,-0.0261 0.005,-0.004 -0.0722,-0.0161 -0.11066,-0.0175 -0.18775,-0.0966 -0.20533,-0.15429 -0.006,-0.0204 0.0127,-0.0245 0.0145,0.0843 8.3e-4,0.0496 -0.003,0.0992 -0.012,0.14808 0.0375,0.048 0.0784,0.0933 0.12228,0.13563 0.44189,0.42596 0.93725,0.32477 1.30185,0.15872 0.5409,-0.24633 0.47858,-0.31947 0.87696,-0.48003 0,0 0.0188,-0.007 0.0188,-0.007 0,0 0.0105,-0.005 0.0105,-0.005 0.27604,-0.14213 0.44771,-0.27943 0.60222,-0.3207 0.0261,-0.007 0.0217,-0.001 -0.002,-0.005 -0.0331,-0.006 -0.0746,-0.0264 -0.10312,-0.0634 -0.0351,-0.0455 0.005,-0.0389 -0.0274,0.17169 -0.002,0.0116 -0.004,0.0231 -0.006,0.0347 0.002,0.0174 0.003,0.0347 0.005,0.0521 0.11937,1.2531 0.0179,2.29588 -0.36572,3.18136 -0.85253,2.14577 -1.43801,3.52832 -1.95319,5.25761 l 0.0134,-0.042 c 0.40618,-1.02563 -2.01519,5.67961 -1.34876,3.92186 l -0.55245,1.45712 0.54763,-1.44248 c -0.29285,0.77138 -0.33295,0.93687 -0.52577,1.30349 -0.0973,0.185 -0.18849,0.31741 -0.26495,0.41467 -0.24726,0.22636 -0.4326,0.44387 -0.75638,0.83227 -0.1723,0.2067 -0.3551,0.42143 -0.45107,0.49293 l 1.00212,1.34502 c 0.30234,-0.22526 0.63323,-0.64016 0.73997,-0.7702 0.36607,-0.44598 0.43184,-0.53333 0.63026,-0.76221 0.0241,-0.0279 0.0485,-0.0556 0.073,-0.0831 0,0 0.006,-0.009 0.006,-0.009 0.38572,-0.57061 0.47282,-0.93948 0.82439,-2.36011 l -0.005,0.0146 c -0.15789,0.51448 1.08881,-3.92966 1.10582,-3.98092 0,0 0.0116,-0.0349 0.0116,-0.0349 0,0 0.002,-0.007 0.002,-0.007 0.426,-1.68667 0.93766,-3.04818 1.70988,-5.23712 0.38523,-1.06998 0.40989,-2.25245 0.21247,-3.53829 0.0224,-0.20708 0.0147,-0.43422 -0.11135,-0.6004 -0.0793,-0.10463 -0.18825,-0.16283 -0.30074,-0.1826 -0.10257,-0.018 -0.19883,-0.003 -0.27263,0.016 -0.23444,0.0603 -0.59582,0.286 -0.72498,0.34777 -0.15269,0.0683 -0.9021,0.44747 -0.89884,0.44618 -0.17777,0.0705 -0.28795,0.0795 -0.37632,0.038 -0.006,-0.0868 -0.0223,-0.17431 -0.0571,-0.25598 -0.0733,-0.17216 -0.22874,-0.30952 -0.44264,-0.33435 -0.17326,-0.0201 -0.32777,0.0406 -0.42629,0.0908 -0.10842,0.0553 -0.21161,0.13009 -0.3043,0.20895 -0.95825,0.83791 -2.40205,1.72698 -3.39847,2.77627 -0.009,0.0117 -0.18172,0.14174 -0.44376,0.30725 -0.26219,0.16561 -0.60466,0.36893 -1.00438,0.60181 -0.79164,0.46121 -1.80205,1.03482 -2.7642,1.61225 -0.96034,0.57635 -1.90577,1.17584 -2.57664,1.70055 -0.27773,0.21722 -0.52702,0.43584 -0.71382,0.64725 -0.0392,0.0444 -0.0767,0.0898 -0.11181,0.13601 -0.0976,0.12869 -0.19631,0.28973 -0.24459,0.4747 -0.0523,0.20026 -0.0483,0.44866 0.0996,0.67783 l 0.97644,-0.63006 z"
         style="display:inline;fill:#000000;fill-rule:evenodd;stroke:none;stroke-width:0.65512687px;stroke-linecap:butt;stroke-linejoin:miter;stroke-opacity:1" />
      <path
         style="display:inline;fill:none;fill-rule:evenodd;stroke:#000000;stroke-width:0.65512687px;stroke-linecap:butt;stroke-linejoin:miter;stroke-opacity:1"
         d="m 262.27611,198.42279 c 0.41841,-0.10449 0.56388,0.42947 0.523,0.75153 -0.15674,0.69882 -0.67456,1.23863 -0.94323,1.89192 -0.60008,1.25735 -1.06135,2.5869 -1.30291,3.96109 -0.17135,0.77132 -0.88433,2.04071 -1.32906,2.70199"
         id="path9470"
         inkscape:connector-curvature="0"
         sodipodi:nodetypes="ccccc" />
      <path
         style="display:inline;fill:none;fill-rule:evenodd;stroke:#000000;stroke-width:0.98269027;stroke-linecap:butt;stroke-linejoin:miter;stroke-miterlimit:4;stroke-dasharray:none;stroke-opacity:1"
         d="m 241.66105,202.07712 c -2.58202,-2.26709 -5.07456,-6.42803 -8.23447,-7.6054 0.3905,4.45009 0.69902,7.40491 -0.89676,10.94428"
         id="path9476"
         inkscape:connector-curvature="0"
         sodipodi:nodetypes="ccc" />
      <path
         sodipodi:nodetypes="cszczzcccc"
         inkscape:connector-curvature="0"
         id="path24851"
         d="m 225.74391,229.03776 c 1.7292,2.7453 -2.12291,3.582 1.04505,3.1801 3.16795,-0.40191 8.40693,-9.70777 12.92732,0.24639 4.52039,9.95416 -6.23777,11.63959 -11.12051,10.82827 0,0 -0.17936,1.42039 4.79826,2.18658 4.97763,0.7662 3.85536,3.3922 15.07311,2.19187 11.21775,-1.20033 15.00788,-10.44087 15.56463,-17.97116 1.13467,-10.37018 -2.4976,-19.12374 -11.55527,-24.4563 -6.13549,-3.84184 -16.2068,-5.24474 -20.6726,1.07611 -1.32453,1.87866 -3.63264,2.456 -7.12395,8.68669"
         style="fill:none;fill-rule:evenodd;stroke:#000000;stroke-width:1.05833328;stroke-linecap:butt;stroke-linejoin:miter;stroke-miterlimit:4;stroke-dasharray:none;stroke-opacity:1" />
      <path
         inkscape:connector-curvature="0"
         id="path24867"
         d="m 226.55487,232.18619 c -2.30562,1.19671 -2.516,4.6921 -1.16271,6.76996 0.7509,2.14109 2.67836,3.15274 4.46958,4.06744 0.27922,0.15353 0.56048,0.303 0.83554,0.46511"
         style="fill:none;fill-rule:evenodd;stroke:#000000;stroke-width:0.86104393;stroke-linecap:butt;stroke-linejoin:miter;stroke-miterlimit:4;stroke-dasharray:none;stroke-opacity:1" />
      <path
         sodipodi:nodetypes="cc"
         inkscape:connector-curvature="0"
         id="path24883"
         d="m 226.53816,237.80085 c 3.72506,0.86898 4.43349,-3.97156 1.30887,-4.34332"
         style="fill:none;fill-rule:evenodd;stroke:#000000;stroke-width:0.5291667;stroke-linecap:butt;stroke-linejoin:miter;stroke-miterlimit:4;stroke-dasharray:none;stroke-opacity:1" />
      <path
         sodipodi:nodetypes="ccccc"
         inkscape:connector-curvature="0"
         id="rect24889"
         d="m 223.30261,235.36846 0.35239,-1.50459 4.17759,1.34609 -0.19237,0.82065 z"
         style="fill:#ffffff;fill-opacity:1;stroke:#000000;stroke-width:0.31357169;stroke-linecap:round;stroke-linejoin:round;stroke-miterlimit:4;stroke-dasharray:none;stroke-opacity:1" />
      <path
         sodipodi:nodetypes="ccccc"
         inkscape:connector-curvature="0"
         id="path24898"
         d="m 225.50919,212.62912 c -11.56186,-3.04656 -18.9106,-11.94743 -27.68956,-19.04604 l 1.57597,10.70013 -9.14728,-1.04602 c 7.91031,14.42946 24.13474,21.76085 35.17011,30.5985"
         style="fill:none;fill-rule:evenodd;stroke:#000000;stroke-width:0.70659381;stroke-linecap:butt;stroke-linejoin:miter;stroke-miterlimit:4;stroke-dasharray:none;stroke-opacity:1" />
      <path
         sodipodi:nodetypes="cc"
         inkscape:connector-curvature="0"
         id="path24907"
         d="m 198.29391,212.87108 c -0.92578,-1.32754 4.57625,-10.29049 8.29169,-10.60302"
         style="fill:none;fill-rule:evenodd;stroke:#000000;stroke-width:0.50836521;stroke-linecap:butt;stroke-linejoin:miter;stroke-miterlimit:4;stroke-dasharray:none;stroke-opacity:1" />
      <path
         sodipodi:nodetypes="ccccc"
         inkscape:connector-curvature="0"
         id="path24910"
         d="m 270.25599,221.31295 c 15.34959,-5.32847 32.77694,-11.70652 44.23907,-21.54261 l -4.31386,10.26525 8.91647,-0.13918 c -13.15706,17.06416 -29.42978,27.13726 -47.97858,34.498"
         style="fill:none;fill-rule:evenodd;stroke:#000000;stroke-width:0.79374999;stroke-linecap:butt;stroke-linejoin:miter;stroke-miterlimit:4;stroke-dasharray:none;stroke-opacity:1" />
      <path
         style="fill:none;fill-rule:evenodd;stroke:#000000;stroke-width:0.50836521;stroke-linecap:butt;stroke-linejoin:miter;stroke-miterlimit:4;stroke-dasharray:none;stroke-opacity:1"
         d="m 309.96186,219.75023 c 0.92578,-1.32754 -4.57625,-10.29049 -8.29169,-10.60302"
         id="path24913"
         inkscape:connector-curvature="0"
         sodipodi:nodetypes="cc" />
      <path
         sodipodi:nodetypes="cc"
         inkscape:connector-curvature="0"
         id="path24915"
         d="m 254.82149,246.11564 c 24.13641,7.05851 63.72741,8.24131 78.11709,-14.23628"
         style="fill:none;fill-rule:evenodd;stroke:#000000;stroke-width:0.79374999;stroke-linecap:butt;stroke-linejoin:miter;stroke-miterlimit:4;stroke-dasharray:none;stroke-opacity:1" />
      <path
         inkscape:connector-curvature="0"
         id="path24926"
         d="m 220.32469,230.12821 c -3.38531,-0.89632 -6.89601,-0.34763 -10.33953,-0.27914 -2.53037,-0.009 -5.18096,1.22776 -6.42238,3.49318 -0.72297,1.8207 0.92473,3.46589 2.12187,4.62876 1.06631,0.93902 2.34004,1.66554 3.76008,1.87224 -1.31016,-0.87313 -2.90295,0.46623 -4.12656,1.02595 -1.36263,0.75021 -3.36583,2.55724 -1.89138,4.12385 1.65779,1.39258 3.86028,2.2154 6.04323,1.99484 0.8911,-0.0752 1.04988,-0.21927 0.18281,0.26348 -1.61171,1.24488 -3.6116,2.47223 -3.99297,4.65016 -0.32617,1.4166 0.41964,2.97503 1.59565,3.7586 1.83024,0.73745 3.82104,0.003 5.58357,-0.59611 2.29367,-1.15071 4.52169,-2.44921 6.49112,-4.10713 1.05464,-0.69469 -0.41741,1.08166 -0.52324,1.56974 -0.8926,1.54956 1.31798,2.22473 2.48623,2.04555 1.97025,-0.29702 4.01013,-1.60179 4.58924,-3.5925 1.40877,0.8728 3.01369,0.12453 4.10277,-0.90293 1.15408,-1.05459 2.71309,-1.84972 3.1956,-3.42429 0.39126,-0.60565 -0.22987,-1.52747 -0.17365,-0.31814 -0.0801,0.27276 -0.21335,0.52783 -0.37707,0.75933"
         style="fill:none;fill-rule:evenodd;stroke:#000000;stroke-width:0.5291667;stroke-linecap:butt;stroke-linejoin:miter;stroke-miterlimit:4;stroke-dasharray:none;stroke-opacity:1" />
      <path
         sodipodi:nodetypes="cc"
         inkscape:connector-curvature="0"
         id="path24928"
         d="m 213.73394,243.74834 c -0.15856,-0.89672 8.34806,-5.31234 10.49981,-3.20363"
         style="fill:none;fill-rule:evenodd;stroke:#000000;stroke-width:0.26458332px;stroke-linecap:butt;stroke-linejoin:miter;stroke-opacity:1" />
      <path
         sodipodi:nodetypes="cccccccccccccc"
         inkscape:connector-curvature="0"
         id="path24930"
         d="m 228.78543,250.99273 c -1.27871,0.54523 -1.16203,2.21701 -1.41522,3.38746 -0.37212,2.16648 1.29179,4.15225 3.2903,4.75995 1.6034,0.54642 3.35299,0.70247 5.01643,0.36792 -1.24394,2.37318 -0.78604,5.29182 0.50916,7.54102 1.25512,2.11298 4.25141,2.04428 6.18772,1.00387 1.35615,-0.75196 2.70061,-1.82901 3.26767,-3.31572 1.55289,1.43373 3.924,0.9519 5.6688,0.15767 1.55525,-0.57023 2.30572,-2.314 1.96755,-3.87435 0.11438,-0.89368 -1.70875,-2.80497 0.0341,-1.93424 1.6444,0.48375 3.34632,-0.34569 4.3398,-1.66371 0.97441,-1.16856 0.91313,-2.98253 0.0728,-4.2 1.11573,0.21137 2.36981,-0.227 3.06432,-1.21214 0.78021,-0.88955 2.30975,-3.38449 0.94774,-4.02996"
         style="fill:none;fill-rule:evenodd;stroke:#000000;stroke-width:0.5291667;stroke-linecap:butt;stroke-linejoin:miter;stroke-miterlimit:4;stroke-dasharray:none;stroke-opacity:1" />
      <path
         sodipodi:nodetypes="cc"
         inkscape:connector-curvature="0"
         id="path24932"
         d="m 245.20998,248.82803 c -1.14434,2.2185 -2.56861,8.61364 -2.49286,10.85273"
         style="fill:none;fill-rule:evenodd;stroke:#000000;stroke-width:0.26458332px;stroke-linecap:butt;stroke-linejoin:miter;stroke-opacity:1" />
      <path
         sodipodi:nodetypes="cccccccccccccc"
         inkscape:connector-curvature="0"
         id="path24934"
         d="m 258.41763,256.27406 c -0.48349,1.69917 0.47805,3.39463 1.42458,4.74545 1.8406,2.28016 4.36836,4.00866 7.09737,5.04628 1.92157,0.76208 4.25139,0.43094 5.72416,-1.075 1.20756,-0.5363 1.49824,-3.27812 2.96891,-2.29885 1.39675,0.46814 3.14275,0.84557 4.3404,-0.28461 1.63201,-1.22178 1.85644,-3.80626 0.70145,-5.4161 1.64066,1.66091 3.90741,2.83785 6.26015,3.00868 1.15675,0.35798 2.67627,-1.12122 2.57444,-1.69254 -0.52218,2.363 -0.66595,5.27184 1.33651,7.01288 1.41926,1.26523 3.89119,1.03852 4.90783,-0.62703 1.29699,-1.95127 0.94726,-4.5123 0.35167,-6.64661 -0.21116,-1.52294 -1.59646,-2.73493 -1.56587,-4.22597 0.56155,-1.31912 -0.29295,-3.85159 -1.82682,-2.94471"
         style="fill:none;fill-rule:evenodd;stroke:#000000;stroke-width:0.5291667;stroke-linecap:butt;stroke-linejoin:miter;stroke-miterlimit:4;stroke-dasharray:none;stroke-opacity:1" />
      <path
         sodipodi:nodetypes="cc"
         inkscape:connector-curvature="0"
         id="path24936"
         d="m 273.0494,251.03146 c -1.42353,2.37205 -1.93751,6.67698 -0.47679,8.0183"
         style="fill:none;fill-rule:evenodd;stroke:#000000;stroke-width:0.26458332px;stroke-linecap:butt;stroke-linejoin:miter;stroke-opacity:1" />
      <path
         sodipodi:nodetypes="czc"
         inkscape:connector-curvature="0"
         id="path24946"
         d="m 260.93164,209.40491 c 5.32408,0.77908 56.92419,-34.36652 76.61208,-12.19394 19.68789,22.17257 14.0934,42.96374 14.0934,42.96374"
         style="fill:none;fill-rule:evenodd;stroke:#000000;stroke-width:0.79374999;stroke-linecap:butt;stroke-linejoin:miter;stroke-miterlimit:4;stroke-dasharray:none;stroke-opacity:1" />
      <path
         sodipodi:nodetypes="czcccc"
         inkscape:connector-curvature="0"
         id="path24950"
         d="m 328.82513,237.34999 c 2.74772,9.65958 7.09897,17.39975 17.80238,14.91378 10.70341,-2.48597 26.16132,-9.66405 33.2584,-19.34632 -2.75342,-0.17979 -5.02713,-0.58927 -7.79292,-0.78858 l 2.89179,-7.03983 c -5.70375,3.7409 -17.37957,4.69365 -22.62947,6.86493"
         style="fill:none;fill-rule:evenodd;stroke:#000000;stroke-width:0.79374999;stroke-linecap:butt;stroke-linejoin:miter;stroke-miterlimit:4;stroke-dasharray:none;stroke-opacity:1" />
      <path
         sodipodi:nodetypes="ccc"
         inkscape:connector-curvature="0"
         id="path24962"
         d="m 321.50764,242.76447 c 0.21595,2.94741 4.16561,6.54505 6.45156,6.81064 1.58839,0.17104 5.83317,-1.30531 5.40201,-1.92071"
         style="fill:none;fill-rule:evenodd;stroke:#000000;stroke-width:0.79374999;stroke-linecap:butt;stroke-linejoin:miter;stroke-miterlimit:4;stroke-dasharray:none;stroke-opacity:1" />
      <path
         sodipodi:nodetypes="ccccc"
         inkscape:connector-curvature="0"
         id="path24964"
         d="m 350.65851,220.81099 c 4.70305,-3.41182 10.38845,-6.71467 14.83258,-10.02158 l -1.31576,6.50559 5.50208,-0.35032 c -1.5567,4.51498 -5.05977,8.31423 -6.94552,12.4073"
         style="fill:none;fill-rule:evenodd;stroke:#000000;stroke-width:0.79374999;stroke-linecap:butt;stroke-linejoin:miter;stroke-miterlimit:4;stroke-dasharray:none;stroke-opacity:1" />
      <path
         sodipodi:nodetypes="cc"
         inkscape:connector-curvature="0"
         id="path24966"
         d="m 367.23521,228.7368 c -1.23767,3.50285 0.66527,10.34226 3.75407,12.17479"
         style="fill:none;fill-rule:evenodd;stroke:#000000;stroke-width:0.26458332px;stroke-linecap:butt;stroke-linejoin:miter;stroke-opacity:1" />
      <path
         style="fill:none;fill-rule:evenodd;stroke:#000000;stroke-width:0.23805094px;stroke-linecap:butt;stroke-linejoin:miter;stroke-opacity:1"
         d="m 357.60363,215.61514 c 0.59328,3.28946 5.12804,7.78763 8.35889,7.84381"
         id="path24971"
         inkscape:connector-curvature="0"
         sodipodi:nodetypes="cc" />
      <path
         inkscape:connector-curvature="0"
         id="path24976"
         d="m 296.11826,257.55201 c 1.7161,1.70362 3.04943,4.15855 5.71712,4.79705 2.83861,1.24697 6.32213,-1.01116 7.01976,-3.84511 -1.50454,3.4132 2.56327,2.71357 3.56575,0.60261 0.80926,-0.49407 1.55093,-3.37205 1.86473,-0.98624 0.53208,2.19952 2.48706,6.64567 4.73928,3.16339 1.48112,-0.67469 1.42843,-4.79496 2.84106,-2.80102 1.55089,-1.8068 0.63221,-4.63024 -0.60544,-6.40082 -1.61789,-2.33639 -3.68099,-4.72826 -6.54691,-5.43157 -0.18221,0.15121 0.1173,0.4681 0.27461,0.50857"
         style="fill:none;fill-rule:evenodd;stroke:#000000;stroke-width:0.5291667;stroke-linecap:butt;stroke-linejoin:miter;stroke-miterlimit:4;stroke-dasharray:none;stroke-opacity:1" />
      <path
         sodipodi:nodetypes="cccccccc"
         inkscape:connector-curvature="0"
         id="path24978"
         d="m 322.82124,257.26512 c 0.32718,2.05951 2.13747,3.65674 3.7783,4.8265 2.15291,1.57985 5.11316,0.69393 6.65361,-1.31414 1.1776,-1.03183 2.22874,-4.19556 3.0461,-1.20678 1.35918,3.23667 3.55222,0.36032 4.58027,-0.99322 1.15,2.53138 4.70674,4.11124 6.733,1.63918 1.36676,-0.63791 1.77587,-5.11771 2.68924,-2.38407 2.45448,0.28418 -0.0767,-5.06583 -1.82017,-5.62554"
         style="fill:none;fill-rule:evenodd;stroke:#000000;stroke-width:0.5291667;stroke-linecap:butt;stroke-linejoin:miter;stroke-miterlimit:4;stroke-dasharray:none;stroke-opacity:1" />
      <path
         sodipodi:nodetypes="cccccc"
         inkscape:connector-curvature="0"
         id="path24980"
         d="m 351.45835,256.82175 c 1.62864,1.84225 4.18848,1.19313 6.11614,0.18015 1.93125,-0.0731 2.55725,-4.06682 2.18231,-3.49542 1.99744,2.66593 6.79857,0.41313 5.77361,-2.84602 -0.15247,-1.0993 -1.66366,-1.16309 -0.0393,-0.81528 1.94384,-1.31878 0.36836,-4.03842 -1.6477,-4.01644"
         style="fill:none;fill-rule:evenodd;stroke:#000000;stroke-width:0.5291667;stroke-linecap:butt;stroke-linejoin:miter;stroke-miterlimit:4;stroke-dasharray:none;stroke-opacity:1" />
      <path
         style="fill:none;fill-rule:evenodd;stroke:#000000;stroke-width:0.21347944px;stroke-linecap:butt;stroke-linejoin:miter;stroke-opacity:1"
         d="m 309.265,249.50642 c 1.14858,1.91389 1.56329,5.38732 0.3847,6.46957"
         id="path24990"
         inkscape:connector-curvature="0"
         sodipodi:nodetypes="cc" />
      <path
         sodipodi:nodetypes="cc"
         inkscape:connector-curvature="0"
         id="path24992"
         d="m 333.45548,249.69541 c 0.0325,1.72788 3.09851,6.02117 3.78649,7.41451"
         style="fill:none;fill-rule:evenodd;stroke:#000000;stroke-width:0.21347944px;stroke-linecap:butt;stroke-linejoin:miter;stroke-opacity:1" />
      <path
         sodipodi:nodetypes="ccccccccccccccccscc"
         inkscape:connector-curvature="0"
         id="path24994"
         transform="matrix(0.26458333,0,0,0.26458333,74.343034,174.77958)"
         d="m 588.25391,284.58789 c -4.11621,3.88331 -10.18138,6.71088 -15.50586,3.41211 -2.18877,7.52394 -9.89909,12.45554 -17.34571,13.57812 -4.41543,0.67722 -12.77009,-1.87386 -9.39648,-7.73046 0.39999,-1.84472 5.9626,-8.5592 1.97656,-5.9336 -7.44351,6.26616 -15.86421,11.1743 -24.5332,15.52344 -6.66153,2.26435 -14.18607,5.03917 -21.10352,2.25195 -4.44476,-2.96152 -7.26206,-8.85101 -6.02929,-14.20507 1.44139,-8.23155 8.99834,-12.87112 15.08984,-17.57618 3.27711,-1.82456 2.67848,-1.27836 -0.68945,-0.99414 -8.25052,0.83362 -16.57614,-2.27772 -22.8418,-7.54101 -5.57272,-5.92105 1.99834,-12.7505 7.14844,-15.58594 3.36896,-1.54108 7.47747,-4.63104 11.375,-4.92773 -3.68587,-1.28316 -7.04751,-3.43567 -9.98828,-6.0254 -1.44653,-1.40511 -3.06552,-2.99842 -4.51172,-4.73828 -36.03835,14.97875 -55.23436,32.31527 -55.38672,50.02149 -3e-5,52.02698 160.98077,94.20317 359.56055,94.20312 198.57903,-2.3e-4 359.55863,-42.17634 359.55863,-94.20312 0,0 -15.9416,-26.68893 -28.4881,-35.00036"
         style="fill:none;fill-opacity:1;stroke:#000000;stroke-width:2.16521215;stroke-linecap:round;stroke-linejoin:round;stroke-miterlimit:4;stroke-dasharray:none;stroke-opacity:1" />
    </g>
  </g>
</svg>
